<?xml version="1.0" encoding="UTF-8" standalone="no"?><svg xmlns="http://www.w3.org/2000/svg" xmlns:xlink="http://www.w3.org/1999/xlink" contentStyleType="text/css" height="1026px" preserveAspectRatio="none" style="width:1174px;height:1026px;background:#FFFFFF;" version="1.1" viewBox="0 0 1174 1026" width="1174px" zoomAndPan="magnify"><defs/><g><rect fill="#FFFFFF" height="897.0547" style="stroke:#181818;stroke-width:1.0;" width="10" x="49" y="65.2188"/><rect fill="#FFFFFF" height="859.7031" style="stroke:#181818;stroke-width:1.0;" width="10" x="290" y="87.5703"/><rect fill="#FFFFFF" height="801" style="stroke:#181818;stroke-width:1.0;" width="10" x="447" y="162.2734"/><rect fill="#FFFFFF" height="14" style="stroke:#181818;stroke-width:1.0;" width="10" x="540" y="458.7344"/><rect fill="#FFFFFF" height="681.9453" style="stroke:#181818;stroke-width:1.0;" width="10" x="638" y="281.3281"/><rect fill="#FFFFFF" height="14" style="stroke:#181818;stroke-width:1.0;" width="10" x="800" y="400.3828"/><rect fill="#FFFFFF" height="14" style="stroke:#181818;stroke-width:1.0;" width="10" x="800" y="577.7891"/><rect fill="#FFFFFF" height="14" style="stroke:#181818;stroke-width:1.0;" width="10" x="800" y="647.4922"/><rect fill="#FFFFFF" height="14" style="stroke:#181818;stroke-width:1.0;" width="10" x="800" y="736.1953"/><rect fill="#FFFFFF" height="14" style="stroke:#181818;stroke-width:1.0;" width="10" x="800" y="817.3828"/><rect fill="#FFFFFF" height="14" style="stroke:#181818;stroke-width:1.0;" width="10" x="998" y="356.0313"/><rect fill="#FFFFFF" height="14" style="stroke:#181818;stroke-width:1.0;" width="10" x="998" y="533.4375"/><rect fill="#FFFFFF" height="14" style="stroke:#181818;stroke-width:1.0;" width="10" x="998" y="691.8438"/><rect fill="#FFFFFF" height="14" style="stroke:#181818;stroke-width:1.0;" width="10" x="1106" y="117.9219"/><rect fill="#FFFFFF" height="14" style="stroke:#181818;stroke-width:1.0;" width="10" x="1106" y="192.625"/><rect fill="#FFFFFF" height="14" style="stroke:#181818;stroke-width:1.0;" width="10" x="1106" y="236.9766"/><rect fill="#FFFFFF" height="14" style="stroke:#181818;stroke-width:1.0;" width="10" x="1106" y="311.6797"/><rect fill="none" height="167.2422" style="stroke:#000000;stroke-width:1.5;" width="469.5" x="584" y="606.7891"/><rect fill="none" height="94.8906" style="stroke:#000000;stroke-width:1.5;" width="341" x="10" y="860.3828"/><line style="stroke:#181818;stroke-width:0.5;stroke-dasharray:5.0,5.0;" x1="54" x2="54" y1="55.2188" y2="972.2734"/><line style="stroke:#181818;stroke-width:0.5;stroke-dasharray:5.0,5.0;" x1="295" x2="295" y1="55.2188" y2="972.2734"/><line style="stroke:#181818;stroke-width:0.5;stroke-dasharray:5.0,5.0;" x1="452" x2="452" y1="55.2188" y2="972.2734"/><line style="stroke:#181818;stroke-width:0.5;stroke-dasharray:5.0,5.0;" x1="545" x2="545" y1="55.2188" y2="972.2734"/><line style="stroke:#181818;stroke-width:0.5;stroke-dasharray:5.0,5.0;" x1="643" x2="643" y1="55.2188" y2="972.2734"/><line style="stroke:#181818;stroke-width:0.5;stroke-dasharray:5.0,5.0;" x1="804.5" x2="804.5" y1="55.2188" y2="972.2734"/><line style="stroke:#181818;stroke-width:0.5;stroke-dasharray:5.0,5.0;" x1="903.5" x2="903.5" y1="55.2188" y2="972.2734"/><line style="stroke:#181818;stroke-width:0.5;stroke-dasharray:5.0,5.0;" x1="1002.5" x2="1002.5" y1="55.2188" y2="972.2734"/><line style="stroke:#181818;stroke-width:0.5;stroke-dasharray:5.0,5.0;" x1="1110.5" x2="1110.5" y1="55.2188" y2="972.2734"/><rect fill="#E2E2F0" height="49.2188" rx="2.5" ry="2.5" style="stroke:#181818;stroke-width:0.5;" width="68" x="20" y="5"/><text fill="#000000" font-family="sans-serif" font-size="14" font-style="italic" lengthAdjust="spacing" textLength="54" x="27" y="26.5332">«Route»</text><text fill="#000000" font-family="sans-serif" font-size="14" lengthAdjust="spacing" textLength="34" x="37" y="44.1426">Robo</text><rect fill="#E2E2F0" height="49.2188" rx="2.5" ry="2.5" style="stroke:#181818;stroke-width:0.5;" width="68" x="20" y="971.2734"/><text fill="#000000" font-family="sans-serif" font-size="14" font-style="italic" lengthAdjust="spacing" textLength="54" x="27" y="992.8066">«Route»</text><text fill="#000000" font-family="sans-serif" font-size="14" lengthAdjust="spacing" textLength="34" x="37" y="1010.416">Robo</text><rect fill="#E2E2F0" height="49.2188" rx="2.5" ry="2.5" style="stroke:#181818;stroke-width:0.5;" width="92" x="249" y="5"/><text fill="#000000" font-family="sans-serif" font-size="14" font-style="italic" lengthAdjust="spacing" textLength="78" x="256" y="26.5332">«Controller»</text><text fill="#000000" font-family="sans-serif" font-size="14" lengthAdjust="spacing" textLength="34" x="278" y="44.1426">Robo</text><rect fill="#E2E2F0" height="49.2188" rx="2.5" ry="2.5" style="stroke:#181818;stroke-width:0.5;" width="92" x="249" y="971.2734"/><text fill="#000000" font-family="sans-serif" font-size="14" font-style="italic" lengthAdjust="spacing" textLength="78" x="256" y="992.8066">«Controller»</text><text fill="#000000" font-family="sans-serif" font-size="14" lengthAdjust="spacing" textLength="34" x="278" y="1010.416">Robo</text><rect fill="#E2E2F0" height="49.2188" rx="2.5" ry="2.5" style="stroke:#181818;stroke-width:0.5;" width="76" x="414" y="5"/><text fill="#000000" font-family="sans-serif" font-size="14" font-style="italic" lengthAdjust="spacing" textLength="62" x="421" y="26.5332">«Service»</text><text fill="#000000" font-family="sans-serif" font-size="14" lengthAdjust="spacing" textLength="34" x="435" y="44.1426">Robo</text><rect fill="#E2E2F0" height="49.2188" rx="2.5" ry="2.5" style="stroke:#181818;stroke-width:0.5;" width="76" x="414" y="971.2734"/><text fill="#000000" font-family="sans-serif" font-size="14" font-style="italic" lengthAdjust="spacing" textLength="62" x="421" y="992.8066">«Service»</text><text fill="#000000" font-family="sans-serif" font-size="14" lengthAdjust="spacing" textLength="34" x="435" y="1010.416">Robo</text><rect fill="#E2E2F0" height="49.2188" rx="2.5" ry="2.5" style="stroke:#181818;stroke-width:0.5;" width="78" x="506" y="5"/><text fill="#000000" font-family="sans-serif" font-size="14" font-style="italic" lengthAdjust="spacing" textLength="64" x="513" y="26.5332">«Domain»</text><text fill="#000000" font-family="sans-serif" font-size="14" lengthAdjust="spacing" textLength="34" x="528" y="44.1426">Robo</text><rect fill="#E2E2F0" height="49.2188" rx="2.5" ry="2.5" style="stroke:#181818;stroke-width:0.5;" width="78" x="506" y="971.2734"/><text fill="#000000" font-family="sans-serif" font-size="14" font-style="italic" lengthAdjust="spacing" textLength="64" x="513" y="992.8066">«Domain»</text><text fill="#000000" font-family="sans-serif" font-size="14" lengthAdjust="spacing" textLength="34" x="528" y="1010.416">Robo</text><rect fill="#E2E2F0" height="49.2188" rx="2.5" ry="2.5" style="stroke:#181818;stroke-width:0.5;" width="98" x="594" y="5"/><text fill="#000000" font-family="sans-serif" font-size="14" font-style="italic" lengthAdjust="spacing" textLength="84" x="601" y="26.5332">«Repository»</text><text fill="#000000" font-family="sans-serif" font-size="14" lengthAdjust="spacing" textLength="34" x="626" y="44.1426">Robo</text><rect fill="#E2E2F0" height="49.2188" rx="2.5" ry="2.5" style="stroke:#181818;stroke-width:0.5;" width="98" x="594" y="971.2734"/><text fill="#000000" font-family="sans-serif" font-size="14" font-style="italic" lengthAdjust="spacing" textLength="84" x="601" y="992.8066">«Repository»</text><text fill="#000000" font-family="sans-serif" font-size="14" lengthAdjust="spacing" textLength="34" x="626" y="1010.416">Robo</text><rect fill="#E2E2F0" height="49.2188" rx="2.5" ry="2.5" style="stroke:#181818;stroke-width:0.5;" width="79" x="765.5" y="5"/><text fill="#000000" font-family="sans-serif" font-size="14" font-style="italic" lengthAdjust="spacing" textLength="65" x="772.5" y="26.5332">«Mapper»</text><text fill="#000000" font-family="sans-serif" font-size="14" lengthAdjust="spacing" textLength="34" x="788" y="44.1426">Robo</text><rect fill="#E2E2F0" height="49.2188" rx="2.5" ry="2.5" style="stroke:#181818;stroke-width:0.5;" width="79" x="765.5" y="971.2734"/><text fill="#000000" font-family="sans-serif" font-size="14" font-style="italic" lengthAdjust="spacing" textLength="65" x="772.5" y="992.8066">«Mapper»</text><text fill="#000000" font-family="sans-serif" font-size="14" lengthAdjust="spacing" textLength="34" x="788" y="1010.416">Robo</text><rect fill="#E2E2F0" height="49.2188" rx="2.5" ry="2.5" style="stroke:#181818;stroke-width:0.5;" width="98" x="854.5" y="5"/><text fill="#000000" font-family="sans-serif" font-size="14" font-style="italic" lengthAdjust="spacing" textLength="84" x="861.5" y="26.5332">«Repository»</text><text fill="#000000" font-family="sans-serif" font-size="14" lengthAdjust="spacing" textLength="62" x="872.5" y="44.1426">TipoRobo</text><rect fill="#E2E2F0" height="49.2188" rx="2.5" ry="2.5" style="stroke:#181818;stroke-width:0.5;" width="98" x="854.5" y="971.2734"/><text fill="#000000" font-family="sans-serif" font-size="14" font-style="italic" lengthAdjust="spacing" textLength="84" x="861.5" y="992.8066">«Repository»</text><text fill="#000000" font-family="sans-serif" font-size="14" lengthAdjust="spacing" textLength="62" x="872.5" y="1010.416">TipoRobo</text><rect fill="#E2E2F0" height="49.2188" rx="2.5" ry="2.5" style="stroke:#181818;stroke-width:0.5;" width="81" x="962.5" y="5"/><text fill="#000000" font-family="sans-serif" font-size="14" font-style="italic" lengthAdjust="spacing" textLength="67" x="969.5" y="26.5332">«Schema»</text><text fill="#000000" font-family="sans-serif" font-size="14" lengthAdjust="spacing" textLength="34" x="986" y="44.1426">Robo</text><rect fill="#E2E2F0" height="49.2188" rx="2.5" ry="2.5" style="stroke:#181818;stroke-width:0.5;" width="81" x="962.5" y="971.2734"/><text fill="#000000" font-family="sans-serif" font-size="14" font-style="italic" lengthAdjust="spacing" textLength="67" x="969.5" y="992.8066">«Schema»</text><text fill="#000000" font-family="sans-serif" font-size="14" lengthAdjust="spacing" textLength="34" x="986" y="1010.416">Robo</text><rect fill="#E2E2F0" height="49.2188" rx="2.5" ry="2.5" style="stroke:#181818;stroke-width:0.5;" width="115" x="1053.5" y="5"/><text fill="#000000" font-family="sans-serif" font-size="14" font-style="italic" lengthAdjust="spacing" textLength="101" x="1060.5" y="26.5332">«Configuration»</text><text fill="#000000" font-family="sans-serif" font-size="14" lengthAdjust="spacing" textLength="23" x="1099.5" y="44.1426">File</text><rect fill="#E2E2F0" height="49.2188" rx="2.5" ry="2.5" style="stroke:#181818;stroke-width:0.5;" width="115" x="1053.5" y="971.2734"/><text fill="#000000" font-family="sans-serif" font-size="14" font-style="italic" lengthAdjust="spacing" textLength="101" x="1060.5" y="992.8066">«Configuration»</text><text fill="#000000" font-family="sans-serif" font-size="14" lengthAdjust="spacing" textLength="23" x="1099.5" y="1010.416">File</text><rect fill="#FFFFFF" height="897.0547" style="stroke:#181818;stroke-width:1.0;" width="10" x="49" y="65.2188"/><rect fill="#FFFFFF" height="859.7031" style="stroke:#181818;stroke-width:1.0;" width="10" x="290" y="87.5703"/><rect fill="#FFFFFF" height="801" style="stroke:#181818;stroke-width:1.0;" width="10" x="447" y="162.2734"/><rect fill="#FFFFFF" height="14" style="stroke:#181818;stroke-width:1.0;" width="10" x="540" y="458.7344"/><rect fill="#FFFFFF" height="681.9453" style="stroke:#181818;stroke-width:1.0;" width="10" x="638" y="281.3281"/><rect fill="#FFFFFF" height="14" style="stroke:#181818;stroke-width:1.0;" width="10" x="800" y="400.3828"/><rect fill="#FFFFFF" height="14" style="stroke:#181818;stroke-width:1.0;" width="10" x="800" y="577.7891"/><rect fill="#FFFFFF" height="14" style="stroke:#181818;stroke-width:1.0;" width="10" x="800" y="647.4922"/><rect fill="#FFFFFF" height="14" style="stroke:#181818;stroke-width:1.0;" width="10" x="800" y="736.1953"/><rect fill="#FFFFFF" height="14" style="stroke:#181818;stroke-width:1.0;" width="10" x="800" y="817.3828"/><rect fill="#FFFFFF" height="14" style="stroke:#181818;stroke-width:1.0;" width="10" x="998" y="356.0313"/><rect fill="#FFFFFF" height="14" style="stroke:#181818;stroke-width:1.0;" width="10" x="998" y="533.4375"/><rect fill="#FFFFFF" height="14" style="stroke:#181818;stroke-width:1.0;" width="10" x="998" y="691.8438"/><rect fill="#FFFFFF" height="14" style="stroke:#181818;stroke-width:1.0;" width="10" x="1106" y="117.9219"/><rect fill="#FFFFFF" height="14" style="stroke:#181818;stroke-width:1.0;" width="10" x="1106" y="192.625"/><rect fill="#FFFFFF" height="14" style="stroke:#181818;stroke-width:1.0;" width="10" x="1106" y="236.9766"/><rect fill="#FFFFFF" height="14" style="stroke:#181818;stroke-width:1.0;" width="10" x="1106" y="311.6797"/><polygon fill="#181818" points="278,83.5703,288,87.5703,278,91.5703,282,87.5703" style="stroke:#181818;stroke-width:1.0;"/><line style="stroke:#181818;stroke-width:1.0;" x1="59" x2="284" y1="87.5703" y2="87.5703"/><text fill="#000000" font-family="sans-serif" font-size="13" lengthAdjust="spacing" textLength="149" x="66" y="82.7139">inhibitRobo(req, res, next)</text><polygon fill="#181818" points="1094,113.9219,1104,117.9219,1094,121.9219,1098,117.9219" style="stroke:#181818;stroke-width:1.0;"/><line style="stroke:#181818;stroke-width:1.0;" x1="300" x2="1100" y1="117.9219" y2="117.9219"/><text fill="#000000" font-family="sans-serif" font-size="13" lengthAdjust="spacing" textLength="133" x="307" y="113.0654">injeta o serviço do robo</text><polygon fill="#181818" points="311,127.9219,301,131.9219,311,135.9219,307,131.9219" style="stroke:#181818;stroke-width:1.0;"/><line style="stroke:#181818;stroke-width:1.0;stroke-dasharray:2.0,2.0;" x1="305" x2="1110" y1="131.9219" y2="131.9219"/><polygon fill="#181818" points="435,158.2734,445,162.2734,435,166.2734,439,162.2734" style="stroke:#181818;stroke-width:1.0;"/><line style="stroke:#181818;stroke-width:1.0;" x1="300" x2="441" y1="162.2734" y2="162.2734"/><text fill="#000000" font-family="sans-serif" font-size="13" lengthAdjust="spacing" textLength="128" x="307" y="157.417">inhibitRobo(RoboDTO)</text><polygon fill="#181818" points="1094,188.625,1104,192.625,1094,196.625,1098,192.625" style="stroke:#181818;stroke-width:1.0;"/><line style="stroke:#181818;stroke-width:1.0;" x1="457" x2="1100" y1="192.625" y2="192.625"/><text fill="#000000" font-family="sans-serif" font-size="13" lengthAdjust="spacing" textLength="153" x="464" y="187.7686">injeta o repositório do robô</text><polygon fill="#181818" points="468,202.625,458,206.625,468,210.625,464,206.625" style="stroke:#181818;stroke-width:1.0;"/><line style="stroke:#181818;stroke-width:1.0;stroke-dasharray:2.0,2.0;" x1="462" x2="1110" y1="206.625" y2="206.625"/><polygon fill="#181818" points="1094,232.9766,1104,236.9766,1094,240.9766,1098,236.9766" style="stroke:#181818;stroke-width:1.0;"/><line style="stroke:#181818;stroke-width:1.0;" x1="457" x2="1100" y1="236.9766" y2="236.9766"/><text fill="#000000" font-family="sans-serif" font-size="13" lengthAdjust="spacing" textLength="196" x="464" y="232.1201">injeta o repositório do tipo de robô</text><polygon fill="#181818" points="468,246.9766,458,250.9766,468,254.9766,464,250.9766" style="stroke:#181818;stroke-width:1.0;"/><line style="stroke:#181818;stroke-width:1.0;stroke-dasharray:2.0,2.0;" x1="462" x2="1110" y1="250.9766" y2="250.9766"/><polygon fill="#181818" points="626,277.3281,636,281.3281,626,285.3281,630,281.3281" style="stroke:#181818;stroke-width:1.0;"/><line style="stroke:#181818;stroke-width:1.0;" x1="457" x2="632" y1="281.3281" y2="281.3281"/><text fill="#000000" font-family="sans-serif" font-size="13" lengthAdjust="spacing" textLength="122" x="464" y="276.4717">findByCodigo(codigo)</text><polygon fill="#181818" points="1094,307.6797,1104,311.6797,1094,315.6797,1098,311.6797" style="stroke:#181818;stroke-width:1.0;"/><line style="stroke:#181818;stroke-width:1.0;" x1="648" x2="1100" y1="311.6797" y2="311.6797"/><text fill="#000000" font-family="sans-serif" font-size="13" lengthAdjust="spacing" textLength="139" x="655" y="306.8232">injeta o schema do robo</text><polygon fill="#181818" points="659,321.6797,649,325.6797,659,329.6797,655,325.6797" style="stroke:#181818;stroke-width:1.0;"/><line style="stroke:#181818;stroke-width:1.0;stroke-dasharray:2.0,2.0;" x1="653" x2="1110" y1="325.6797" y2="325.6797"/><polygon fill="#181818" points="986,352.0313,996,356.0313,986,360.0313,990,356.0313" style="stroke:#181818;stroke-width:1.0;"/><line style="stroke:#181818;stroke-width:1.0;" x1="648" x2="992" y1="356.0313" y2="356.0313"/><text fill="#000000" font-family="sans-serif" font-size="13" lengthAdjust="spacing" textLength="84" x="655" y="351.1748">findOne(query)</text><polygon fill="#181818" points="659,366.0313,649,370.0313,659,374.0313,655,370.0313" style="stroke:#181818;stroke-width:1.0;"/><line style="stroke:#181818;stroke-width:1.0;stroke-dasharray:2.0,2.0;" x1="653" x2="1002" y1="370.0313" y2="370.0313"/><polygon fill="#181818" points="788,396.3828,798,400.3828,788,404.3828,792,400.3828" style="stroke:#181818;stroke-width:1.0;"/><line style="stroke:#181818;stroke-width:1.0;" x1="648" x2="794" y1="400.3828" y2="400.3828"/><text fill="#000000" font-family="sans-serif" font-size="13" lengthAdjust="spacing" textLength="129" x="655" y="395.5264">toDomain(roboRecord)</text><polygon fill="#181818" points="659,410.3828,649,414.3828,659,418.3828,655,414.3828" style="stroke:#181818;stroke-width:1.0;"/><line style="stroke:#181818;stroke-width:1.0;stroke-dasharray:2.0,2.0;" x1="653" x2="804" y1="414.3828" y2="414.3828"/><polygon fill="#181818" points="468,424.3828,458,428.3828,468,432.3828,464,428.3828" style="stroke:#181818;stroke-width:1.0;"/><line style="stroke:#181818;stroke-width:1.0;stroke-dasharray:2.0,2.0;" x1="462" x2="637" y1="428.3828" y2="428.3828"/><polygon fill="#181818" points="528,454.7344,538,458.7344,528,462.7344,532,458.7344" style="stroke:#181818;stroke-width:1.0;"/><line style="stroke:#181818;stroke-width:1.0;" x1="457" x2="534" y1="458.7344" y2="458.7344"/><text fill="#000000" font-family="sans-serif" font-size="13" lengthAdjust="spacing" textLength="64" x="464" y="453.8779">robo.inibir()</text><polygon fill="#181818" points="468,468.7344,458,472.7344,468,476.7344,464,472.7344" style="stroke:#181818;stroke-width:1.0;"/><line style="stroke:#181818;stroke-width:1.0;stroke-dasharray:2.0,2.0;" x1="462" x2="544" y1="472.7344" y2="472.7344"/><polygon fill="#181818" points="626,499.0859,636,503.0859,626,507.0859,630,503.0859" style="stroke:#181818;stroke-width:1.0;"/><line style="stroke:#181818;stroke-width:1.0;" x1="457" x2="632" y1="503.0859" y2="503.0859"/><text fill="#000000" font-family="sans-serif" font-size="13" lengthAdjust="spacing" textLength="59" x="464" y="498.2295">save(robo)</text><polygon fill="#181818" points="986,529.4375,996,533.4375,986,537.4375,990,533.4375" style="stroke:#181818;stroke-width:1.0;"/><line style="stroke:#181818;stroke-width:1.0;" x1="648" x2="992" y1="533.4375" y2="533.4375"/><text fill="#000000" font-family="sans-serif" font-size="13" lengthAdjust="spacing" textLength="84" x="655" y="528.5811">findOne(query)</text><polygon fill="#181818" points="659,543.4375,649,547.4375,659,551.4375,655,547.4375" style="stroke:#181818;stroke-width:1.0;"/><line style="stroke:#181818;stroke-width:1.0;stroke-dasharray:2.0,2.0;" x1="653" x2="1002" y1="547.4375" y2="547.4375"/><polygon fill="#181818" points="788,573.7891,798,577.7891,788,581.7891,792,577.7891" style="stroke:#181818;stroke-width:1.0;"/><line style="stroke:#181818;stroke-width:1.0;" x1="648" x2="794" y1="577.7891" y2="577.7891"/><text fill="#000000" font-family="sans-serif" font-size="13" lengthAdjust="spacing" textLength="129" x="655" y="572.9326">toDomain(roboRecord)</text><polygon fill="#181818" points="659,587.7891,649,591.7891,659,595.7891,655,591.7891" style="stroke:#181818;stroke-width:1.0;"/><line style="stroke:#181818;stroke-width:1.0;stroke-dasharray:2.0,2.0;" x1="653" x2="804" y1="591.7891" y2="591.7891"/><path d="M584,606.7891 L645,606.7891 L645,615.1406 L635,625.1406 L584,625.1406 L584,606.7891 " fill="#EEEEEE" style="stroke:#000000;stroke-width:1.5;"/><rect fill="none" height="167.2422" style="stroke:#000000;stroke-width:1.5;" width="469.5" x="584" y="606.7891"/><text fill="#000000" font-family="sans-serif" font-size="13" font-weight="bold" lengthAdjust="spacing" textLength="16" x="599" y="621.2842">alt</text><text fill="#000000" font-family="sans-serif" font-size="11" font-weight="bold" lengthAdjust="spacing" textLength="57" x="660" y="620.208">[cria robo]</text><polygon fill="#181818" points="788,643.4922,798,647.4922,788,651.4922,792,647.4922" style="stroke:#181818;stroke-width:1.0;"/><line style="stroke:#181818;stroke-width:1.0;" x1="648" x2="794" y1="647.4922" y2="647.4922"/><text fill="#000000" font-family="sans-serif" font-size="13" lengthAdjust="spacing" textLength="113" x="655" y="642.6357">toPersistence(robo)</text><polygon fill="#181818" points="659,657.4922,649,661.4922,659,665.4922,655,661.4922" style="stroke:#181818;stroke-width:1.0;"/><line style="stroke:#181818;stroke-width:1.0;stroke-dasharray:2.0,2.0;" x1="653" x2="804" y1="661.4922" y2="661.4922"/><polygon fill="#181818" points="986,687.8438,996,691.8438,986,695.8438,990,691.8438" style="stroke:#181818;stroke-width:1.0;"/><line style="stroke:#181818;stroke-width:1.0;" x1="648" x2="992" y1="691.8438" y2="691.8438"/><text fill="#000000" font-family="sans-serif" font-size="13" lengthAdjust="spacing" textLength="94" x="655" y="686.9873">create(rawRobo)</text><polygon fill="#181818" points="659,701.8438,649,705.8438,659,709.8438,655,705.8438" style="stroke:#181818;stroke-width:1.0;"/><line style="stroke:#181818;stroke-width:1.0;stroke-dasharray:2.0,2.0;" x1="653" x2="1002" y1="705.8438" y2="705.8438"/><polygon fill="#181818" points="788,732.1953,798,736.1953,788,740.1953,792,736.1953" style="stroke:#181818;stroke-width:1.0;"/><line style="stroke:#181818;stroke-width:1.0;" x1="648" x2="794" y1="736.1953" y2="736.1953"/><text fill="#000000" font-family="sans-serif" font-size="13" lengthAdjust="spacing" textLength="133" x="655" y="731.3389">toDomain(roboCreated)</text><polygon fill="#181818" points="659,746.1953,649,750.1953,659,754.1953,655,750.1953" style="stroke:#181818;stroke-width:1.0;"/><line style="stroke:#181818;stroke-width:1.0;stroke-dasharray:2.0,2.0;" x1="653" x2="804" y1="750.1953" y2="750.1953"/><line style="stroke:#000000;stroke-width:1.0;stroke-dasharray:2.0,2.0;" x1="584" x2="1053.5" y1="759.1953" y2="759.1953"/><text fill="#000000" font-family="sans-serif" font-size="11" font-weight="bold" lengthAdjust="spacing" textLength="78" x="589" y="770.6143">[atualiza robo]</text><polygon fill="#181818" points="468,783.0313,458,787.0313,468,791.0313,464,787.0313" style="stroke:#181818;stroke-width:1.0;"/><line style="stroke:#181818;stroke-width:1.0;stroke-dasharray:2.0,2.0;" x1="462" x2="637" y1="787.0313" y2="787.0313"/><polygon fill="#181818" points="788,813.3828,798,817.3828,788,821.3828,792,817.3828" style="stroke:#181818;stroke-width:1.0;"/><line style="stroke:#181818;stroke-width:1.0;" x1="457" x2="794" y1="817.3828" y2="817.3828"/><text fill="#000000" font-family="sans-serif" font-size="13" lengthAdjust="spacing" textLength="45" x="464" y="812.5264">toDTO()</text><polygon fill="#181818" points="468,827.3828,458,831.3828,468,835.3828,464,831.3828" style="stroke:#181818;stroke-width:1.0;"/><line style="stroke:#181818;stroke-width:1.0;stroke-dasharray:2.0,2.0;" x1="462" x2="804" y1="831.3828" y2="831.3828"/><polygon fill="#181818" points="311,841.3828,301,845.3828,311,849.3828,307,845.3828" style="stroke:#181818;stroke-width:1.0;"/><line style="stroke:#181818;stroke-width:1.0;stroke-dasharray:2.0,2.0;" x1="305" x2="446" y1="845.3828" y2="845.3828"/><path d="M10,860.3828 L71,860.3828 L71,868.7344 L61,878.7344 L10,878.7344 L10,860.3828 " fill="#EEEEEE" style="stroke:#000000;stroke-width:1.5;"/><rect fill="none" height="94.8906" style="stroke:#000000;stroke-width:1.5;" width="341" x="10" y="860.3828"/><text fill="#000000" font-family="sans-serif" font-size="13" font-weight="bold" lengthAdjust="spacing" textLength="16" x="25" y="874.8779">alt</text><text fill="#000000" font-family="sans-serif" font-size="11" font-weight="bold" lengthAdjust="spacing" textLength="102" x="86" y="873.8018">[caso de sucesso]</text><polygon fill="#181818" points="70,897.0859,60,901.0859,70,905.0859,66,901.0859" style="stroke:#181818;stroke-width:1.0;"/><line style="stroke:#181818;stroke-width:1.0;stroke-dasharray:2.0,2.0;" x1="64" x2="289" y1="901.0859" y2="901.0859"/><text fill="#000000" font-family="sans-serif" font-size="13" lengthAdjust="spacing" textLength="175" x="76" y="896.2295">Envia um código 201 (PATCH)</text><line style="stroke:#000000;stroke-width:1.0;stroke-dasharray:2.0,2.0;" x1="10" x2="351" y1="910.0859" y2="910.0859"/><text fill="#000000" font-family="sans-serif" font-size="11" font-weight="bold" lengthAdjust="spacing" textLength="112" x="15" y="921.5049">[caso de insucesso]</text><polygon fill="#181818" points="70,943.2734,60,947.2734,70,951.2734,66,947.2734" style="stroke:#181818;stroke-width:1.0;"/><line style="stroke:#181818;stroke-width:1.0;stroke-dasharray:2.0,2.0;" x1="64" x2="294" y1="947.2734" y2="947.2734"/><text fill="#000000" font-family="sans-serif" font-size="13" lengthAdjust="spacing" textLength="207" x="76" y="942.417">Envia um código 404 (NOT FOUND)</text><!--MD5=[2538190523714d449ec6593ec2939f70]
@startuml vp3

participant Robo as route <<Route>>
participant Robo as ctrl <<Controller>>
participant Robo as service  <<Service>>
participant Robo as domain <<Domain>>
participant Robo as repo <<Repository>>
participant Robo as mapper <<Mapper>>
participant TipoRobo as tiporepo <<Repository>>
participant Robo as schema <<Schema>>
participant File as cf <<Configuration>>

activate route
route -> ctrl++: inhibitRobo(req, res, next)
ctrl -> cf++: injeta o serviço do robo
cf - -> ctrl: 
deactivate cf
ctrl -> service++: inhibitRobo(RoboDTO)
service -> cf++: injeta o repositório do robô
cf - -> service:
deactivate cf
service -> cf++: injeta o repositório do tipo de robô
cf - -> service:
deactivate cf
service -> repo++: findByCodigo(codigo) 
repo -> cf++: injeta o schema do robo
cf - -> repo:
deactivate cf
repo -> schema++: findOne(query)
schema - -> repo: 
deactivate schema
repo -> mapper++: toDomain(roboRecord)
mapper - -> repo: 
deactivate mapper
repo - -> service: 
service -> domain++: robo.inibir()
domain - -> service:
deactivate domain
service -> repo: save(robo)
repo -> schema++: findOne(query)
schema - -> repo: 
deactivate schema
repo -> mapper++: toDomain(roboRecord)
mapper - -> repo: 
deactivate mapper
alt cria robo
repo -> mapper : toPersistence(robo)
mapper++
mapper - -> repo
mapper- -
repo -> schema++ : create(rawRobo)
schema - -> repo
deactivate schema
repo -> mapper : toDomain(roboCreated)
mapper++
mapper - -> repo
mapper- -
else atualiza robo
end
repo - -> service:
service -> mapper++: toDTO()
mapper - -> service:
deactivate mapper
service - -> ctrl:

alt caso de sucesso
    ctrl - -> route : Envia um código 201 (PATCH)
else caso de insucesso
    ctrl - -> route : Envia um código 404 (NOT FOUND)
    ctrl- -
end

deactivate route 
@enduml

PlantUML version 1.2022.7(Mon Aug 22 18:01:30 WEST 2022)
(GPL source distribution)
Java Runtime: Java(TM) SE Runtime Environment
JVM: Java HotSpot(TM) 64-Bit Server VM
Default Encoding: Cp1252
Language: en
Country: US
--></g></svg>