<?xml version="1.0" encoding="UTF-8" standalone="no"?><svg xmlns="http://www.w3.org/2000/svg" xmlns:xlink="http://www.w3.org/1999/xlink" contentStyleType="text/css" height="854px" preserveAspectRatio="none" style="width:1990px;height:854px;background:#FFFFFF;" version="1.1" viewBox="0 0 1990 854" width="1990px" zoomAndPan="magnify"><defs/><g><rect fill="#FFFFFF" height="752.1641" style="stroke:#181818;stroke-width:1.0;" width="10" x="26" y="47.6094"/><rect fill="#FFFFFF" height="729.8125" style="stroke:#181818;stroke-width:1.0;" width="10" x="155.5" y="69.9609"/><rect fill="#FFFFFF" height="693.4609" style="stroke:#181818;stroke-width:1.0;" width="10" x="396.5" y="100.3125"/><rect fill="#FFFFFF" height="501.8672" style="stroke:#181818;stroke-width:1.0;" width="10" x="596.5" y="175.0156"/><rect fill="#FFFFFF" height="457.5156" style="stroke:#181818;stroke-width:1.0;" width="10" x="796.5" y="205.3672"/><rect fill="#FFFFFF" height="280.1094" style="stroke:#181818;stroke-width:1.0;" width="10" x="969.5" y="324.4219"/><rect fill="#FFFFFF" height="235.7578" style="stroke:#181818;stroke-width:1.0;" width="10" x="1111" y="354.7734"/><rect fill="#FFFFFF" height="14" style="stroke:#181818;stroke-width:1.0;" width="10" x="1295" y="429.4766"/><rect fill="#FFFFFF" height="14" style="stroke:#181818;stroke-width:1.0;" width="10" x="1295" y="562.5313"/><rect fill="#FFFFFF" height="14" style="stroke:#181818;stroke-width:1.0;" width="10" x="1295" y="634.8828"/><rect fill="#FFFFFF" height="58.3516" style="stroke:#181818;stroke-width:1.0;" width="10" x="1463.5" y="473.8281"/><rect fill="#FFFFFF" height="14" style="stroke:#181818;stroke-width:1.0;" width="10" x="1633.5" y="504.1797"/><rect fill="#FFFFFF" height="14" style="stroke:#181818;stroke-width:1.0;" width="10" x="1765" y="130.6641"/><rect fill="#FFFFFF" height="14" style="stroke:#181818;stroke-width:1.0;" width="10" x="1765" y="235.7188"/><rect fill="#FFFFFF" height="14" style="stroke:#181818;stroke-width:1.0;" width="10" x="1765" y="385.125"/><rect fill="#FFFFFF" height="14" style="stroke:#181818;stroke-width:1.0;" width="10" x="1871" y="280.0703"/><rect fill="none" height="94.8906" style="stroke:#000000;stroke-width:1.5;" width="420.5" x="57" y="691.8828"/><line style="stroke:#181818;stroke-width:0.5;stroke-dasharray:5.0,5.0;" x1="31" x2="31" y1="37.6094" y2="817.7734"/><line style="stroke:#181818;stroke-width:0.5;stroke-dasharray:5.0,5.0;" x1="160" x2="160" y1="37.6094" y2="817.7734"/><line style="stroke:#181818;stroke-width:0.5;stroke-dasharray:5.0,5.0;" x1="401.5" x2="401.5" y1="37.6094" y2="817.7734"/><line style="stroke:#181818;stroke-width:0.5;stroke-dasharray:5.0,5.0;" x1="601.5" x2="601.5" y1="37.6094" y2="817.7734"/><line style="stroke:#181818;stroke-width:0.5;stroke-dasharray:5.0,5.0;" x1="801" x2="801" y1="37.6094" y2="817.7734"/><line style="stroke:#181818;stroke-width:0.5;stroke-dasharray:5.0,5.0;" x1="974" x2="974" y1="37.6094" y2="817.7734"/><line style="stroke:#181818;stroke-width:0.5;stroke-dasharray:5.0,5.0;" x1="1116" x2="1116" y1="37.6094" y2="817.7734"/><line style="stroke:#181818;stroke-width:0.5;stroke-dasharray:5.0,5.0;" x1="1300" x2="1300" y1="37.6094" y2="817.7734"/><line style="stroke:#181818;stroke-width:0.5;stroke-dasharray:5.0,5.0;" x1="1468" x2="1468" y1="37.6094" y2="817.7734"/><line style="stroke:#181818;stroke-width:0.5;stroke-dasharray:5.0,5.0;" x1="1638" x2="1638" y1="37.6094" y2="817.7734"/><line style="stroke:#181818;stroke-width:0.5;stroke-dasharray:5.0,5.0;" x1="1770" x2="1770" y1="37.6094" y2="817.7734"/><line style="stroke:#181818;stroke-width:0.5;stroke-dasharray:5.0,5.0;" x1="1876" x2="1876" y1="37.6094" y2="817.7734"/><line style="stroke:#181818;stroke-width:0.5;stroke-dasharray:5.0,5.0;" x1="1952" x2="1952" y1="37.6094" y2="817.7734"/><rect fill="#E2E2F0" height="31.6094" rx="2.5" ry="2.5" style="stroke:#181818;stroke-width:0.5;" width="52" x="5" y="5"/><text fill="#000000" font-family="sans-serif" font-size="14" lengthAdjust="spacing" textLength="38" x="12" y="26.5332">Route</text><rect fill="#E2E2F0" height="31.6094" rx="2.5" ry="2.5" style="stroke:#181818;stroke-width:0.5;" width="52" x="5" y="816.7734"/><text fill="#000000" font-family="sans-serif" font-size="14" lengthAdjust="spacing" textLength="38" x="12" y="838.3066">Route</text><rect fill="#E2E2F0" height="31.6094" rx="2.5" ry="2.5" style="stroke:#181818;stroke-width:0.5;" width="187" x="67" y="5"/><text fill="#000000" font-family="sans-serif" font-size="14" lengthAdjust="spacing" textLength="173" x="74" y="26.5332">InterfaceElevadorController</text><rect fill="#E2E2F0" height="31.6094" rx="2.5" ry="2.5" style="stroke:#181818;stroke-width:0.5;" width="187" x="67" y="816.7734"/><text fill="#000000" font-family="sans-serif" font-size="14" lengthAdjust="spacing" textLength="173" x="74" y="838.3066">InterfaceElevadorController</text><rect fill="#E2E2F0" height="31.6094" rx="2.5" ry="2.5" style="stroke:#181818;stroke-width:0.5;" width="132" x="335.5" y="5"/><text fill="#000000" font-family="sans-serif" font-size="14" lengthAdjust="spacing" textLength="118" x="342.5" y="26.5332">ElevadorController</text><rect fill="#E2E2F0" height="31.6094" rx="2.5" ry="2.5" style="stroke:#181818;stroke-width:0.5;" width="132" x="335.5" y="816.7734"/><text fill="#000000" font-family="sans-serif" font-size="14" lengthAdjust="spacing" textLength="118" x="342.5" y="838.3066">ElevadorController</text><rect fill="#E2E2F0" height="31.6094" rx="2.5" ry="2.5" style="stroke:#181818;stroke-width:0.5;" width="172" x="515.5" y="5"/><text fill="#000000" font-family="sans-serif" font-size="14" lengthAdjust="spacing" textLength="158" x="522.5" y="26.5332">InterfaceElevadorService</text><rect fill="#E2E2F0" height="31.6094" rx="2.5" ry="2.5" style="stroke:#181818;stroke-width:0.5;" width="172" x="515.5" y="816.7734"/><text fill="#000000" font-family="sans-serif" font-size="14" lengthAdjust="spacing" textLength="158" x="522.5" y="838.3066">InterfaceElevadorService</text><rect fill="#E2E2F0" height="31.6094" rx="2.5" ry="2.5" style="stroke:#181818;stroke-width:0.5;" width="117" x="743" y="5"/><text fill="#000000" font-family="sans-serif" font-size="14" lengthAdjust="spacing" textLength="103" x="750" y="26.5332">ElevadorService</text><rect fill="#E2E2F0" height="31.6094" rx="2.5" ry="2.5" style="stroke:#181818;stroke-width:0.5;" width="117" x="743" y="816.7734"/><text fill="#000000" font-family="sans-serif" font-size="14" lengthAdjust="spacing" textLength="103" x="750" y="838.3066">ElevadorService</text><rect fill="#E2E2F0" height="31.6094" rx="2.5" ry="2.5" style="stroke:#181818;stroke-width:0.5;" width="159" x="895" y="5"/><text fill="#000000" font-family="sans-serif" font-size="14" lengthAdjust="spacing" textLength="145" x="902" y="26.5332">InterfaceElevadorRepo</text><rect fill="#E2E2F0" height="31.6094" rx="2.5" ry="2.5" style="stroke:#181818;stroke-width:0.5;" width="159" x="895" y="816.7734"/><text fill="#000000" font-family="sans-serif" font-size="14" lengthAdjust="spacing" textLength="145" x="902" y="838.3066">InterfaceElevadorRepo</text><rect fill="#E2E2F0" height="31.6094" rx="2.5" ry="2.5" style="stroke:#181818;stroke-width:0.5;" width="104" x="1064" y="5"/><text fill="#000000" font-family="sans-serif" font-size="14" lengthAdjust="spacing" textLength="90" x="1071" y="26.5332">ElevadorRepo</text><rect fill="#E2E2F0" height="31.6094" rx="2.5" ry="2.5" style="stroke:#181818;stroke-width:0.5;" width="104" x="1064" y="816.7734"/><text fill="#000000" font-family="sans-serif" font-size="14" lengthAdjust="spacing" textLength="90" x="1071" y="838.3066">ElevadorRepo</text><rect fill="#E2E2F0" height="31.6094" rx="2.5" ry="2.5" style="stroke:#181818;stroke-width:0.5;" width="118" x="1241" y="5"/><text fill="#000000" font-family="sans-serif" font-size="14" lengthAdjust="spacing" textLength="104" x="1248" y="26.5332">ElevadorMapper</text><rect fill="#E2E2F0" height="31.6094" rx="2.5" ry="2.5" style="stroke:#181818;stroke-width:0.5;" width="118" x="1241" y="816.7734"/><text fill="#000000" font-family="sans-serif" font-size="14" lengthAdjust="spacing" textLength="104" x="1248" y="838.3066">ElevadorMapper</text><rect fill="#E2E2F0" height="31.6094" rx="2.5" ry="2.5" style="stroke:#181818;stroke-width:0.5;" width="199" x="1369" y="5"/><text fill="#000000" font-family="sans-serif" font-size="14" lengthAdjust="spacing" textLength="185" x="1376" y="26.5332">InterfaceElevadorPersistence</text><rect fill="#E2E2F0" height="31.6094" rx="2.5" ry="2.5" style="stroke:#181818;stroke-width:0.5;" width="199" x="1369" y="816.7734"/><text fill="#000000" font-family="sans-serif" font-size="14" lengthAdjust="spacing" textLength="185" x="1376" y="838.3066">InterfaceElevadorPersistence</text><rect fill="#E2E2F0" height="31.6094" rx="2.5" ry="2.5" style="stroke:#181818;stroke-width:0.5;" width="121" x="1578" y="5"/><text fill="#000000" font-family="sans-serif" font-size="14" lengthAdjust="spacing" textLength="107" x="1585" y="26.5332">ElevadorSchema</text><rect fill="#E2E2F0" height="31.6094" rx="2.5" ry="2.5" style="stroke:#181818;stroke-width:0.5;" width="121" x="1578" y="816.7734"/><text fill="#000000" font-family="sans-serif" font-size="14" lengthAdjust="spacing" textLength="107" x="1585" y="838.3066">ElevadorSchema</text><rect fill="#E2E2F0" height="31.6094" rx="2.5" ry="2.5" style="stroke:#181818;stroke-width:0.5;" width="122" x="1709" y="5"/><text fill="#000000" font-family="sans-serif" font-size="14" lengthAdjust="spacing" textLength="108" x="1716" y="26.5332">ConfigurationFile</text><rect fill="#E2E2F0" height="31.6094" rx="2.5" ry="2.5" style="stroke:#181818;stroke-width:0.5;" width="122" x="1709" y="816.7734"/><text fill="#000000" font-family="sans-serif" font-size="14" lengthAdjust="spacing" textLength="108" x="1716" y="838.3066">ConfigurationFile</text><rect fill="#E2E2F0" height="31.6094" rx="2.5" ry="2.5" style="stroke:#181818;stroke-width:0.5;" width="70" x="1841" y="5"/><text fill="#000000" font-family="sans-serif" font-size="14" lengthAdjust="spacing" textLength="56" x="1848" y="26.5332">Elevador</text><rect fill="#E2E2F0" height="31.6094" rx="2.5" ry="2.5" style="stroke:#181818;stroke-width:0.5;" width="70" x="1841" y="816.7734"/><text fill="#000000" font-family="sans-serif" font-size="14" lengthAdjust="spacing" textLength="56" x="1848" y="838.3066">Elevador</text><rect fill="#E2E2F0" height="31.6094" rx="2.5" ry="2.5" style="stroke:#181818;stroke-width:0.5;" width="63" x="1921" y="5"/><text fill="#000000" font-family="sans-serif" font-size="14" lengthAdjust="spacing" textLength="49" x="1928" y="26.5332">scheam</text><rect fill="#E2E2F0" height="31.6094" rx="2.5" ry="2.5" style="stroke:#181818;stroke-width:0.5;" width="63" x="1921" y="816.7734"/><text fill="#000000" font-family="sans-serif" font-size="14" lengthAdjust="spacing" textLength="49" x="1928" y="838.3066">scheam</text><rect fill="#FFFFFF" height="752.1641" style="stroke:#181818;stroke-width:1.0;" width="10" x="26" y="47.6094"/><rect fill="#FFFFFF" height="729.8125" style="stroke:#181818;stroke-width:1.0;" width="10" x="155.5" y="69.9609"/><rect fill="#FFFFFF" height="693.4609" style="stroke:#181818;stroke-width:1.0;" width="10" x="396.5" y="100.3125"/><rect fill="#FFFFFF" height="501.8672" style="stroke:#181818;stroke-width:1.0;" width="10" x="596.5" y="175.0156"/><rect fill="#FFFFFF" height="457.5156" style="stroke:#181818;stroke-width:1.0;" width="10" x="796.5" y="205.3672"/><rect fill="#FFFFFF" height="280.1094" style="stroke:#181818;stroke-width:1.0;" width="10" x="969.5" y="324.4219"/><rect fill="#FFFFFF" height="235.7578" style="stroke:#181818;stroke-width:1.0;" width="10" x="1111" y="354.7734"/><rect fill="#FFFFFF" height="14" style="stroke:#181818;stroke-width:1.0;" width="10" x="1295" y="429.4766"/><rect fill="#FFFFFF" height="14" style="stroke:#181818;stroke-width:1.0;" width="10" x="1295" y="562.5313"/><rect fill="#FFFFFF" height="14" style="stroke:#181818;stroke-width:1.0;" width="10" x="1295" y="634.8828"/><rect fill="#FFFFFF" height="58.3516" style="stroke:#181818;stroke-width:1.0;" width="10" x="1463.5" y="473.8281"/><rect fill="#FFFFFF" height="14" style="stroke:#181818;stroke-width:1.0;" width="10" x="1633.5" y="504.1797"/><rect fill="#FFFFFF" height="14" style="stroke:#181818;stroke-width:1.0;" width="10" x="1765" y="130.6641"/><rect fill="#FFFFFF" height="14" style="stroke:#181818;stroke-width:1.0;" width="10" x="1765" y="235.7188"/><rect fill="#FFFFFF" height="14" style="stroke:#181818;stroke-width:1.0;" width="10" x="1765" y="385.125"/><rect fill="#FFFFFF" height="14" style="stroke:#181818;stroke-width:1.0;" width="10" x="1871" y="280.0703"/><polygon fill="#181818" points="143.5,65.9609,153.5,69.9609,143.5,73.9609,147.5,69.9609" style="stroke:#181818;stroke-width:1.0;"/><line style="stroke:#181818;stroke-width:1.0;" x1="36" x2="149.5" y1="69.9609" y2="69.9609"/><text fill="#000000" font-family="sans-serif" font-size="13" lengthAdjust="spacing" textLength="76" x="43" y="65.1045">criar elevador</text><polygon fill="#181818" points="384.5,96.3125,394.5,100.3125,384.5,104.3125,388.5,100.3125" style="stroke:#181818;stroke-width:1.0;"/><line style="stroke:#181818;stroke-width:1.0;" x1="165.5" x2="390.5" y1="100.3125" y2="100.3125"/><text fill="#000000" font-family="sans-serif" font-size="13" lengthAdjust="spacing" textLength="170" x="172.5" y="95.4561">createElevador(req, res, next)</text><polygon fill="#181818" points="1753,126.6641,1763,130.6641,1753,134.6641,1757,130.6641" style="stroke:#181818;stroke-width:1.0;"/><line style="stroke:#181818;stroke-width:1.0;" x1="406.5" x2="1759" y1="130.6641" y2="130.6641"/><text fill="#000000" font-family="sans-serif" font-size="13" lengthAdjust="spacing" textLength="155" x="413.5" y="125.8076">injeta o serviço do elevador</text><polygon fill="#181818" points="417.5,140.6641,407.5,144.6641,417.5,148.6641,413.5,144.6641" style="stroke:#181818;stroke-width:1.0;"/><line style="stroke:#181818;stroke-width:1.0;stroke-dasharray:2.0,2.0;" x1="411.5" x2="1769" y1="144.6641" y2="144.6641"/><polygon fill="#181818" points="584.5,171.0156,594.5,175.0156,584.5,179.0156,588.5,175.0156" style="stroke:#181818;stroke-width:1.0;"/><line style="stroke:#181818;stroke-width:1.0;" x1="406.5" x2="590.5" y1="175.0156" y2="175.0156"/><text fill="#000000" font-family="sans-serif" font-size="13" lengthAdjust="spacing" textLength="171" x="413.5" y="170.1592">createElevador(IElevadorDTO)</text><polygon fill="#181818" points="784.5,201.3672,794.5,205.3672,784.5,209.3672,788.5,205.3672" style="stroke:#181818;stroke-width:1.0;"/><line style="stroke:#181818;stroke-width:1.0;" x1="606.5" x2="790.5" y1="205.3672" y2="205.3672"/><text fill="#000000" font-family="sans-serif" font-size="13" lengthAdjust="spacing" textLength="171" x="613.5" y="200.5107">createElevador(IElevadorDTO)</text><polygon fill="#181818" points="1753,231.7188,1763,235.7188,1753,239.7188,1757,235.7188" style="stroke:#181818;stroke-width:1.0;"/><line style="stroke:#181818;stroke-width:1.0;" x1="806.5" x2="1759" y1="235.7188" y2="235.7188"/><text fill="#000000" font-family="sans-serif" font-size="13" lengthAdjust="spacing" textLength="175" x="813.5" y="230.8623">injeta o repositório do elevador</text><polygon fill="#181818" points="817.5,245.7188,807.5,249.7188,817.5,253.7188,813.5,249.7188" style="stroke:#181818;stroke-width:1.0;"/><line style="stroke:#181818;stroke-width:1.0;stroke-dasharray:2.0,2.0;" x1="811.5" x2="1769" y1="249.7188" y2="249.7188"/><polygon fill="#181818" points="1859,276.0703,1869,280.0703,1859,284.0703,1863,280.0703" style="stroke:#181818;stroke-width:1.0;"/><line style="stroke:#181818;stroke-width:1.0;" x1="806.5" x2="1865" y1="280.0703" y2="280.0703"/><text fill="#000000" font-family="sans-serif" font-size="13" lengthAdjust="spacing" textLength="180" x="813.5" y="275.2139">elevador = create(elevadorDTO)</text><polygon fill="#181818" points="817.5,290.0703,807.5,294.0703,817.5,298.0703,813.5,294.0703" style="stroke:#181818;stroke-width:1.0;"/><line style="stroke:#181818;stroke-width:1.0;stroke-dasharray:2.0,2.0;" x1="811.5" x2="1875" y1="294.0703" y2="294.0703"/><polygon fill="#181818" points="957.5,320.4219,967.5,324.4219,957.5,328.4219,961.5,324.4219" style="stroke:#181818;stroke-width:1.0;"/><line style="stroke:#181818;stroke-width:1.0;" x1="806.5" x2="963.5" y1="324.4219" y2="324.4219"/><text fill="#000000" font-family="sans-serif" font-size="13" lengthAdjust="spacing" textLength="144" x="813.5" y="319.5654">elevador = save(elevador)</text><polygon fill="#181818" points="1099,350.7734,1109,354.7734,1099,358.7734,1103,354.7734" style="stroke:#181818;stroke-width:1.0;"/><line style="stroke:#181818;stroke-width:1.0;" x1="979.5" x2="1105" y1="354.7734" y2="354.7734"/><text fill="#000000" font-family="sans-serif" font-size="13" lengthAdjust="spacing" textLength="81" x="986.5" y="349.917">save(elevador)</text><polygon fill="#181818" points="1753,381.125,1763,385.125,1753,389.125,1757,385.125" style="stroke:#181818;stroke-width:1.0;"/><line style="stroke:#181818;stroke-width:1.0;" x1="1121" x2="1759" y1="385.125" y2="385.125"/><text fill="#000000" font-family="sans-serif" font-size="13" lengthAdjust="spacing" textLength="161" x="1128" y="380.2686">injeta o schema do elevador</text><polygon fill="#181818" points="1132,395.125,1122,399.125,1132,403.125,1128,399.125" style="stroke:#181818;stroke-width:1.0;"/><line style="stroke:#181818;stroke-width:1.0;stroke-dasharray:2.0,2.0;" x1="1126" x2="1769" y1="399.125" y2="399.125"/><polygon fill="#181818" points="1283,425.4766,1293,429.4766,1283,433.4766,1287,429.4766" style="stroke:#181818;stroke-width:1.0;"/><line style="stroke:#181818;stroke-width:1.0;" x1="1121" x2="1289" y1="429.4766" y2="429.4766"/><text fill="#000000" font-family="sans-serif" font-size="13" lengthAdjust="spacing" textLength="135" x="1128" y="424.6201">toPersistence(elevador)</text><polygon fill="#181818" points="1132,439.4766,1122,443.4766,1132,447.4766,1128,443.4766" style="stroke:#181818;stroke-width:1.0;"/><line style="stroke:#181818;stroke-width:1.0;stroke-dasharray:2.0,2.0;" x1="1126" x2="1299" y1="443.4766" y2="443.4766"/><polygon fill="#181818" points="1451.5,469.8281,1461.5,473.8281,1451.5,477.8281,1455.5,473.8281" style="stroke:#181818;stroke-width:1.0;"/><line style="stroke:#181818;stroke-width:1.0;" x1="1121" x2="1457.5" y1="473.8281" y2="473.8281"/><text fill="#000000" font-family="sans-serif" font-size="13" lengthAdjust="spacing" textLength="136" x="1128" y="468.9717">create(elevadorCreated)</text><polygon fill="#181818" points="1621.5,500.1797,1631.5,504.1797,1621.5,508.1797,1625.5,504.1797" style="stroke:#181818;stroke-width:1.0;"/><line style="stroke:#181818;stroke-width:1.0;" x1="1473.5" x2="1627.5" y1="504.1797" y2="504.1797"/><text fill="#000000" font-family="sans-serif" font-size="13" lengthAdjust="spacing" textLength="136" x="1480.5" y="499.3232">create(elevadorCreated)</text><polygon fill="#181818" points="1484.5,514.1797,1474.5,518.1797,1484.5,522.1797,1480.5,518.1797" style="stroke:#181818;stroke-width:1.0;"/><line style="stroke:#181818;stroke-width:1.0;stroke-dasharray:2.0,2.0;" x1="1478.5" x2="1637.5" y1="518.1797" y2="518.1797"/><polygon fill="#181818" points="1132,528.1797,1122,532.1797,1132,536.1797,1128,532.1797" style="stroke:#181818;stroke-width:1.0;"/><line style="stroke:#181818;stroke-width:1.0;stroke-dasharray:2.0,2.0;" x1="1126" x2="1467.5" y1="532.1797" y2="532.1797"/><polygon fill="#181818" points="1283,558.5313,1293,562.5313,1283,566.5313,1287,562.5313" style="stroke:#181818;stroke-width:1.0;"/><line style="stroke:#181818;stroke-width:1.0;" x1="1121" x2="1289" y1="562.5313" y2="562.5313"/><text fill="#000000" font-family="sans-serif" font-size="13" lengthAdjust="spacing" textLength="155" x="1128" y="557.6748">toDomain(elevadorCreated)</text><polygon fill="#181818" points="1132,572.5313,1122,576.5313,1132,580.5313,1128,576.5313" style="stroke:#181818;stroke-width:1.0;"/><line style="stroke:#181818;stroke-width:1.0;stroke-dasharray:2.0,2.0;" x1="1126" x2="1299" y1="576.5313" y2="576.5313"/><polygon fill="#181818" points="990.5,586.5313,980.5,590.5313,990.5,594.5313,986.5,590.5313" style="stroke:#181818;stroke-width:1.0;"/><line style="stroke:#181818;stroke-width:1.0;stroke-dasharray:2.0,2.0;" x1="984.5" x2="1115" y1="590.5313" y2="590.5313"/><polygon fill="#181818" points="817.5,600.5313,807.5,604.5313,817.5,608.5313,813.5,604.5313" style="stroke:#181818;stroke-width:1.0;"/><line style="stroke:#181818;stroke-width:1.0;stroke-dasharray:2.0,2.0;" x1="811.5" x2="973.5" y1="604.5313" y2="604.5313"/><polygon fill="#181818" points="1283,630.8828,1293,634.8828,1283,638.8828,1287,634.8828" style="stroke:#181818;stroke-width:1.0;"/><line style="stroke:#181818;stroke-width:1.0;" x1="806.5" x2="1289" y1="634.8828" y2="634.8828"/><text fill="#000000" font-family="sans-serif" font-size="13" lengthAdjust="spacing" textLength="92" x="813.5" y="630.0264">toDTO(elevador)</text><polygon fill="#181818" points="817.5,644.8828,807.5,648.8828,817.5,652.8828,813.5,648.8828" style="stroke:#181818;stroke-width:1.0;"/><line style="stroke:#181818;stroke-width:1.0;stroke-dasharray:2.0,2.0;" x1="811.5" x2="1299" y1="648.8828" y2="648.8828"/><polygon fill="#181818" points="617.5,658.8828,607.5,662.8828,617.5,666.8828,613.5,662.8828" style="stroke:#181818;stroke-width:1.0;"/><line style="stroke:#181818;stroke-width:1.0;stroke-dasharray:2.0,2.0;" x1="611.5" x2="800.5" y1="662.8828" y2="662.8828"/><polygon fill="#181818" points="417.5,672.8828,407.5,676.8828,417.5,680.8828,413.5,676.8828" style="stroke:#181818;stroke-width:1.0;"/><line style="stroke:#181818;stroke-width:1.0;stroke-dasharray:2.0,2.0;" x1="411.5" x2="600.5" y1="676.8828" y2="676.8828"/><path d="M57,691.8828 L118,691.8828 L118,700.2344 L108,710.2344 L57,710.2344 L57,691.8828 " fill="#EEEEEE" style="stroke:#000000;stroke-width:1.5;"/><rect fill="none" height="94.8906" style="stroke:#000000;stroke-width:1.5;" width="420.5" x="57" y="691.8828"/><text fill="#000000" font-family="sans-serif" font-size="13" font-weight="bold" lengthAdjust="spacing" textLength="16" x="72" y="706.3779">alt</text><text fill="#000000" font-family="sans-serif" font-size="11" font-weight="bold" lengthAdjust="spacing" textLength="102" x="133" y="705.3018">[caso de sucesso]</text><polygon fill="#181818" points="176.5,728.5859,166.5,732.5859,176.5,736.5859,172.5,732.5859" style="stroke:#181818;stroke-width:1.0;"/><line style="stroke:#181818;stroke-width:1.0;stroke-dasharray:2.0,2.0;" x1="170.5" x2="395.5" y1="732.5859" y2="732.5859"/><text fill="#000000" font-family="sans-serif" font-size="13" lengthAdjust="spacing" textLength="167" x="182.5" y="727.7295">Envia um código 201 (POST)</text><line style="stroke:#000000;stroke-width:1.0;stroke-dasharray:2.0,2.0;" x1="57" x2="477.5" y1="741.5859" y2="741.5859"/><text fill="#000000" font-family="sans-serif" font-size="11" font-weight="bold" lengthAdjust="spacing" textLength="112" x="62" y="753.0049">[caso de insucesso]</text><polygon fill="#181818" points="176.5,774.7734,166.5,778.7734,176.5,782.7734,172.5,778.7734" style="stroke:#181818;stroke-width:1.0;"/><line style="stroke:#181818;stroke-width:1.0;stroke-dasharray:2.0,2.0;" x1="170.5" x2="395.5" y1="778.7734" y2="778.7734"/><text fill="#000000" font-family="sans-serif" font-size="13" lengthAdjust="spacing" textLength="207" x="182.5" y="773.917">Envia um código 404 (NOT FOUND)</text><polygon fill="#181818" points="42,795.7734,32,799.7734,42,803.7734,38,799.7734" style="stroke:#181818;stroke-width:1.0;"/><line style="stroke:#181818;stroke-width:1.0;stroke-dasharray:2.0,2.0;" x1="36" x2="159.5" y1="799.7734" y2="799.7734"/><!--MD5=[63a627d57531164d85ded43a7075f202]
@startuml sd

participant Route as route
participant InterfaceElevadorController as ictrl
participant ElevadorController as ctrl
participant InterfaceElevadorService as isvc
participant ElevadorService as svc
participant InterfaceElevadorRepo as irepo
participant ElevadorRepo as repo
participant ElevadorMapper as mapper
participant InterfaceElevadorPersistence as ischema
participant ElevadorSchema as schema
participant ConfigurationFile as conf
participant Elevador as model

activate route
route -> ictrl : criar elevador
activate ictrl
ictrl -> ctrl : createElevador(req, res, next)
activate ctrl
ctrl -> conf : injeta o serviço do elevador
activate conf
conf - -> ctrl
deactivate conf
ctrl -> isvc : createElevador(IElevadorDTO)
activate isvc
isvc -> svc : createElevador(IElevadorDTO)
activate svc
svc -> conf : injeta o repositório do elevador
activate conf
conf - -> svc
deactivate conf
svc -> model : elevador = create(elevadorDTO)
activate model
model - -> svc
deactivate model
svc -> irepo : elevador = save(elevador)
activate irepo
irepo -> repo : save(elevador)
activate repo
repo -> conf : injeta o schema do elevador
activate conf
conf - -> repo
deactivate conf
repo -> mapper : toPersistence(elevador)
activate mapper
mapper - -> repo
deactivate mapper
repo -> ischema : create(elevadorCreated)
activate ischema 
ischema -> schema : create(elevadorCreated)
activate schema
schema - -> ischema
deactivate schema
deactivate scheam
ischema - -> repo
deactivate ischema
repo -> mapper : toDomain(elevadorCreated)
activate mapper
mapper - -> repo
deactivate mapper
repo - -> irepo
deactivate repo
irepo - -> svc
deactivate irepo
svc -> mapper : toDTO(elevador)
activate mapper
mapper - -> svc
deactivate mapper
svc - -> isvc
deactivate svc
isvc - -> ctrl
deactivate isvc
alt caso de sucesso
    ctrl - -> ictrl : Envia um código 201 (POST)
else caso de insucesso
    ctrl - -> ictrl : Envia um código 404 (NOT FOUND)
end
deactivate ctrl
ictrl - -> route
deactivate ictrl
deactivate route



@enduml

PlantUML version 1.2022.7(Mon Aug 22 18:01:30 WEST 2022)
(GPL source distribution)
Java Runtime: Java(TM) SE Runtime Environment
JVM: Java HotSpot(TM) 64-Bit Server VM
Default Encoding: Cp1252
Language: pt
Country: PT
--></g></svg>