<?xml version="1.0" encoding="UTF-8" standalone="no"?><svg xmlns="http://www.w3.org/2000/svg" xmlns:xlink="http://www.w3.org/1999/xlink" contentStyleType="text/css" height="676px" preserveAspectRatio="none" style="width:1140px;height:676px;background:#FFFFFF;" version="1.1" viewBox="0 0 1140 676" width="1140px" zoomAndPan="magnify"><defs/><g><rect fill="#FFFFFF" height="582.7578" style="stroke:#181818;stroke-width:1.0;" width="10" x="41" y="47.6094"/><rect fill="#FFFFFF" height="560.4063" style="stroke:#181818;stroke-width:1.0;" width="10" x="282" y="69.9609"/><rect fill="#FFFFFF" height="486.7031" style="stroke:#181818;stroke-width:1.0;" width="10" x="468" y="144.6641"/><rect fill="#FFFFFF" height="367.6484" style="stroke:#181818;stroke-width:1.0;" width="10" x="577.5" y="263.7188"/><rect fill="#FFFFFF" height="14" style="stroke:#181818;stroke-width:1.0;" width="10" x="754.5" y="338.4219"/><rect fill="#FFFFFF" height="14" style="stroke:#181818;stroke-width:1.0;" width="10" x="754.5" y="427.125"/><rect fill="#FFFFFF" height="14" style="stroke:#181818;stroke-width:1.0;" width="10" x="754.5" y="485.4766"/><rect fill="#FFFFFF" height="14" style="stroke:#181818;stroke-width:1.0;" width="10" x="873" y="382.7734"/><rect fill="#FFFFFF" height="14" style="stroke:#181818;stroke-width:1.0;" width="10" x="999" y="100.3125"/><rect fill="#FFFFFF" height="14" style="stroke:#181818;stroke-width:1.0;" width="10" x="999" y="175.0156"/><rect fill="#FFFFFF" height="14" style="stroke:#181818;stroke-width:1.0;" width="10" x="999" y="294.0703"/><rect fill="#FFFFFF" height="14" style="stroke:#181818;stroke-width:1.0;" width="10" x="1099.5" y="219.3672"/><rect fill="none" height="94.8906" style="stroke:#000000;stroke-width:1.5;" width="347.5" x="10" y="528.4766"/><line style="stroke:#181818;stroke-width:0.5;stroke-dasharray:5.0,5.0;" x1="46" x2="46" y1="37.6094" y2="640.3672"/><line style="stroke:#181818;stroke-width:0.5;stroke-dasharray:5.0,5.0;" x1="286.5" x2="286.5" y1="37.6094" y2="640.3672"/><line style="stroke:#181818;stroke-width:0.5;stroke-dasharray:5.0,5.0;" x1="473" x2="473" y1="37.6094" y2="640.3672"/><line style="stroke:#181818;stroke-width:0.5;stroke-dasharray:5.0,5.0;" x1="582" x2="582" y1="37.6094" y2="640.3672"/><line style="stroke:#181818;stroke-width:0.5;stroke-dasharray:5.0,5.0;" x1="759" x2="759" y1="37.6094" y2="640.3672"/><line style="stroke:#181818;stroke-width:0.5;stroke-dasharray:5.0,5.0;" x1="878" x2="878" y1="37.6094" y2="640.3672"/><line style="stroke:#181818;stroke-width:0.5;stroke-dasharray:5.0,5.0;" x1="1004" x2="1004" y1="37.6094" y2="640.3672"/><line style="stroke:#181818;stroke-width:0.5;stroke-dasharray:5.0,5.0;" x1="1104" x2="1104" y1="37.6094" y2="640.3672"/><rect fill="#E2E2F0" height="31.6094" rx="2.5" ry="2.5" style="stroke:#181818;stroke-width:0.5;" width="52" x="20" y="5"/><text fill="#000000" font-family="sans-serif" font-size="14" lengthAdjust="spacing" textLength="38" x="27" y="26.5332">Route</text><rect fill="#E2E2F0" height="31.6094" rx="2.5" ry="2.5" style="stroke:#181818;stroke-width:0.5;" width="52" x="20" y="639.3672"/><text fill="#000000" font-family="sans-serif" font-size="14" lengthAdjust="spacing" textLength="38" x="27" y="660.9004">Route</text><rect fill="#E2E2F0" height="31.6094" rx="2.5" ry="2.5" style="stroke:#181818;stroke-width:0.5;" width="121" x="226.5" y="5"/><text fill="#000000" font-family="sans-serif" font-size="14" lengthAdjust="spacing" textLength="107" x="233.5" y="26.5332">EdificioController</text><rect fill="#E2E2F0" height="31.6094" rx="2.5" ry="2.5" style="stroke:#181818;stroke-width:0.5;" width="121" x="226.5" y="639.3672"/><text fill="#000000" font-family="sans-serif" font-size="14" lengthAdjust="spacing" textLength="107" x="233.5" y="660.9004">EdificioController</text><rect fill="#E2E2F0" height="31.6094" rx="2.5" ry="2.5" style="stroke:#181818;stroke-width:0.5;" width="106" x="420" y="5"/><text fill="#000000" font-family="sans-serif" font-size="14" lengthAdjust="spacing" textLength="92" x="427" y="26.5332">EdificioService</text><rect fill="#E2E2F0" height="31.6094" rx="2.5" ry="2.5" style="stroke:#181818;stroke-width:0.5;" width="106" x="420" y="639.3672"/><text fill="#000000" font-family="sans-serif" font-size="14" lengthAdjust="spacing" textLength="92" x="427" y="660.9004">EdificioService</text><rect fill="#E2E2F0" height="31.6094" rx="2.5" ry="2.5" style="stroke:#181818;stroke-width:0.5;" width="93" x="536" y="5"/><text fill="#000000" font-family="sans-serif" font-size="14" lengthAdjust="spacing" textLength="79" x="543" y="26.5332">EdificioRepo</text><rect fill="#E2E2F0" height="31.6094" rx="2.5" ry="2.5" style="stroke:#181818;stroke-width:0.5;" width="93" x="536" y="639.3672"/><text fill="#000000" font-family="sans-serif" font-size="14" lengthAdjust="spacing" textLength="79" x="543" y="660.9004">EdificioRepo</text><rect fill="#E2E2F0" height="31.6094" rx="2.5" ry="2.5" style="stroke:#181818;stroke-width:0.5;" width="107" x="706" y="5"/><text fill="#000000" font-family="sans-serif" font-size="14" lengthAdjust="spacing" textLength="93" x="713" y="26.5332">EdificioMapper</text><rect fill="#E2E2F0" height="31.6094" rx="2.5" ry="2.5" style="stroke:#181818;stroke-width:0.5;" width="107" x="706" y="639.3672"/><text fill="#000000" font-family="sans-serif" font-size="14" lengthAdjust="spacing" textLength="93" x="713" y="660.9004">EdificioMapper</text><rect fill="#E2E2F0" height="31.6094" rx="2.5" ry="2.5" style="stroke:#181818;stroke-width:0.5;" width="110" x="823" y="5"/><text fill="#000000" font-family="sans-serif" font-size="14" lengthAdjust="spacing" textLength="96" x="830" y="26.5332">EdificioSchema</text><rect fill="#E2E2F0" height="31.6094" rx="2.5" ry="2.5" style="stroke:#181818;stroke-width:0.5;" width="110" x="823" y="639.3672"/><text fill="#000000" font-family="sans-serif" font-size="14" lengthAdjust="spacing" textLength="96" x="830" y="660.9004">EdificioSchema</text><rect fill="#E2E2F0" height="31.6094" rx="2.5" ry="2.5" style="stroke:#181818;stroke-width:0.5;" width="122" x="943" y="5"/><text fill="#000000" font-family="sans-serif" font-size="14" lengthAdjust="spacing" textLength="108" x="950" y="26.5332">ConfigurationFile</text><rect fill="#E2E2F0" height="31.6094" rx="2.5" ry="2.5" style="stroke:#181818;stroke-width:0.5;" width="122" x="943" y="639.3672"/><text fill="#000000" font-family="sans-serif" font-size="14" lengthAdjust="spacing" textLength="108" x="950" y="660.9004">ConfigurationFile</text><rect fill="#E2E2F0" height="31.6094" rx="2.5" ry="2.5" style="stroke:#181818;stroke-width:0.5;" width="59" x="1075" y="5"/><text fill="#000000" font-family="sans-serif" font-size="14" lengthAdjust="spacing" textLength="45" x="1082" y="26.5332">Edificio</text><rect fill="#E2E2F0" height="31.6094" rx="2.5" ry="2.5" style="stroke:#181818;stroke-width:0.5;" width="59" x="1075" y="639.3672"/><text fill="#000000" font-family="sans-serif" font-size="14" lengthAdjust="spacing" textLength="45" x="1082" y="660.9004">Edificio</text><rect fill="#FFFFFF" height="582.7578" style="stroke:#181818;stroke-width:1.0;" width="10" x="41" y="47.6094"/><rect fill="#FFFFFF" height="560.4063" style="stroke:#181818;stroke-width:1.0;" width="10" x="282" y="69.9609"/><rect fill="#FFFFFF" height="486.7031" style="stroke:#181818;stroke-width:1.0;" width="10" x="468" y="144.6641"/><rect fill="#FFFFFF" height="367.6484" style="stroke:#181818;stroke-width:1.0;" width="10" x="577.5" y="263.7188"/><rect fill="#FFFFFF" height="14" style="stroke:#181818;stroke-width:1.0;" width="10" x="754.5" y="338.4219"/><rect fill="#FFFFFF" height="14" style="stroke:#181818;stroke-width:1.0;" width="10" x="754.5" y="427.125"/><rect fill="#FFFFFF" height="14" style="stroke:#181818;stroke-width:1.0;" width="10" x="754.5" y="485.4766"/><rect fill="#FFFFFF" height="14" style="stroke:#181818;stroke-width:1.0;" width="10" x="873" y="382.7734"/><rect fill="#FFFFFF" height="14" style="stroke:#181818;stroke-width:1.0;" width="10" x="999" y="100.3125"/><rect fill="#FFFFFF" height="14" style="stroke:#181818;stroke-width:1.0;" width="10" x="999" y="175.0156"/><rect fill="#FFFFFF" height="14" style="stroke:#181818;stroke-width:1.0;" width="10" x="999" y="294.0703"/><rect fill="#FFFFFF" height="14" style="stroke:#181818;stroke-width:1.0;" width="10" x="1099.5" y="219.3672"/><polygon fill="#181818" points="270,65.9609,280,69.9609,270,73.9609,274,69.9609" style="stroke:#181818;stroke-width:1.0;"/><line style="stroke:#181818;stroke-width:1.0;" x1="51" x2="276" y1="69.9609" y2="69.9609"/><text fill="#000000" font-family="sans-serif" font-size="13" lengthAdjust="spacing" textLength="163" x="58" y="65.1045">createEdificio(req, res, next)</text><polygon fill="#181818" points="987,96.3125,997,100.3125,987,104.3125,991,100.3125" style="stroke:#181818;stroke-width:1.0;"/><line style="stroke:#181818;stroke-width:1.0;" x1="292" x2="993" y1="100.3125" y2="100.3125"/><text fill="#000000" font-family="sans-serif" font-size="13" lengthAdjust="spacing" textLength="148" x="299" y="95.4561">injeta o serviço do edificio</text><polygon fill="#181818" points="303,110.3125,293,114.3125,303,118.3125,299,114.3125" style="stroke:#181818;stroke-width:1.0;"/><line style="stroke:#181818;stroke-width:1.0;stroke-dasharray:2.0,2.0;" x1="297" x2="1003" y1="114.3125" y2="114.3125"/><polygon fill="#181818" points="456,140.6641,466,144.6641,456,148.6641,460,144.6641" style="stroke:#181818;stroke-width:1.0;"/><line style="stroke:#181818;stroke-width:1.0;" x1="292" x2="462" y1="144.6641" y2="144.6641"/><text fill="#000000" font-family="sans-serif" font-size="13" lengthAdjust="spacing" textLength="157" x="299" y="139.8076">createEdificio(IEdificioDTO)</text><polygon fill="#181818" points="987,171.0156,997,175.0156,987,179.0156,991,175.0156" style="stroke:#181818;stroke-width:1.0;"/><line style="stroke:#181818;stroke-width:1.0;" x1="478" x2="993" y1="175.0156" y2="175.0156"/><text fill="#000000" font-family="sans-serif" font-size="13" lengthAdjust="spacing" textLength="168" x="485" y="170.1592">injeta o repositório do edificio</text><polygon fill="#181818" points="489,185.0156,479,189.0156,489,193.0156,485,189.0156" style="stroke:#181818;stroke-width:1.0;"/><line style="stroke:#181818;stroke-width:1.0;stroke-dasharray:2.0,2.0;" x1="483" x2="1003" y1="189.0156" y2="189.0156"/><polygon fill="#181818" points="1087.5,215.3672,1097.5,219.3672,1087.5,223.3672,1091.5,219.3672" style="stroke:#181818;stroke-width:1.0;"/><line style="stroke:#181818;stroke-width:1.0;" x1="478" x2="1093.5" y1="219.3672" y2="219.3672"/><text fill="#000000" font-family="sans-serif" font-size="13" lengthAdjust="spacing" textLength="166" x="485" y="214.5107">edificio = create(edificioDTO)</text><polygon fill="#181818" points="489,229.3672,479,233.3672,489,237.3672,485,233.3672" style="stroke:#181818;stroke-width:1.0;"/><line style="stroke:#181818;stroke-width:1.0;stroke-dasharray:2.0,2.0;" x1="483" x2="1103.5" y1="233.3672" y2="233.3672"/><polygon fill="#181818" points="565.5,259.7188,575.5,263.7188,565.5,267.7188,569.5,263.7188" style="stroke:#181818;stroke-width:1.0;"/><line style="stroke:#181818;stroke-width:1.0;" x1="478" x2="571.5" y1="263.7188" y2="263.7188"/><text fill="#000000" font-family="sans-serif" font-size="13" lengthAdjust="spacing" textLength="74" x="485" y="258.8623">save(edificio)</text><polygon fill="#181818" points="987,290.0703,997,294.0703,987,298.0703,991,294.0703" style="stroke:#181818;stroke-width:1.0;"/><line style="stroke:#181818;stroke-width:1.0;" x1="587.5" x2="993" y1="294.0703" y2="294.0703"/><text fill="#000000" font-family="sans-serif" font-size="13" lengthAdjust="spacing" textLength="154" x="594.5" y="289.2139">injeta o schema do edificio</text><polygon fill="#181818" points="598.5,304.0703,588.5,308.0703,598.5,312.0703,594.5,308.0703" style="stroke:#181818;stroke-width:1.0;"/><line style="stroke:#181818;stroke-width:1.0;stroke-dasharray:2.0,2.0;" x1="592.5" x2="1003" y1="308.0703" y2="308.0703"/><polygon fill="#181818" points="742.5,334.4219,752.5,338.4219,742.5,342.4219,746.5,338.4219" style="stroke:#181818;stroke-width:1.0;"/><line style="stroke:#181818;stroke-width:1.0;" x1="587.5" x2="748.5" y1="338.4219" y2="338.4219"/><text fill="#000000" font-family="sans-serif" font-size="13" lengthAdjust="spacing" textLength="128" x="594.5" y="333.5654">toPersistence(edificio)</text><polygon fill="#181818" points="598.5,348.4219,588.5,352.4219,598.5,356.4219,594.5,352.4219" style="stroke:#181818;stroke-width:1.0;"/><line style="stroke:#181818;stroke-width:1.0;stroke-dasharray:2.0,2.0;" x1="592.5" x2="758.5" y1="352.4219" y2="352.4219"/><polygon fill="#181818" points="861,378.7734,871,382.7734,861,386.7734,865,382.7734" style="stroke:#181818;stroke-width:1.0;"/><line style="stroke:#181818;stroke-width:1.0;" x1="587.5" x2="867" y1="382.7734" y2="382.7734"/><text fill="#000000" font-family="sans-serif" font-size="13" lengthAdjust="spacing" textLength="129" x="594.5" y="377.917">create(edificioCreated)</text><polygon fill="#181818" points="598.5,392.7734,588.5,396.7734,598.5,400.7734,594.5,396.7734" style="stroke:#181818;stroke-width:1.0;"/><line style="stroke:#181818;stroke-width:1.0;stroke-dasharray:2.0,2.0;" x1="592.5" x2="877" y1="396.7734" y2="396.7734"/><polygon fill="#181818" points="742.5,423.125,752.5,427.125,742.5,431.125,746.5,427.125" style="stroke:#181818;stroke-width:1.0;"/><line style="stroke:#181818;stroke-width:1.0;" x1="587.5" x2="748.5" y1="427.125" y2="427.125"/><text fill="#000000" font-family="sans-serif" font-size="13" lengthAdjust="spacing" textLength="148" x="594.5" y="422.2686">toDomain(edificioCreated)</text><polygon fill="#181818" points="598.5,437.125,588.5,441.125,598.5,445.125,594.5,441.125" style="stroke:#181818;stroke-width:1.0;"/><line style="stroke:#181818;stroke-width:1.0;stroke-dasharray:2.0,2.0;" x1="592.5" x2="758.5" y1="441.125" y2="441.125"/><polygon fill="#181818" points="489,451.125,479,455.125,489,459.125,485,455.125" style="stroke:#181818;stroke-width:1.0;"/><line style="stroke:#181818;stroke-width:1.0;stroke-dasharray:2.0,2.0;" x1="483" x2="576.5" y1="455.125" y2="455.125"/><polygon fill="#181818" points="742.5,481.4766,752.5,485.4766,742.5,489.4766,746.5,485.4766" style="stroke:#181818;stroke-width:1.0;"/><line style="stroke:#181818;stroke-width:1.0;" x1="478" x2="748.5" y1="485.4766" y2="485.4766"/><text fill="#000000" font-family="sans-serif" font-size="13" lengthAdjust="spacing" textLength="85" x="485" y="480.6201">toDTO(edificio)</text><polygon fill="#181818" points="489,495.4766,479,499.4766,489,503.4766,485,499.4766" style="stroke:#181818;stroke-width:1.0;"/><line style="stroke:#181818;stroke-width:1.0;stroke-dasharray:2.0,2.0;" x1="483" x2="758.5" y1="499.4766" y2="499.4766"/><polygon fill="#181818" points="303,509.4766,293,513.4766,303,517.4766,299,513.4766" style="stroke:#181818;stroke-width:1.0;"/><line style="stroke:#181818;stroke-width:1.0;stroke-dasharray:2.0,2.0;" x1="297" x2="467" y1="513.4766" y2="513.4766"/><path d="M10,528.4766 L71,528.4766 L71,536.8281 L61,546.8281 L10,546.8281 L10,528.4766 " fill="#EEEEEE" style="stroke:#000000;stroke-width:1.5;"/><rect fill="none" height="94.8906" style="stroke:#000000;stroke-width:1.5;" width="347.5" x="10" y="528.4766"/><text fill="#000000" font-family="sans-serif" font-size="13" font-weight="bold" lengthAdjust="spacing" textLength="16" x="25" y="542.9717">alt</text><text fill="#000000" font-family="sans-serif" font-size="11" font-weight="bold" lengthAdjust="spacing" textLength="102" x="86" y="541.8955">[caso de sucesso]</text><polygon fill="#181818" points="62,565.1797,52,569.1797,62,573.1797,58,569.1797" style="stroke:#181818;stroke-width:1.0;"/><line style="stroke:#181818;stroke-width:1.0;stroke-dasharray:2.0,2.0;" x1="56" x2="281" y1="569.1797" y2="569.1797"/><text fill="#000000" font-family="sans-serif" font-size="13" lengthAdjust="spacing" textLength="167" x="68" y="564.3232">Envia um código 201 (POST)</text><line style="stroke:#000000;stroke-width:1.0;stroke-dasharray:2.0,2.0;" x1="10" x2="357.5" y1="578.1797" y2="578.1797"/><text fill="#000000" font-family="sans-serif" font-size="11" font-weight="bold" lengthAdjust="spacing" textLength="112" x="15" y="589.5986">[caso de insucesso]</text><polygon fill="#181818" points="62,611.3672,52,615.3672,62,619.3672,58,615.3672" style="stroke:#181818;stroke-width:1.0;"/><line style="stroke:#181818;stroke-width:1.0;stroke-dasharray:2.0,2.0;" x1="56" x2="281" y1="615.3672" y2="615.3672"/><text fill="#000000" font-family="sans-serif" font-size="13" lengthAdjust="spacing" textLength="207" x="68" y="610.5107">Envia um código 404 (NOT FOUND)</text><!--MD5=[95def19ae07b0a2158628195e8aacbc8]
@startuml sd

participant Route as route
participant EdificioController as ctrl
participant EdificioService as svc
participant EdificioRepo as repo
participant EdificioMapper as mapper
participant EdificioSchema as schema
participant ConfigurationFile as conf
participant Edificio as model

activate route
route -> ctrl : createEdificio(req, res, next)
activate ctrl
ctrl -> conf : injeta o serviço do edificio
activate conf
conf - -> ctrl
deactivate conf
ctrl -> svc : createEdificio(IEdificioDTO)
activate svc
svc -> conf : injeta o repositório do edificio
activate conf
conf - -> svc
deactivate conf
svc -> model : edificio = create(edificioDTO)
activate model
model - -> svc
deactivate model
svc -> repo : save(edificio)
activate repo
repo -> conf : injeta o schema do edificio
activate conf
conf - -> repo
deactivate conf
repo -> mapper : toPersistence(edificio)
activate mapper
mapper - -> repo
deactivate mapper
repo -> schema : create(edificioCreated)
activate schema 
schema - -> repo
deactivate schema
repo -> mapper : toDomain(edificioCreated)
activate mapper
mapper - -> repo
deactivate mapper
repo - -> svc
svc -> mapper : toDTO(edificio)
activate mapper
mapper - -> svc
deactivate mapper
svc - -> ctrl
alt caso de sucesso
    ctrl - -> route : Envia um código 201 (POST)
else caso de insucesso
    ctrl - -> route : Envia um código 404 (NOT FOUND)
end
deactivate ctrl
deactivate route



@enduml

PlantUML version 1.2022.7(Mon Aug 22 18:01:30 WEST 2022)
(GPL source distribution)
Java Runtime: Java(TM) SE Runtime Environment
JVM: Java HotSpot(TM) 64-Bit Server VM
Default Encoding: Cp1252
Language: en
Country: US
--></g></svg>