<?xml version="1.0" encoding="UTF-8" standalone="no"?><svg xmlns="http://www.w3.org/2000/svg" xmlns:xlink="http://www.w3.org/1999/xlink" contentStyleType="text/css" height="402px" preserveAspectRatio="none" style="width:1014px;height:402px;background:#FFFFFF;" version="1.1" viewBox="0 0 1014 402" width="1014px" zoomAndPan="magnify"><defs/><g><rect fill="#FFFFFF" height="274.1641" style="stroke:#181818;stroke-width:1.0;" width="10" x="93" y="65.2188"/><rect fill="#FFFFFF" height="251.8125" style="stroke:#181818;stroke-width:1.0;" width="10" x="244" y="87.5703"/><rect fill="#FFFFFF" height="251.8125" style="stroke:#181818;stroke-width:1.0;" width="10" x="468" y="87.5703"/><rect fill="#FFFFFF" height="60.7031" style="stroke:#181818;stroke-width:1.0;" width="10" x="686" y="117.9219"/><rect fill="#FFFFFF" height="130.4063" style="stroke:#181818;stroke-width:1.0;" width="10" x="778" y="208.9766"/><rect fill="#FFFFFF" height="30.3516" style="stroke:#181818;stroke-width:1.0;" width="10" x="982" y="178.625"/><line style="stroke:#181818;stroke-width:0.5;stroke-dasharray:5.0,5.0;" x1="98" x2="98" y1="55.2188" y2="348.3828"/><line style="stroke:#181818;stroke-width:0.5;stroke-dasharray:5.0,5.0;" x1="249" x2="249" y1="55.2188" y2="348.3828"/><line style="stroke:#181818;stroke-width:0.5;stroke-dasharray:5.0,5.0;" x1="472.5" x2="472.5" y1="55.2188" y2="348.3828"/><line style="stroke:#181818;stroke-width:0.5;stroke-dasharray:5.0,5.0;" x1="691" x2="691" y1="55.2188" y2="348.3828"/><line style="stroke:#181818;stroke-width:0.5;stroke-dasharray:5.0,5.0;" x1="783" x2="783" y1="55.2188" y2="348.3828"/><line style="stroke:#181818;stroke-width:0.5;stroke-dasharray:5.0,5.0;" x1="986.5" x2="986.5" y1="55.2188" y2="348.3828"/><rect fill="#E2E2F0" height="31.6094" rx="2.5" ry="2.5" style="stroke:#181818;stroke-width:0.5;" width="186" x="5" y="22.6094"/><text fill="#000000" font-family="sans-serif" font-size="14" lengthAdjust="spacing" textLength="172" x="12" y="44.1426">AuthorizationAuthentication</text><rect fill="#E2E2F0" height="31.6094" rx="2.5" ry="2.5" style="stroke:#181818;stroke-width:0.5;" width="186" x="5" y="347.3828"/><text fill="#000000" font-family="sans-serif" font-size="14" lengthAdjust="spacing" textLength="172" x="12" y="368.916">AuthorizationAuthentication</text><rect fill="#E2E2F0" height="31.6094" rx="2.5" ry="2.5" style="stroke:#181818;stroke-width:0.5;" width="76" x="211" y="22.6094"/><text fill="#000000" font-family="sans-serif" font-size="14" lengthAdjust="spacing" textLength="62" x="218" y="44.1426">Controller</text><rect fill="#E2E2F0" height="31.6094" rx="2.5" ry="2.5" style="stroke:#181818;stroke-width:0.5;" width="76" x="211" y="347.3828"/><text fill="#000000" font-family="sans-serif" font-size="14" lengthAdjust="spacing" textLength="62" x="218" y="368.916">Controller</text><rect fill="#E2E2F0" height="31.6094" rx="2.5" ry="2.5" style="stroke:#181818;stroke-width:0.5;" width="61" x="442.5" y="22.6094"/><text fill="#000000" font-family="sans-serif" font-size="14" lengthAdjust="spacing" textLength="47" x="449.5" y="44.1426">Service</text><rect fill="#E2E2F0" height="31.6094" rx="2.5" ry="2.5" style="stroke:#181818;stroke-width:0.5;" width="61" x="442.5" y="347.3828"/><text fill="#000000" font-family="sans-serif" font-size="14" lengthAdjust="spacing" textLength="47" x="449.5" y="368.916">Service</text><rect fill="#E2E2F0" height="49.2188" rx="2.5" ry="2.5" style="stroke:#181818;stroke-width:0.5;" width="82" x="650" y="5"/><text fill="#000000" font-family="sans-serif" font-size="14" font-style="italic" lengthAdjust="spacing" textLength="45" x="668.5" y="26.5332">«Role»</text><text fill="#000000" font-family="sans-serif" font-size="14" lengthAdjust="spacing" textLength="68" x="657" y="44.1426">Repository</text><rect fill="#E2E2F0" height="49.2188" rx="2.5" ry="2.5" style="stroke:#181818;stroke-width:0.5;" width="82" x="650" y="347.3828"/><text fill="#000000" font-family="sans-serif" font-size="14" font-style="italic" lengthAdjust="spacing" textLength="45" x="668.5" y="368.916">«Role»</text><text fill="#000000" font-family="sans-serif" font-size="14" lengthAdjust="spacing" textLength="68" x="657" y="386.5254">Repository</text><rect fill="#E2E2F0" height="49.2188" rx="2.5" ry="2.5" style="stroke:#181818;stroke-width:0.5;" width="82" x="742" y="5"/><text fill="#000000" font-family="sans-serif" font-size="14" font-style="italic" lengthAdjust="spacing" textLength="46" x="760" y="26.5332">«User»</text><text fill="#000000" font-family="sans-serif" font-size="14" lengthAdjust="spacing" textLength="68" x="749" y="44.1426">Repository</text><rect fill="#E2E2F0" height="49.2188" rx="2.5" ry="2.5" style="stroke:#181818;stroke-width:0.5;" width="82" x="742" y="347.3828"/><text fill="#000000" font-family="sans-serif" font-size="14" font-style="italic" lengthAdjust="spacing" textLength="46" x="760" y="368.916">«User»</text><text fill="#000000" font-family="sans-serif" font-size="14" lengthAdjust="spacing" textLength="68" x="749" y="386.5254">Repository</text><rect fill="#E2E2F0" height="31.6094" rx="2.5" ry="2.5" style="stroke:#181818;stroke-width:0.5;" width="43" x="965.5" y="22.6094"/><text fill="#000000" font-family="sans-serif" font-size="14" lengthAdjust="spacing" textLength="29" x="972.5" y="44.1426">User</text><rect fill="#E2E2F0" height="31.6094" rx="2.5" ry="2.5" style="stroke:#181818;stroke-width:0.5;" width="43" x="965.5" y="347.3828"/><text fill="#000000" font-family="sans-serif" font-size="14" lengthAdjust="spacing" textLength="29" x="972.5" y="368.916">User</text><rect fill="#FFFFFF" height="274.1641" style="stroke:#181818;stroke-width:1.0;" width="10" x="93" y="65.2188"/><rect fill="#FFFFFF" height="251.8125" style="stroke:#181818;stroke-width:1.0;" width="10" x="244" y="87.5703"/><rect fill="#FFFFFF" height="251.8125" style="stroke:#181818;stroke-width:1.0;" width="10" x="468" y="87.5703"/><rect fill="#FFFFFF" height="60.7031" style="stroke:#181818;stroke-width:1.0;" width="10" x="686" y="117.9219"/><rect fill="#FFFFFF" height="130.4063" style="stroke:#181818;stroke-width:1.0;" width="10" x="778" y="208.9766"/><rect fill="#FFFFFF" height="30.3516" style="stroke:#181818;stroke-width:1.0;" width="10" x="982" y="178.625"/><polygon fill="#181818" points="232,83.5703,242,87.5703,232,91.5703,236,87.5703" style="stroke:#181818;stroke-width:1.0;"/><line style="stroke:#181818;stroke-width:1.0;" x1="103" x2="238" y1="87.5703" y2="87.5703"/><text fill="#000000" font-family="sans-serif" font-size="13" lengthAdjust="spacing" textLength="60" x="110" y="82.7139">criarUser()</text><polygon fill="#181818" points="456,113.9219,466,117.9219,456,121.9219,460,117.9219" style="stroke:#181818;stroke-width:1.0;"/><line style="stroke:#181818;stroke-width:1.0;" x1="254" x2="462" y1="117.9219" y2="117.9219"/><text fill="#000000" font-family="sans-serif" font-size="13" lengthAdjust="spacing" textLength="190" x="261" y="113.0654">CreateUser(CreatingUserDto dto)</text><polygon fill="#181818" points="674,144.2734,684,148.2734,674,152.2734,678,148.2734" style="stroke:#181818;stroke-width:1.0;"/><line style="stroke:#181818;stroke-width:1.0;" x1="478" x2="680" y1="148.2734" y2="148.2734"/><text fill="#000000" font-family="sans-serif" font-size="13" lengthAdjust="spacing" textLength="184" x="485" y="143.417">GetById(new RoleId(dto.RoleId))</text><polygon fill="#181818" points="489,174.625,479,178.625,489,182.625,485,178.625" style="stroke:#181818;stroke-width:1.0;"/><line style="stroke:#181818;stroke-width:1.0;" x1="483" x2="690" y1="178.625" y2="178.625"/><text fill="#000000" font-family="sans-serif" font-size="13" lengthAdjust="spacing" textLength="87" x="495" y="173.7686">returns the role</text><polygon fill="#181818" points="975,204.9766,985,208.9766,975,212.9766,979,208.9766" style="stroke:#181818;stroke-width:1.0;"/><line style="stroke:#181818;stroke-width:1.0;" x1="478" x2="981" y1="208.9766" y2="208.9766"/><text fill="#000000" font-family="sans-serif" font-size="13" lengthAdjust="spacing" textLength="480" x="485" y="204.1201">user = new User(GenerateId(), Name, Email, PhoneNumber, NIF,Password, RoleId)</text><polygon fill="#181818" points="766,235.3281,776,239.3281,766,243.3281,770,239.3281" style="stroke:#181818;stroke-width:1.0;"/><line style="stroke:#181818;stroke-width:1.0;" x1="478" x2="772" y1="239.3281" y2="239.3281"/><text fill="#000000" font-family="sans-serif" font-size="13" lengthAdjust="spacing" textLength="93" x="485" y="234.4717">AddAsync(user)</text><polygon fill="#181818" points="489,265.6797,479,269.6797,489,273.6797,485,269.6797" style="stroke:#181818;stroke-width:1.0;"/><line style="stroke:#181818;stroke-width:1.0;" x1="483" x2="777" y1="269.6797" y2="269.6797"/><text fill="#000000" font-family="sans-serif" font-size="13" lengthAdjust="spacing" textLength="117" x="495" y="264.8232">informs the success</text><polygon fill="#181818" points="265,296.0313,255,300.0313,265,304.0313,261,300.0313" style="stroke:#181818;stroke-width:1.0;"/><line style="stroke:#181818;stroke-width:1.0;" x1="259" x2="467" y1="300.0313" y2="300.0313"/><text fill="#000000" font-family="sans-serif" font-size="13" lengthAdjust="spacing" textLength="117" x="271" y="295.1748">informs the success</text><polygon fill="#181818" points="114,326.3828,104,330.3828,114,334.3828,110,330.3828" style="stroke:#181818;stroke-width:1.0;"/><line style="stroke:#181818;stroke-width:1.0;" x1="108" x2="243" y1="330.3828" y2="330.3828"/><text fill="#000000" font-family="sans-serif" font-size="13" lengthAdjust="spacing" textLength="117" x="120" y="325.5264">informs the success</text><!--MD5=[b46ba6a51c2d2c37b2274ee9d91c65f3]
@startuml sd
participant AuthorizationAuthentication as view
participant Controller as ctrl
participant Service as svc
participant Repository as repoRole <<Role>>
participant Repository as repo <<User>>
participant User as model

activate view
view -> ctrl : criarUser()
activate ctrl
activate svc
ctrl -> svc : CreateUser(CreatingUserDto dto)
activate repoRole
svc -> repoRole: GetById(new RoleId(dto.RoleId))
repoRole -> svc: returns the role
deactivate repoRole
activate model
svc -> model: user = new User(GenerateId(), Name, Email, PhoneNumber, NIF,Password, RoleId)
deactivate model
activate repo
svc -> repo: AddAsync(user)
repo -> svc: informs the success
svc -> ctrl: informs the success
ctrl -> view: informs the success
@enduml

PlantUML version 1.2022.7(Mon Aug 22 18:01:30 WEST 2022)
(GPL source distribution)
Java Runtime: Java(TM) SE Runtime Environment
JVM: Java HotSpot(TM) 64-Bit Server VM
Default Encoding: Cp1252
Language: en
Country: US
--></g></svg>