<?xml version="1.0" encoding="UTF-8" standalone="no"?><svg xmlns="http://www.w3.org/2000/svg" xmlns:xlink="http://www.w3.org/1999/xlink" contentStyleType="text/css" height="944px" preserveAspectRatio="none" style="width:2001px;height:944px;background:#FFFFFF;" version="1.1" viewBox="0 0 2001 944" width="2001px" zoomAndPan="magnify"><defs/><g><rect fill="#FFFFFF" height="752.1641" style="stroke:#181818;stroke-width:1.0;" width="10" x="31.5" y="92.6094"/><rect fill="#FFFFFF" height="729.8125" style="stroke:#181818;stroke-width:1.0;" width="10" x="166.5" y="114.9609"/><rect fill="#FFFFFF" height="693.4609" style="stroke:#181818;stroke-width:1.0;" width="10" x="407.5" y="145.3125"/><rect fill="#FFFFFF" height="501.8672" style="stroke:#181818;stroke-width:1.0;" width="10" x="607.5" y="220.0156"/><rect fill="#FFFFFF" height="457.5156" style="stroke:#181818;stroke-width:1.0;" width="10" x="807.5" y="250.3672"/><rect fill="#FFFFFF" height="280.1094" style="stroke:#181818;stroke-width:1.0;" width="10" x="980.5" y="369.4219"/><rect fill="#FFFFFF" height="235.7578" style="stroke:#181818;stroke-width:1.0;" width="10" x="1122" y="399.7734"/><rect fill="#FFFFFF" height="14" style="stroke:#181818;stroke-width:1.0;" width="10" x="1306" y="474.4766"/><rect fill="#FFFFFF" height="14" style="stroke:#181818;stroke-width:1.0;" width="10" x="1306" y="607.5313"/><rect fill="#FFFFFF" height="14" style="stroke:#181818;stroke-width:1.0;" width="10" x="1306" y="679.8828"/><rect fill="#FFFFFF" height="58.3516" style="stroke:#181818;stroke-width:1.0;" width="10" x="1474.5" y="518.8281"/><rect fill="#FFFFFF" height="14" style="stroke:#181818;stroke-width:1.0;" width="10" x="1644.5" y="549.1797"/><rect fill="#FFFFFF" height="14" style="stroke:#181818;stroke-width:1.0;" width="10" x="1776" y="175.6641"/><rect fill="#FFFFFF" height="14" style="stroke:#181818;stroke-width:1.0;" width="10" x="1776" y="280.7188"/><rect fill="#FFFFFF" height="14" style="stroke:#181818;stroke-width:1.0;" width="10" x="1776" y="430.125"/><rect fill="#FFFFFF" height="14" style="stroke:#181818;stroke-width:1.0;" width="10" x="1882" y="325.0703"/><rect fill="none" height="94.8906" style="stroke:#000000;stroke-width:1.5;" width="420.5" x="68" y="736.8828"/><line style="stroke:#181818;stroke-width:0.5;stroke-dasharray:5.0,5.0;" x1="36" x2="36" y1="82.6094" y2="862.7734"/><line style="stroke:#181818;stroke-width:0.5;stroke-dasharray:5.0,5.0;" x1="171" x2="171" y1="82.6094" y2="862.7734"/><line style="stroke:#181818;stroke-width:0.5;stroke-dasharray:5.0,5.0;" x1="412.5" x2="412.5" y1="82.6094" y2="862.7734"/><line style="stroke:#181818;stroke-width:0.5;stroke-dasharray:5.0,5.0;" x1="612.5" x2="612.5" y1="82.6094" y2="862.7734"/><line style="stroke:#181818;stroke-width:0.5;stroke-dasharray:5.0,5.0;" x1="812" x2="812" y1="82.6094" y2="862.7734"/><line style="stroke:#181818;stroke-width:0.5;stroke-dasharray:5.0,5.0;" x1="985" x2="985" y1="82.6094" y2="862.7734"/><line style="stroke:#181818;stroke-width:0.5;stroke-dasharray:5.0,5.0;" x1="1127" x2="1127" y1="82.6094" y2="862.7734"/><line style="stroke:#181818;stroke-width:0.5;stroke-dasharray:5.0,5.0;" x1="1311" x2="1311" y1="82.6094" y2="862.7734"/><line style="stroke:#181818;stroke-width:0.5;stroke-dasharray:5.0,5.0;" x1="1479" x2="1479" y1="82.6094" y2="862.7734"/><line style="stroke:#181818;stroke-width:0.5;stroke-dasharray:5.0,5.0;" x1="1649" x2="1649" y1="82.6094" y2="862.7734"/><line style="stroke:#181818;stroke-width:0.5;stroke-dasharray:5.0,5.0;" x1="1781" x2="1781" y1="82.6094" y2="862.7734"/><line style="stroke:#181818;stroke-width:0.5;stroke-dasharray:5.0,5.0;" x1="1887" x2="1887" y1="82.6094" y2="862.7734"/><line style="stroke:#181818;stroke-width:0.5;stroke-dasharray:5.0,5.0;" x1="1963" x2="1963" y1="82.6094" y2="862.7734"/><text fill="#000000" font-family="sans-serif" font-size="14" lengthAdjust="spacing" textLength="57" x="5" y="79.5332">Utilizador</text><ellipse cx="36.5" cy="13.5" fill="#E2E2F0" rx="8" ry="8" style="stroke:#181818;stroke-width:0.5;"/><path d="M36.5,21.5 L36.5,48.5 M23.5,29.5 L49.5,29.5 M36.5,48.5 L23.5,63.5 M36.5,48.5 L49.5,63.5 " fill="none" style="stroke:#181818;stroke-width:0.5;"/><text fill="#000000" font-family="sans-serif" font-size="14" lengthAdjust="spacing" textLength="57" x="5" y="876.3066">Utilizador</text><ellipse cx="36.5" cy="887.8828" fill="#E2E2F0" rx="8" ry="8" style="stroke:#181818;stroke-width:0.5;"/><path d="M36.5,895.8828 L36.5,922.8828 M23.5,903.8828 L49.5,903.8828 M36.5,922.8828 L23.5,937.8828 M36.5,922.8828 L49.5,937.8828 " fill="none" style="stroke:#181818;stroke-width:0.5;"/><rect fill="#E2E2F0" height="31.6094" rx="2.5" ry="2.5" style="stroke:#181818;stroke-width:0.5;" width="187" x="78" y="50"/><text fill="#000000" font-family="sans-serif" font-size="14" lengthAdjust="spacing" textLength="173" x="85" y="71.5332">InterfaceElevadorController</text><rect fill="#E2E2F0" height="31.6094" rx="2.5" ry="2.5" style="stroke:#181818;stroke-width:0.5;" width="187" x="78" y="861.7734"/><text fill="#000000" font-family="sans-serif" font-size="14" lengthAdjust="spacing" textLength="173" x="85" y="883.3066">InterfaceElevadorController</text><rect fill="#E2E2F0" height="31.6094" rx="2.5" ry="2.5" style="stroke:#181818;stroke-width:0.5;" width="132" x="346.5" y="50"/><text fill="#000000" font-family="sans-serif" font-size="14" lengthAdjust="spacing" textLength="118" x="353.5" y="71.5332">ElevadorController</text><rect fill="#E2E2F0" height="31.6094" rx="2.5" ry="2.5" style="stroke:#181818;stroke-width:0.5;" width="132" x="346.5" y="861.7734"/><text fill="#000000" font-family="sans-serif" font-size="14" lengthAdjust="spacing" textLength="118" x="353.5" y="883.3066">ElevadorController</text><rect fill="#E2E2F0" height="31.6094" rx="2.5" ry="2.5" style="stroke:#181818;stroke-width:0.5;" width="172" x="526.5" y="50"/><text fill="#000000" font-family="sans-serif" font-size="14" lengthAdjust="spacing" textLength="158" x="533.5" y="71.5332">InterfaceElevadorService</text><rect fill="#E2E2F0" height="31.6094" rx="2.5" ry="2.5" style="stroke:#181818;stroke-width:0.5;" width="172" x="526.5" y="861.7734"/><text fill="#000000" font-family="sans-serif" font-size="14" lengthAdjust="spacing" textLength="158" x="533.5" y="883.3066">InterfaceElevadorService</text><rect fill="#E2E2F0" height="31.6094" rx="2.5" ry="2.5" style="stroke:#181818;stroke-width:0.5;" width="117" x="754" y="50"/><text fill="#000000" font-family="sans-serif" font-size="14" lengthAdjust="spacing" textLength="103" x="761" y="71.5332">ElevadorService</text><rect fill="#E2E2F0" height="31.6094" rx="2.5" ry="2.5" style="stroke:#181818;stroke-width:0.5;" width="117" x="754" y="861.7734"/><text fill="#000000" font-family="sans-serif" font-size="14" lengthAdjust="spacing" textLength="103" x="761" y="883.3066">ElevadorService</text><rect fill="#E2E2F0" height="31.6094" rx="2.5" ry="2.5" style="stroke:#181818;stroke-width:0.5;" width="159" x="906" y="50"/><text fill="#000000" font-family="sans-serif" font-size="14" lengthAdjust="spacing" textLength="145" x="913" y="71.5332">InterfaceElevadorRepo</text><rect fill="#E2E2F0" height="31.6094" rx="2.5" ry="2.5" style="stroke:#181818;stroke-width:0.5;" width="159" x="906" y="861.7734"/><text fill="#000000" font-family="sans-serif" font-size="14" lengthAdjust="spacing" textLength="145" x="913" y="883.3066">InterfaceElevadorRepo</text><rect fill="#E2E2F0" height="31.6094" rx="2.5" ry="2.5" style="stroke:#181818;stroke-width:0.5;" width="104" x="1075" y="50"/><text fill="#000000" font-family="sans-serif" font-size="14" lengthAdjust="spacing" textLength="90" x="1082" y="71.5332">ElevadorRepo</text><rect fill="#E2E2F0" height="31.6094" rx="2.5" ry="2.5" style="stroke:#181818;stroke-width:0.5;" width="104" x="1075" y="861.7734"/><text fill="#000000" font-family="sans-serif" font-size="14" lengthAdjust="spacing" textLength="90" x="1082" y="883.3066">ElevadorRepo</text><rect fill="#E2E2F0" height="31.6094" rx="2.5" ry="2.5" style="stroke:#181818;stroke-width:0.5;" width="118" x="1252" y="50"/><text fill="#000000" font-family="sans-serif" font-size="14" lengthAdjust="spacing" textLength="104" x="1259" y="71.5332">ElevadorMapper</text><rect fill="#E2E2F0" height="31.6094" rx="2.5" ry="2.5" style="stroke:#181818;stroke-width:0.5;" width="118" x="1252" y="861.7734"/><text fill="#000000" font-family="sans-serif" font-size="14" lengthAdjust="spacing" textLength="104" x="1259" y="883.3066">ElevadorMapper</text><rect fill="#E2E2F0" height="31.6094" rx="2.5" ry="2.5" style="stroke:#181818;stroke-width:0.5;" width="199" x="1380" y="50"/><text fill="#000000" font-family="sans-serif" font-size="14" lengthAdjust="spacing" textLength="185" x="1387" y="71.5332">InterfaceElevadorPersistence</text><rect fill="#E2E2F0" height="31.6094" rx="2.5" ry="2.5" style="stroke:#181818;stroke-width:0.5;" width="199" x="1380" y="861.7734"/><text fill="#000000" font-family="sans-serif" font-size="14" lengthAdjust="spacing" textLength="185" x="1387" y="883.3066">InterfaceElevadorPersistence</text><rect fill="#E2E2F0" height="31.6094" rx="2.5" ry="2.5" style="stroke:#181818;stroke-width:0.5;" width="121" x="1589" y="50"/><text fill="#000000" font-family="sans-serif" font-size="14" lengthAdjust="spacing" textLength="107" x="1596" y="71.5332">ElevadorSchema</text><rect fill="#E2E2F0" height="31.6094" rx="2.5" ry="2.5" style="stroke:#181818;stroke-width:0.5;" width="121" x="1589" y="861.7734"/><text fill="#000000" font-family="sans-serif" font-size="14" lengthAdjust="spacing" textLength="107" x="1596" y="883.3066">ElevadorSchema</text><rect fill="#E2E2F0" height="31.6094" rx="2.5" ry="2.5" style="stroke:#181818;stroke-width:0.5;" width="122" x="1720" y="50"/><text fill="#000000" font-family="sans-serif" font-size="14" lengthAdjust="spacing" textLength="108" x="1727" y="71.5332">ConfigurationFile</text><rect fill="#E2E2F0" height="31.6094" rx="2.5" ry="2.5" style="stroke:#181818;stroke-width:0.5;" width="122" x="1720" y="861.7734"/><text fill="#000000" font-family="sans-serif" font-size="14" lengthAdjust="spacing" textLength="108" x="1727" y="883.3066">ConfigurationFile</text><rect fill="#E2E2F0" height="31.6094" rx="2.5" ry="2.5" style="stroke:#181818;stroke-width:0.5;" width="70" x="1852" y="50"/><text fill="#000000" font-family="sans-serif" font-size="14" lengthAdjust="spacing" textLength="56" x="1859" y="71.5332">Elevador</text><rect fill="#E2E2F0" height="31.6094" rx="2.5" ry="2.5" style="stroke:#181818;stroke-width:0.5;" width="70" x="1852" y="861.7734"/><text fill="#000000" font-family="sans-serif" font-size="14" lengthAdjust="spacing" textLength="56" x="1859" y="883.3066">Elevador</text><rect fill="#E2E2F0" height="31.6094" rx="2.5" ry="2.5" style="stroke:#181818;stroke-width:0.5;" width="63" x="1932" y="50"/><text fill="#000000" font-family="sans-serif" font-size="14" lengthAdjust="spacing" textLength="49" x="1939" y="71.5332">scheam</text><rect fill="#E2E2F0" height="31.6094" rx="2.5" ry="2.5" style="stroke:#181818;stroke-width:0.5;" width="63" x="1932" y="861.7734"/><text fill="#000000" font-family="sans-serif" font-size="14" lengthAdjust="spacing" textLength="49" x="1939" y="883.3066">scheam</text><rect fill="#FFFFFF" height="752.1641" style="stroke:#181818;stroke-width:1.0;" width="10" x="31.5" y="92.6094"/><rect fill="#FFFFFF" height="729.8125" style="stroke:#181818;stroke-width:1.0;" width="10" x="166.5" y="114.9609"/><rect fill="#FFFFFF" height="693.4609" style="stroke:#181818;stroke-width:1.0;" width="10" x="407.5" y="145.3125"/><rect fill="#FFFFFF" height="501.8672" style="stroke:#181818;stroke-width:1.0;" width="10" x="607.5" y="220.0156"/><rect fill="#FFFFFF" height="457.5156" style="stroke:#181818;stroke-width:1.0;" width="10" x="807.5" y="250.3672"/><rect fill="#FFFFFF" height="280.1094" style="stroke:#181818;stroke-width:1.0;" width="10" x="980.5" y="369.4219"/><rect fill="#FFFFFF" height="235.7578" style="stroke:#181818;stroke-width:1.0;" width="10" x="1122" y="399.7734"/><rect fill="#FFFFFF" height="14" style="stroke:#181818;stroke-width:1.0;" width="10" x="1306" y="474.4766"/><rect fill="#FFFFFF" height="14" style="stroke:#181818;stroke-width:1.0;" width="10" x="1306" y="607.5313"/><rect fill="#FFFFFF" height="14" style="stroke:#181818;stroke-width:1.0;" width="10" x="1306" y="679.8828"/><rect fill="#FFFFFF" height="58.3516" style="stroke:#181818;stroke-width:1.0;" width="10" x="1474.5" y="518.8281"/><rect fill="#FFFFFF" height="14" style="stroke:#181818;stroke-width:1.0;" width="10" x="1644.5" y="549.1797"/><rect fill="#FFFFFF" height="14" style="stroke:#181818;stroke-width:1.0;" width="10" x="1776" y="175.6641"/><rect fill="#FFFFFF" height="14" style="stroke:#181818;stroke-width:1.0;" width="10" x="1776" y="280.7188"/><rect fill="#FFFFFF" height="14" style="stroke:#181818;stroke-width:1.0;" width="10" x="1776" y="430.125"/><rect fill="#FFFFFF" height="14" style="stroke:#181818;stroke-width:1.0;" width="10" x="1882" y="325.0703"/><polygon fill="#181818" points="154.5,110.9609,164.5,114.9609,154.5,118.9609,158.5,114.9609" style="stroke:#181818;stroke-width:1.0;"/><line style="stroke:#181818;stroke-width:1.0;" x1="41.5" x2="160.5" y1="114.9609" y2="114.9609"/><text fill="#000000" font-family="sans-serif" font-size="13" lengthAdjust="spacing" textLength="76" x="48.5" y="110.1045">criar elevador</text><polygon fill="#181818" points="395.5,141.3125,405.5,145.3125,395.5,149.3125,399.5,145.3125" style="stroke:#181818;stroke-width:1.0;"/><line style="stroke:#181818;stroke-width:1.0;" x1="176.5" x2="401.5" y1="145.3125" y2="145.3125"/><text fill="#000000" font-family="sans-serif" font-size="13" lengthAdjust="spacing" textLength="170" x="183.5" y="140.4561">createElevador(req, res, next)</text><polygon fill="#181818" points="1764,171.6641,1774,175.6641,1764,179.6641,1768,175.6641" style="stroke:#181818;stroke-width:1.0;"/><line style="stroke:#181818;stroke-width:1.0;" x1="417.5" x2="1770" y1="175.6641" y2="175.6641"/><text fill="#000000" font-family="sans-serif" font-size="13" lengthAdjust="spacing" textLength="155" x="424.5" y="170.8076">injeta o serviço do elevador</text><polygon fill="#181818" points="428.5,185.6641,418.5,189.6641,428.5,193.6641,424.5,189.6641" style="stroke:#181818;stroke-width:1.0;"/><line style="stroke:#181818;stroke-width:1.0;stroke-dasharray:2.0,2.0;" x1="422.5" x2="1780" y1="189.6641" y2="189.6641"/><polygon fill="#181818" points="595.5,216.0156,605.5,220.0156,595.5,224.0156,599.5,220.0156" style="stroke:#181818;stroke-width:1.0;"/><line style="stroke:#181818;stroke-width:1.0;" x1="417.5" x2="601.5" y1="220.0156" y2="220.0156"/><text fill="#000000" font-family="sans-serif" font-size="13" lengthAdjust="spacing" textLength="171" x="424.5" y="215.1592">createElevador(IElevadorDTO)</text><polygon fill="#181818" points="795.5,246.3672,805.5,250.3672,795.5,254.3672,799.5,250.3672" style="stroke:#181818;stroke-width:1.0;"/><line style="stroke:#181818;stroke-width:1.0;" x1="617.5" x2="801.5" y1="250.3672" y2="250.3672"/><text fill="#000000" font-family="sans-serif" font-size="13" lengthAdjust="spacing" textLength="171" x="624.5" y="245.5107">createElevador(IElevadorDTO)</text><polygon fill="#181818" points="1764,276.7188,1774,280.7188,1764,284.7188,1768,280.7188" style="stroke:#181818;stroke-width:1.0;"/><line style="stroke:#181818;stroke-width:1.0;" x1="817.5" x2="1770" y1="280.7188" y2="280.7188"/><text fill="#000000" font-family="sans-serif" font-size="13" lengthAdjust="spacing" textLength="175" x="824.5" y="275.8623">injeta o repositório do elevador</text><polygon fill="#181818" points="828.5,290.7188,818.5,294.7188,828.5,298.7188,824.5,294.7188" style="stroke:#181818;stroke-width:1.0;"/><line style="stroke:#181818;stroke-width:1.0;stroke-dasharray:2.0,2.0;" x1="822.5" x2="1780" y1="294.7188" y2="294.7188"/><polygon fill="#181818" points="1870,321.0703,1880,325.0703,1870,329.0703,1874,325.0703" style="stroke:#181818;stroke-width:1.0;"/><line style="stroke:#181818;stroke-width:1.0;" x1="817.5" x2="1876" y1="325.0703" y2="325.0703"/><text fill="#000000" font-family="sans-serif" font-size="13" lengthAdjust="spacing" textLength="180" x="824.5" y="320.2139">elevador = create(elevadorDTO)</text><polygon fill="#181818" points="828.5,335.0703,818.5,339.0703,828.5,343.0703,824.5,339.0703" style="stroke:#181818;stroke-width:1.0;"/><line style="stroke:#181818;stroke-width:1.0;stroke-dasharray:2.0,2.0;" x1="822.5" x2="1886" y1="339.0703" y2="339.0703"/><polygon fill="#181818" points="968.5,365.4219,978.5,369.4219,968.5,373.4219,972.5,369.4219" style="stroke:#181818;stroke-width:1.0;"/><line style="stroke:#181818;stroke-width:1.0;" x1="817.5" x2="974.5" y1="369.4219" y2="369.4219"/><text fill="#000000" font-family="sans-serif" font-size="13" lengthAdjust="spacing" textLength="144" x="824.5" y="364.5654">elevador = save(elevador)</text><polygon fill="#181818" points="1110,395.7734,1120,399.7734,1110,403.7734,1114,399.7734" style="stroke:#181818;stroke-width:1.0;"/><line style="stroke:#181818;stroke-width:1.0;" x1="990.5" x2="1116" y1="399.7734" y2="399.7734"/><text fill="#000000" font-family="sans-serif" font-size="13" lengthAdjust="spacing" textLength="81" x="997.5" y="394.917">save(elevador)</text><polygon fill="#181818" points="1764,426.125,1774,430.125,1764,434.125,1768,430.125" style="stroke:#181818;stroke-width:1.0;"/><line style="stroke:#181818;stroke-width:1.0;" x1="1132" x2="1770" y1="430.125" y2="430.125"/><text fill="#000000" font-family="sans-serif" font-size="13" lengthAdjust="spacing" textLength="161" x="1139" y="425.2686">injeta o schema do elevador</text><polygon fill="#181818" points="1143,440.125,1133,444.125,1143,448.125,1139,444.125" style="stroke:#181818;stroke-width:1.0;"/><line style="stroke:#181818;stroke-width:1.0;stroke-dasharray:2.0,2.0;" x1="1137" x2="1780" y1="444.125" y2="444.125"/><polygon fill="#181818" points="1294,470.4766,1304,474.4766,1294,478.4766,1298,474.4766" style="stroke:#181818;stroke-width:1.0;"/><line style="stroke:#181818;stroke-width:1.0;" x1="1132" x2="1300" y1="474.4766" y2="474.4766"/><text fill="#000000" font-family="sans-serif" font-size="13" lengthAdjust="spacing" textLength="135" x="1139" y="469.6201">toPersistence(elevador)</text><polygon fill="#181818" points="1143,484.4766,1133,488.4766,1143,492.4766,1139,488.4766" style="stroke:#181818;stroke-width:1.0;"/><line style="stroke:#181818;stroke-width:1.0;stroke-dasharray:2.0,2.0;" x1="1137" x2="1310" y1="488.4766" y2="488.4766"/><polygon fill="#181818" points="1462.5,514.8281,1472.5,518.8281,1462.5,522.8281,1466.5,518.8281" style="stroke:#181818;stroke-width:1.0;"/><line style="stroke:#181818;stroke-width:1.0;" x1="1132" x2="1468.5" y1="518.8281" y2="518.8281"/><text fill="#000000" font-family="sans-serif" font-size="13" lengthAdjust="spacing" textLength="136" x="1139" y="513.9717">create(elevadorCreated)</text><polygon fill="#181818" points="1632.5,545.1797,1642.5,549.1797,1632.5,553.1797,1636.5,549.1797" style="stroke:#181818;stroke-width:1.0;"/><line style="stroke:#181818;stroke-width:1.0;" x1="1484.5" x2="1638.5" y1="549.1797" y2="549.1797"/><text fill="#000000" font-family="sans-serif" font-size="13" lengthAdjust="spacing" textLength="136" x="1491.5" y="544.3232">create(elevadorCreated)</text><polygon fill="#181818" points="1495.5,559.1797,1485.5,563.1797,1495.5,567.1797,1491.5,563.1797" style="stroke:#181818;stroke-width:1.0;"/><line style="stroke:#181818;stroke-width:1.0;stroke-dasharray:2.0,2.0;" x1="1489.5" x2="1648.5" y1="563.1797" y2="563.1797"/><polygon fill="#181818" points="1143,573.1797,1133,577.1797,1143,581.1797,1139,577.1797" style="stroke:#181818;stroke-width:1.0;"/><line style="stroke:#181818;stroke-width:1.0;stroke-dasharray:2.0,2.0;" x1="1137" x2="1478.5" y1="577.1797" y2="577.1797"/><polygon fill="#181818" points="1294,603.5313,1304,607.5313,1294,611.5313,1298,607.5313" style="stroke:#181818;stroke-width:1.0;"/><line style="stroke:#181818;stroke-width:1.0;" x1="1132" x2="1300" y1="607.5313" y2="607.5313"/><text fill="#000000" font-family="sans-serif" font-size="13" lengthAdjust="spacing" textLength="155" x="1139" y="602.6748">toDomain(elevadorCreated)</text><polygon fill="#181818" points="1143,617.5313,1133,621.5313,1143,625.5313,1139,621.5313" style="stroke:#181818;stroke-width:1.0;"/><line style="stroke:#181818;stroke-width:1.0;stroke-dasharray:2.0,2.0;" x1="1137" x2="1310" y1="621.5313" y2="621.5313"/><polygon fill="#181818" points="1001.5,631.5313,991.5,635.5313,1001.5,639.5313,997.5,635.5313" style="stroke:#181818;stroke-width:1.0;"/><line style="stroke:#181818;stroke-width:1.0;stroke-dasharray:2.0,2.0;" x1="995.5" x2="1126" y1="635.5313" y2="635.5313"/><polygon fill="#181818" points="828.5,645.5313,818.5,649.5313,828.5,653.5313,824.5,649.5313" style="stroke:#181818;stroke-width:1.0;"/><line style="stroke:#181818;stroke-width:1.0;stroke-dasharray:2.0,2.0;" x1="822.5" x2="984.5" y1="649.5313" y2="649.5313"/><polygon fill="#181818" points="1294,675.8828,1304,679.8828,1294,683.8828,1298,679.8828" style="stroke:#181818;stroke-width:1.0;"/><line style="stroke:#181818;stroke-width:1.0;" x1="817.5" x2="1300" y1="679.8828" y2="679.8828"/><text fill="#000000" font-family="sans-serif" font-size="13" lengthAdjust="spacing" textLength="92" x="824.5" y="675.0264">toDTO(elevador)</text><polygon fill="#181818" points="828.5,689.8828,818.5,693.8828,828.5,697.8828,824.5,693.8828" style="stroke:#181818;stroke-width:1.0;"/><line style="stroke:#181818;stroke-width:1.0;stroke-dasharray:2.0,2.0;" x1="822.5" x2="1310" y1="693.8828" y2="693.8828"/><polygon fill="#181818" points="628.5,703.8828,618.5,707.8828,628.5,711.8828,624.5,707.8828" style="stroke:#181818;stroke-width:1.0;"/><line style="stroke:#181818;stroke-width:1.0;stroke-dasharray:2.0,2.0;" x1="622.5" x2="811.5" y1="707.8828" y2="707.8828"/><polygon fill="#181818" points="428.5,717.8828,418.5,721.8828,428.5,725.8828,424.5,721.8828" style="stroke:#181818;stroke-width:1.0;"/><line style="stroke:#181818;stroke-width:1.0;stroke-dasharray:2.0,2.0;" x1="422.5" x2="611.5" y1="721.8828" y2="721.8828"/><path d="M68,736.8828 L129,736.8828 L129,745.2344 L119,755.2344 L68,755.2344 L68,736.8828 " fill="#EEEEEE" style="stroke:#000000;stroke-width:1.5;"/><rect fill="none" height="94.8906" style="stroke:#000000;stroke-width:1.5;" width="420.5" x="68" y="736.8828"/><text fill="#000000" font-family="sans-serif" font-size="13" font-weight="bold" lengthAdjust="spacing" textLength="16" x="83" y="751.3779">alt</text><text fill="#000000" font-family="sans-serif" font-size="11" font-weight="bold" lengthAdjust="spacing" textLength="102" x="144" y="750.3018">[caso de sucesso]</text><polygon fill="#181818" points="187.5,773.5859,177.5,777.5859,187.5,781.5859,183.5,777.5859" style="stroke:#181818;stroke-width:1.0;"/><line style="stroke:#181818;stroke-width:1.0;stroke-dasharray:2.0,2.0;" x1="181.5" x2="406.5" y1="777.5859" y2="777.5859"/><text fill="#000000" font-family="sans-serif" font-size="13" lengthAdjust="spacing" textLength="167" x="193.5" y="772.7295">Envia um código 201 (POST)</text><line style="stroke:#000000;stroke-width:1.0;stroke-dasharray:2.0,2.0;" x1="68" x2="488.5" y1="786.5859" y2="786.5859"/><text fill="#000000" font-family="sans-serif" font-size="11" font-weight="bold" lengthAdjust="spacing" textLength="112" x="73" y="798.0049">[caso de insucesso]</text><polygon fill="#181818" points="187.5,819.7734,177.5,823.7734,187.5,827.7734,183.5,823.7734" style="stroke:#181818;stroke-width:1.0;"/><line style="stroke:#181818;stroke-width:1.0;stroke-dasharray:2.0,2.0;" x1="181.5" x2="406.5" y1="823.7734" y2="823.7734"/><text fill="#000000" font-family="sans-serif" font-size="13" lengthAdjust="spacing" textLength="207" x="193.5" y="818.917">Envia um código 404 (NOT FOUND)</text><polygon fill="#181818" points="47.5,840.7734,37.5,844.7734,47.5,848.7734,43.5,844.7734" style="stroke:#181818;stroke-width:1.0;"/><line style="stroke:#181818;stroke-width:1.0;stroke-dasharray:2.0,2.0;" x1="41.5" x2="170.5" y1="844.7734" y2="844.7734"/><!--MD5=[6132c2b765e66af58f9aa7201117cc48]
@startuml sd

actor Utilizador as u

participant InterfaceElevadorController as ictrl
participant ElevadorController as ctrl
participant InterfaceElevadorService as isvc
participant ElevadorService as svc
participant InterfaceElevadorRepo as irepo
participant ElevadorRepo as repo
participant ElevadorMapper as mapper
participant InterfaceElevadorPersistence as ischema
participant ElevadorSchema as schema
participant ConfigurationFile as conf
participant Elevador as model

activate u
u -> ictrl : criar elevador
activate ictrl
ictrl -> ctrl : createElevador(req, res, next)
activate ctrl
ctrl -> conf : injeta o serviço do elevador
activate conf
conf - -> ctrl
deactivate conf
ctrl -> isvc : createElevador(IElevadorDTO)
activate isvc
isvc -> svc : createElevador(IElevadorDTO)
activate svc
svc -> conf : injeta o repositório do elevador
activate conf
conf - -> svc
deactivate conf
svc -> model : elevador = create(elevadorDTO)
activate model
model - -> svc
deactivate model
svc -> irepo : elevador = save(elevador)
activate irepo
irepo -> repo : save(elevador)
activate repo
repo -> conf : injeta o schema do elevador
activate conf
conf - -> repo
deactivate conf
repo -> mapper : toPersistence(elevador)
activate mapper
mapper - -> repo
deactivate mapper
repo -> ischema : create(elevadorCreated)
activate ischema 
ischema -> schema : create(elevadorCreated)
activate schema
schema - -> ischema
deactivate schema
deactivate scheam
ischema - -> repo
deactivate ischema
repo -> mapper : toDomain(elevadorCreated)
activate mapper
mapper - -> repo
deactivate mapper
repo - -> irepo
deactivate repo
irepo - -> svc
deactivate irepo
svc -> mapper : toDTO(elevador)
activate mapper
mapper - -> svc
deactivate mapper
svc - -> isvc
deactivate svc
isvc - -> ctrl
deactivate isvc
alt caso de sucesso
    ctrl - -> ictrl : Envia um código 201 (POST)
else caso de insucesso
    ctrl - -> ictrl : Envia um código 404 (NOT FOUND)
end
deactivate ctrl
ictrl - -> u
deactivate ictrl
deactivate u



@enduml

PlantUML version 1.2022.7(Mon Aug 22 18:01:30 WEST 2022)
(GPL source distribution)
Java Runtime: Java(TM) SE Runtime Environment
JVM: Java HotSpot(TM) 64-Bit Server VM
Default Encoding: Cp1252
Language: pt
Country: PT
--></g></svg>