<?xml version="1.0" encoding="UTF-8" standalone="no"?><svg xmlns="http://www.w3.org/2000/svg" xmlns:xlink="http://www.w3.org/1999/xlink" contentStyleType="text/css" height="229px" preserveAspectRatio="none" style="width:360px;height:229px;background:#FFFFFF;" version="1.1" viewBox="0 0 360 229" width="360px" zoomAndPan="magnify"><defs/><g><line style="stroke:#181818;stroke-width:0.5;stroke-dasharray:5.0,5.0;" x1="24" x2="24" y1="82.6094" y2="146.9609"/><line style="stroke:#181818;stroke-width:0.5;stroke-dasharray:5.0,5.0;" x1="278" x2="278" y1="82.6094" y2="146.9609"/><text fill="#000000" font-family="sans-serif" font-size="14" lengthAdjust="spacing" textLength="33" x="5" y="79.5332">Actor</text><ellipse cx="24.5" cy="13.5" fill="#E2E2F0" rx="8" ry="8" style="stroke:#181818;stroke-width:0.5;"/><path d="M24.5,21.5 L24.5,48.5 M11.5,29.5 L37.5,29.5 M24.5,48.5 L11.5,63.5 M24.5,48.5 L37.5,63.5 " fill="none" style="stroke:#181818;stroke-width:0.5;"/><text fill="#000000" font-family="sans-serif" font-size="14" lengthAdjust="spacing" textLength="33" x="5" y="160.4941">Actor</text><ellipse cx="24.5" cy="172.0703" fill="#E2E2F0" rx="8" ry="8" style="stroke:#181818;stroke-width:0.5;"/><path d="M24.5,180.0703 L24.5,207.0703 M11.5,188.0703 L37.5,188.0703 M24.5,207.0703 L11.5,222.0703 M24.5,207.0703 L37.5,222.0703 " fill="none" style="stroke:#181818;stroke-width:0.5;"/><rect fill="#E2E2F0" height="49.2188" rx="2.5" ry="2.5" style="stroke:#181818;stroke-width:0.5;" width="151" x="203" y="32.3906"/><text fill="#000000" font-family="sans-serif" font-size="14" font-style="italic" lengthAdjust="spacing" textLength="90" x="233.5" y="53.9238">«System(C4)»</text><text fill="#000000" font-family="sans-serif" font-size="14" lengthAdjust="spacing" textLength="137" x="210" y="71.5332">SistemaRobDroneGO</text><rect fill="#E2E2F0" height="49.2188" rx="2.5" ry="2.5" style="stroke:#181818;stroke-width:0.5;" width="151" x="203" y="145.9609"/><text fill="#000000" font-family="sans-serif" font-size="14" font-style="italic" lengthAdjust="spacing" textLength="90" x="233.5" y="167.4941">«System(C4)»</text><text fill="#000000" font-family="sans-serif" font-size="14" lengthAdjust="spacing" textLength="137" x="210" y="185.1035">SistemaRobDroneGO</text><polygon fill="#181818" points="266.5,110.9609,276.5,114.9609,266.5,118.9609,270.5,114.9609" style="stroke:#181818;stroke-width:1.0;"/><line style="stroke:#181818;stroke-width:1.0;" x1="24.5" x2="272.5" y1="114.9609" y2="114.9609"/><text fill="#000000" font-family="sans-serif" font-size="13" lengthAdjust="spacing" textLength="230" x="31.5" y="110.1045">Listar edifícios com min e max de pisos</text><polygon fill="#181818" points="35.5,124.9609,25.5,128.9609,35.5,132.9609,31.5,128.9609" style="stroke:#181818;stroke-width:1.0;"/><line style="stroke:#181818;stroke-width:1.0;stroke-dasharray:2.0,2.0;" x1="29.5" x2="277.5" y1="128.9609" y2="128.9609"/><!--MD5=[6dbcf320003579eebf5af5df9920a8e1]
@startuml
actor Actor as actor
participant SistemaRobDroneGO as srdg <<System(C4)>>
actor -> srdg: Listar edifícios com min e max de pisos
srdg - -> actor
@enduml

PlantUML version 1.2022.7(Mon Aug 22 18:01:30 BST 2022)
(GPL source distribution)
Java Runtime: OpenJDK Runtime Environment
JVM: OpenJDK 64-Bit Server VM
Default Encoding: Cp1252
Language: pt
Country: PT
--></g></svg>