<?xml version="1.0" encoding="UTF-8" standalone="no"?><svg xmlns="http://www.w3.org/2000/svg" xmlns:xlink="http://www.w3.org/1999/xlink" contentStyleType="text/css" height="337px" preserveAspectRatio="none" style="width:591px;height:337px;background:#FFFFFF;" version="1.1" viewBox="0 0 591 337" width="591px" zoomAndPan="magnify"><defs/><g><rect fill="#FFFFFF" height="131.8906" style="stroke:#181818;stroke-width:1.0;" width="10" x="495.5" y="114.9609"/><rect fill="none" height="94.8906" style="stroke:#000000;stroke-width:1.5;" width="574.5" x="10" y="129.9609"/><line style="stroke:#181818;stroke-width:0.5;stroke-dasharray:5.0,5.0;" x1="73" x2="73" y1="82.6094" y2="255.8516"/><line style="stroke:#181818;stroke-width:0.5;stroke-dasharray:5.0,5.0;" x1="500.5" x2="500.5" y1="82.6094" y2="255.8516"/><text fill="#000000" font-family="sans-serif" font-size="14" lengthAdjust="spacing" textLength="101" x="20" y="79.5332">Gestor de Frota</text><ellipse cx="73.5" cy="13.5" fill="#E2E2F0" rx="8" ry="8" style="stroke:#181818;stroke-width:0.5;"/><path d="M73.5,21.5 L73.5,48.5 M60.5,29.5 L86.5,29.5 M73.5,48.5 L60.5,63.5 M73.5,48.5 L86.5,63.5 " fill="none" style="stroke:#181818;stroke-width:0.5;"/><text fill="#000000" font-family="sans-serif" font-size="14" lengthAdjust="spacing" textLength="101" x="20" y="269.3848">Gestor de Frota</text><ellipse cx="73.5" cy="280.9609" fill="#E2E2F0" rx="8" ry="8" style="stroke:#181818;stroke-width:0.5;"/><path d="M73.5,288.9609 L73.5,315.9609 M60.5,296.9609 L86.5,296.9609 M73.5,315.9609 L60.5,330.9609 M73.5,315.9609 L86.5,330.9609 " fill="none" style="stroke:#181818;stroke-width:0.5;"/><rect fill="#E2E2F0" height="49.2188" rx="2.5" ry="2.5" style="stroke:#181818;stroke-width:0.5;" width="148" x="426.5" y="32.3906"/><text fill="#000000" font-family="sans-serif" font-size="14" font-style="italic" lengthAdjust="spacing" textLength="90" x="455.5" y="53.9238">«System(C4)»</text><text fill="#000000" font-family="sans-serif" font-size="14" lengthAdjust="spacing" textLength="134" x="433.5" y="71.5332">SistemaRobDroneGo</text><rect fill="#E2E2F0" height="49.2188" rx="2.5" ry="2.5" style="stroke:#181818;stroke-width:0.5;" width="148" x="426.5" y="254.8516"/><text fill="#000000" font-family="sans-serif" font-size="14" font-style="italic" lengthAdjust="spacing" textLength="90" x="455.5" y="276.3848">«System(C4)»</text><text fill="#000000" font-family="sans-serif" font-size="14" lengthAdjust="spacing" textLength="134" x="433.5" y="293.9941">SistemaRobDroneGo</text><rect fill="#FFFFFF" height="131.8906" style="stroke:#181818;stroke-width:1.0;" width="10" x="495.5" y="114.9609"/><polygon fill="#181818" points="483.5,110.9609,493.5,114.9609,483.5,118.9609,487.5,114.9609" style="stroke:#181818;stroke-width:1.0;"/><line style="stroke:#181818;stroke-width:1.0;" x1="73.5" x2="489.5" y1="114.9609" y2="114.9609"/><text fill="#000000" font-family="sans-serif" font-size="13" lengthAdjust="spacing" textLength="403" x="80.5" y="110.1045">Adicionar um novo robot à frota indicando o seu tipo, designação, etc.</text><path d="M10,129.9609 L71,129.9609 L71,138.3125 L61,148.3125 L10,148.3125 L10,129.9609 " fill="#EEEEEE" style="stroke:#000000;stroke-width:1.5;"/><rect fill="none" height="94.8906" style="stroke:#000000;stroke-width:1.5;" width="574.5" x="10" y="129.9609"/><text fill="#000000" font-family="sans-serif" font-size="13" font-weight="bold" lengthAdjust="spacing" textLength="16" x="25" y="144.4561">alt</text><text fill="#000000" font-family="sans-serif" font-size="11" font-weight="bold" lengthAdjust="spacing" textLength="56" x="86" y="143.3799">[sucesso]</text><polygon fill="#181818" points="84.5,166.6641,74.5,170.6641,84.5,174.6641,80.5,170.6641" style="stroke:#181818;stroke-width:1.0;"/><line style="stroke:#181818;stroke-width:1.0;stroke-dasharray:2.0,2.0;" x1="78.5" x2="494.5" y1="170.6641" y2="170.6641"/><text fill="#000000" font-family="sans-serif" font-size="13" lengthAdjust="spacing" textLength="282" x="90.5" y="165.8076">retorna informação sobre o sucesso da operação</text><line style="stroke:#000000;stroke-width:1.0;stroke-dasharray:2.0,2.0;" x1="10" x2="584.5" y1="179.6641" y2="179.6641"/><text fill="#000000" font-family="sans-serif" font-size="11" font-weight="bold" lengthAdjust="spacing" textLength="66" x="15" y="191.083">[insucesso]</text><polygon fill="#181818" points="84.5,212.8516,74.5,216.8516,84.5,220.8516,80.5,216.8516" style="stroke:#181818;stroke-width:1.0;"/><line style="stroke:#181818;stroke-width:1.0;stroke-dasharray:2.0,2.0;" x1="78.5" x2="494.5" y1="216.8516" y2="216.8516"/><text fill="#000000" font-family="sans-serif" font-size="13" lengthAdjust="spacing" textLength="260" x="90.5" y="211.9951">retorna informação sobre a falha da operação</text><polygon fill="#181818" points="84.5,233.8516,74.5,237.8516,84.5,241.8516,80.5,237.8516" style="stroke:#181818;stroke-width:1.0;"/><line style="stroke:#181818;stroke-width:1.0;stroke-dasharray:2.0,2.0;" x1="78.5" x2="494.5" y1="237.8516" y2="237.8516"/><!--MD5=[ea56d9c39773daefed0a7967142023ef]
@startuml vp1
actor "Gestor de Frota" as actor
participant SistemaRobDroneGo as srdg <<System(C4)>>
actor -> srdg++: Adicionar um novo robot à frota indicando o seu tipo, designação, etc.
alt sucesso
	srdg - -> actor: retorna informação sobre o sucesso da operação
else insucesso
	srdg - -> actor: retorna informação sobre a falha da operação
end alt
srdg - -> actor
@enduml

PlantUML version 1.2022.7(Mon Aug 22 18:01:30 WEST 2022)
(GPL source distribution)
Java Runtime: Java(TM) SE Runtime Environment
JVM: Java HotSpot(TM) 64-Bit Server VM
Default Encoding: Cp1252
Language: en
Country: US
--></g></svg>