<?xml version="1.0" encoding="UTF-8" standalone="no"?><svg xmlns="http://www.w3.org/2000/svg" xmlns:xlink="http://www.w3.org/1999/xlink" contentStyleType="text/css" height="477px" preserveAspectRatio="none" style="width:875px;height:477px;background:#FFFFFF;" version="1.1" viewBox="0 0 875 477" width="875px" zoomAndPan="magnify"><defs/><g><rect fill="#FFFFFF" height="292.4844" style="stroke:#181818;stroke-width:1.0;" width="10" x="77.5" y="92.6094"/><rect fill="#FFFFFF" height="270.1328" style="stroke:#181818;stroke-width:1.0;" width="10" x="472.5" y="114.9609"/><rect fill="#FFFFFF" height="122.8906" style="stroke:#181818;stroke-width:1.0;" width="10" x="814.5" y="145.3125"/><rect fill="none" height="94.8906" style="stroke:#000000;stroke-width:1.5;" width="474.5" x="393.5" y="160.3125"/><rect fill="none" height="94.8906" style="stroke:#000000;stroke-width:1.5;" width="551.5" x="10" y="283.2031"/><line style="stroke:#181818;stroke-width:0.5;stroke-dasharray:5.0,5.0;" x1="82" x2="82" y1="82.6094" y2="395.0938"/><line style="stroke:#181818;stroke-width:0.5;stroke-dasharray:5.0,5.0;" x1="477.5" x2="477.5" y1="82.6094" y2="395.0938"/><line style="stroke:#181818;stroke-width:0.5;stroke-dasharray:5.0,5.0;" x1="819" x2="819" y1="82.6094" y2="395.0938"/><text fill="#000000" font-family="sans-serif" font-size="14" lengthAdjust="spacing" textLength="119" x="20" y="79.5332">Gestor de Campus</text><ellipse cx="82.5" cy="13.5" fill="#E2E2F0" rx="8" ry="8" style="stroke:#181818;stroke-width:0.5;"/><path d="M82.5,21.5 L82.5,48.5 M69.5,29.5 L95.5,29.5 M82.5,48.5 L69.5,63.5 M82.5,48.5 L95.5,63.5 " fill="none" style="stroke:#181818;stroke-width:0.5;"/><text fill="#000000" font-family="sans-serif" font-size="14" lengthAdjust="spacing" textLength="119" x="20" y="408.627">Gestor de Campus</text><ellipse cx="82.5" cy="420.2031" fill="#E2E2F0" rx="8" ry="8" style="stroke:#181818;stroke-width:0.5;"/><path d="M82.5,428.2031 L82.5,455.2031 M69.5,436.2031 L95.5,436.2031 M82.5,455.2031 L69.5,470.2031 M82.5,455.2031 L95.5,470.2031 " fill="none" style="stroke:#181818;stroke-width:0.5;"/><rect fill="#E2E2F0" height="49.2188" rx="2.5" ry="2.5" style="stroke:#181818;stroke-width:0.5;" width="148" x="403.5" y="32.3906"/><text fill="#000000" font-family="sans-serif" font-size="14" font-style="italic" lengthAdjust="spacing" textLength="78" x="438.5" y="53.9238">«Container»</text><text fill="#000000" font-family="sans-serif" font-size="14" lengthAdjust="spacing" textLength="134" x="410.5" y="71.5332">SistemaRobDroneGo</text><rect fill="#E2E2F0" height="49.2188" rx="2.5" ry="2.5" style="stroke:#181818;stroke-width:0.5;" width="148" x="403.5" y="394.0938"/><text fill="#000000" font-family="sans-serif" font-size="14" font-style="italic" lengthAdjust="spacing" textLength="78" x="438.5" y="415.627">«Container»</text><text fill="#000000" font-family="sans-serif" font-size="14" lengthAdjust="spacing" textLength="134" x="410.5" y="433.2363">SistemaRobDroneGo</text><rect fill="#E2E2F0" height="49.2188" rx="2.5" ry="2.5" style="stroke:#181818;stroke-width:0.5;" width="77" x="781" y="32.3906"/><text fill="#000000" font-family="sans-serif" font-size="14" font-style="italic" lengthAdjust="spacing" textLength="63" x="788" y="53.9238">«Module»</text><text fill="#000000" font-family="sans-serif" font-size="14" lengthAdjust="spacing" textLength="29" x="805" y="71.5332">MDL</text><rect fill="#E2E2F0" height="49.2188" rx="2.5" ry="2.5" style="stroke:#181818;stroke-width:0.5;" width="77" x="781" y="394.0938"/><text fill="#000000" font-family="sans-serif" font-size="14" font-style="italic" lengthAdjust="spacing" textLength="63" x="788" y="415.627">«Module»</text><text fill="#000000" font-family="sans-serif" font-size="14" lengthAdjust="spacing" textLength="29" x="805" y="433.2363">MDL</text><rect fill="#FFFFFF" height="292.4844" style="stroke:#181818;stroke-width:1.0;" width="10" x="77.5" y="92.6094"/><rect fill="#FFFFFF" height="270.1328" style="stroke:#181818;stroke-width:1.0;" width="10" x="472.5" y="114.9609"/><rect fill="#FFFFFF" height="122.8906" style="stroke:#181818;stroke-width:1.0;" width="10" x="814.5" y="145.3125"/><polygon fill="#181818" points="460.5,110.9609,470.5,114.9609,460.5,118.9609,464.5,114.9609" style="stroke:#181818;stroke-width:1.0;"/><line style="stroke:#181818;stroke-width:1.0;" x1="87.5" x2="466.5" y1="114.9609" y2="114.9609"/><text fill="#000000" font-family="sans-serif" font-size="13" lengthAdjust="spacing" textLength="342" x="94.5" y="110.1045">Listar pisos de edifício com passagem para outros edifícios</text><polygon fill="#181818" points="802.5,141.3125,812.5,145.3125,802.5,149.3125,806.5,145.3125" style="stroke:#181818;stroke-width:1.0;"/><line style="stroke:#181818;stroke-width:1.0;" x1="482.5" x2="808.5" y1="145.3125" y2="145.3125"/><text fill="#000000" font-family="sans-serif" font-size="13" lengthAdjust="spacing" textLength="313" x="489.5" y="140.4561">Requesita uma lista de pisos de acordo com o edifício</text><path d="M393.5,160.3125 L454.5,160.3125 L454.5,168.6641 L444.5,178.6641 L393.5,178.6641 L393.5,160.3125 " fill="#EEEEEE" style="stroke:#000000;stroke-width:1.5;"/><rect fill="none" height="94.8906" style="stroke:#000000;stroke-width:1.5;" width="474.5" x="393.5" y="160.3125"/><text fill="#000000" font-family="sans-serif" font-size="13" font-weight="bold" lengthAdjust="spacing" textLength="16" x="408.5" y="174.8076">alt</text><text fill="#000000" font-family="sans-serif" font-size="11" font-weight="bold" lengthAdjust="spacing" textLength="56" x="469.5" y="173.7314">[sucesso]</text><polygon fill="#181818" points="493.5,197.0156,483.5,201.0156,493.5,205.0156,489.5,201.0156" style="stroke:#181818;stroke-width:1.0;"/><line style="stroke:#181818;stroke-width:1.0;stroke-dasharray:2.0,2.0;" x1="487.5" x2="813.5" y1="201.0156" y2="201.0156"/><text fill="#000000" font-family="sans-serif" font-size="13" lengthAdjust="spacing" textLength="171" x="499.5" y="196.1592">retorna informação pretendida</text><line style="stroke:#000000;stroke-width:1.0;stroke-dasharray:2.0,2.0;" x1="393.5" x2="868" y1="210.0156" y2="210.0156"/><text fill="#000000" font-family="sans-serif" font-size="11" font-weight="bold" lengthAdjust="spacing" textLength="66" x="398.5" y="221.4346">[insucesso]</text><polygon fill="#181818" points="493.5,243.2031,483.5,247.2031,493.5,251.2031,489.5,247.2031" style="stroke:#181818;stroke-width:1.0;"/><line style="stroke:#181818;stroke-width:1.0;stroke-dasharray:2.0,2.0;" x1="487.5" x2="813.5" y1="247.2031" y2="247.2031"/><text fill="#000000" font-family="sans-serif" font-size="13" lengthAdjust="spacing" textLength="148" x="499.5" y="242.3467">retorna um código de erro</text><polygon fill="#181818" points="493.5,264.2031,483.5,268.2031,493.5,272.2031,489.5,268.2031" style="stroke:#181818;stroke-width:1.0;"/><line style="stroke:#181818;stroke-width:1.0;" x1="487.5" x2="818.5" y1="268.2031" y2="268.2031"/><path d="M10,283.2031 L71,283.2031 L71,291.5547 L61,301.5547 L10,301.5547 L10,283.2031 " fill="#EEEEEE" style="stroke:#000000;stroke-width:1.5;"/><rect fill="none" height="94.8906" style="stroke:#000000;stroke-width:1.5;" width="551.5" x="10" y="283.2031"/><text fill="#000000" font-family="sans-serif" font-size="13" font-weight="bold" lengthAdjust="spacing" textLength="16" x="25" y="297.6982">alt</text><text fill="#000000" font-family="sans-serif" font-size="11" font-weight="bold" lengthAdjust="spacing" textLength="56" x="86" y="296.6221">[sucesso]</text><polygon fill="#181818" points="98.5,319.9063,88.5,323.9063,98.5,327.9063,94.5,323.9063" style="stroke:#181818;stroke-width:1.0;"/><line style="stroke:#181818;stroke-width:1.0;stroke-dasharray:2.0,2.0;" x1="92.5" x2="471.5" y1="323.9063" y2="323.9063"/><text fill="#000000" font-family="sans-serif" font-size="13" lengthAdjust="spacing" textLength="361" x="104.5" y="319.0498">retorna a lista de edificios com passagem para outros edificios</text><line style="stroke:#000000;stroke-width:1.0;stroke-dasharray:2.0,2.0;" x1="10" x2="561.5" y1="332.9063" y2="332.9063"/><text fill="#000000" font-family="sans-serif" font-size="11" font-weight="bold" lengthAdjust="spacing" textLength="66" x="15" y="344.3252">[insucesso]</text><polygon fill="#181818" points="98.5,366.0938,88.5,370.0938,98.5,374.0938,94.5,370.0938" style="stroke:#181818;stroke-width:1.0;"/><line style="stroke:#181818;stroke-width:1.0;stroke-dasharray:2.0,2.0;" x1="92.5" x2="471.5" y1="370.0938" y2="370.0938"/><text fill="#000000" font-family="sans-serif" font-size="13" lengthAdjust="spacing" textLength="260" x="104.5" y="365.2373">retorna informação sobre a falha da operação</text><!--MD5=[1ccb1239e970e2da6e618cf239b30477]
@startuml Vista de Processos de Nivel 2
actor "Gestor de Campus" as actor
participant SistemaRobDroneGo as srdg <<Container>>
participant MDL as mdl <<Module>>
activate actor
actor -> srdg: Listar pisos de edifício com passagem para outros edifícios
activate srdg
srdg -> mdl: Requesita uma lista de pisos de acordo com o edifício
activate mdl
alt sucesso
	mdl - -> srdg: retorna informação pretendida
else insucesso
	mdl - -> srdg: retorna um código de erro
end alt
mdl -> srdg: 
deactivate mdl
alt sucesso
	srdg - -> actor: retorna a lista de edificios com passagem para outros edificios
else insucesso
	srdg - -> actor: retorna informação sobre a falha da operação
end alt
deactivate srdg
deactivate actor

@enduml

PlantUML version 1.2022.7(Mon Aug 22 18:01:30 WEST 2022)
(GPL source distribution)
Java Runtime: Java(TM) SE Runtime Environment
JVM: Java HotSpot(TM) 64-Bit Server VM
Default Encoding: Cp1252
Language: en
Country: US
--></g></svg>