<?xml version="1.0" encoding="UTF-8" standalone="no"?><svg xmlns="http://www.w3.org/2000/svg" xmlns:xlink="http://www.w3.org/1999/xlink" contentStyleType="text/css" height="854px" preserveAspectRatio="none" style="width:1689px;height:854px;background:#FFFFFF;" version="1.1" viewBox="0 0 1689 854" width="1689px" zoomAndPan="magnify"><defs/><g><rect fill="#FFFFFF" height="752.1641" style="stroke:#181818;stroke-width:1.0;" width="10" x="26" y="47.6094"/><rect fill="#FFFFFF" height="729.8125" style="stroke:#181818;stroke-width:1.0;" width="10" x="141.5" y="69.9609"/><rect fill="#FFFFFF" height="693.4609" style="stroke:#181818;stroke-width:1.0;" width="10" x="382.5" y="100.3125"/><rect fill="#FFFFFF" height="501.8672" style="stroke:#181818;stroke-width:1.0;" width="10" x="536.5" y="175.0156"/><rect fill="#FFFFFF" height="457.5156" style="stroke:#181818;stroke-width:1.0;" width="10" x="690.5" y="205.3672"/><rect fill="#FFFFFF" height="280.1094" style="stroke:#181818;stroke-width:1.0;" width="10" x="817.5" y="324.4219"/><rect fill="#FFFFFF" height="235.7578" style="stroke:#181818;stroke-width:1.0;" width="10" x="931" y="354.7734"/><rect fill="#FFFFFF" height="14" style="stroke:#181818;stroke-width:1.0;" width="10" x="1092" y="429.4766"/><rect fill="#FFFFFF" height="14" style="stroke:#181818;stroke-width:1.0;" width="10" x="1092" y="562.5313"/><rect fill="#FFFFFF" height="14" style="stroke:#181818;stroke-width:1.0;" width="10" x="1092" y="634.8828"/><rect fill="#FFFFFF" height="58.3516" style="stroke:#181818;stroke-width:1.0;" width="10" x="1232.5" y="473.8281"/><rect fill="#FFFFFF" height="14" style="stroke:#181818;stroke-width:1.0;" width="10" x="1374.5" y="504.1797"/><rect fill="#FFFFFF" height="14" style="stroke:#181818;stroke-width:1.0;" width="10" x="1492" y="130.6641"/><rect fill="#FFFFFF" height="14" style="stroke:#181818;stroke-width:1.0;" width="10" x="1492" y="235.7188"/><rect fill="#FFFFFF" height="14" style="stroke:#181818;stroke-width:1.0;" width="10" x="1492" y="385.125"/><rect fill="#FFFFFF" height="14" style="stroke:#181818;stroke-width:1.0;" width="10" x="1584" y="280.0703"/><rect fill="none" height="94.8906" style="stroke:#000000;stroke-width:1.5;" width="392.5" x="57" y="691.8828"/><line style="stroke:#181818;stroke-width:0.5;stroke-dasharray:5.0,5.0;" x1="31" x2="31" y1="37.6094" y2="817.7734"/><line style="stroke:#181818;stroke-width:0.5;stroke-dasharray:5.0,5.0;" x1="146" x2="146" y1="37.6094" y2="817.7734"/><line style="stroke:#181818;stroke-width:0.5;stroke-dasharray:5.0,5.0;" x1="387.5" x2="387.5" y1="37.6094" y2="817.7734"/><line style="stroke:#181818;stroke-width:0.5;stroke-dasharray:5.0,5.0;" x1="541.5" x2="541.5" y1="37.6094" y2="817.7734"/><line style="stroke:#181818;stroke-width:0.5;stroke-dasharray:5.0,5.0;" x1="695" x2="695" y1="37.6094" y2="817.7734"/><line style="stroke:#181818;stroke-width:0.5;stroke-dasharray:5.0,5.0;" x1="822" x2="822" y1="37.6094" y2="817.7734"/><line style="stroke:#181818;stroke-width:0.5;stroke-dasharray:5.0,5.0;" x1="936" x2="936" y1="37.6094" y2="817.7734"/><line style="stroke:#181818;stroke-width:0.5;stroke-dasharray:5.0,5.0;" x1="1097" x2="1097" y1="37.6094" y2="817.7734"/><line style="stroke:#181818;stroke-width:0.5;stroke-dasharray:5.0,5.0;" x1="1237" x2="1237" y1="37.6094" y2="817.7734"/><line style="stroke:#181818;stroke-width:0.5;stroke-dasharray:5.0,5.0;" x1="1379" x2="1379" y1="37.6094" y2="817.7734"/><line style="stroke:#181818;stroke-width:0.5;stroke-dasharray:5.0,5.0;" x1="1497" x2="1497" y1="37.6094" y2="817.7734"/><line style="stroke:#181818;stroke-width:0.5;stroke-dasharray:5.0,5.0;" x1="1589" x2="1589" y1="37.6094" y2="817.7734"/><line style="stroke:#181818;stroke-width:0.5;stroke-dasharray:5.0,5.0;" x1="1651" x2="1651" y1="37.6094" y2="817.7734"/><rect fill="#E2E2F0" height="31.6094" rx="2.5" ry="2.5" style="stroke:#181818;stroke-width:0.5;" width="52" x="5" y="5"/><text fill="#000000" font-family="sans-serif" font-size="14" lengthAdjust="spacing" textLength="38" x="12" y="26.5332">Route</text><rect fill="#E2E2F0" height="31.6094" rx="2.5" ry="2.5" style="stroke:#181818;stroke-width:0.5;" width="52" x="5" y="816.7734"/><text fill="#000000" font-family="sans-serif" font-size="14" lengthAdjust="spacing" textLength="38" x="12" y="838.3066">Route</text><rect fill="#E2E2F0" height="31.6094" rx="2.5" ry="2.5" style="stroke:#181818;stroke-width:0.5;" width="159" x="67" y="5"/><text fill="#000000" font-family="sans-serif" font-size="14" lengthAdjust="spacing" textLength="145" x="74" y="26.5332">InterfaceSalaController</text><rect fill="#E2E2F0" height="31.6094" rx="2.5" ry="2.5" style="stroke:#181818;stroke-width:0.5;" width="159" x="67" y="816.7734"/><text fill="#000000" font-family="sans-serif" font-size="14" lengthAdjust="spacing" textLength="145" x="74" y="838.3066">InterfaceSalaController</text><rect fill="#E2E2F0" height="31.6094" rx="2.5" ry="2.5" style="stroke:#181818;stroke-width:0.5;" width="104" x="335.5" y="5"/><text fill="#000000" font-family="sans-serif" font-size="14" lengthAdjust="spacing" textLength="90" x="342.5" y="26.5332">SalaController</text><rect fill="#E2E2F0" height="31.6094" rx="2.5" ry="2.5" style="stroke:#181818;stroke-width:0.5;" width="104" x="335.5" y="816.7734"/><text fill="#000000" font-family="sans-serif" font-size="14" lengthAdjust="spacing" textLength="90" x="342.5" y="838.3066">SalaController</text><rect fill="#E2E2F0" height="31.6094" rx="2.5" ry="2.5" style="stroke:#181818;stroke-width:0.5;" width="144" x="469.5" y="5"/><text fill="#000000" font-family="sans-serif" font-size="14" lengthAdjust="spacing" textLength="130" x="476.5" y="26.5332">InterfaceSalaService</text><rect fill="#E2E2F0" height="31.6094" rx="2.5" ry="2.5" style="stroke:#181818;stroke-width:0.5;" width="144" x="469.5" y="816.7734"/><text fill="#000000" font-family="sans-serif" font-size="14" lengthAdjust="spacing" textLength="130" x="476.5" y="838.3066">InterfaceSalaService</text><rect fill="#E2E2F0" height="31.6094" rx="2.5" ry="2.5" style="stroke:#181818;stroke-width:0.5;" width="89" x="651" y="5"/><text fill="#000000" font-family="sans-serif" font-size="14" lengthAdjust="spacing" textLength="75" x="658" y="26.5332">SalaService</text><rect fill="#E2E2F0" height="31.6094" rx="2.5" ry="2.5" style="stroke:#181818;stroke-width:0.5;" width="89" x="651" y="816.7734"/><text fill="#000000" font-family="sans-serif" font-size="14" lengthAdjust="spacing" textLength="75" x="658" y="838.3066">SalaService</text><rect fill="#E2E2F0" height="31.6094" rx="2.5" ry="2.5" style="stroke:#181818;stroke-width:0.5;" width="131" x="757" y="5"/><text fill="#000000" font-family="sans-serif" font-size="14" lengthAdjust="spacing" textLength="117" x="764" y="26.5332">InterfaceSalaRepo</text><rect fill="#E2E2F0" height="31.6094" rx="2.5" ry="2.5" style="stroke:#181818;stroke-width:0.5;" width="131" x="757" y="816.7734"/><text fill="#000000" font-family="sans-serif" font-size="14" lengthAdjust="spacing" textLength="117" x="764" y="838.3066">InterfaceSalaRepo</text><rect fill="#E2E2F0" height="31.6094" rx="2.5" ry="2.5" style="stroke:#181818;stroke-width:0.5;" width="76" x="898" y="5"/><text fill="#000000" font-family="sans-serif" font-size="14" lengthAdjust="spacing" textLength="62" x="905" y="26.5332">SalaRepo</text><rect fill="#E2E2F0" height="31.6094" rx="2.5" ry="2.5" style="stroke:#181818;stroke-width:0.5;" width="76" x="898" y="816.7734"/><text fill="#000000" font-family="sans-serif" font-size="14" lengthAdjust="spacing" textLength="62" x="905" y="838.3066">SalaRepo</text><rect fill="#E2E2F0" height="31.6094" rx="2.5" ry="2.5" style="stroke:#181818;stroke-width:0.5;" width="90" x="1052" y="5"/><text fill="#000000" font-family="sans-serif" font-size="14" lengthAdjust="spacing" textLength="76" x="1059" y="26.5332">SalaMapper</text><rect fill="#E2E2F0" height="31.6094" rx="2.5" ry="2.5" style="stroke:#181818;stroke-width:0.5;" width="90" x="1052" y="816.7734"/><text fill="#000000" font-family="sans-serif" font-size="14" lengthAdjust="spacing" textLength="76" x="1059" y="838.3066">SalaMapper</text><rect fill="#E2E2F0" height="31.6094" rx="2.5" ry="2.5" style="stroke:#181818;stroke-width:0.5;" width="171" x="1152" y="5"/><text fill="#000000" font-family="sans-serif" font-size="14" lengthAdjust="spacing" textLength="157" x="1159" y="26.5332">InterfaceSalaPersistence</text><rect fill="#E2E2F0" height="31.6094" rx="2.5" ry="2.5" style="stroke:#181818;stroke-width:0.5;" width="171" x="1152" y="816.7734"/><text fill="#000000" font-family="sans-serif" font-size="14" lengthAdjust="spacing" textLength="157" x="1159" y="838.3066">InterfaceSalaPersistence</text><rect fill="#E2E2F0" height="31.6094" rx="2.5" ry="2.5" style="stroke:#181818;stroke-width:0.5;" width="93" x="1333" y="5"/><text fill="#000000" font-family="sans-serif" font-size="14" lengthAdjust="spacing" textLength="79" x="1340" y="26.5332">SalaSchema</text><rect fill="#E2E2F0" height="31.6094" rx="2.5" ry="2.5" style="stroke:#181818;stroke-width:0.5;" width="93" x="1333" y="816.7734"/><text fill="#000000" font-family="sans-serif" font-size="14" lengthAdjust="spacing" textLength="79" x="1340" y="838.3066">SalaSchema</text><rect fill="#E2E2F0" height="31.6094" rx="2.5" ry="2.5" style="stroke:#181818;stroke-width:0.5;" width="122" x="1436" y="5"/><text fill="#000000" font-family="sans-serif" font-size="14" lengthAdjust="spacing" textLength="108" x="1443" y="26.5332">ConfigurationFile</text><rect fill="#E2E2F0" height="31.6094" rx="2.5" ry="2.5" style="stroke:#181818;stroke-width:0.5;" width="122" x="1436" y="816.7734"/><text fill="#000000" font-family="sans-serif" font-size="14" lengthAdjust="spacing" textLength="108" x="1443" y="838.3066">ConfigurationFile</text><rect fill="#E2E2F0" height="31.6094" rx="2.5" ry="2.5" style="stroke:#181818;stroke-width:0.5;" width="42" x="1568" y="5"/><text fill="#000000" font-family="sans-serif" font-size="14" lengthAdjust="spacing" textLength="28" x="1575" y="26.5332">Sala</text><rect fill="#E2E2F0" height="31.6094" rx="2.5" ry="2.5" style="stroke:#181818;stroke-width:0.5;" width="42" x="1568" y="816.7734"/><text fill="#000000" font-family="sans-serif" font-size="14" lengthAdjust="spacing" textLength="28" x="1575" y="838.3066">Sala</text><rect fill="#E2E2F0" height="31.6094" rx="2.5" ry="2.5" style="stroke:#181818;stroke-width:0.5;" width="63" x="1620" y="5"/><text fill="#000000" font-family="sans-serif" font-size="14" lengthAdjust="spacing" textLength="49" x="1627" y="26.5332">scheam</text><rect fill="#E2E2F0" height="31.6094" rx="2.5" ry="2.5" style="stroke:#181818;stroke-width:0.5;" width="63" x="1620" y="816.7734"/><text fill="#000000" font-family="sans-serif" font-size="14" lengthAdjust="spacing" textLength="49" x="1627" y="838.3066">scheam</text><rect fill="#FFFFFF" height="752.1641" style="stroke:#181818;stroke-width:1.0;" width="10" x="26" y="47.6094"/><rect fill="#FFFFFF" height="729.8125" style="stroke:#181818;stroke-width:1.0;" width="10" x="141.5" y="69.9609"/><rect fill="#FFFFFF" height="693.4609" style="stroke:#181818;stroke-width:1.0;" width="10" x="382.5" y="100.3125"/><rect fill="#FFFFFF" height="501.8672" style="stroke:#181818;stroke-width:1.0;" width="10" x="536.5" y="175.0156"/><rect fill="#FFFFFF" height="457.5156" style="stroke:#181818;stroke-width:1.0;" width="10" x="690.5" y="205.3672"/><rect fill="#FFFFFF" height="280.1094" style="stroke:#181818;stroke-width:1.0;" width="10" x="817.5" y="324.4219"/><rect fill="#FFFFFF" height="235.7578" style="stroke:#181818;stroke-width:1.0;" width="10" x="931" y="354.7734"/><rect fill="#FFFFFF" height="14" style="stroke:#181818;stroke-width:1.0;" width="10" x="1092" y="429.4766"/><rect fill="#FFFFFF" height="14" style="stroke:#181818;stroke-width:1.0;" width="10" x="1092" y="562.5313"/><rect fill="#FFFFFF" height="14" style="stroke:#181818;stroke-width:1.0;" width="10" x="1092" y="634.8828"/><rect fill="#FFFFFF" height="58.3516" style="stroke:#181818;stroke-width:1.0;" width="10" x="1232.5" y="473.8281"/><rect fill="#FFFFFF" height="14" style="stroke:#181818;stroke-width:1.0;" width="10" x="1374.5" y="504.1797"/><rect fill="#FFFFFF" height="14" style="stroke:#181818;stroke-width:1.0;" width="10" x="1492" y="130.6641"/><rect fill="#FFFFFF" height="14" style="stroke:#181818;stroke-width:1.0;" width="10" x="1492" y="235.7188"/><rect fill="#FFFFFF" height="14" style="stroke:#181818;stroke-width:1.0;" width="10" x="1492" y="385.125"/><rect fill="#FFFFFF" height="14" style="stroke:#181818;stroke-width:1.0;" width="10" x="1584" y="280.0703"/><polygon fill="#181818" points="129.5,65.9609,139.5,69.9609,129.5,73.9609,133.5,69.9609" style="stroke:#181818;stroke-width:1.0;"/><line style="stroke:#181818;stroke-width:1.0;" x1="36" x2="135.5" y1="69.9609" y2="69.9609"/><text fill="#000000" font-family="sans-serif" font-size="13" lengthAdjust="spacing" textLength="53" x="43" y="65.1045">criar sala</text><polygon fill="#181818" points="370.5,96.3125,380.5,100.3125,370.5,104.3125,374.5,100.3125" style="stroke:#181818;stroke-width:1.0;"/><line style="stroke:#181818;stroke-width:1.0;" x1="151.5" x2="376.5" y1="100.3125" y2="100.3125"/><text fill="#000000" font-family="sans-serif" font-size="13" lengthAdjust="spacing" textLength="147" x="158.5" y="95.4561">createSala(req, res, next)</text><polygon fill="#181818" points="1480,126.6641,1490,130.6641,1480,134.6641,1484,130.6641" style="stroke:#181818;stroke-width:1.0;"/><line style="stroke:#181818;stroke-width:1.0;" x1="392.5" x2="1486" y1="130.6641" y2="130.6641"/><text fill="#000000" font-family="sans-serif" font-size="13" lengthAdjust="spacing" textLength="132" x="399.5" y="125.8076">injeta o serviço do sala</text><polygon fill="#181818" points="403.5,140.6641,393.5,144.6641,403.5,148.6641,399.5,144.6641" style="stroke:#181818;stroke-width:1.0;"/><line style="stroke:#181818;stroke-width:1.0;stroke-dasharray:2.0,2.0;" x1="397.5" x2="1496" y1="144.6641" y2="144.6641"/><polygon fill="#181818" points="524.5,171.0156,534.5,175.0156,524.5,179.0156,528.5,175.0156" style="stroke:#181818;stroke-width:1.0;"/><line style="stroke:#181818;stroke-width:1.0;" x1="392.5" x2="530.5" y1="175.0156" y2="175.0156"/><text fill="#000000" font-family="sans-serif" font-size="13" lengthAdjust="spacing" textLength="125" x="399.5" y="170.1592">createSala(ISalaDTO)</text><polygon fill="#181818" points="678.5,201.3672,688.5,205.3672,678.5,209.3672,682.5,205.3672" style="stroke:#181818;stroke-width:1.0;"/><line style="stroke:#181818;stroke-width:1.0;" x1="546.5" x2="684.5" y1="205.3672" y2="205.3672"/><text fill="#000000" font-family="sans-serif" font-size="13" lengthAdjust="spacing" textLength="125" x="553.5" y="200.5107">createSala(ISalaDTO)</text><polygon fill="#181818" points="1480,231.7188,1490,235.7188,1480,239.7188,1484,235.7188" style="stroke:#181818;stroke-width:1.0;"/><line style="stroke:#181818;stroke-width:1.0;" x1="700.5" x2="1486" y1="235.7188" y2="235.7188"/><text fill="#000000" font-family="sans-serif" font-size="13" lengthAdjust="spacing" textLength="152" x="707.5" y="230.8623">injeta o repositório do sala</text><polygon fill="#181818" points="711.5,245.7188,701.5,249.7188,711.5,253.7188,707.5,249.7188" style="stroke:#181818;stroke-width:1.0;"/><line style="stroke:#181818;stroke-width:1.0;stroke-dasharray:2.0,2.0;" x1="705.5" x2="1496" y1="249.7188" y2="249.7188"/><polygon fill="#181818" points="1572,276.0703,1582,280.0703,1572,284.0703,1576,280.0703" style="stroke:#181818;stroke-width:1.0;"/><line style="stroke:#181818;stroke-width:1.0;" x1="700.5" x2="1578" y1="280.0703" y2="280.0703"/><text fill="#000000" font-family="sans-serif" font-size="13" lengthAdjust="spacing" textLength="134" x="707.5" y="275.2139">sala = create(salaDTO)</text><polygon fill="#181818" points="711.5,290.0703,701.5,294.0703,711.5,298.0703,707.5,294.0703" style="stroke:#181818;stroke-width:1.0;"/><line style="stroke:#181818;stroke-width:1.0;stroke-dasharray:2.0,2.0;" x1="705.5" x2="1588" y1="294.0703" y2="294.0703"/><polygon fill="#181818" points="805.5,320.4219,815.5,324.4219,805.5,328.4219,809.5,324.4219" style="stroke:#181818;stroke-width:1.0;"/><line style="stroke:#181818;stroke-width:1.0;" x1="700.5" x2="811.5" y1="324.4219" y2="324.4219"/><text fill="#000000" font-family="sans-serif" font-size="13" lengthAdjust="spacing" textLength="98" x="707.5" y="319.5654">sala = save(sala)</text><polygon fill="#181818" points="919,350.7734,929,354.7734,919,358.7734,923,354.7734" style="stroke:#181818;stroke-width:1.0;"/><line style="stroke:#181818;stroke-width:1.0;" x1="827.5" x2="925" y1="354.7734" y2="354.7734"/><text fill="#000000" font-family="sans-serif" font-size="13" lengthAdjust="spacing" textLength="58" x="834.5" y="349.917">save(sala)</text><polygon fill="#181818" points="1480,381.125,1490,385.125,1480,389.125,1484,385.125" style="stroke:#181818;stroke-width:1.0;"/><line style="stroke:#181818;stroke-width:1.0;" x1="941" x2="1486" y1="385.125" y2="385.125"/><text fill="#000000" font-family="sans-serif" font-size="13" lengthAdjust="spacing" textLength="138" x="948" y="380.2686">injeta o schema do sala</text><polygon fill="#181818" points="952,395.125,942,399.125,952,403.125,948,399.125" style="stroke:#181818;stroke-width:1.0;"/><line style="stroke:#181818;stroke-width:1.0;stroke-dasharray:2.0,2.0;" x1="946" x2="1496" y1="399.125" y2="399.125"/><polygon fill="#181818" points="1080,425.4766,1090,429.4766,1080,433.4766,1084,429.4766" style="stroke:#181818;stroke-width:1.0;"/><line style="stroke:#181818;stroke-width:1.0;" x1="941" x2="1086" y1="429.4766" y2="429.4766"/><text fill="#000000" font-family="sans-serif" font-size="13" lengthAdjust="spacing" textLength="112" x="948" y="424.6201">toPersistence(sala)</text><polygon fill="#181818" points="952,439.4766,942,443.4766,952,447.4766,948,443.4766" style="stroke:#181818;stroke-width:1.0;"/><line style="stroke:#181818;stroke-width:1.0;stroke-dasharray:2.0,2.0;" x1="946" x2="1096" y1="443.4766" y2="443.4766"/><polygon fill="#181818" points="1220.5,469.8281,1230.5,473.8281,1220.5,477.8281,1224.5,473.8281" style="stroke:#181818;stroke-width:1.0;"/><line style="stroke:#181818;stroke-width:1.0;" x1="941" x2="1226.5" y1="473.8281" y2="473.8281"/><text fill="#000000" font-family="sans-serif" font-size="13" lengthAdjust="spacing" textLength="113" x="948" y="468.9717">create(salaCreated)</text><polygon fill="#181818" points="1362.5,500.1797,1372.5,504.1797,1362.5,508.1797,1366.5,504.1797" style="stroke:#181818;stroke-width:1.0;"/><line style="stroke:#181818;stroke-width:1.0;" x1="1242.5" x2="1368.5" y1="504.1797" y2="504.1797"/><text fill="#000000" font-family="sans-serif" font-size="13" lengthAdjust="spacing" textLength="113" x="1249.5" y="499.3232">create(salaCreated)</text><polygon fill="#181818" points="1253.5,514.1797,1243.5,518.1797,1253.5,522.1797,1249.5,518.1797" style="stroke:#181818;stroke-width:1.0;"/><line style="stroke:#181818;stroke-width:1.0;stroke-dasharray:2.0,2.0;" x1="1247.5" x2="1378.5" y1="518.1797" y2="518.1797"/><polygon fill="#181818" points="952,528.1797,942,532.1797,952,536.1797,948,532.1797" style="stroke:#181818;stroke-width:1.0;"/><line style="stroke:#181818;stroke-width:1.0;stroke-dasharray:2.0,2.0;" x1="946" x2="1236.5" y1="532.1797" y2="532.1797"/><polygon fill="#181818" points="1080,558.5313,1090,562.5313,1080,566.5313,1084,562.5313" style="stroke:#181818;stroke-width:1.0;"/><line style="stroke:#181818;stroke-width:1.0;" x1="941" x2="1086" y1="562.5313" y2="562.5313"/><text fill="#000000" font-family="sans-serif" font-size="13" lengthAdjust="spacing" textLength="132" x="948" y="557.6748">toDomain(salaCreated)</text><polygon fill="#181818" points="952,572.5313,942,576.5313,952,580.5313,948,576.5313" style="stroke:#181818;stroke-width:1.0;"/><line style="stroke:#181818;stroke-width:1.0;stroke-dasharray:2.0,2.0;" x1="946" x2="1096" y1="576.5313" y2="576.5313"/><polygon fill="#181818" points="838.5,586.5313,828.5,590.5313,838.5,594.5313,834.5,590.5313" style="stroke:#181818;stroke-width:1.0;"/><line style="stroke:#181818;stroke-width:1.0;stroke-dasharray:2.0,2.0;" x1="832.5" x2="935" y1="590.5313" y2="590.5313"/><polygon fill="#181818" points="711.5,600.5313,701.5,604.5313,711.5,608.5313,707.5,604.5313" style="stroke:#181818;stroke-width:1.0;"/><line style="stroke:#181818;stroke-width:1.0;stroke-dasharray:2.0,2.0;" x1="705.5" x2="821.5" y1="604.5313" y2="604.5313"/><polygon fill="#181818" points="1080,630.8828,1090,634.8828,1080,638.8828,1084,634.8828" style="stroke:#181818;stroke-width:1.0;"/><line style="stroke:#181818;stroke-width:1.0;" x1="700.5" x2="1086" y1="634.8828" y2="634.8828"/><text fill="#000000" font-family="sans-serif" font-size="13" lengthAdjust="spacing" textLength="69" x="707.5" y="630.0264">toDTO(sala)</text><polygon fill="#181818" points="711.5,644.8828,701.5,648.8828,711.5,652.8828,707.5,648.8828" style="stroke:#181818;stroke-width:1.0;"/><line style="stroke:#181818;stroke-width:1.0;stroke-dasharray:2.0,2.0;" x1="705.5" x2="1096" y1="648.8828" y2="648.8828"/><polygon fill="#181818" points="557.5,658.8828,547.5,662.8828,557.5,666.8828,553.5,662.8828" style="stroke:#181818;stroke-width:1.0;"/><line style="stroke:#181818;stroke-width:1.0;stroke-dasharray:2.0,2.0;" x1="551.5" x2="694.5" y1="662.8828" y2="662.8828"/><polygon fill="#181818" points="403.5,672.8828,393.5,676.8828,403.5,680.8828,399.5,676.8828" style="stroke:#181818;stroke-width:1.0;"/><line style="stroke:#181818;stroke-width:1.0;stroke-dasharray:2.0,2.0;" x1="397.5" x2="540.5" y1="676.8828" y2="676.8828"/><path d="M57,691.8828 L118,691.8828 L118,700.2344 L108,710.2344 L57,710.2344 L57,691.8828 " fill="#EEEEEE" style="stroke:#000000;stroke-width:1.5;"/><rect fill="none" height="94.8906" style="stroke:#000000;stroke-width:1.5;" width="392.5" x="57" y="691.8828"/><text fill="#000000" font-family="sans-serif" font-size="13" font-weight="bold" lengthAdjust="spacing" textLength="16" x="72" y="706.3779">alt</text><text fill="#000000" font-family="sans-serif" font-size="11" font-weight="bold" lengthAdjust="spacing" textLength="102" x="133" y="705.3018">[caso de sucesso]</text><polygon fill="#181818" points="162.5,728.5859,152.5,732.5859,162.5,736.5859,158.5,732.5859" style="stroke:#181818;stroke-width:1.0;"/><line style="stroke:#181818;stroke-width:1.0;stroke-dasharray:2.0,2.0;" x1="156.5" x2="381.5" y1="732.5859" y2="732.5859"/><text fill="#000000" font-family="sans-serif" font-size="13" lengthAdjust="spacing" textLength="167" x="168.5" y="727.7295">Envia um código 201 (POST)</text><line style="stroke:#000000;stroke-width:1.0;stroke-dasharray:2.0,2.0;" x1="57" x2="449.5" y1="741.5859" y2="741.5859"/><text fill="#000000" font-family="sans-serif" font-size="11" font-weight="bold" lengthAdjust="spacing" textLength="112" x="62" y="753.0049">[caso de insucesso]</text><polygon fill="#181818" points="162.5,774.7734,152.5,778.7734,162.5,782.7734,158.5,778.7734" style="stroke:#181818;stroke-width:1.0;"/><line style="stroke:#181818;stroke-width:1.0;stroke-dasharray:2.0,2.0;" x1="156.5" x2="381.5" y1="778.7734" y2="778.7734"/><text fill="#000000" font-family="sans-serif" font-size="13" lengthAdjust="spacing" textLength="207" x="168.5" y="773.917">Envia um código 404 (NOT FOUND)</text><polygon fill="#181818" points="42,795.7734,32,799.7734,42,803.7734,38,799.7734" style="stroke:#181818;stroke-width:1.0;"/><line style="stroke:#181818;stroke-width:1.0;stroke-dasharray:2.0,2.0;" x1="36" x2="145.5" y1="799.7734" y2="799.7734"/><!--MD5=[3ad54dd3c9ea49a01eb07d0e59e83f2f]
@startuml sd

participant Route as route
participant InterfaceSalaController as ictrl
participant SalaController as ctrl
participant InterfaceSalaService as isvc
participant SalaService as svc
participant InterfaceSalaRepo as irepo
participant SalaRepo as repo
participant SalaMapper as mapper
participant InterfaceSalaPersistence as ischema
participant SalaSchema as schema
participant ConfigurationFile as conf
participant Sala as model

activate route
route -> ictrl : criar sala
activate ictrl
ictrl -> ctrl : createSala(req, res, next)
activate ctrl
ctrl -> conf : injeta o serviço do sala
activate conf
conf - -> ctrl
deactivate conf
ctrl -> isvc : createSala(ISalaDTO)
activate isvc
isvc -> svc : createSala(ISalaDTO)
activate svc
svc -> conf : injeta o repositório do sala
activate conf
conf - -> svc
deactivate conf
svc -> model : sala = create(salaDTO)
activate model
model - -> svc
deactivate model
svc -> irepo : sala = save(sala)
activate irepo
irepo -> repo : save(sala)
activate repo
repo -> conf : injeta o schema do sala
activate conf
conf - -> repo
deactivate conf
repo -> mapper : toPersistence(sala)
activate mapper
mapper - -> repo
deactivate mapper
repo -> ischema : create(salaCreated)
activate ischema 
ischema -> schema : create(salaCreated)
activate schema
schema - -> ischema
deactivate schema
deactivate scheam
ischema - -> repo
deactivate ischema
repo -> mapper : toDomain(salaCreated)
activate mapper
mapper - -> repo
deactivate mapper
repo - -> irepo
deactivate repo
irepo - -> svc
deactivate irepo
svc -> mapper : toDTO(sala)
activate mapper
mapper - -> svc
deactivate mapper
svc - -> isvc
deactivate svc
isvc - -> ctrl
deactivate isvc
alt caso de sucesso
    ctrl - -> ictrl : Envia um código 201 (POST)
else caso de insucesso
    ctrl - -> ictrl : Envia um código 404 (NOT FOUND)
end
deactivate ctrl
ictrl - -> route
deactivate ictrl
deactivate route



@enduml

PlantUML version 1.2022.7(Mon Aug 22 18:01:30 WEST 2022)
(GPL source distribution)
Java Runtime: Java(TM) SE Runtime Environment
JVM: Java HotSpot(TM) 64-Bit Server VM
Default Encoding: Cp1252
Language: pt
Country: PT
--></g></svg>