<?xml version="1.0" encoding="UTF-8" standalone="no"?><svg xmlns="http://www.w3.org/2000/svg" xmlns:xlink="http://www.w3.org/1999/xlink" contentStyleType="text/css" height="1057px" preserveAspectRatio="none" style="width:2015px;height:1057px;background:#FFFFFF;" version="1.1" viewBox="0 0 2015 1057" width="2015px" zoomAndPan="magnify"><defs/><g><rect fill="#FFFFFF" height="955.7344" style="stroke:#181818;stroke-width:1.0;" width="10" x="41" y="47.6094"/><rect fill="#FFFFFF" height="933.3828" style="stroke:#181818;stroke-width:1.0;" width="10" x="156.5" y="69.9609"/><rect fill="#FFFFFF" height="889.0313" style="stroke:#181818;stroke-width:1.0;" width="10" x="397.5" y="100.3125"/><rect fill="#FFFFFF" height="783.9766" style="stroke:#181818;stroke-width:1.0;" width="10" x="551.5" y="175.0156"/><rect fill="#FFFFFF" height="739.625" style="stroke:#181818;stroke-width:1.0;" width="10" x="705.5" y="205.3672"/><rect fill="#FFFFFF" height="147.0547" style="stroke:#181818;stroke-width:1.0;" width="10" x="985.5" y="280.0703"/><rect fill="#FFFFFF" height="280.1094" style="stroke:#181818;stroke-width:1.0;" width="10" x="985.5" y="606.5313"/><rect fill="#FFFFFF" height="102.7031" style="stroke:#181818;stroke-width:1.0;" width="10" x="1192.5" y="310.4219"/><rect fill="#FFFFFF" height="235.7578" style="stroke:#181818;stroke-width:1.0;" width="10" x="1192.5" y="636.8828"/><rect fill="#FFFFFF" height="14" style="stroke:#181818;stroke-width:1.0;" width="10" x="1353.5" y="711.5859"/><rect fill="#FFFFFF" height="14" style="stroke:#181818;stroke-width:1.0;" width="10" x="1353.5" y="844.6406"/><rect fill="#FFFFFF" height="14" style="stroke:#181818;stroke-width:1.0;" width="10" x="1353.5" y="916.9922"/><rect fill="#FFFFFF" height="58.3516" style="stroke:#181818;stroke-width:1.0;" width="10" x="1494" y="340.7734"/><rect fill="#FFFFFF" height="58.3516" style="stroke:#181818;stroke-width:1.0;" width="10" x="1494" y="755.9375"/><rect fill="#FFFFFF" height="14" style="stroke:#181818;stroke-width:1.0;" width="10" x="1701" y="371.125"/><rect fill="#FFFFFF" height="14" style="stroke:#181818;stroke-width:1.0;" width="10" x="1701" y="786.2891"/><rect fill="#FFFFFF" height="14" style="stroke:#181818;stroke-width:1.0;" width="10" x="1818.5" y="130.6641"/><rect fill="#FFFFFF" height="14" style="stroke:#181818;stroke-width:1.0;" width="10" x="1818.5" y="235.7188"/><rect fill="#FFFFFF" height="14" style="stroke:#181818;stroke-width:1.0;" width="10" x="1818.5" y="667.2344"/><rect fill="#FFFFFF" height="14" style="stroke:#181818;stroke-width:1.0;" width="10" x="1910.5" y="562.1797"/><rect fill="none" height="90.7031" style="stroke:#000000;stroke-width:1.5;" width="755" x="10" y="442.125"/><line style="stroke:#181818;stroke-width:0.5;stroke-dasharray:5.0,5.0;" x1="46" x2="46" y1="37.6094" y2="1021.3438"/><line style="stroke:#181818;stroke-width:0.5;stroke-dasharray:5.0,5.0;" x1="161" x2="161" y1="37.6094" y2="1021.3438"/><line style="stroke:#181818;stroke-width:0.5;stroke-dasharray:5.0,5.0;" x1="402.5" x2="402.5" y1="37.6094" y2="1021.3438"/><line style="stroke:#181818;stroke-width:0.5;stroke-dasharray:5.0,5.0;" x1="556.5" x2="556.5" y1="37.6094" y2="1021.3438"/><line style="stroke:#181818;stroke-width:0.5;stroke-dasharray:5.0,5.0;" x1="710" x2="710" y1="37.6094" y2="1021.3438"/><line style="stroke:#181818;stroke-width:0.5;stroke-dasharray:5.0,5.0;" x1="990" x2="990" y1="37.6094" y2="1021.3438"/><line style="stroke:#181818;stroke-width:0.5;stroke-dasharray:5.0,5.0;" x1="1197.5" x2="1197.5" y1="37.6094" y2="1021.3438"/><line style="stroke:#181818;stroke-width:0.5;stroke-dasharray:5.0,5.0;" x1="1358.5" x2="1358.5" y1="37.6094" y2="1021.3438"/><line style="stroke:#181818;stroke-width:0.5;stroke-dasharray:5.0,5.0;" x1="1498.5" x2="1498.5" y1="37.6094" y2="1021.3438"/><line style="stroke:#181818;stroke-width:0.5;stroke-dasharray:5.0,5.0;" x1="1705.5" x2="1705.5" y1="37.6094" y2="1021.3438"/><line style="stroke:#181818;stroke-width:0.5;stroke-dasharray:5.0,5.0;" x1="1823.5" x2="1823.5" y1="37.6094" y2="1021.3438"/><line style="stroke:#181818;stroke-width:0.5;stroke-dasharray:5.0,5.0;" x1="1915.5" x2="1915.5" y1="37.6094" y2="1021.3438"/><line style="stroke:#181818;stroke-width:0.5;stroke-dasharray:5.0,5.0;" x1="1977.5" x2="1977.5" y1="37.6094" y2="1021.3438"/><rect fill="#E2E2F0" height="31.6094" rx="2.5" ry="2.5" style="stroke:#181818;stroke-width:0.5;" width="52" x="20" y="5"/><text fill="#000000" font-family="sans-serif" font-size="14" lengthAdjust="spacing" textLength="38" x="27" y="26.5332">Route</text><rect fill="#E2E2F0" height="31.6094" rx="2.5" ry="2.5" style="stroke:#181818;stroke-width:0.5;" width="52" x="20" y="1020.3438"/><text fill="#000000" font-family="sans-serif" font-size="14" lengthAdjust="spacing" textLength="38" x="27" y="1041.877">Route</text><rect fill="#E2E2F0" height="31.6094" rx="2.5" ry="2.5" style="stroke:#181818;stroke-width:0.5;" width="159" x="82" y="5"/><text fill="#000000" font-family="sans-serif" font-size="14" lengthAdjust="spacing" textLength="145" x="89" y="26.5332">InterfaceSalaController</text><rect fill="#E2E2F0" height="31.6094" rx="2.5" ry="2.5" style="stroke:#181818;stroke-width:0.5;" width="159" x="82" y="1020.3438"/><text fill="#000000" font-family="sans-serif" font-size="14" lengthAdjust="spacing" textLength="145" x="89" y="1041.877">InterfaceSalaController</text><rect fill="#E2E2F0" height="31.6094" rx="2.5" ry="2.5" style="stroke:#181818;stroke-width:0.5;" width="104" x="350.5" y="5"/><text fill="#000000" font-family="sans-serif" font-size="14" lengthAdjust="spacing" textLength="90" x="357.5" y="26.5332">SalaController</text><rect fill="#E2E2F0" height="31.6094" rx="2.5" ry="2.5" style="stroke:#181818;stroke-width:0.5;" width="104" x="350.5" y="1020.3438"/><text fill="#000000" font-family="sans-serif" font-size="14" lengthAdjust="spacing" textLength="90" x="357.5" y="1041.877">SalaController</text><rect fill="#E2E2F0" height="31.6094" rx="2.5" ry="2.5" style="stroke:#181818;stroke-width:0.5;" width="144" x="484.5" y="5"/><text fill="#000000" font-family="sans-serif" font-size="14" lengthAdjust="spacing" textLength="130" x="491.5" y="26.5332">InterfaceSalaService</text><rect fill="#E2E2F0" height="31.6094" rx="2.5" ry="2.5" style="stroke:#181818;stroke-width:0.5;" width="144" x="484.5" y="1020.3438"/><text fill="#000000" font-family="sans-serif" font-size="14" lengthAdjust="spacing" textLength="130" x="491.5" y="1041.877">InterfaceSalaService</text><rect fill="#E2E2F0" height="31.6094" rx="2.5" ry="2.5" style="stroke:#181818;stroke-width:0.5;" width="89" x="666" y="5"/><text fill="#000000" font-family="sans-serif" font-size="14" lengthAdjust="spacing" textLength="75" x="673" y="26.5332">SalaService</text><rect fill="#E2E2F0" height="31.6094" rx="2.5" ry="2.5" style="stroke:#181818;stroke-width:0.5;" width="89" x="666" y="1020.3438"/><text fill="#000000" font-family="sans-serif" font-size="14" lengthAdjust="spacing" textLength="75" x="673" y="1041.877">SalaService</text><rect fill="#E2E2F0" height="31.6094" rx="2.5" ry="2.5" style="stroke:#181818;stroke-width:0.5;" width="131" x="925" y="5"/><text fill="#000000" font-family="sans-serif" font-size="14" lengthAdjust="spacing" textLength="117" x="932" y="26.5332">InterfaceSalaRepo</text><rect fill="#E2E2F0" height="31.6094" rx="2.5" ry="2.5" style="stroke:#181818;stroke-width:0.5;" width="131" x="925" y="1020.3438"/><text fill="#000000" font-family="sans-serif" font-size="14" lengthAdjust="spacing" textLength="117" x="932" y="1041.877">InterfaceSalaRepo</text><rect fill="#E2E2F0" height="31.6094" rx="2.5" ry="2.5" style="stroke:#181818;stroke-width:0.5;" width="76" x="1159.5" y="5"/><text fill="#000000" font-family="sans-serif" font-size="14" lengthAdjust="spacing" textLength="62" x="1166.5" y="26.5332">SalaRepo</text><rect fill="#E2E2F0" height="31.6094" rx="2.5" ry="2.5" style="stroke:#181818;stroke-width:0.5;" width="76" x="1159.5" y="1020.3438"/><text fill="#000000" font-family="sans-serif" font-size="14" lengthAdjust="spacing" textLength="62" x="1166.5" y="1041.877">SalaRepo</text><rect fill="#E2E2F0" height="31.6094" rx="2.5" ry="2.5" style="stroke:#181818;stroke-width:0.5;" width="90" x="1313.5" y="5"/><text fill="#000000" font-family="sans-serif" font-size="14" lengthAdjust="spacing" textLength="76" x="1320.5" y="26.5332">SalaMapper</text><rect fill="#E2E2F0" height="31.6094" rx="2.5" ry="2.5" style="stroke:#181818;stroke-width:0.5;" width="90" x="1313.5" y="1020.3438"/><text fill="#000000" font-family="sans-serif" font-size="14" lengthAdjust="spacing" textLength="76" x="1320.5" y="1041.877">SalaMapper</text><rect fill="#E2E2F0" height="31.6094" rx="2.5" ry="2.5" style="stroke:#181818;stroke-width:0.5;" width="171" x="1413.5" y="5"/><text fill="#000000" font-family="sans-serif" font-size="14" lengthAdjust="spacing" textLength="157" x="1420.5" y="26.5332">InterfaceSalaPersistence</text><rect fill="#E2E2F0" height="31.6094" rx="2.5" ry="2.5" style="stroke:#181818;stroke-width:0.5;" width="171" x="1413.5" y="1020.3438"/><text fill="#000000" font-family="sans-serif" font-size="14" lengthAdjust="spacing" textLength="157" x="1420.5" y="1041.877">InterfaceSalaPersistence</text><rect fill="#E2E2F0" height="31.6094" rx="2.5" ry="2.5" style="stroke:#181818;stroke-width:0.5;" width="93" x="1659.5" y="5"/><text fill="#000000" font-family="sans-serif" font-size="14" lengthAdjust="spacing" textLength="79" x="1666.5" y="26.5332">SalaSchema</text><rect fill="#E2E2F0" height="31.6094" rx="2.5" ry="2.5" style="stroke:#181818;stroke-width:0.5;" width="93" x="1659.5" y="1020.3438"/><text fill="#000000" font-family="sans-serif" font-size="14" lengthAdjust="spacing" textLength="79" x="1666.5" y="1041.877">SalaSchema</text><rect fill="#E2E2F0" height="31.6094" rx="2.5" ry="2.5" style="stroke:#181818;stroke-width:0.5;" width="122" x="1762.5" y="5"/><text fill="#000000" font-family="sans-serif" font-size="14" lengthAdjust="spacing" textLength="108" x="1769.5" y="26.5332">ConfigurationFile</text><rect fill="#E2E2F0" height="31.6094" rx="2.5" ry="2.5" style="stroke:#181818;stroke-width:0.5;" width="122" x="1762.5" y="1020.3438"/><text fill="#000000" font-family="sans-serif" font-size="14" lengthAdjust="spacing" textLength="108" x="1769.5" y="1041.877">ConfigurationFile</text><rect fill="#E2E2F0" height="31.6094" rx="2.5" ry="2.5" style="stroke:#181818;stroke-width:0.5;" width="42" x="1894.5" y="5"/><text fill="#000000" font-family="sans-serif" font-size="14" lengthAdjust="spacing" textLength="28" x="1901.5" y="26.5332">Sala</text><rect fill="#E2E2F0" height="31.6094" rx="2.5" ry="2.5" style="stroke:#181818;stroke-width:0.5;" width="42" x="1894.5" y="1020.3438"/><text fill="#000000" font-family="sans-serif" font-size="14" lengthAdjust="spacing" textLength="28" x="1901.5" y="1041.877">Sala</text><rect fill="#E2E2F0" height="31.6094" rx="2.5" ry="2.5" style="stroke:#181818;stroke-width:0.5;" width="63" x="1946.5" y="5"/><text fill="#000000" font-family="sans-serif" font-size="14" lengthAdjust="spacing" textLength="49" x="1953.5" y="26.5332">scheam</text><rect fill="#E2E2F0" height="31.6094" rx="2.5" ry="2.5" style="stroke:#181818;stroke-width:0.5;" width="63" x="1946.5" y="1020.3438"/><text fill="#000000" font-family="sans-serif" font-size="14" lengthAdjust="spacing" textLength="49" x="1953.5" y="1041.877">scheam</text><rect fill="#FFFFFF" height="955.7344" style="stroke:#181818;stroke-width:1.0;" width="10" x="41" y="47.6094"/><rect fill="#FFFFFF" height="933.3828" style="stroke:#181818;stroke-width:1.0;" width="10" x="156.5" y="69.9609"/><rect fill="#FFFFFF" height="889.0313" style="stroke:#181818;stroke-width:1.0;" width="10" x="397.5" y="100.3125"/><rect fill="#FFFFFF" height="783.9766" style="stroke:#181818;stroke-width:1.0;" width="10" x="551.5" y="175.0156"/><rect fill="#FFFFFF" height="739.625" style="stroke:#181818;stroke-width:1.0;" width="10" x="705.5" y="205.3672"/><rect fill="#FFFFFF" height="147.0547" style="stroke:#181818;stroke-width:1.0;" width="10" x="985.5" y="280.0703"/><rect fill="#FFFFFF" height="280.1094" style="stroke:#181818;stroke-width:1.0;" width="10" x="985.5" y="606.5313"/><rect fill="#FFFFFF" height="102.7031" style="stroke:#181818;stroke-width:1.0;" width="10" x="1192.5" y="310.4219"/><rect fill="#FFFFFF" height="235.7578" style="stroke:#181818;stroke-width:1.0;" width="10" x="1192.5" y="636.8828"/><rect fill="#FFFFFF" height="14" style="stroke:#181818;stroke-width:1.0;" width="10" x="1353.5" y="711.5859"/><rect fill="#FFFFFF" height="14" style="stroke:#181818;stroke-width:1.0;" width="10" x="1353.5" y="844.6406"/><rect fill="#FFFFFF" height="14" style="stroke:#181818;stroke-width:1.0;" width="10" x="1353.5" y="916.9922"/><rect fill="#FFFFFF" height="58.3516" style="stroke:#181818;stroke-width:1.0;" width="10" x="1494" y="340.7734"/><rect fill="#FFFFFF" height="58.3516" style="stroke:#181818;stroke-width:1.0;" width="10" x="1494" y="755.9375"/><rect fill="#FFFFFF" height="14" style="stroke:#181818;stroke-width:1.0;" width="10" x="1701" y="371.125"/><rect fill="#FFFFFF" height="14" style="stroke:#181818;stroke-width:1.0;" width="10" x="1701" y="786.2891"/><rect fill="#FFFFFF" height="14" style="stroke:#181818;stroke-width:1.0;" width="10" x="1818.5" y="130.6641"/><rect fill="#FFFFFF" height="14" style="stroke:#181818;stroke-width:1.0;" width="10" x="1818.5" y="235.7188"/><rect fill="#FFFFFF" height="14" style="stroke:#181818;stroke-width:1.0;" width="10" x="1818.5" y="667.2344"/><rect fill="#FFFFFF" height="14" style="stroke:#181818;stroke-width:1.0;" width="10" x="1910.5" y="562.1797"/><polygon fill="#181818" points="144.5,65.9609,154.5,69.9609,144.5,73.9609,148.5,69.9609" style="stroke:#181818;stroke-width:1.0;"/><line style="stroke:#181818;stroke-width:1.0;" x1="51" x2="150.5" y1="69.9609" y2="69.9609"/><text fill="#000000" font-family="sans-serif" font-size="13" lengthAdjust="spacing" textLength="66" x="58" y="65.1045">/createSala</text><polygon fill="#181818" points="385.5,96.3125,395.5,100.3125,385.5,104.3125,389.5,100.3125" style="stroke:#181818;stroke-width:1.0;"/><line style="stroke:#181818;stroke-width:1.0;" x1="166.5" x2="391.5" y1="100.3125" y2="100.3125"/><text fill="#000000" font-family="sans-serif" font-size="13" lengthAdjust="spacing" textLength="147" x="173.5" y="95.4561">createSala(req, res, next)</text><polygon fill="#181818" points="1806.5,126.6641,1816.5,130.6641,1806.5,134.6641,1810.5,130.6641" style="stroke:#181818;stroke-width:1.0;"/><line style="stroke:#181818;stroke-width:1.0;" x1="407.5" x2="1812.5" y1="130.6641" y2="130.6641"/><text fill="#000000" font-family="sans-serif" font-size="13" lengthAdjust="spacing" textLength="132" x="414.5" y="125.8076">injeta o serviço do sala</text><polygon fill="#181818" points="418.5,140.6641,408.5,144.6641,418.5,148.6641,414.5,144.6641" style="stroke:#181818;stroke-width:1.0;"/><line style="stroke:#181818;stroke-width:1.0;stroke-dasharray:2.0,2.0;" x1="412.5" x2="1822.5" y1="144.6641" y2="144.6641"/><polygon fill="#181818" points="539.5,171.0156,549.5,175.0156,539.5,179.0156,543.5,175.0156" style="stroke:#181818;stroke-width:1.0;"/><line style="stroke:#181818;stroke-width:1.0;" x1="407.5" x2="545.5" y1="175.0156" y2="175.0156"/><text fill="#000000" font-family="sans-serif" font-size="13" lengthAdjust="spacing" textLength="125" x="414.5" y="170.1592">createSala(ISalaDTO)</text><polygon fill="#181818" points="693.5,201.3672,703.5,205.3672,693.5,209.3672,697.5,205.3672" style="stroke:#181818;stroke-width:1.0;"/><line style="stroke:#181818;stroke-width:1.0;" x1="561.5" x2="699.5" y1="205.3672" y2="205.3672"/><text fill="#000000" font-family="sans-serif" font-size="13" lengthAdjust="spacing" textLength="125" x="568.5" y="200.5107">createSala(ISalaDTO)</text><polygon fill="#181818" points="1806.5,231.7188,1816.5,235.7188,1806.5,239.7188,1810.5,235.7188" style="stroke:#181818;stroke-width:1.0;"/><line style="stroke:#181818;stroke-width:1.0;" x1="715.5" x2="1812.5" y1="235.7188" y2="235.7188"/><text fill="#000000" font-family="sans-serif" font-size="13" lengthAdjust="spacing" textLength="152" x="722.5" y="230.8623">injeta o repositório do sala</text><polygon fill="#181818" points="726.5,245.7188,716.5,249.7188,726.5,253.7188,722.5,249.7188" style="stroke:#181818;stroke-width:1.0;"/><line style="stroke:#181818;stroke-width:1.0;stroke-dasharray:2.0,2.0;" x1="720.5" x2="1822.5" y1="249.7188" y2="249.7188"/><polygon fill="#181818" points="973.5,276.0703,983.5,280.0703,973.5,284.0703,977.5,280.0703" style="stroke:#181818;stroke-width:1.0;"/><line style="stroke:#181818;stroke-width:1.0;" x1="715.5" x2="979.5" y1="280.0703" y2="280.0703"/><text fill="#000000" font-family="sans-serif" font-size="13" lengthAdjust="spacing" textLength="251" x="722.5" y="275.2139">document = findByDesignacao(designacao)</text><polygon fill="#181818" points="1180.5,306.4219,1190.5,310.4219,1180.5,314.4219,1184.5,310.4219" style="stroke:#181818;stroke-width:1.0;"/><line style="stroke:#181818;stroke-width:1.0;" x1="995.5" x2="1186.5" y1="310.4219" y2="310.4219"/><text fill="#000000" font-family="sans-serif" font-size="13" lengthAdjust="spacing" textLength="178" x="1002.5" y="305.5654">findByDesignacao(designacao)</text><polygon fill="#181818" points="1482,336.7734,1492,340.7734,1482,344.7734,1486,340.7734" style="stroke:#181818;stroke-width:1.0;"/><line style="stroke:#181818;stroke-width:1.0;" x1="1202.5" x2="1488" y1="340.7734" y2="340.7734"/><text fill="#000000" font-family="sans-serif" font-size="13" lengthAdjust="spacing" textLength="178" x="1209.5" y="335.917">findByDesignacao(designacao)</text><polygon fill="#181818" points="1689,367.125,1699,371.125,1689,375.125,1693,371.125" style="stroke:#181818;stroke-width:1.0;"/><line style="stroke:#181818;stroke-width:1.0;" x1="1504" x2="1695" y1="371.125" y2="371.125"/><text fill="#000000" font-family="sans-serif" font-size="13" lengthAdjust="spacing" textLength="178" x="1511" y="366.2686">findByDesignacao(designacao)</text><polygon fill="#181818" points="1515,381.125,1505,385.125,1515,389.125,1511,385.125" style="stroke:#181818;stroke-width:1.0;"/><line style="stroke:#181818;stroke-width:1.0;stroke-dasharray:2.0,2.0;" x1="1509" x2="1705" y1="385.125" y2="385.125"/><polygon fill="#181818" points="1213.5,395.125,1203.5,399.125,1213.5,403.125,1209.5,399.125" style="stroke:#181818;stroke-width:1.0;"/><line style="stroke:#181818;stroke-width:1.0;stroke-dasharray:2.0,2.0;" x1="1207.5" x2="1498" y1="399.125" y2="399.125"/><polygon fill="#181818" points="1006.5,409.125,996.5,413.125,1006.5,417.125,1002.5,413.125" style="stroke:#181818;stroke-width:1.0;"/><line style="stroke:#181818;stroke-width:1.0;stroke-dasharray:2.0,2.0;" x1="1000.5" x2="1196.5" y1="413.125" y2="413.125"/><polygon fill="#181818" points="726.5,423.125,716.5,427.125,726.5,431.125,722.5,427.125" style="stroke:#181818;stroke-width:1.0;"/><line style="stroke:#181818;stroke-width:1.0;stroke-dasharray:2.0,2.0;" x1="720.5" x2="989.5" y1="427.125" y2="427.125"/><path d="M10,442.125 L71,442.125 L71,450.4766 L61,460.4766 L10,460.4766 L10,442.125 " fill="#EEEEEE" style="stroke:#000000;stroke-width:1.5;"/><rect fill="none" height="90.7031" style="stroke:#000000;stroke-width:1.5;" width="755" x="10" y="442.125"/><text fill="#000000" font-family="sans-serif" font-size="13" font-weight="bold" lengthAdjust="spacing" textLength="16" x="25" y="456.6201">alt</text><text fill="#000000" font-family="sans-serif" font-size="11" font-weight="bold" lengthAdjust="spacing" textLength="242" x="86" y="455.5439">[sala com a mesma designacao encontrada]</text><polygon fill="#181818" points="572.5,462.4766,562.5,466.4766,572.5,470.4766,568.5,466.4766" style="stroke:#181818;stroke-width:1.0;"/><line style="stroke:#181818;stroke-width:1.0;stroke-dasharray:2.0,2.0;" x1="566.5" x2="704.5" y1="466.4766" y2="466.4766"/><polygon fill="#181818" points="418.5,476.4766,408.5,480.4766,418.5,484.4766,414.5,480.4766" style="stroke:#181818;stroke-width:1.0;"/><line style="stroke:#181818;stroke-width:1.0;stroke-dasharray:2.0,2.0;" x1="412.5" x2="550.5" y1="480.4766" y2="480.4766"/><polygon fill="#181818" points="177.5,506.8281,167.5,510.8281,177.5,514.8281,173.5,510.8281" style="stroke:#181818;stroke-width:1.0;"/><line style="stroke:#181818;stroke-width:1.0;stroke-dasharray:2.0,2.0;" x1="171.5" x2="396.5" y1="510.8281" y2="510.8281"/><text fill="#000000" font-family="sans-serif" font-size="13" lengthAdjust="spacing" textLength="207" x="183.5" y="505.9717">Envia um código 403 (FORBIDDEN)</text><polygon fill="#181818" points="62,520.8281,52,524.8281,62,528.8281,58,524.8281" style="stroke:#181818;stroke-width:1.0;"/><line style="stroke:#181818;stroke-width:1.0;stroke-dasharray:2.0,2.0;" x1="56" x2="155.5" y1="524.8281" y2="524.8281"/><polygon fill="#181818" points="1898.5,558.1797,1908.5,562.1797,1898.5,566.1797,1902.5,562.1797" style="stroke:#181818;stroke-width:1.0;"/><line style="stroke:#181818;stroke-width:1.0;" x1="715.5" x2="1904.5" y1="562.1797" y2="562.1797"/><text fill="#000000" font-family="sans-serif" font-size="13" lengthAdjust="spacing" textLength="134" x="722.5" y="557.3232">sala = create(salaDTO)</text><polygon fill="#181818" points="726.5,572.1797,716.5,576.1797,726.5,580.1797,722.5,576.1797" style="stroke:#181818;stroke-width:1.0;"/><line style="stroke:#181818;stroke-width:1.0;stroke-dasharray:2.0,2.0;" x1="720.5" x2="1914.5" y1="576.1797" y2="576.1797"/><polygon fill="#181818" points="973.5,602.5313,983.5,606.5313,973.5,610.5313,977.5,606.5313" style="stroke:#181818;stroke-width:1.0;"/><line style="stroke:#181818;stroke-width:1.0;" x1="715.5" x2="979.5" y1="606.5313" y2="606.5313"/><text fill="#000000" font-family="sans-serif" font-size="13" lengthAdjust="spacing" textLength="98" x="722.5" y="601.6748">sala = save(sala)</text><polygon fill="#181818" points="1180.5,632.8828,1190.5,636.8828,1180.5,640.8828,1184.5,636.8828" style="stroke:#181818;stroke-width:1.0;"/><line style="stroke:#181818;stroke-width:1.0;" x1="995.5" x2="1186.5" y1="636.8828" y2="636.8828"/><text fill="#000000" font-family="sans-serif" font-size="13" lengthAdjust="spacing" textLength="58" x="1002.5" y="632.0264">save(sala)</text><polygon fill="#181818" points="1806.5,663.2344,1816.5,667.2344,1806.5,671.2344,1810.5,667.2344" style="stroke:#181818;stroke-width:1.0;"/><line style="stroke:#181818;stroke-width:1.0;" x1="1202.5" x2="1812.5" y1="667.2344" y2="667.2344"/><text fill="#000000" font-family="sans-serif" font-size="13" lengthAdjust="spacing" textLength="138" x="1209.5" y="662.3779">injeta o schema do sala</text><polygon fill="#181818" points="1213.5,677.2344,1203.5,681.2344,1213.5,685.2344,1209.5,681.2344" style="stroke:#181818;stroke-width:1.0;"/><line style="stroke:#181818;stroke-width:1.0;stroke-dasharray:2.0,2.0;" x1="1207.5" x2="1822.5" y1="681.2344" y2="681.2344"/><polygon fill="#181818" points="1341.5,707.5859,1351.5,711.5859,1341.5,715.5859,1345.5,711.5859" style="stroke:#181818;stroke-width:1.0;"/><line style="stroke:#181818;stroke-width:1.0;" x1="1202.5" x2="1347.5" y1="711.5859" y2="711.5859"/><text fill="#000000" font-family="sans-serif" font-size="13" lengthAdjust="spacing" textLength="112" x="1209.5" y="706.7295">toPersistence(sala)</text><polygon fill="#181818" points="1213.5,721.5859,1203.5,725.5859,1213.5,729.5859,1209.5,725.5859" style="stroke:#181818;stroke-width:1.0;"/><line style="stroke:#181818;stroke-width:1.0;stroke-dasharray:2.0,2.0;" x1="1207.5" x2="1357.5" y1="725.5859" y2="725.5859"/><polygon fill="#181818" points="1482,751.9375,1492,755.9375,1482,759.9375,1486,755.9375" style="stroke:#181818;stroke-width:1.0;"/><line style="stroke:#181818;stroke-width:1.0;" x1="1202.5" x2="1488" y1="755.9375" y2="755.9375"/><text fill="#000000" font-family="sans-serif" font-size="13" lengthAdjust="spacing" textLength="113" x="1209.5" y="751.0811">create(salaCreated)</text><polygon fill="#181818" points="1689,782.2891,1699,786.2891,1689,790.2891,1693,786.2891" style="stroke:#181818;stroke-width:1.0;"/><line style="stroke:#181818;stroke-width:1.0;" x1="1504" x2="1695" y1="786.2891" y2="786.2891"/><text fill="#000000" font-family="sans-serif" font-size="13" lengthAdjust="spacing" textLength="113" x="1511" y="781.4326">create(salaCreated)</text><polygon fill="#181818" points="1515,796.2891,1505,800.2891,1515,804.2891,1511,800.2891" style="stroke:#181818;stroke-width:1.0;"/><line style="stroke:#181818;stroke-width:1.0;stroke-dasharray:2.0,2.0;" x1="1509" x2="1705" y1="800.2891" y2="800.2891"/><polygon fill="#181818" points="1213.5,810.2891,1203.5,814.2891,1213.5,818.2891,1209.5,814.2891" style="stroke:#181818;stroke-width:1.0;"/><line style="stroke:#181818;stroke-width:1.0;stroke-dasharray:2.0,2.0;" x1="1207.5" x2="1498" y1="814.2891" y2="814.2891"/><polygon fill="#181818" points="1341.5,840.6406,1351.5,844.6406,1341.5,848.6406,1345.5,844.6406" style="stroke:#181818;stroke-width:1.0;"/><line style="stroke:#181818;stroke-width:1.0;" x1="1202.5" x2="1347.5" y1="844.6406" y2="844.6406"/><text fill="#000000" font-family="sans-serif" font-size="13" lengthAdjust="spacing" textLength="132" x="1209.5" y="839.7842">toDomain(salaCreated)</text><polygon fill="#181818" points="1213.5,854.6406,1203.5,858.6406,1213.5,862.6406,1209.5,858.6406" style="stroke:#181818;stroke-width:1.0;"/><line style="stroke:#181818;stroke-width:1.0;stroke-dasharray:2.0,2.0;" x1="1207.5" x2="1357.5" y1="858.6406" y2="858.6406"/><polygon fill="#181818" points="1006.5,868.6406,996.5,872.6406,1006.5,876.6406,1002.5,872.6406" style="stroke:#181818;stroke-width:1.0;"/><line style="stroke:#181818;stroke-width:1.0;stroke-dasharray:2.0,2.0;" x1="1000.5" x2="1196.5" y1="872.6406" y2="872.6406"/><polygon fill="#181818" points="726.5,882.6406,716.5,886.6406,726.5,890.6406,722.5,886.6406" style="stroke:#181818;stroke-width:1.0;"/><line style="stroke:#181818;stroke-width:1.0;stroke-dasharray:2.0,2.0;" x1="720.5" x2="989.5" y1="886.6406" y2="886.6406"/><polygon fill="#181818" points="1341.5,912.9922,1351.5,916.9922,1341.5,920.9922,1345.5,916.9922" style="stroke:#181818;stroke-width:1.0;"/><line style="stroke:#181818;stroke-width:1.0;" x1="715.5" x2="1347.5" y1="916.9922" y2="916.9922"/><text fill="#000000" font-family="sans-serif" font-size="13" lengthAdjust="spacing" textLength="69" x="722.5" y="912.1357">toDTO(sala)</text><polygon fill="#181818" points="726.5,926.9922,716.5,930.9922,726.5,934.9922,722.5,930.9922" style="stroke:#181818;stroke-width:1.0;"/><line style="stroke:#181818;stroke-width:1.0;stroke-dasharray:2.0,2.0;" x1="720.5" x2="1357.5" y1="930.9922" y2="930.9922"/><polygon fill="#181818" points="572.5,940.9922,562.5,944.9922,572.5,948.9922,568.5,944.9922" style="stroke:#181818;stroke-width:1.0;"/><line style="stroke:#181818;stroke-width:1.0;stroke-dasharray:2.0,2.0;" x1="566.5" x2="709.5" y1="944.9922" y2="944.9922"/><polygon fill="#181818" points="418.5,954.9922,408.5,958.9922,418.5,962.9922,414.5,958.9922" style="stroke:#181818;stroke-width:1.0;"/><line style="stroke:#181818;stroke-width:1.0;stroke-dasharray:2.0,2.0;" x1="412.5" x2="555.5" y1="958.9922" y2="958.9922"/><polygon fill="#181818" points="177.5,985.3438,167.5,989.3438,177.5,993.3438,173.5,989.3438" style="stroke:#181818;stroke-width:1.0;"/><line style="stroke:#181818;stroke-width:1.0;stroke-dasharray:2.0,2.0;" x1="171.5" x2="401.5" y1="989.3438" y2="989.3438"/><text fill="#000000" font-family="sans-serif" font-size="13" lengthAdjust="spacing" textLength="167" x="183.5" y="984.4873">Envia um código 201 (POST)</text><polygon fill="#181818" points="57,999.3438,47,1003.3438,57,1007.3438,53,1003.3438" style="stroke:#181818;stroke-width:1.0;"/><line style="stroke:#181818;stroke-width:1.0;stroke-dasharray:2.0,2.0;" x1="51" x2="160.5" y1="1003.3438" y2="1003.3438"/><!--MD5=[c784e485acfbd0e9fab525717f41722e]
@startuml sd

participant Route as route
participant InterfaceSalaController as ictrl
participant SalaController as ctrl
participant InterfaceSalaService as isvc
participant SalaService as svc
participant InterfaceSalaRepo as irepo
participant SalaRepo as repo
participant SalaMapper as mapper
participant InterfaceSalaPersistence as ischema
participant SalaSchema as schema
participant ConfigurationFile as conf
participant Sala as model

activate route
route -> ictrl : /createSala
activate ictrl
ictrl -> ctrl : createSala(req, res, next)
activate ctrl
ctrl -> conf : injeta o serviço do sala
activate conf
conf - -> ctrl
deactivate conf
ctrl -> isvc : createSala(ISalaDTO)
activate isvc
isvc -> svc : createSala(ISalaDTO)
activate svc
svc -> conf : injeta o repositório do sala
activate conf
conf - -> svc
deactivate conf
svc -> irepo : document = findByDesignacao(designacao)
activate irepo
irepo -> repo : findByDesignacao(designacao)
activate repo
repo -> ischema : findByDesignacao(designacao)
activate ischema
ischema -> schema : findByDesignacao(designacao)
activate schema
schema - -> ischema
deactivate schema
ischema - -> repo
deactivate ischema
repo - -> irepo
deactivate repo
irepo - -> svc
deactivate irepo
alt sala com a mesma designacao encontrada
    svc - -> isvc
    'deactivate svc
    isvc - -> ctrl
    'deactivate isvc
    ctrl - -> ictrl : Envia um código 403 (FORBIDDEN)
    'deactivate ctrl
    ictrl - -> route
end
svc -> model : sala = create(salaDTO)
activate model
model - -> svc
deactivate model
svc -> irepo : sala = save(sala)
activate irepo
irepo -> repo : save(sala)
activate repo
repo -> conf : injeta o schema do sala
activate conf
conf - -> repo
deactivate conf
repo -> mapper : toPersistence(sala)
activate mapper
mapper - -> repo
deactivate mapper
repo -> ischema : create(salaCreated)
activate ischema 
ischema -> schema : create(salaCreated)
activate schema
schema - -> ischema
deactivate schema
deactivate scheam
ischema - -> repo
deactivate ischema
repo -> mapper : toDomain(salaCreated)
activate mapper
mapper - -> repo
deactivate mapper
repo - -> irepo
deactivate repo
irepo - -> svc
deactivate irepo
svc -> mapper : toDTO(sala)
activate mapper
mapper - -> svc
deactivate mapper
svc - -> isvc
deactivate svc
isvc - -> ctrl
deactivate isvc
ctrl - -> ictrl : Envia um código 201 (POST)

deactivate ctrl
ictrl - -> route
deactivate ictrl
deactivate route



@enduml

@startuml sd

participant Route as route
participant InterfaceSalaController as ictrl
participant SalaController as ctrl
participant InterfaceSalaService as isvc
participant SalaService as svc
participant InterfaceSalaRepo as irepo
participant SalaRepo as repo
participant SalaMapper as mapper
participant InterfaceSalaPersistence as ischema
participant SalaSchema as schema
participant ConfigurationFile as conf
participant Sala as model

activate route
route -> ictrl : /createSala
activate ictrl
ictrl -> ctrl : createSala(req, res, next)
activate ctrl
ctrl -> conf : injeta o serviço do sala
activate conf
conf - -> ctrl
deactivate conf
ctrl -> isvc : createSala(ISalaDTO)
activate isvc
isvc -> svc : createSala(ISalaDTO)
activate svc
svc -> conf : injeta o repositório do sala
activate conf
conf - -> svc
deactivate conf
svc -> irepo : document = findByDesignacao(designacao)
activate irepo
irepo -> repo : findByDesignacao(designacao)
activate repo
repo -> ischema : findByDesignacao(designacao)
activate ischema
ischema -> schema : findByDesignacao(designacao)
activate schema
schema - -> ischema
deactivate schema
ischema - -> repo
deactivate ischema
repo - -> irepo
deactivate repo
irepo - -> svc
deactivate irepo
alt sala com a mesma designacao encontrada
    svc - -> isvc
    isvc - -> ctrl
    ctrl - -> ictrl : Envia um código 403 (FORBIDDEN)
    ictrl - -> route
end
svc -> model : sala = create(salaDTO)
activate model
model - -> svc
deactivate model
svc -> irepo : sala = save(sala)
activate irepo
irepo -> repo : save(sala)
activate repo
repo -> conf : injeta o schema do sala
activate conf
conf - -> repo
deactivate conf
repo -> mapper : toPersistence(sala)
activate mapper
mapper - -> repo
deactivate mapper
repo -> ischema : create(salaCreated)
activate ischema 
ischema -> schema : create(salaCreated)
activate schema
schema - -> ischema
deactivate schema
deactivate scheam
ischema - -> repo
deactivate ischema
repo -> mapper : toDomain(salaCreated)
activate mapper
mapper - -> repo
deactivate mapper
repo - -> irepo
deactivate repo
irepo - -> svc
deactivate irepo
svc -> mapper : toDTO(sala)
activate mapper
mapper - -> svc
deactivate mapper
svc - -> isvc
deactivate svc
isvc - -> ctrl
deactivate isvc
ctrl - -> ictrl : Envia um código 201 (POST)

deactivate ctrl
ictrl - -> route
deactivate ictrl
deactivate route



@enduml

PlantUML version 1.2022.7(Mon Aug 22 18:01:30 WEST 2022)
(GPL source distribution)
Java Runtime: Java(TM) SE Runtime Environment
JVM: Java HotSpot(TM) 64-Bit Server VM
Default Encoding: Cp1252
Language: pt
Country: PT
--></g></svg>