<?xml version="1.0" encoding="UTF-8" standalone="no"?><svg xmlns="http://www.w3.org/2000/svg" xmlns:xlink="http://www.w3.org/1999/xlink" contentStyleType="text/css" height="302px" preserveAspectRatio="none" style="width:436px;height:302px;background:#FFFFFF;" version="1.1" viewBox="0 0 436 302" width="436px" zoomAndPan="magnify"><defs/><g><rect fill="#FFFFFF" height="120.5313" style="stroke:#181818;stroke-width:1.0;" width="10" x="80" y="91.2969"/><rect fill="#FFFFFF" height="99.3984" style="stroke:#181818;stroke-width:1.0;" width="10" x="333" y="112.4297"/><rect fill="none" height="77.3984" style="stroke:#000000;stroke-width:1.5;" width="419" x="10" y="127.4297"/><line style="stroke:#181818;stroke-width:0.5;stroke-dasharray:5.0,5.0;" x1="85" x2="85" y1="81.2969" y2="221.8281"/><line style="stroke:#181818;stroke-width:0.5;stroke-dasharray:5.0,5.0;" x1="338" x2="338" y1="81.2969" y2="221.8281"/><text fill="#000000" font-family="sans-serif" font-size="14" lengthAdjust="spacing" textLength="124" x="20" y="77.9951">Gestor de Tarefas</text><ellipse cx="85" cy="13.5" fill="#E2E2F0" rx="8" ry="8" style="stroke:#181818;stroke-width:0.5;"/><path d="M85,21.5 L85,48.5 M72,29.5 L98,29.5 M85,48.5 L72,63.5 M85,48.5 L98,63.5 " fill="none" style="stroke:#181818;stroke-width:0.5;"/><text fill="#000000" font-family="sans-serif" font-size="14" lengthAdjust="spacing" textLength="124" x="20" y="233.8232">Gestor de Tarefas</text><ellipse cx="85" cy="245.625" fill="#E2E2F0" rx="8" ry="8" style="stroke:#181818;stroke-width:0.5;"/><path d="M85,253.625 L85,280.625 M72,261.625 L98,261.625 M85,280.625 L72,295.625 M85,280.625 L98,295.625 " fill="none" style="stroke:#181818;stroke-width:0.5;"/><rect fill="#E2E2F0" height="46.5938" rx="2.5" ry="2.5" style="stroke:#181818;stroke-width:0.5;" width="162" x="257" y="33.7031"/><text fill="#000000" font-family="sans-serif" font-size="14" font-style="italic" lengthAdjust="spacing" textLength="98" x="289" y="53.6982">«System(C4)»</text><text fill="#000000" font-family="sans-serif" font-size="14" lengthAdjust="spacing" textLength="148" x="264" y="69.9951">SistemaRobDroneGO</text><rect fill="#E2E2F0" height="46.5938" rx="2.5" ry="2.5" style="stroke:#181818;stroke-width:0.5;" width="162" x="257" y="220.8281"/><text fill="#000000" font-family="sans-serif" font-size="14" font-style="italic" lengthAdjust="spacing" textLength="98" x="289" y="240.8232">«System(C4)»</text><text fill="#000000" font-family="sans-serif" font-size="14" lengthAdjust="spacing" textLength="148" x="264" y="257.1201">SistemaRobDroneGO</text><rect fill="#FFFFFF" height="120.5313" style="stroke:#181818;stroke-width:1.0;" width="10" x="80" y="91.2969"/><rect fill="#FFFFFF" height="99.3984" style="stroke:#181818;stroke-width:1.0;" width="10" x="333" y="112.4297"/><polygon fill="#181818" points="321,108.4297,331,112.4297,321,116.4297,325,112.4297" style="stroke:#181818;stroke-width:1.0;"/><line style="stroke:#181818;stroke-width:1.0;" x1="90" x2="327" y1="112.4297" y2="112.4297"/><text fill="#000000" font-family="sans-serif" font-size="13" lengthAdjust="spacing" textLength="224" x="97" y="107.3638">Aprovar ou recusar uma requisiçao</text><path d="M10,127.4297 L74,127.4297 L74,134.5625 L64,144.5625 L10,144.5625 L10,127.4297 " fill="#EEEEEE" style="stroke:#000000;stroke-width:1.5;"/><rect fill="none" height="77.3984" style="stroke:#000000;stroke-width:1.5;" width="419" x="10" y="127.4297"/><text fill="#000000" font-family="sans-serif" font-size="13" font-weight="bold" lengthAdjust="spacing" textLength="19" x="25" y="140.4966">alt</text><polygon fill="#181818" points="101,161.6953,91,165.6953,101,169.6953,97,165.6953" style="stroke:#181818;stroke-width:1.0;"/><line style="stroke:#181818;stroke-width:1.0;stroke-dasharray:2.0,2.0;" x1="95" x2="332" y1="165.6953" y2="165.6953"/><text fill="#000000" font-family="sans-serif" font-size="13" lengthAdjust="spacing" textLength="15" x="107" y="160.6294">ok</text><line style="stroke:#000000;stroke-width:1.0;stroke-dasharray:2.0,2.0;" x1="10" x2="429" y1="174.6953" y2="174.6953"/><polygon fill="#181818" points="101,192.8281,91,196.8281,101,200.8281,97,196.8281" style="stroke:#181818;stroke-width:1.0;"/><line style="stroke:#181818;stroke-width:1.0;stroke-dasharray:2.0,2.0;" x1="95" x2="332" y1="196.8281" y2="196.8281"/><text fill="#000000" font-family="sans-serif" font-size="13" lengthAdjust="spacing" textLength="26" x="107" y="191.7622">erro</text><!--MD5=[eb006d73753458421d711dcf639537c8]
@startuml vp1
actor "Gestor de Tarefas" as actor
participant SistemaRobDroneGO as srdg <<System(C4)>>

activate actor
actor -> srdg: Aprovar ou recusar uma requisiçao
activate srdg
alt 
srdg - -> actor : ok
else
srdg - -> actor : erro
end
deactivate srdg
deactivate actor
@enduml

PlantUML version 1.2022.7(Mon Aug 22 18:01:30 WEST 2022)
(GPL source distribution)
Java Runtime: OpenJDK Runtime Environment
JVM: OpenJDK 64-Bit Server VM
Default Encoding: UTF-8
Language: en
Country: US
--></g></svg>