<?xml version="1.0" encoding="UTF-8" standalone="no"?><svg xmlns="http://www.w3.org/2000/svg" xmlns:xlink="http://www.w3.org/1999/xlink" contentStyleType="text/css" height="631px" preserveAspectRatio="none" style="width:1248px;height:631px;background:#FFFFFF;" version="1.1" viewBox="0 0 1248 631" width="1248px" zoomAndPan="magnify"><defs/><g><rect fill="#FFFFFF" height="529.5703" style="stroke:#181818;stroke-width:1.0;" width="10" x="41" y="47.6094"/><rect fill="#FFFFFF" height="507.2188" style="stroke:#181818;stroke-width:1.0;" width="10" x="258" y="69.9609"/><rect fill="#FFFFFF" height="446.5156" style="stroke:#181818;stroke-width:1.0;" width="10" x="571" y="100.3125"/><rect fill="#FFFFFF" height="14" style="stroke:#181818;stroke-width:1.0;" width="10" x="792" y="130.6641"/><rect fill="#FFFFFF" height="147.0547" style="stroke:#181818;stroke-width:1.0;" width="10" x="792" y="341.4219"/><rect fill="#FFFFFF" height="14" style="stroke:#181818;stroke-width:1.0;" width="10" x="972" y="371.7734"/><rect fill="#FFFFFF" height="14" style="stroke:#181818;stroke-width:1.0;" width="10" x="972" y="460.4766"/><rect fill="#FFFFFF" height="14" style="stroke:#181818;stroke-width:1.0;" width="10" x="972" y="518.8281"/><rect fill="#FFFFFF" height="14" style="stroke:#181818;stroke-width:1.0;" width="10" x="1102" y="416.125"/><rect fill="#FFFFFF" height="28" style="stroke:#181818;stroke-width:1.0;" width="10" x="1208" y="276.0703"/><rect fill="none" height="79.0547" style="stroke:#000000;stroke-width:1.5;" width="629" x="10" y="159.6641"/><line style="stroke:#181818;stroke-width:0.5;stroke-dasharray:5.0,5.0;" x1="46" x2="46" y1="37.6094" y2="595.1797"/><line style="stroke:#181818;stroke-width:0.5;stroke-dasharray:5.0,5.0;" x1="262.5" x2="262.5" y1="37.6094" y2="595.1797"/><line style="stroke:#181818;stroke-width:0.5;stroke-dasharray:5.0,5.0;" x1="576" x2="576" y1="37.6094" y2="595.1797"/><line style="stroke:#181818;stroke-width:0.5;stroke-dasharray:5.0,5.0;" x1="796.5" x2="796.5" y1="37.6094" y2="595.1797"/><line style="stroke:#181818;stroke-width:0.5;stroke-dasharray:5.0,5.0;" x1="976.5" x2="976.5" y1="37.6094" y2="595.1797"/><line style="stroke:#181818;stroke-width:0.5;stroke-dasharray:5.0,5.0;" x1="1106.5" x2="1106.5" y1="37.6094" y2="595.1797"/><line style="stroke:#181818;stroke-width:0.5;stroke-dasharray:5.0,5.0;" x1="1212.5" x2="1212.5" y1="37.6094" y2="595.1797"/><rect fill="#E2E2F0" height="31.6094" rx="2.5" ry="2.5" style="stroke:#181818;stroke-width:0.5;" width="52" x="20" y="5"/><text fill="#000000" font-family="sans-serif" font-size="14" lengthAdjust="spacing" textLength="38" x="27" y="26.5332">Route</text><rect fill="#E2E2F0" height="31.6094" rx="2.5" ry="2.5" style="stroke:#181818;stroke-width:0.5;" width="52" x="20" y="594.1797"/><text fill="#000000" font-family="sans-serif" font-size="14" lengthAdjust="spacing" textLength="38" x="27" y="615.7129">Route</text><rect fill="#E2E2F0" height="31.6094" rx="2.5" ry="2.5" style="stroke:#181818;stroke-width:0.5;" width="121" x="202.5" y="5"/><text fill="#000000" font-family="sans-serif" font-size="14" lengthAdjust="spacing" textLength="107" x="209.5" y="26.5332">EdificioController</text><rect fill="#E2E2F0" height="31.6094" rx="2.5" ry="2.5" style="stroke:#181818;stroke-width:0.5;" width="121" x="202.5" y="594.1797"/><text fill="#000000" font-family="sans-serif" font-size="14" lengthAdjust="spacing" textLength="107" x="209.5" y="615.7129">EdificioController</text><rect fill="#E2E2F0" height="31.6094" rx="2.5" ry="2.5" style="stroke:#181818;stroke-width:0.5;" width="106" x="523" y="5"/><text fill="#000000" font-family="sans-serif" font-size="14" lengthAdjust="spacing" textLength="92" x="530" y="26.5332">EdificioService</text><rect fill="#E2E2F0" height="31.6094" rx="2.5" ry="2.5" style="stroke:#181818;stroke-width:0.5;" width="106" x="523" y="594.1797"/><text fill="#000000" font-family="sans-serif" font-size="14" lengthAdjust="spacing" textLength="92" x="530" y="615.7129">EdificioService</text><rect fill="#E2E2F0" height="31.6094" rx="2.5" ry="2.5" style="stroke:#181818;stroke-width:0.5;" width="93" x="750.5" y="5"/><text fill="#000000" font-family="sans-serif" font-size="14" lengthAdjust="spacing" textLength="79" x="757.5" y="26.5332">EdificioRepo</text><rect fill="#E2E2F0" height="31.6094" rx="2.5" ry="2.5" style="stroke:#181818;stroke-width:0.5;" width="93" x="750.5" y="594.1797"/><text fill="#000000" font-family="sans-serif" font-size="14" lengthAdjust="spacing" textLength="79" x="757.5" y="615.7129">EdificioRepo</text><rect fill="#E2E2F0" height="31.6094" rx="2.5" ry="2.5" style="stroke:#181818;stroke-width:0.5;" width="107" x="923.5" y="5"/><text fill="#000000" font-family="sans-serif" font-size="14" lengthAdjust="spacing" textLength="93" x="930.5" y="26.5332">EdificioMapper</text><rect fill="#E2E2F0" height="31.6094" rx="2.5" ry="2.5" style="stroke:#181818;stroke-width:0.5;" width="107" x="923.5" y="594.1797"/><text fill="#000000" font-family="sans-serif" font-size="14" lengthAdjust="spacing" textLength="93" x="930.5" y="615.7129">EdificioMapper</text><rect fill="#E2E2F0" height="31.6094" rx="2.5" ry="2.5" style="stroke:#181818;stroke-width:0.5;" width="133" x="1040.5" y="5"/><text fill="#000000" font-family="sans-serif" font-size="14" lengthAdjust="spacing" textLength="119" x="1047.5" y="26.5332">EdificioPersistence</text><rect fill="#E2E2F0" height="31.6094" rx="2.5" ry="2.5" style="stroke:#181818;stroke-width:0.5;" width="133" x="1040.5" y="594.1797"/><text fill="#000000" font-family="sans-serif" font-size="14" lengthAdjust="spacing" textLength="119" x="1047.5" y="615.7129">EdificioPersistence</text><rect fill="#E2E2F0" height="31.6094" rx="2.5" ry="2.5" style="stroke:#181818;stroke-width:0.5;" width="59" x="1183.5" y="5"/><text fill="#000000" font-family="sans-serif" font-size="14" lengthAdjust="spacing" textLength="45" x="1190.5" y="26.5332">Edificio</text><rect fill="#E2E2F0" height="31.6094" rx="2.5" ry="2.5" style="stroke:#181818;stroke-width:0.5;" width="59" x="1183.5" y="594.1797"/><text fill="#000000" font-family="sans-serif" font-size="14" lengthAdjust="spacing" textLength="45" x="1190.5" y="615.7129">Edificio</text><rect fill="#FFFFFF" height="529.5703" style="stroke:#181818;stroke-width:1.0;" width="10" x="41" y="47.6094"/><rect fill="#FFFFFF" height="507.2188" style="stroke:#181818;stroke-width:1.0;" width="10" x="258" y="69.9609"/><rect fill="#FFFFFF" height="446.5156" style="stroke:#181818;stroke-width:1.0;" width="10" x="571" y="100.3125"/><rect fill="#FFFFFF" height="14" style="stroke:#181818;stroke-width:1.0;" width="10" x="792" y="130.6641"/><rect fill="#FFFFFF" height="147.0547" style="stroke:#181818;stroke-width:1.0;" width="10" x="792" y="341.4219"/><rect fill="#FFFFFF" height="14" style="stroke:#181818;stroke-width:1.0;" width="10" x="972" y="371.7734"/><rect fill="#FFFFFF" height="14" style="stroke:#181818;stroke-width:1.0;" width="10" x="972" y="460.4766"/><rect fill="#FFFFFF" height="14" style="stroke:#181818;stroke-width:1.0;" width="10" x="972" y="518.8281"/><rect fill="#FFFFFF" height="14" style="stroke:#181818;stroke-width:1.0;" width="10" x="1102" y="416.125"/><rect fill="#FFFFFF" height="28" style="stroke:#181818;stroke-width:1.0;" width="10" x="1208" y="276.0703"/><polygon fill="#181818" points="246,65.9609,256,69.9609,246,73.9609,250,69.9609" style="stroke:#181818;stroke-width:1.0;"/><line style="stroke:#181818;stroke-width:1.0;" x1="51" x2="252" y1="69.9609" y2="69.9609"/><text fill="#000000" font-family="sans-serif" font-size="13" lengthAdjust="spacing" textLength="85" x="58" y="65.1045">/updateEdificio</text><polygon fill="#181818" points="559,96.3125,569,100.3125,559,104.3125,563,100.3125" style="stroke:#181818;stroke-width:1.0;"/><line style="stroke:#181818;stroke-width:1.0;" x1="268" x2="565" y1="100.3125" y2="100.3125"/><text fill="#000000" font-family="sans-serif" font-size="13" lengthAdjust="spacing" textLength="160" x="275" y="95.4561">updateEdificio(IEdificioDTO)</text><polygon fill="#181818" points="780,126.6641,790,130.6641,780,134.6641,784,130.6641" style="stroke:#181818;stroke-width:1.0;"/><line style="stroke:#181818;stroke-width:1.0;" x1="581" x2="786" y1="130.6641" y2="130.6641"/><text fill="#000000" font-family="sans-serif" font-size="13" lengthAdjust="spacing" textLength="192" x="588" y="125.8076">findByCodigo(edificioDTO.codigo)</text><polygon fill="#181818" points="592,140.6641,582,144.6641,592,148.6641,588,144.6641" style="stroke:#181818;stroke-width:1.0;"/><line style="stroke:#181818;stroke-width:1.0;stroke-dasharray:2.0,2.0;" x1="586" x2="796" y1="144.6641" y2="144.6641"/><path d="M10,159.6641 L71,159.6641 L71,168.0156 L61,178.0156 L10,178.0156 L10,159.6641 " fill="#EEEEEE" style="stroke:#000000;stroke-width:1.5;"/><rect fill="none" height="79.0547" style="stroke:#000000;stroke-width:1.5;" width="629" x="10" y="159.6641"/><text fill="#000000" font-family="sans-serif" font-size="13" font-weight="bold" lengthAdjust="spacing" textLength="16" x="25" y="174.1592">alt</text><text fill="#000000" font-family="sans-serif" font-size="11" font-weight="bold" lengthAdjust="spacing" textLength="108" x="86" y="173.083">[edificio não existe]</text><polygon fill="#181818" points="279,196.3672,269,200.3672,279,204.3672,275,200.3672" style="stroke:#181818;stroke-width:1.0;"/><line style="stroke:#181818;stroke-width:1.0;stroke-dasharray:2.0,2.0;" x1="273" x2="570" y1="200.3672" y2="200.3672"/><text fill="#000000" font-family="sans-serif" font-size="13" lengthAdjust="spacing" textLength="279" x="285" y="195.5107">Envia erro com a mensagem: Não existe edificio</text><polygon fill="#181818" points="62,226.7188,52,230.7188,62,234.7188,58,230.7188" style="stroke:#181818;stroke-width:1.0;"/><line style="stroke:#181818;stroke-width:1.0;stroke-dasharray:2.0,2.0;" x1="56" x2="257" y1="230.7188" y2="230.7188"/><text fill="#000000" font-family="sans-serif" font-size="13" lengthAdjust="spacing" textLength="183" x="68" y="225.8623">Envia status 404 (NOT FOUND)</text><line style="stroke:#181818;stroke-width:1.0;" x1="586" x2="628" y1="268.0703" y2="268.0703"/><line style="stroke:#181818;stroke-width:1.0;" x1="628" x2="628" y1="268.0703" y2="281.0703"/><line style="stroke:#181818;stroke-width:1.0;" x1="587" x2="628" y1="281.0703" y2="281.0703"/><polygon fill="#181818" points="597,277.0703,587,281.0703,597,285.0703,593,281.0703" style="stroke:#181818;stroke-width:1.0;"/><text fill="#000000" font-family="sans-serif" font-size="13" lengthAdjust="spacing" textLength="169" x="593" y="263.2139">edificio = update(edificioDTO)</text><polygon fill="#181818" points="780,337.4219,790,341.4219,780,345.4219,784,341.4219" style="stroke:#181818;stroke-width:1.0;"/><line style="stroke:#181818;stroke-width:1.0;" x1="581" x2="786" y1="341.4219" y2="341.4219"/><text fill="#000000" font-family="sans-serif" font-size="13" lengthAdjust="spacing" textLength="74" x="588" y="336.5654">save(edificio)</text><polygon fill="#181818" points="960,367.7734,970,371.7734,960,375.7734,964,371.7734" style="stroke:#181818;stroke-width:1.0;"/><line style="stroke:#181818;stroke-width:1.0;" x1="802" x2="966" y1="371.7734" y2="371.7734"/><text fill="#000000" font-family="sans-serif" font-size="13" lengthAdjust="spacing" textLength="128" x="809" y="366.917">toPersistence(edificio)</text><polygon fill="#181818" points="813,381.7734,803,385.7734,813,389.7734,809,385.7734" style="stroke:#181818;stroke-width:1.0;"/><line style="stroke:#181818;stroke-width:1.0;stroke-dasharray:2.0,2.0;" x1="807" x2="976" y1="385.7734" y2="385.7734"/><polygon fill="#181818" points="1090,412.125,1100,416.125,1090,420.125,1094,416.125" style="stroke:#181818;stroke-width:1.0;"/><line style="stroke:#181818;stroke-width:1.0;" x1="802" x2="1096" y1="416.125" y2="416.125"/><text fill="#000000" font-family="sans-serif" font-size="13" lengthAdjust="spacing" textLength="135" x="809" y="411.2686">update(edificioUpdated)</text><polygon fill="#181818" points="813,426.125,803,430.125,813,434.125,809,430.125" style="stroke:#181818;stroke-width:1.0;"/><line style="stroke:#181818;stroke-width:1.0;stroke-dasharray:2.0,2.0;" x1="807" x2="1106" y1="430.125" y2="430.125"/><polygon fill="#181818" points="960,456.4766,970,460.4766,960,464.4766,964,460.4766" style="stroke:#181818;stroke-width:1.0;"/><line style="stroke:#181818;stroke-width:1.0;" x1="802" x2="966" y1="460.4766" y2="460.4766"/><text fill="#000000" font-family="sans-serif" font-size="13" lengthAdjust="spacing" textLength="151" x="809" y="455.6201">toDomain(edificioUpdated)</text><polygon fill="#181818" points="813,470.4766,803,474.4766,813,478.4766,809,474.4766" style="stroke:#181818;stroke-width:1.0;"/><line style="stroke:#181818;stroke-width:1.0;stroke-dasharray:2.0,2.0;" x1="807" x2="976" y1="474.4766" y2="474.4766"/><polygon fill="#181818" points="592,484.4766,582,488.4766,592,492.4766,588,488.4766" style="stroke:#181818;stroke-width:1.0;"/><line style="stroke:#181818;stroke-width:1.0;stroke-dasharray:2.0,2.0;" x1="586" x2="796" y1="488.4766" y2="488.4766"/><polygon fill="#181818" points="960,514.8281,970,518.8281,960,522.8281,964,518.8281" style="stroke:#181818;stroke-width:1.0;"/><line style="stroke:#181818;stroke-width:1.0;" x1="581" x2="966" y1="518.8281" y2="518.8281"/><text fill="#000000" font-family="sans-serif" font-size="13" lengthAdjust="spacing" textLength="85" x="588" y="513.9717">toDTO(edificio)</text><polygon fill="#181818" points="592,528.8281,582,532.8281,592,536.8281,588,532.8281" style="stroke:#181818;stroke-width:1.0;"/><line style="stroke:#181818;stroke-width:1.0;stroke-dasharray:2.0,2.0;" x1="586" x2="976" y1="532.8281" y2="532.8281"/><polygon fill="#181818" points="279,542.8281,269,546.8281,279,550.8281,275,546.8281" style="stroke:#181818;stroke-width:1.0;"/><line style="stroke:#181818;stroke-width:1.0;stroke-dasharray:2.0,2.0;" x1="273" x2="575" y1="546.8281" y2="546.8281"/><polygon fill="#181818" points="57,573.1797,47,577.1797,57,581.1797,53,577.1797" style="stroke:#181818;stroke-width:1.0;"/><line style="stroke:#181818;stroke-width:1.0;stroke-dasharray:2.0,2.0;" x1="51" x2="262" y1="577.1797" y2="577.1797"/><text fill="#000000" font-family="sans-serif" font-size="13" lengthAdjust="spacing" textLength="151" x="63" y="572.3232">Envia um código 201 (OK)</text><!--MD5=[2d7e69c0d54564cc5f0eeb8e241eebc6]
@startuml sd

participant Route as route
participant EdificioController as ctrl
participant EdificioService as svc
participant EdificioRepo as repoEdi
participant EdificioMapper as mapper
participant EdificioPersistence as pers
participant Edificio as model

activate route
route -> ctrl : /updateEdificio
activate ctrl
ctrl -> svc : updateEdificio(IEdificioDTO)
activate svc
svc -> repoEdi : findByCodigo(edificioDTO.codigo)
activate repoEdi
repoEdi - -> svc
deactivate repoEdi
alt edificio não existe
    svc - -> ctrl : Envia erro com a mensagem: Não existe edificio
    ctrl - -> route : Envia status 404 (NOT FOUND)
end
svc -> svc : edificio = update(edificioDTO)
activate model
deactivate model
svc -> repoEdi : save(edificio)
activate repoEdi
repoEdi -> mapper : toPersistence(edificio)
activate mapper
mapper - -> repoEdi
deactivate mapper
repoEdi -> pers : update(edificioUpdated)
activate pers
pers - -> repoEdi
deactivate pers
repoEdi -> mapper : toDomain(edificioUpdated)
activate mapper
mapper - -> repoEdi
deactivate mapper
repoEdi - -> svc
deactivate repoEdi
svc -> mapper : toDTO(edificio)
activate mapper
mapper - -> svc
deactivate mapper
svc - -> ctrl
deactivate svc
ctrl - -> route : Envia um código 201 (OK)
deactivate ctrl
deactivate route



@enduml

PlantUML version 1.2022.7(Mon Aug 22 18:01:30 WEST 2022)
(GPL source distribution)
Java Runtime: Java(TM) SE Runtime Environment
JVM: Java HotSpot(TM) 64-Bit Server VM
Default Encoding: Cp1252
Language: en
Country: US
--></g></svg>