<?xml version="1.0" encoding="UTF-8" standalone="no"?><svg xmlns="http://www.w3.org/2000/svg" xmlns:xlink="http://www.w3.org/1999/xlink" contentStyleType="text/css" height="372px" preserveAspectRatio="none" style="width:587px;height:372px;background:#FFFFFF;" version="1.1" viewBox="0 0 587 372" width="587px" zoomAndPan="magnify"><defs/><g><rect fill="#DDDDDD" height="360.0859" style="stroke:#181818;stroke-width:0.5;" width="573" x="1" y="6"/><text fill="#000000" font-family="sans-serif" font-size="13" font-weight="bold" lengthAdjust="spacing" textLength="102" x="219.5" y="19.4951">&lt;&lt;System(C4)&gt;&gt;</text><text fill="#000000" font-family="sans-serif" font-size="13" font-weight="bold" lengthAdjust="spacing" textLength="132" x="223.5" y="35.8467">SistemaRobDroneGo</text><rect fill="#FFFFFF" height="191.9453" style="stroke:#181818;stroke-width:1.0;" width="10" x="60" y="102.9219"/><rect fill="#FFFFFF" height="169.5938" style="stroke:#181818;stroke-width:1.0;" width="10" x="251" y="125.2734"/><rect fill="#FFFFFF" height="101.8906" style="stroke:#181818;stroke-width:1.0;" width="10" x="468" y="155.625"/><rect fill="none" height="94.8906" style="stroke:#000000;stroke-width:1.5;" width="444" x="136" y="170.625"/><line style="stroke:#181818;stroke-width:0.5;stroke-dasharray:5.0,5.0;" x1="65" x2="65" y1="92.9219" y2="312.8672"/><line style="stroke:#181818;stroke-width:0.5;stroke-dasharray:5.0,5.0;" x1="256" x2="256" y1="92.9219" y2="312.8672"/><line style="stroke:#181818;stroke-width:0.5;stroke-dasharray:5.0,5.0;" x1="473" x2="473" y1="92.9219" y2="312.8672"/><rect fill="#E2E2F0" height="49.2188" rx="2.5" ry="2.5" style="stroke:#181818;stroke-width:0.5;" width="120" x="5" y="42.7031"/><text fill="#000000" font-family="sans-serif" font-size="14" font-style="italic" lengthAdjust="spacing" textLength="106" x="12" y="64.2363">«Container(C4)»</text><text fill="#000000" font-family="sans-serif" font-size="14" lengthAdjust="spacing" textLength="12" x="59" y="81.8457">UI</text><rect fill="#E2E2F0" height="49.2188" rx="2.5" ry="2.5" style="stroke:#181818;stroke-width:0.5;" width="120" x="5" y="311.8672"/><text fill="#000000" font-family="sans-serif" font-size="14" font-style="italic" lengthAdjust="spacing" textLength="106" x="12" y="333.4004">«Container(C4)»</text><text fill="#000000" font-family="sans-serif" font-size="14" lengthAdjust="spacing" textLength="12" x="59" y="351.0098">UI</text><rect fill="#E2E2F0" height="49.2188" rx="2.5" ry="2.5" style="stroke:#181818;stroke-width:0.5;" width="220" x="146" y="42.7031"/><text fill="#000000" font-family="sans-serif" font-size="14" font-style="italic" lengthAdjust="spacing" textLength="106" x="203" y="64.2363">«Container(C4)»</text><text fill="#000000" font-family="sans-serif" font-size="14" lengthAdjust="spacing" textLength="206" x="153" y="81.8457">Master Data Gestão Dispositivos</text><rect fill="#E2E2F0" height="49.2188" rx="2.5" ry="2.5" style="stroke:#181818;stroke-width:0.5;" width="220" x="146" y="311.8672"/><text fill="#000000" font-family="sans-serif" font-size="14" font-style="italic" lengthAdjust="spacing" textLength="106" x="203" y="333.4004">«Container(C4)»</text><text fill="#000000" font-family="sans-serif" font-size="14" lengthAdjust="spacing" textLength="206" x="153" y="351.0098">Master Data Gestão Dispositivos</text><rect fill="#E2E2F0" height="49.2188" rx="2.5" ry="2.5" style="stroke:#181818;stroke-width:0.5;" width="194" x="376" y="42.7031"/><text fill="#000000" font-family="sans-serif" font-size="14" font-style="italic" lengthAdjust="spacing" textLength="106" x="420" y="64.2363">«Container(C4)»</text><text fill="#000000" font-family="sans-serif" font-size="14" lengthAdjust="spacing" textLength="180" x="383" y="81.8457">Master Data Gestão Tarefas</text><rect fill="#E2E2F0" height="49.2188" rx="2.5" ry="2.5" style="stroke:#181818;stroke-width:0.5;" width="194" x="376" y="311.8672"/><text fill="#000000" font-family="sans-serif" font-size="14" font-style="italic" lengthAdjust="spacing" textLength="106" x="420" y="333.4004">«Container(C4)»</text><text fill="#000000" font-family="sans-serif" font-size="14" lengthAdjust="spacing" textLength="180" x="383" y="351.0098">Master Data Gestão Tarefas</text><rect fill="#FFFFFF" height="191.9453" style="stroke:#181818;stroke-width:1.0;" width="10" x="60" y="102.9219"/><rect fill="#FFFFFF" height="169.5938" style="stroke:#181818;stroke-width:1.0;" width="10" x="251" y="125.2734"/><rect fill="#FFFFFF" height="101.8906" style="stroke:#181818;stroke-width:1.0;" width="10" x="468" y="155.625"/><polygon fill="#181818" points="239,121.2734,249,125.2734,239,129.2734,243,125.2734" style="stroke:#181818;stroke-width:1.0;"/><line style="stroke:#181818;stroke-width:1.0;" x1="70" x2="245" y1="125.2734" y2="125.2734"/><text fill="#000000" font-family="sans-serif" font-size="13" lengthAdjust="spacing" textLength="162" x="77" y="120.417">PATCH /aceitarRequisicao()</text><polygon fill="#181818" points="456,151.625,466,155.625,456,159.625,460,155.625" style="stroke:#181818;stroke-width:1.0;"/><line style="stroke:#181818;stroke-width:1.0;" x1="261" x2="462" y1="155.625" y2="155.625"/><text fill="#000000" font-family="sans-serif" font-size="13" lengthAdjust="spacing" textLength="162" x="268" y="150.7686">PATCH /aceitarRequisicao()</text><path d="M136,170.625 L197,170.625 L197,178.9766 L187,188.9766 L136,188.9766 L136,170.625 " fill="#EEEEEE" style="stroke:#000000;stroke-width:1.5;"/><rect fill="none" height="94.8906" style="stroke:#000000;stroke-width:1.5;" width="444" x="136" y="170.625"/><text fill="#000000" font-family="sans-serif" font-size="13" font-weight="bold" lengthAdjust="spacing" textLength="16" x="151" y="185.1201">alt</text><text fill="#000000" font-family="sans-serif" font-size="11" font-weight="bold" lengthAdjust="spacing" textLength="56" x="212" y="184.0439">[sucesso]</text><polygon fill="#181818" points="272,207.3281,262,211.3281,272,215.3281,268,211.3281" style="stroke:#181818;stroke-width:1.0;"/><line style="stroke:#181818;stroke-width:1.0;stroke-dasharray:2.0,2.0;" x1="266" x2="467" y1="211.3281" y2="211.3281"/><text fill="#000000" font-family="sans-serif" font-size="13" lengthAdjust="spacing" textLength="106" x="278" y="206.4717">devolve status 201</text><line style="stroke:#000000;stroke-width:1.0;stroke-dasharray:2.0,2.0;" x1="136" x2="580" y1="220.3281" y2="220.3281"/><text fill="#000000" font-family="sans-serif" font-size="11" font-weight="bold" lengthAdjust="spacing" textLength="99" x="141" y="231.7471">[erro na listagem]</text><polygon fill="#181818" points="272,253.5156,262,257.5156,272,261.5156,268,257.5156" style="stroke:#181818;stroke-width:1.0;"/><line style="stroke:#181818;stroke-width:1.0;stroke-dasharray:2.0,2.0;" x1="266" x2="472" y1="257.5156" y2="257.5156"/><text fill="#000000" font-family="sans-serif" font-size="13" lengthAdjust="spacing" textLength="106" x="278" y="252.6592">devolve status 404</text><polygon fill="#181818" points="76,290.8672,66,294.8672,76,298.8672,72,294.8672" style="stroke:#181818;stroke-width:1.0;"/><line style="stroke:#181818;stroke-width:1.0;stroke-dasharray:2.0,2.0;" x1="70" x2="255" y1="294.8672" y2="294.8672"/><text fill="#000000" font-family="sans-serif" font-size="13" lengthAdjust="spacing" textLength="84" x="82" y="290.0107">devolve estado</text><!--MD5=[baa26ac61b00c4df32c48117363d2f99]
@startuml vp2a

box "<<System(C4)>>\n SistemaRobDroneGo"
participant UI as ui <<Container(C4)>>
participant "Master Data Gestão Dispositivos" as mdgd <<Container(C4)>>
participant "Master Data Gestão Tarefas" as mdgt <<Container(C4)>>

activate ui
ui -> mdgd: PATCH /aceitarRequisicao()
activate mdgd
mdgd -> mdgt: PATCH /aceitarRequisicao()
activate mdgt
alt sucesso
mdgt - -> mdgd: devolve status 201
else erro na listagem
mdgt - -> mdgd: devolve status 404
deactivate mdgt
end
mdgd - -> ui : devolve estado
deactivate mdgd
deactivate ui

end box

@enduml

PlantUML version 1.2022.7(Mon Aug 22 18:01:30 WEST 2022)
(GPL source distribution)
Java Runtime: Java(TM) SE Runtime Environment
JVM: Java HotSpot(TM) 64-Bit Server VM
Default Encoding: Cp1252
Language: pt
Country: PT
--></g></svg>