<?xml version="1.0" encoding="UTF-8" standalone="no"?><svg xmlns="http://www.w3.org/2000/svg" xmlns:xlink="http://www.w3.org/1999/xlink" contentStyleType="text/css" height="310px" preserveAspectRatio="none" style="width:367px;height:310px;background:#FFFFFF;" version="1.1" viewBox="0 0 367 310" width="367px" zoomAndPan="magnify"><defs/><g><rect fill="#FFFFFF" height="125.4063" style="stroke:#181818;stroke-width:1.0;" width="10" x="77.5" y="92.6094"/><rect fill="#FFFFFF" height="103.0547" style="stroke:#181818;stroke-width:1.0;" width="10" x="269.5" y="114.9609"/><rect fill="none" height="81.0547" style="stroke:#000000;stroke-width:1.5;" width="350" x="10" y="129.9609"/><line style="stroke:#181818;stroke-width:0.5;stroke-dasharray:5.0,5.0;" x1="82" x2="82" y1="82.6094" y2="228.0156"/><line style="stroke:#181818;stroke-width:0.5;stroke-dasharray:5.0,5.0;" x1="274" x2="274" y1="82.6094" y2="228.0156"/><text fill="#000000" font-family="sans-serif" font-size="14" lengthAdjust="spacing" textLength="119" x="20" y="79.5332">Gestor de Campus</text><ellipse cx="82.5" cy="13.5" fill="#E2E2F0" rx="8" ry="8" style="stroke:#181818;stroke-width:0.5;"/><path d="M82.5,21.5 L82.5,48.5 M69.5,29.5 L95.5,29.5 M82.5,48.5 L69.5,63.5 M82.5,48.5 L95.5,63.5 " fill="none" style="stroke:#181818;stroke-width:0.5;"/><text fill="#000000" font-family="sans-serif" font-size="14" lengthAdjust="spacing" textLength="119" x="20" y="241.5488">Gestor de Campus</text><ellipse cx="82.5" cy="253.125" fill="#E2E2F0" rx="8" ry="8" style="stroke:#181818;stroke-width:0.5;"/><path d="M82.5,261.125 L82.5,288.125 M69.5,269.125 L95.5,269.125 M82.5,288.125 L69.5,303.125 M82.5,288.125 L95.5,303.125 " fill="none" style="stroke:#181818;stroke-width:0.5;"/><rect fill="#E2E2F0" height="49.2188" rx="2.5" ry="2.5" style="stroke:#181818;stroke-width:0.5;" width="151" x="199" y="32.3906"/><text fill="#000000" font-family="sans-serif" font-size="14" font-style="italic" lengthAdjust="spacing" textLength="90" x="229.5" y="53.9238">«System(C4)»</text><text fill="#000000" font-family="sans-serif" font-size="14" lengthAdjust="spacing" textLength="137" x="206" y="71.5332">SistemaRobDroneGO</text><rect fill="#E2E2F0" height="49.2188" rx="2.5" ry="2.5" style="stroke:#181818;stroke-width:0.5;" width="151" x="199" y="227.0156"/><text fill="#000000" font-family="sans-serif" font-size="14" font-style="italic" lengthAdjust="spacing" textLength="90" x="229.5" y="248.5488">«System(C4)»</text><text fill="#000000" font-family="sans-serif" font-size="14" lengthAdjust="spacing" textLength="137" x="206" y="266.1582">SistemaRobDroneGO</text><rect fill="#FFFFFF" height="125.4063" style="stroke:#181818;stroke-width:1.0;" width="10" x="77.5" y="92.6094"/><rect fill="#FFFFFF" height="103.0547" style="stroke:#181818;stroke-width:1.0;" width="10" x="269.5" y="114.9609"/><polygon fill="#181818" points="257.5,110.9609,267.5,114.9609,257.5,118.9609,261.5,114.9609" style="stroke:#181818;stroke-width:1.0;"/><line style="stroke:#181818;stroke-width:1.0;" x1="87.5" x2="263.5" y1="114.9609" y2="114.9609"/><text fill="#000000" font-family="sans-serif" font-size="13" lengthAdjust="spacing" textLength="163" x="94.5" y="110.1045">Editar informação do edifício</text><path d="M10,129.9609 L71,129.9609 L71,138.3125 L61,148.3125 L10,148.3125 L10,129.9609 " fill="#EEEEEE" style="stroke:#000000;stroke-width:1.5;"/><rect fill="none" height="81.0547" style="stroke:#000000;stroke-width:1.5;" width="350" x="10" y="129.9609"/><text fill="#000000" font-family="sans-serif" font-size="13" font-weight="bold" lengthAdjust="spacing" textLength="16" x="25" y="144.4561">alt</text><polygon fill="#181818" points="98.5,166.6641,88.5,170.6641,98.5,174.6641,94.5,170.6641" style="stroke:#181818;stroke-width:1.0;"/><line style="stroke:#181818;stroke-width:1.0;stroke-dasharray:2.0,2.0;" x1="92.5" x2="268.5" y1="170.6641" y2="170.6641"/><text fill="#000000" font-family="sans-serif" font-size="13" lengthAdjust="spacing" textLength="14" x="104.5" y="165.8076">ok</text><line style="stroke:#000000;stroke-width:1.0;stroke-dasharray:2.0,2.0;" x1="10" x2="360" y1="179.6641" y2="179.6641"/><polygon fill="#181818" points="98.5,199.0156,88.5,203.0156,98.5,207.0156,94.5,203.0156" style="stroke:#181818;stroke-width:1.0;"/><line style="stroke:#181818;stroke-width:1.0;stroke-dasharray:2.0,2.0;" x1="92.5" x2="268.5" y1="203.0156" y2="203.0156"/><text fill="#000000" font-family="sans-serif" font-size="13" lengthAdjust="spacing" textLength="22" x="104.5" y="198.1592">erro</text><!--MD5=[0a501fc0dc18885c959d61f8d28e3fae]
@startuml vp1

actor "Gestor de Campus" as actor
participant SistemaRobDroneGO as srdg <<System(C4)>>

activate actor
actor -> srdg: Editar informação do edifício
activate srdg
alt 
srdg - -> actor : ok
else
srdg - -> actor : erro
end
deactivate srdg
deactivate actor
@enduml

PlantUML version 1.2022.7(Mon Aug 22 18:01:30 WEST 2022)
(GPL source distribution)
Java Runtime: Java(TM) SE Runtime Environment
JVM: Java HotSpot(TM) 64-Bit Server VM
Default Encoding: Cp1252
Language: pt
Country: PT
--></g></svg>