<?xml version="1.0" encoding="UTF-8" standalone="no"?><svg xmlns="http://www.w3.org/2000/svg" xmlns:xlink="http://www.w3.org/1999/xlink" contentStyleType="text/css" height="413px" preserveAspectRatio="none" style="width:954px;height:413px;background:#FFFFFF;" version="1.1" viewBox="0 0 954 413" width="954px" zoomAndPan="magnify"><defs/><g><rect fill="#FFFFFF" height="320.1641" style="stroke:#181818;stroke-width:1.0;" width="10" x="41" y="47.6094"/><rect fill="#FFFFFF" height="297.8125" style="stroke:#181818;stroke-width:1.0;" width="10" x="258" y="69.9609"/><rect fill="#FFFFFF" height="267.4609" style="stroke:#181818;stroke-width:1.0;" width="10" x="660" y="100.3125"/><rect fill="#FFFFFF" height="14" style="stroke:#181818;stroke-width:1.0;" width="10" x="769.5" y="130.6641"/><rect fill="#FFFFFF" height="14" style="stroke:#181818;stroke-width:1.0;" width="10" x="879.5" y="293.4219"/><rect fill="none" height="79.0547" style="stroke:#000000;stroke-width:1.5;" width="718" x="10" y="159.6641"/><rect fill="none" height="62.7031" style="stroke:#000000;stroke-width:1.5;" width="346" x="602" y="252.7188"/><line style="stroke:#181818;stroke-width:0.5;stroke-dasharray:5.0,5.0;" x1="46" x2="46" y1="37.6094" y2="376.7734"/><line style="stroke:#181818;stroke-width:0.5;stroke-dasharray:5.0,5.0;" x1="262.5" x2="262.5" y1="37.6094" y2="376.7734"/><line style="stroke:#181818;stroke-width:0.5;stroke-dasharray:5.0,5.0;" x1="665" x2="665" y1="37.6094" y2="376.7734"/><line style="stroke:#181818;stroke-width:0.5;stroke-dasharray:5.0,5.0;" x1="774" x2="774" y1="37.6094" y2="376.7734"/><line style="stroke:#181818;stroke-width:0.5;stroke-dasharray:5.0,5.0;" x1="884" x2="884" y1="37.6094" y2="376.7734"/><rect fill="#E2E2F0" height="31.6094" rx="2.5" ry="2.5" style="stroke:#181818;stroke-width:0.5;" width="52" x="20" y="5"/><text fill="#000000" font-family="sans-serif" font-size="14" lengthAdjust="spacing" textLength="38" x="27" y="26.5332">Route</text><rect fill="#E2E2F0" height="31.6094" rx="2.5" ry="2.5" style="stroke:#181818;stroke-width:0.5;" width="52" x="20" y="375.7734"/><text fill="#000000" font-family="sans-serif" font-size="14" lengthAdjust="spacing" textLength="38" x="27" y="397.3066">Route</text><rect fill="#E2E2F0" height="31.6094" rx="2.5" ry="2.5" style="stroke:#181818;stroke-width:0.5;" width="121" x="202.5" y="5"/><text fill="#000000" font-family="sans-serif" font-size="14" lengthAdjust="spacing" textLength="107" x="209.5" y="26.5332">EdificioController</text><rect fill="#E2E2F0" height="31.6094" rx="2.5" ry="2.5" style="stroke:#181818;stroke-width:0.5;" width="121" x="202.5" y="375.7734"/><text fill="#000000" font-family="sans-serif" font-size="14" lengthAdjust="spacing" textLength="107" x="209.5" y="397.3066">EdificioController</text><rect fill="#E2E2F0" height="31.6094" rx="2.5" ry="2.5" style="stroke:#181818;stroke-width:0.5;" width="106" x="612" y="5"/><text fill="#000000" font-family="sans-serif" font-size="14" lengthAdjust="spacing" textLength="92" x="619" y="26.5332">EdificioService</text><rect fill="#E2E2F0" height="31.6094" rx="2.5" ry="2.5" style="stroke:#181818;stroke-width:0.5;" width="106" x="612" y="375.7734"/><text fill="#000000" font-family="sans-serif" font-size="14" lengthAdjust="spacing" textLength="92" x="619" y="397.3066">EdificioService</text><rect fill="#E2E2F0" height="31.6094" rx="2.5" ry="2.5" style="stroke:#181818;stroke-width:0.5;" width="93" x="728" y="5"/><text fill="#000000" font-family="sans-serif" font-size="14" lengthAdjust="spacing" textLength="79" x="735" y="26.5332">EdificioRepo</text><rect fill="#E2E2F0" height="31.6094" rx="2.5" ry="2.5" style="stroke:#181818;stroke-width:0.5;" width="93" x="728" y="375.7734"/><text fill="#000000" font-family="sans-serif" font-size="14" lengthAdjust="spacing" textLength="79" x="735" y="397.3066">EdificioRepo</text><rect fill="#E2E2F0" height="31.6094" rx="2.5" ry="2.5" style="stroke:#181818;stroke-width:0.5;" width="107" x="831" y="5"/><text fill="#000000" font-family="sans-serif" font-size="14" lengthAdjust="spacing" textLength="93" x="838" y="26.5332">EdificioMapper</text><rect fill="#E2E2F0" height="31.6094" rx="2.5" ry="2.5" style="stroke:#181818;stroke-width:0.5;" width="107" x="831" y="375.7734"/><text fill="#000000" font-family="sans-serif" font-size="14" lengthAdjust="spacing" textLength="93" x="838" y="397.3066">EdificioMapper</text><rect fill="#FFFFFF" height="320.1641" style="stroke:#181818;stroke-width:1.0;" width="10" x="41" y="47.6094"/><rect fill="#FFFFFF" height="297.8125" style="stroke:#181818;stroke-width:1.0;" width="10" x="258" y="69.9609"/><rect fill="#FFFFFF" height="267.4609" style="stroke:#181818;stroke-width:1.0;" width="10" x="660" y="100.3125"/><rect fill="#FFFFFF" height="14" style="stroke:#181818;stroke-width:1.0;" width="10" x="769.5" y="130.6641"/><rect fill="#FFFFFF" height="14" style="stroke:#181818;stroke-width:1.0;" width="10" x="879.5" y="293.4219"/><polygon fill="#181818" points="246,65.9609,256,69.9609,246,73.9609,250,69.9609" style="stroke:#181818;stroke-width:1.0;"/><line style="stroke:#181818;stroke-width:1.0;" x1="51" x2="252" y1="69.9609" y2="69.9609"/><text fill="#000000" font-family="sans-serif" font-size="13" lengthAdjust="spacing" textLength="70" x="58" y="65.1045">/listEdificios</text><polygon fill="#181818" points="648,96.3125,658,100.3125,648,104.3125,652,100.3125" style="stroke:#181818;stroke-width:1.0;"/><line style="stroke:#181818;stroke-width:1.0;" x1="268" x2="654" y1="100.3125" y2="100.3125"/><text fill="#000000" font-family="sans-serif" font-size="13" lengthAdjust="spacing" textLength="74" x="275" y="95.4561">listEdificios()</text><polygon fill="#181818" points="757.5,126.6641,767.5,130.6641,757.5,134.6641,761.5,130.6641" style="stroke:#181818;stroke-width:1.0;"/><line style="stroke:#181818;stroke-width:1.0;" x1="670" x2="763.5" y1="130.6641" y2="130.6641"/><text fill="#000000" font-family="sans-serif" font-size="13" lengthAdjust="spacing" textLength="43" x="677" y="125.8076">findAll()</text><polygon fill="#181818" points="681,140.6641,671,144.6641,681,148.6641,677,144.6641" style="stroke:#181818;stroke-width:1.0;"/><line style="stroke:#181818;stroke-width:1.0;stroke-dasharray:2.0,2.0;" x1="675" x2="773.5" y1="144.6641" y2="144.6641"/><path d="M10,159.6641 L71,159.6641 L71,168.0156 L61,178.0156 L10,178.0156 L10,159.6641 " fill="#EEEEEE" style="stroke:#000000;stroke-width:1.5;"/><rect fill="none" height="79.0547" style="stroke:#000000;stroke-width:1.5;" width="718" x="10" y="159.6641"/><text fill="#000000" font-family="sans-serif" font-size="13" font-weight="bold" lengthAdjust="spacing" textLength="16" x="25" y="174.1592">alt</text><text fill="#000000" font-family="sans-serif" font-size="11" font-weight="bold" lengthAdjust="spacing" textLength="108" x="86" y="173.083">[edificio n達o existe]</text><polygon fill="#181818" points="279,196.3672,269,200.3672,279,204.3672,275,200.3672" style="stroke:#181818;stroke-width:1.0;"/><line style="stroke:#181818;stroke-width:1.0;stroke-dasharray:2.0,2.0;" x1="273" x2="659" y1="200.3672" y2="200.3672"/><text fill="#000000" font-family="sans-serif" font-size="13" lengthAdjust="spacing" textLength="368" x="285" y="195.5107">Envia erro com a mensagem: N達o existe nenhum edificio criado</text><polygon fill="#181818" points="62,226.7188,52,230.7188,62,234.7188,58,230.7188" style="stroke:#181818;stroke-width:1.0;"/><line style="stroke:#181818;stroke-width:1.0;stroke-dasharray:2.0,2.0;" x1="56" x2="257" y1="230.7188" y2="230.7188"/><text fill="#000000" font-family="sans-serif" font-size="13" lengthAdjust="spacing" textLength="183" x="68" y="225.8623">Envia status 404 (NOT FOUND)</text><path d="M602,252.7188 L675,252.7188 L675,261.0703 L665,271.0703 L602,271.0703 L602,252.7188 " fill="#EEEEEE" style="stroke:#000000;stroke-width:1.5;"/><rect fill="none" height="62.7031" style="stroke:#000000;stroke-width:1.5;" width="346" x="602" y="252.7188"/><text fill="#000000" font-family="sans-serif" font-size="13" font-weight="bold" lengthAdjust="spacing" textLength="28" x="617" y="267.2139">loop</text><polygon fill="#181818" points="867.5,289.4219,877.5,293.4219,867.5,297.4219,871.5,293.4219" style="stroke:#181818;stroke-width:1.0;"/><line style="stroke:#181818;stroke-width:1.0;" x1="670" x2="873.5" y1="293.4219" y2="293.4219"/><text fill="#000000" font-family="sans-serif" font-size="13" lengthAdjust="spacing" textLength="156" x="677" y="288.5654">edificios[] = toDTO(edificio)</text><polygon fill="#181818" points="681,303.4219,671,307.4219,681,311.4219,677,307.4219" style="stroke:#181818;stroke-width:1.0;"/><line style="stroke:#181818;stroke-width:1.0;stroke-dasharray:2.0,2.0;" x1="675" x2="883.5" y1="307.4219" y2="307.4219"/><polygon fill="#181818" points="279,324.4219,269,328.4219,279,332.4219,275,328.4219" style="stroke:#181818;stroke-width:1.0;"/><line style="stroke:#181818;stroke-width:1.0;stroke-dasharray:2.0,2.0;" x1="273" x2="659" y1="328.4219" y2="328.4219"/><polygon fill="#181818" points="62,354.7734,52,358.7734,62,362.7734,58,358.7734" style="stroke:#181818;stroke-width:1.0;"/><line style="stroke:#181818;stroke-width:1.0;stroke-dasharray:2.0,2.0;" x1="56" x2="257" y1="358.7734" y2="358.7734"/><text fill="#000000" font-family="sans-serif" font-size="13" lengthAdjust="spacing" textLength="96" x="68" y="353.917">Envia status 201</text><!--MD5=[ccebeb1a61a538997267f3d2d46302db]
@startuml sd

participant Route as route
participant EdificioController as ctrl
participant EdificioService as svc
participant EdificioRepo as repoEdi
participant EdificioMapper as mapper


activate route
route -> ctrl : /listEdificios
activate ctrl
ctrl -> svc : listEdificios()
activate svc
svc -> repoEdi : findAll()
activate repoEdi
repoEdi - -> svc
deactivate repoEdi
alt edificio n達o existe
    svc - -> ctrl : Envia erro com a mensagem: N達o existe nenhum edificio criado
    ctrl - -> route : Envia status 404 (NOT FOUND)
end
loop
svc -> mapper : edificios[] = toDTO(edificio)
activate mapper
mapper - -> svc :
deactivate mapper
end
svc - -> ctrl :
ctrl - -> route : Envia status 201
@enduml

PlantUML version 1.2022.7(Mon Aug 22 18:01:30 WEST 2022)
(GPL source distribution)
Java Runtime: Java(TM) SE Runtime Environment
JVM: Java HotSpot(TM) 64-Bit Server VM
Default Encoding: Cp1252
Language: en
Country: US
--></g></svg>