<?xml version="1.0" encoding="UTF-8" standalone="no"?><svg xmlns="http://www.w3.org/2000/svg" xmlns:xlink="http://www.w3.org/1999/xlink" contentStyleType="text/css" height="445px" preserveAspectRatio="none" style="width:521px;height:445px;background:#FFFFFF;" version="1.1" viewBox="0 0 521 445" width="521px" zoomAndPan="magnify"><defs/><g><rect fill="#FFFFFF" height="351.7031" style="stroke:#181818;stroke-width:1.0;" width="10" x="36.5" y="47.6094"/><rect fill="#FFFFFF" height="329.3516" style="stroke:#181818;stroke-width:1.0;" width="10" x="169.5" y="69.9609"/><rect fill="#FFFFFF" height="60.7031" style="stroke:#181818;stroke-width:1.0;" width="10" x="320.5" y="161.0156"/><rect fill="#FFFFFF" height="30.3516" style="stroke:#181818;stroke-width:1.0;" width="10" x="399" y="100.3125"/><rect fill="#FFFFFF" height="30.3516" style="stroke:#181818;stroke-width:1.0;" width="10" x="482.5" y="191.3672"/><rect fill="none" height="155.5938" style="stroke:#000000;stroke-width:1.5;" width="356" x="10" y="236.7188"/><line style="stroke:#181818;stroke-width:0.5;stroke-dasharray:5.0,5.0;" x1="41" x2="41" y1="37.6094" y2="409.3125"/><line style="stroke:#181818;stroke-width:0.5;stroke-dasharray:5.0,5.0;" x1="174.5" x2="174.5" y1="37.6094" y2="409.3125"/><line style="stroke:#181818;stroke-width:0.5;stroke-dasharray:5.0,5.0;" x1="325" x2="325" y1="37.6094" y2="409.3125"/><line style="stroke:#181818;stroke-width:0.5;stroke-dasharray:5.0,5.0;" x1="404" x2="404" y1="37.6094" y2="409.3125"/><line style="stroke:#181818;stroke-width:0.5;stroke-dasharray:5.0,5.0;" x1="487.5" x2="487.5" y1="37.6094" y2="409.3125"/><rect fill="#E2E2F0" height="31.6094" rx="2.5" ry="2.5" style="stroke:#181818;stroke-width:0.5;" width="43" x="20" y="5"/><text fill="#000000" font-family="sans-serif" font-size="14" lengthAdjust="spacing" textLength="29" x="27" y="26.5332">View</text><rect fill="#E2E2F0" height="31.6094" rx="2.5" ry="2.5" style="stroke:#181818;stroke-width:0.5;" width="43" x="20" y="408.3125"/><text fill="#000000" font-family="sans-serif" font-size="14" lengthAdjust="spacing" textLength="29" x="27" y="429.8457">View</text><rect fill="#E2E2F0" height="31.6094" rx="2.5" ry="2.5" style="stroke:#181818;stroke-width:0.5;" width="76" x="136.5" y="5"/><text fill="#000000" font-family="sans-serif" font-size="14" lengthAdjust="spacing" textLength="62" x="143.5" y="26.5332">Controller</text><rect fill="#E2E2F0" height="31.6094" rx="2.5" ry="2.5" style="stroke:#181818;stroke-width:0.5;" width="76" x="136.5" y="408.3125"/><text fill="#000000" font-family="sans-serif" font-size="14" lengthAdjust="spacing" textLength="62" x="143.5" y="429.8457">Controller</text><rect fill="#E2E2F0" height="31.6094" rx="2.5" ry="2.5" style="stroke:#181818;stroke-width:0.5;" width="61" x="295" y="5"/><text fill="#000000" font-family="sans-serif" font-size="14" lengthAdjust="spacing" textLength="47" x="302" y="26.5332">Service</text><rect fill="#E2E2F0" height="31.6094" rx="2.5" ry="2.5" style="stroke:#181818;stroke-width:0.5;" width="61" x="295" y="408.3125"/><text fill="#000000" font-family="sans-serif" font-size="14" lengthAdjust="spacing" textLength="47" x="302" y="429.8457">Service</text><rect fill="#E2E2F0" height="31.6094" rx="2.5" ry="2.5" style="stroke:#181818;stroke-width:0.5;" width="76" x="366" y="5"/><text fill="#000000" font-family="sans-serif" font-size="14" lengthAdjust="spacing" textLength="62" x="373" y="26.5332">MapaPiso</text><rect fill="#E2E2F0" height="31.6094" rx="2.5" ry="2.5" style="stroke:#181818;stroke-width:0.5;" width="76" x="366" y="408.3125"/><text fill="#000000" font-family="sans-serif" font-size="14" lengthAdjust="spacing" textLength="62" x="373" y="429.8457">MapaPiso</text><rect fill="#E2E2F0" height="31.6094" rx="2.5" ry="2.5" style="stroke:#181818;stroke-width:0.5;" width="56" x="459.5" y="5"/><text fill="#000000" font-family="sans-serif" font-size="14" lengthAdjust="spacing" textLength="42" x="466.5" y="26.5332">MDGD</text><rect fill="#E2E2F0" height="31.6094" rx="2.5" ry="2.5" style="stroke:#181818;stroke-width:0.5;" width="56" x="459.5" y="408.3125"/><text fill="#000000" font-family="sans-serif" font-size="14" lengthAdjust="spacing" textLength="42" x="466.5" y="429.8457">MDGD</text><rect fill="#FFFFFF" height="351.7031" style="stroke:#181818;stroke-width:1.0;" width="10" x="36.5" y="47.6094"/><rect fill="#FFFFFF" height="329.3516" style="stroke:#181818;stroke-width:1.0;" width="10" x="169.5" y="69.9609"/><rect fill="#FFFFFF" height="60.7031" style="stroke:#181818;stroke-width:1.0;" width="10" x="320.5" y="161.0156"/><rect fill="#FFFFFF" height="30.3516" style="stroke:#181818;stroke-width:1.0;" width="10" x="399" y="100.3125"/><rect fill="#FFFFFF" height="30.3516" style="stroke:#181818;stroke-width:1.0;" width="10" x="482.5" y="191.3672"/><polygon fill="#181818" points="157.5,65.9609,167.5,69.9609,157.5,73.9609,161.5,69.9609" style="stroke:#181818;stroke-width:1.0;"/><line style="stroke:#181818;stroke-width:1.0;" x1="46.5" x2="163.5" y1="69.9609" y2="69.9609"/><text fill="#000000" font-family="sans-serif" font-size="13" lengthAdjust="spacing" textLength="102" x="53.5" y="65.1045">createMapaPiso()</text><polygon fill="#181818" points="387,96.3125,397,100.3125,387,104.3125,391,100.3125" style="stroke:#181818;stroke-width:1.0;"/><line style="stroke:#181818;stroke-width:1.0;" x1="179.5" x2="393" y1="100.3125" y2="100.3125"/><text fill="#000000" font-family="sans-serif" font-size="13" lengthAdjust="spacing" textLength="166" x="186.5" y="95.4561">createMapaPiso(piso, mapa)</text><polygon fill="#181818" points="190.5,126.6641,180.5,130.6641,190.5,134.6641,186.5,130.6641" style="stroke:#181818;stroke-width:1.0;"/><line style="stroke:#181818;stroke-width:1.0;stroke-dasharray:2.0,2.0;" x1="184.5" x2="403" y1="130.6641" y2="130.6641"/><text fill="#000000" font-family="sans-serif" font-size="13" lengthAdjust="spacing" textLength="58" x="196.5" y="125.8076">mapaPiso</text><polygon fill="#181818" points="308.5,157.0156,318.5,161.0156,308.5,165.0156,312.5,161.0156" style="stroke:#181818;stroke-width:1.0;"/><line style="stroke:#181818;stroke-width:1.0;" x1="179.5" x2="314.5" y1="161.0156" y2="161.0156"/><text fill="#000000" font-family="sans-serif" font-size="13" lengthAdjust="spacing" textLength="92" x="186.5" y="156.1592">save(mapaPiso)</text><polygon fill="#181818" points="470.5,187.3672,480.5,191.3672,470.5,195.3672,474.5,191.3672" style="stroke:#181818;stroke-width:1.0;"/><line style="stroke:#181818;stroke-width:1.0;" x1="330.5" x2="476.5" y1="191.3672" y2="191.3672"/><text fill="#000000" font-family="sans-serif" font-size="13" lengthAdjust="spacing" textLength="133" x="337.5" y="186.5107">POST mapaPiso {json}</text><polygon fill="#181818" points="336.5,217.7188,326.5,221.7188,336.5,225.7188,332.5,221.7188" style="stroke:#181818;stroke-width:1.0;"/><line style="stroke:#181818;stroke-width:1.0;stroke-dasharray:2.0,2.0;" x1="330.5" x2="486.5" y1="221.7188" y2="221.7188"/><text fill="#000000" font-family="sans-serif" font-size="13" lengthAdjust="spacing" textLength="91" x="342.5" y="216.8623">Resposta HTTP</text><path d="M10,236.7188 L71,236.7188 L71,245.0703 L61,255.0703 L10,255.0703 L10,236.7188 " fill="#EEEEEE" style="stroke:#000000;stroke-width:1.5;"/><rect fill="none" height="155.5938" style="stroke:#000000;stroke-width:1.5;" width="356" x="10" y="236.7188"/><text fill="#000000" font-family="sans-serif" font-size="13" font-weight="bold" lengthAdjust="spacing" textLength="16" x="25" y="251.2139">alt</text><text fill="#000000" font-family="sans-serif" font-size="11" font-weight="bold" lengthAdjust="spacing" textLength="56" x="86" y="250.1377">[sucesso]</text><polygon fill="#181818" points="190.5,273.4219,180.5,277.4219,190.5,281.4219,186.5,277.4219" style="stroke:#181818;stroke-width:1.0;"/><line style="stroke:#181818;stroke-width:1.0;stroke-dasharray:2.0,2.0;" x1="184.5" x2="324.5" y1="277.4219" y2="277.4219"/><text fill="#000000" font-family="sans-serif" font-size="13" lengthAdjust="spacing" textLength="57" x="196.5" y="272.5654">HTTP 201</text><polygon fill="#181818" points="57.5,303.7734,47.5,307.7734,57.5,311.7734,53.5,307.7734" style="stroke:#181818;stroke-width:1.0;"/><line style="stroke:#181818;stroke-width:1.0;stroke-dasharray:2.0,2.0;" x1="51.5" x2="168.5" y1="307.7734" y2="307.7734"/><text fill="#000000" font-family="sans-serif" font-size="13" lengthAdjust="spacing" textLength="99" x="63.5" y="302.917">Envia Mensagem</text><line style="stroke:#000000;stroke-width:1.0;stroke-dasharray:2.0,2.0;" x1="10" x2="366" y1="316.7734" y2="316.7734"/><text fill="#000000" font-family="sans-serif" font-size="11" font-weight="bold" lengthAdjust="spacing" textLength="66" x="15" y="328.1924">[insucesso]</text><polygon fill="#181818" points="190.5,349.9609,180.5,353.9609,190.5,357.9609,186.5,353.9609" style="stroke:#181818;stroke-width:1.0;"/><line style="stroke:#181818;stroke-width:1.0;stroke-dasharray:2.0,2.0;" x1="184.5" x2="324.5" y1="353.9609" y2="353.9609"/><text fill="#000000" font-family="sans-serif" font-size="13" lengthAdjust="spacing" textLength="122" x="196.5" y="349.1045">HTTP 4xx / HTTP500</text><polygon fill="#181818" points="57.5,380.3125,47.5,384.3125,57.5,388.3125,53.5,384.3125" style="stroke:#181818;stroke-width:1.0;"/><line style="stroke:#181818;stroke-width:1.0;stroke-dasharray:2.0,2.0;" x1="51.5" x2="168.5" y1="384.3125" y2="384.3125"/><text fill="#000000" font-family="sans-serif" font-size="13" lengthAdjust="spacing" textLength="99" x="63.5" y="379.4561">Envia Mensagem</text><!--MD5=[5f9bf40eb59ba2cd5f793d4f2f1d2d45]
@startuml sd
participant View as view
participant Controller as ctrl
participant Service as svc
participant MapaPiso as model
participant MDGD as be

activate view
view -> ctrl : createMapaPiso()
activate ctrl
ctrl -> model : createMapaPiso(piso, mapa)
activate model
model - -> ctrl : mapaPiso
deactivate model
ctrl -> svc: save(mapaPiso)
activate svc
svc -> be: POST mapaPiso {json}
activate be
be - -> svc : Resposta HTTP
deactivate be
deactivate svc
alt sucesso 
svc - -> ctrl : HTTP 201
ctrl - -> view : Envia Mensagem
else insucesso
svc - -> ctrl : HTTP 4xx / HTTP500
ctrl - -> view : Envia Mensagem
end
deactivate view
deactivate ctrl
@enduml

PlantUML version 1.2022.7(Mon Aug 22 18:01:30 WEST 2022)
(GPL source distribution)
Java Runtime: Java(TM) SE Runtime Environment
JVM: Java HotSpot(TM) 64-Bit Server VM
Default Encoding: Cp1252
Language: en
Country: US
--></g></svg>