<?xml version="1.0" encoding="UTF-8" standalone="no"?><svg xmlns="http://www.w3.org/2000/svg" xmlns:xlink="http://www.w3.org/1999/xlink" contentStyleType="text/css" height="323px" preserveAspectRatio="none" style="width:568px;height:323px;background:#FFFFFF;" version="1.1" viewBox="0 0 568 323" width="568px" zoomAndPan="magnify"><defs/><g><rect fill="#FFFFFF" height="139.2422" style="stroke:#181818;stroke-width:1.0;" width="10" x="77.5" y="92.6094"/><rect fill="#FFFFFF" height="116.8906" style="stroke:#181818;stroke-width:1.0;" width="10" x="472.5" y="114.9609"/><rect fill="none" height="94.8906" style="stroke:#000000;stroke-width:1.5;" width="551.5" x="10" y="129.9609"/><line style="stroke:#181818;stroke-width:0.5;stroke-dasharray:5.0,5.0;" x1="82" x2="82" y1="82.6094" y2="241.8516"/><line style="stroke:#181818;stroke-width:0.5;stroke-dasharray:5.0,5.0;" x1="477.5" x2="477.5" y1="82.6094" y2="241.8516"/><text fill="#000000" font-family="sans-serif" font-size="14" lengthAdjust="spacing" textLength="119" x="20" y="79.5332">Gestor de Campus</text><ellipse cx="82.5" cy="13.5" fill="#E2E2F0" rx="8" ry="8" style="stroke:#181818;stroke-width:0.5;"/><path d="M82.5,21.5 L82.5,48.5 M69.5,29.5 L95.5,29.5 M82.5,48.5 L69.5,63.5 M82.5,48.5 L95.5,63.5 " fill="none" style="stroke:#181818;stroke-width:0.5;"/><text fill="#000000" font-family="sans-serif" font-size="14" lengthAdjust="spacing" textLength="119" x="20" y="255.3848">Gestor de Campus</text><ellipse cx="82.5" cy="266.9609" fill="#E2E2F0" rx="8" ry="8" style="stroke:#181818;stroke-width:0.5;"/><path d="M82.5,274.9609 L82.5,301.9609 M69.5,282.9609 L95.5,282.9609 M82.5,301.9609 L69.5,316.9609 M82.5,301.9609 L95.5,316.9609 " fill="none" style="stroke:#181818;stroke-width:0.5;"/><rect fill="#E2E2F0" height="49.2188" rx="2.5" ry="2.5" style="stroke:#181818;stroke-width:0.5;" width="148" x="403.5" y="32.3906"/><text fill="#000000" font-family="sans-serif" font-size="14" font-style="italic" lengthAdjust="spacing" textLength="78" x="438.5" y="53.9238">«Container»</text><text fill="#000000" font-family="sans-serif" font-size="14" lengthAdjust="spacing" textLength="134" x="410.5" y="71.5332">SistemaRobDroneGo</text><rect fill="#E2E2F0" height="49.2188" rx="2.5" ry="2.5" style="stroke:#181818;stroke-width:0.5;" width="148" x="403.5" y="240.8516"/><text fill="#000000" font-family="sans-serif" font-size="14" font-style="italic" lengthAdjust="spacing" textLength="78" x="438.5" y="262.3848">«Container»</text><text fill="#000000" font-family="sans-serif" font-size="14" lengthAdjust="spacing" textLength="134" x="410.5" y="279.9941">SistemaRobDroneGo</text><rect fill="#FFFFFF" height="139.2422" style="stroke:#181818;stroke-width:1.0;" width="10" x="77.5" y="92.6094"/><rect fill="#FFFFFF" height="116.8906" style="stroke:#181818;stroke-width:1.0;" width="10" x="472.5" y="114.9609"/><polygon fill="#181818" points="460.5,110.9609,470.5,114.9609,460.5,118.9609,464.5,114.9609" style="stroke:#181818;stroke-width:1.0;"/><line style="stroke:#181818;stroke-width:1.0;" x1="87.5" x2="466.5" y1="114.9609" y2="114.9609"/><text fill="#000000" font-family="sans-serif" font-size="13" lengthAdjust="spacing" textLength="342" x="94.5" y="110.1045">Listar pisos de edifício com passagem para outros edifícios</text><path d="M10,129.9609 L71,129.9609 L71,138.3125 L61,148.3125 L10,148.3125 L10,129.9609 " fill="#EEEEEE" style="stroke:#000000;stroke-width:1.5;"/><rect fill="none" height="94.8906" style="stroke:#000000;stroke-width:1.5;" width="551.5" x="10" y="129.9609"/><text fill="#000000" font-family="sans-serif" font-size="13" font-weight="bold" lengthAdjust="spacing" textLength="16" x="25" y="144.4561">alt</text><text fill="#000000" font-family="sans-serif" font-size="11" font-weight="bold" lengthAdjust="spacing" textLength="56" x="86" y="143.3799">[sucesso]</text><polygon fill="#181818" points="98.5,166.6641,88.5,170.6641,98.5,174.6641,94.5,170.6641" style="stroke:#181818;stroke-width:1.0;"/><line style="stroke:#181818;stroke-width:1.0;stroke-dasharray:2.0,2.0;" x1="92.5" x2="471.5" y1="170.6641" y2="170.6641"/><text fill="#000000" font-family="sans-serif" font-size="13" lengthAdjust="spacing" textLength="361" x="104.5" y="165.8076">retorna a lista de edificios com passagem para outros edificios</text><line style="stroke:#000000;stroke-width:1.0;stroke-dasharray:2.0,2.0;" x1="10" x2="561.5" y1="179.6641" y2="179.6641"/><text fill="#000000" font-family="sans-serif" font-size="11" font-weight="bold" lengthAdjust="spacing" textLength="66" x="15" y="191.083">[insucesso]</text><polygon fill="#181818" points="98.5,212.8516,88.5,216.8516,98.5,220.8516,94.5,216.8516" style="stroke:#181818;stroke-width:1.0;"/><line style="stroke:#181818;stroke-width:1.0;stroke-dasharray:2.0,2.0;" x1="92.5" x2="471.5" y1="216.8516" y2="216.8516"/><text fill="#000000" font-family="sans-serif" font-size="13" lengthAdjust="spacing" textLength="260" x="104.5" y="211.9951">retorna informação sobre a falha da operação</text><!--MD5=[4b5a3ae21b32d26d56dd6c623facf591]
@startuml Vista de Processos de Nivel 1
actor "Gestor de Campus" as actor
participant SistemaRobDroneGo as srdg <<Container>>
activate actor
actor -> srdg: Listar pisos de edifício com passagem para outros edifícios
activate srdg
alt sucesso
	srdg - -> actor: retorna a lista de edificios com passagem para outros edificios
else insucesso
	srdg - -> actor: retorna informação sobre a falha da operação
end alt
deactivate srdg
deactivate actor
@enduml

PlantUML version 1.2022.7(Mon Aug 22 18:01:30 WEST 2022)
(GPL source distribution)
Java Runtime: Java(TM) SE Runtime Environment
JVM: Java HotSpot(TM) 64-Bit Server VM
Default Encoding: Cp1252
Language: en
Country: US
--></g></svg>