<?xml version="1.0" encoding="UTF-8" standalone="no"?><svg xmlns="http://www.w3.org/2000/svg" xmlns:xlink="http://www.w3.org/1999/xlink" contentStyleType="text/css" height="319px" preserveAspectRatio="none" style="width:1016px;height:319px;background:#FFFFFF;" version="1.1" viewBox="0 0 1016 319" width="1016px" zoomAndPan="magnify"><defs/><g><ellipse cx="263" cy="32" fill="#222222" rx="10" ry="10" style="stroke:none;stroke-width:1.0;"/><g id="S0"><rect fill="#F1F1F1" height="50" rx="12.5" ry="12.5" style="stroke:#181818;stroke-width:0.5;" width="50" x="308" y="7"/><line style="stroke:#181818;stroke-width:0.5;" x1="308" x2="358" y1="34.6094" y2="34.6094"/><text fill="#000000" font-family="sans-serif" font-size="14" lengthAdjust="spacing" textLength="17" x="324.5" y="26.5332">S0</text></g><g id="S1"><rect fill="#F1F1F1" height="50" rx="12.5" ry="12.5" style="stroke:#181818;stroke-width:0.5;" width="50" x="78" y="135"/><line style="stroke:#181818;stroke-width:0.5;" x1="78" x2="128" y1="162.6094" y2="162.6094"/><text fill="#000000" font-family="sans-serif" font-size="14" lengthAdjust="spacing" textLength="17" x="94.5" y="154.5332">S1</text></g><g id="S2"><rect fill="#F1F1F1" height="50" rx="12.5" ry="12.5" style="stroke:#181818;stroke-width:0.5;" width="50" x="7" y="263"/><line style="stroke:#181818;stroke-width:0.5;" x1="7" x2="57" y1="290.6094" y2="290.6094"/><text fill="#000000" font-family="sans-serif" font-size="14" lengthAdjust="spacing" textLength="17" x="23.5" y="282.5332">S2</text></g><g id="S3"><rect fill="#F1F1F1" height="50" rx="12.5" ry="12.5" style="stroke:#181818;stroke-width:0.5;" width="50" x="115" y="263"/><line style="stroke:#181818;stroke-width:0.5;" x1="115" x2="165" y1="290.6094" y2="290.6094"/><text fill="#000000" font-family="sans-serif" font-size="14" lengthAdjust="spacing" textLength="17" x="131.5" y="282.5332">S3</text></g><g id="S4"><rect fill="#F1F1F1" height="50" rx="12.5" ry="12.5" style="stroke:#181818;stroke-width:0.5;" width="50" x="308" y="263"/><line style="stroke:#181818;stroke-width:0.5;" x1="308" x2="358" y1="290.6094" y2="290.6094"/><text fill="#000000" font-family="sans-serif" font-size="14" lengthAdjust="spacing" textLength="17" x="324.5" y="282.5332">S4</text></g><g id="S5"><rect fill="#F1F1F1" height="50" rx="12.5" ry="12.5" style="stroke:#181818;stroke-width:0.5;" width="50" x="430" y="263"/><line style="stroke:#181818;stroke-width:0.5;" x1="430" x2="480" y1="290.6094" y2="290.6094"/><text fill="#000000" font-family="sans-serif" font-size="14" lengthAdjust="spacing" textLength="17" x="446.5" y="282.5332">S5</text></g><g id="S6"><rect fill="#F1F1F1" height="50" rx="12.5" ry="12.5" style="stroke:#181818;stroke-width:0.5;" width="50" x="611" y="263"/><line style="stroke:#181818;stroke-width:0.5;" x1="611" x2="661" y1="290.6094" y2="290.6094"/><text fill="#000000" font-family="sans-serif" font-size="14" lengthAdjust="spacing" textLength="17" x="627.5" y="282.5332">S6</text></g><g id="S7"><rect fill="#F1F1F1" height="50" rx="12.5" ry="12.5" style="stroke:#181818;stroke-width:0.5;" width="50" x="719" y="263"/><line style="stroke:#181818;stroke-width:0.5;" x1="719" x2="769" y1="290.6094" y2="290.6094"/><text fill="#000000" font-family="sans-serif" font-size="14" lengthAdjust="spacing" textLength="17" x="735.5" y="282.5332">S7</text></g><g id="S8"><rect fill="#F1F1F1" height="50" rx="12.5" ry="12.5" style="stroke:#181818;stroke-width:0.5;" width="50" x="959" y="263"/><line style="stroke:#181818;stroke-width:0.5;" x1="959" x2="1009" y1="290.6094" y2="290.6094"/><text fill="#000000" font-family="sans-serif" font-size="14" lengthAdjust="spacing" textLength="17" x="975.5" y="282.5332">S8</text></g><!--MD5=[c847074da0bcbb1b43b6b9ca25358c35]
link *start to S0--><g id="link_*start_S0"><path d="M273.12,32 C282.94,32 292.77,32 302.6,32 " fill="none" id="*start-to-S0" style="stroke:#181818;stroke-width:1.0;"/><polygon fill="#181818" points="307.74,32,298.74,28,302.74,32,298.74,36,307.74,32" style="stroke:#181818;stroke-width:1.0;"/></g><!--MD5=[b25f8e8a4aea2acac9ced98c74b9fdde]
link S0 to S1--><g id="link_S0_S1"><path d="M307.71,48.84 C302.04,51.9 295.94,54.82 290,57 C224.94,80.85 191.67,44.43 137,87 C123.48,97.53 115.08,114.75 110.01,129.71 " fill="none" id="S0-to-S1" style="stroke:#181818;stroke-width:1.0;"/><polygon fill="#181818" points="108.42,134.68,114.9614,127.3173,109.9366,129.9156,107.3383,124.8907,108.42,134.68" style="stroke:#181818;stroke-width:1.0;"/><text fill="#000000" font-family="sans-serif" font-size="13" lengthAdjust="spacing" textLength="61" x="138" y="101.4951">um minuto</text></g><!--MD5=[15cb110786dd224ca6a510a3d2a24e20]
link S1 to S2--><g id="link_S1_S2"><path d="M89.31,185.29 C77.57,206.12 60.64,236.17 48.23,258.21 " fill="none" id="S1-to-S2" style="stroke:#181818;stroke-width:1.0;"/><polygon fill="#181818" points="45.65,262.78,53.5404,256.8858,48.0952,258.4187,46.5623,252.9735,45.65,262.78" style="stroke:#181818;stroke-width:1.0;"/><text fill="#000000" font-family="sans-serif" font-size="13" lengthAdjust="spacing" textLength="67" x="73" y="229.4951">alterações?</text></g><!--MD5=[eae8e2738addec0f56eaf72bd27db6a3]
link S2 to S0--><g id="link_S2_S0"><path d="M57.28,278.64 C82.08,269.71 120.25,253.95 149,233 C218.12,182.63 281.61,103.31 312.79,61.3 " fill="none" id="S2-to-S0" style="stroke:#181818;stroke-width:1.0;"/><polygon fill="#181818" points="315.89,57.11,307.3204,61.964,312.9152,61.1288,313.7505,66.7237,315.89,57.11" style="stroke:#181818;stroke-width:1.0;"/><text fill="#000000" font-family="sans-serif" font-size="13" lengthAdjust="spacing" textLength="21" x="252" y="165.4951">não</text></g><!--MD5=[8eac89d31ced3c9003fbd6a8a005c745]
link S2 to S3--><g id="link_S2_S3"><path d="M57.05,288 C72.75,288 93.08,288 109.69,288 " fill="none" id="S2-to-S3" style="stroke:#181818;stroke-width:1.0;"/><polygon fill="#181818" points="114.71,288,105.71,284,109.71,288,105.71,292,114.71,288" style="stroke:#181818;stroke-width:1.0;"/><text fill="#000000" font-family="sans-serif" font-size="13" lengthAdjust="spacing" textLength="21" x="75.5" y="281.4951">sim</text></g><!--MD5=[82e284a09e4ebade00512bdc77bff32c]
link S3 to S4--><g id="link_S3_S4"><path d="M165.23,288 C200.49,288 264.41,288 302.36,288 " fill="none" id="S3-to-S4" style="stroke:#181818;stroke-width:1.0;"/><polygon fill="#181818" points="307.76,288,298.76,284,302.76,288,298.76,292,307.76,288" style="stroke:#181818;stroke-width:1.0;"/><text fill="#000000" font-family="sans-serif" font-size="13" lengthAdjust="spacing" textLength="106" x="183.5" y="281.4951">testa atualizações</text></g><!--MD5=[07e1b33d84da7c38cad8435ec8472cc6]
link S4 to S0--><g id="link_S4_S0"><path d="M333,262.72 C333,215.84 333,113.03 333,62.38 " fill="none" id="S4-to-S0" style="stroke:#181818;stroke-width:1.0;"/><polygon fill="#181818" points="333,57.35,329,66.35,333,62.35,337,66.35,333,57.35" style="stroke:#181818;stroke-width:1.0;"/><text fill="#000000" font-family="sans-serif" font-size="13" lengthAdjust="spacing" textLength="60" x="334" y="165.4951">não passa</text></g><!--MD5=[0e6b031b378ab8978eaa734a548bdfb6]
link S4 to S5--><g id="link_S4_S5"><path d="M358.28,288 C377.58,288 404.25,288 424.7,288 " fill="none" id="S4-to-S5" style="stroke:#181818;stroke-width:1.0;"/><polygon fill="#181818" points="429.75,288,420.75,284,424.75,288,420.75,292,429.75,288" style="stroke:#181818;stroke-width:1.0;"/><text fill="#000000" font-family="sans-serif" font-size="13" lengthAdjust="spacing" textLength="35" x="376.5" y="281.4951">passa</text></g><!--MD5=[9a1decb07fdca87444298db88ae68821]
link S5 to S6--><g id="link_S5_S6"><path d="M480.17,288 C513.03,288 570.52,288 605.73,288 " fill="none" id="S5-to-S6" style="stroke:#181818;stroke-width:1.0;"/><polygon fill="#181818" points="610.76,288,601.76,284,605.76,288,601.76,292,610.76,288" style="stroke:#181818;stroke-width:1.0;"/><text fill="#000000" font-family="sans-serif" font-size="13" lengthAdjust="spacing" textLength="94" x="498.5" y="281.4951">compila código?</text></g><!--MD5=[0bf91d645e85507b5c9d0e33b6942522]
link S6 to S0--><g id="link_S6_S0"><path d="M610.92,265.97 C555.23,219.29 421.52,107.2 362.19,57.47 " fill="none" id="S6-to-S0" style="stroke:#181818;stroke-width:1.0;"/><polygon fill="#181818" points="358.05,54,362.3871,62.8425,361.8853,57.2079,367.5198,56.7061,358.05,54" style="stroke:#181818;stroke-width:1.0;"/><text fill="#000000" font-family="sans-serif" font-size="13" lengthAdjust="spacing" textLength="21" x="511" y="165.4951">não</text></g><!--MD5=[3bb910c0000e5e6c7808a34214882371]
link S6 to S7--><g id="link_S6_S7"><path d="M661.05,288 C676.75,288 697.08,288 713.69,288 " fill="none" id="S6-to-S7" style="stroke:#181818;stroke-width:1.0;"/><polygon fill="#181818" points="718.71,288,709.71,284,713.71,288,709.71,292,718.71,288" style="stroke:#181818;stroke-width:1.0;"/><text fill="#000000" font-family="sans-serif" font-size="13" lengthAdjust="spacing" textLength="21" x="679.5" y="281.4951">sim</text></g><!--MD5=[fbfbf6b1ae3440055b63d0703a928e77]
link S7 to S8--><g id="link_S7_S8"><path d="M769.23,288 C813.7,288 905.86,288 953.7,288 " fill="none" id="S7-to-S8" style="stroke:#181818;stroke-width:1.0;"/><polygon fill="#181818" points="958.75,288,949.75,284,953.75,288,949.75,292,958.75,288" style="stroke:#181818;stroke-width:1.0;"/><text fill="#000000" font-family="sans-serif" font-size="13" lengthAdjust="spacing" textLength="153" x="787.5" y="281.4951">deployment para produção</text></g><!--MD5=[1285e53e22cb0a50b2f3ebac1d267328]
link S8 to S0--><g id="link_S8_S0"><path d="M958.95,277.23 C856.98,237.44 473.23,87.71 362.86,44.65 " fill="none" id="S8-to-S0" style="stroke:#181818;stroke-width:1.0;"/><polygon fill="#181818" points="358.12,42.8,365.0355,49.8126,362.7741,44.6274,367.9593,42.366,358.12,42.8" style="stroke:#181818;stroke-width:1.0;"/></g><!--MD5=[cc79f9e3d64942f6562a76dbfbc125b5]
@startuml me

[*] -> S0
S0 - -> S1 : um minuto
S1 - -> S2 : alterações?
S2 - -> S0 : não
S2 -> S3 : sim
S3 -> S4 : testa atualizações
S4 - -> S0 : não passa
S4 -> S5 : passa
S5 -> S6 : compila código?
S6 - -> S0 : não
S6 -> S7 : sim
S7 -> S8 : deployment para produção
S8 - -> S0

@enduml

PlantUML version 1.2022.7(Mon Aug 22 18:01:30 WEST 2022)
(GPL source distribution)
Java Runtime: Java(TM) SE Runtime Environment
JVM: Java HotSpot(TM) 64-Bit Server VM
Default Encoding: Cp1252
Language: pt
Country: PT
--></g></svg>