<?xml version="1.0" encoding="UTF-8" standalone="no"?><svg xmlns="http://www.w3.org/2000/svg" xmlns:xlink="http://www.w3.org/1999/xlink" contentStyleType="text/css" height="279px" preserveAspectRatio="none" style="width:1055px;height:279px;background:#FFFFFF;" version="1.1" viewBox="0 0 1055 279" width="1055px" zoomAndPan="magnify"><defs/><g><rect fill="#FFFFFF" height="179.6641" style="stroke:#181818;stroke-width:1.0;" width="10" x="28" y="46.2969"/><rect fill="#FFFFFF" height="158.5313" style="stroke:#181818;stroke-width:1.0;" width="10" x="357" y="67.4297"/><rect fill="#FFFFFF" height="100.2656" style="stroke:#181818;stroke-width:1.0;" width="10" x="596" y="96.5625"/><rect fill="#FFFFFF" height="14" style="stroke:#181818;stroke-width:1.0;" width="10" x="835" y="125.6953"/><rect fill="#FFFFFF" height="14" style="stroke:#181818;stroke-width:1.0;" width="10" x="975.5" y="168.8281"/><line style="stroke:#181818;stroke-width:0.5;stroke-dasharray:5.0,5.0;" x1="33" x2="33" y1="36.2969" y2="243.9609"/><line style="stroke:#181818;stroke-width:0.5;stroke-dasharray:5.0,5.0;" x1="361.5" x2="361.5" y1="36.2969" y2="243.9609"/><line style="stroke:#181818;stroke-width:0.5;stroke-dasharray:5.0,5.0;" x1="601" x2="601" y1="36.2969" y2="243.9609"/><line style="stroke:#181818;stroke-width:0.5;stroke-dasharray:5.0,5.0;" x1="839.5" x2="839.5" y1="36.2969" y2="243.9609"/><line style="stroke:#181818;stroke-width:0.5;stroke-dasharray:5.0,5.0;" x1="980.5" x2="980.5" y1="36.2969" y2="243.9609"/><rect fill="#E2E2F0" height="30.2969" rx="2.5" ry="2.5" style="stroke:#181818;stroke-width:0.5;" width="56" x="5" y="5"/><text fill="#000000" font-family="sans-serif" font-size="14" lengthAdjust="spacing" textLength="42" x="12" y="24.9951">Route</text><rect fill="#E2E2F0" height="30.2969" rx="2.5" ry="2.5" style="stroke:#181818;stroke-width:0.5;" width="56" x="5" y="242.9609"/><text fill="#000000" font-family="sans-serif" font-size="14" lengthAdjust="spacing" textLength="42" x="12" y="262.9561">Route</text><rect fill="#E2E2F0" height="30.2969" rx="2.5" ry="2.5" style="stroke:#181818;stroke-width:0.5;" width="153" x="285.5" y="5"/><text fill="#000000" font-family="sans-serif" font-size="14" lengthAdjust="spacing" textLength="139" x="292.5" y="24.9951">AprovacaoController</text><rect fill="#E2E2F0" height="30.2969" rx="2.5" ry="2.5" style="stroke:#181818;stroke-width:0.5;" width="153" x="285.5" y="242.9609"/><text fill="#000000" font-family="sans-serif" font-size="14" lengthAdjust="spacing" textLength="139" x="292.5" y="262.9561">AprovacaoController</text><rect fill="#E2E2F0" height="30.2969" rx="2.5" ry="2.5" style="stroke:#181818;stroke-width:0.5;" width="136" x="533" y="5"/><text fill="#000000" font-family="sans-serif" font-size="14" lengthAdjust="spacing" textLength="122" x="540" y="24.9951">AprovacaoService</text><rect fill="#E2E2F0" height="30.2969" rx="2.5" ry="2.5" style="stroke:#181818;stroke-width:0.5;" width="136" x="533" y="242.9609"/><text fill="#000000" font-family="sans-serif" font-size="14" lengthAdjust="spacing" textLength="122" x="540" y="262.9561">AprovacaoService</text><rect fill="#E2E2F0" height="30.2969" rx="2.5" ry="2.5" style="stroke:#181818;stroke-width:0.5;" width="123" x="778.5" y="5"/><text fill="#000000" font-family="sans-serif" font-size="14" lengthAdjust="spacing" textLength="109" x="785.5" y="24.9951">AprovacaoRepo</text><rect fill="#E2E2F0" height="30.2969" rx="2.5" ry="2.5" style="stroke:#181818;stroke-width:0.5;" width="123" x="778.5" y="242.9609"/><text fill="#000000" font-family="sans-serif" font-size="14" lengthAdjust="spacing" textLength="109" x="785.5" y="262.9561">AprovacaoRepo</text><rect fill="#E2E2F0" height="30.2969" rx="2.5" ry="2.5" style="stroke:#181818;stroke-width:0.5;" width="138" x="911.5" y="5"/><text fill="#000000" font-family="sans-serif" font-size="14" lengthAdjust="spacing" textLength="124" x="918.5" y="24.9951">AprovacaoMapper</text><rect fill="#E2E2F0" height="30.2969" rx="2.5" ry="2.5" style="stroke:#181818;stroke-width:0.5;" width="138" x="911.5" y="242.9609"/><text fill="#000000" font-family="sans-serif" font-size="14" lengthAdjust="spacing" textLength="124" x="918.5" y="262.9561">AprovacaoMapper</text><rect fill="#FFFFFF" height="179.6641" style="stroke:#181818;stroke-width:1.0;" width="10" x="28" y="46.2969"/><rect fill="#FFFFFF" height="158.5313" style="stroke:#181818;stroke-width:1.0;" width="10" x="357" y="67.4297"/><rect fill="#FFFFFF" height="100.2656" style="stroke:#181818;stroke-width:1.0;" width="10" x="596" y="96.5625"/><rect fill="#FFFFFF" height="14" style="stroke:#181818;stroke-width:1.0;" width="10" x="835" y="125.6953"/><rect fill="#FFFFFF" height="14" style="stroke:#181818;stroke-width:1.0;" width="10" x="975.5" y="168.8281"/><polygon fill="#181818" points="345,63.4297,355,67.4297,345,71.4297,349,67.4297" style="stroke:#181818;stroke-width:1.0;"/><line style="stroke:#181818;stroke-width:1.0;" x1="38" x2="351" y1="67.4297" y2="67.4297"/><text fill="#000000" font-family="sans-serif" font-size="13" lengthAdjust="spacing" textLength="204" x="45" y="62.3638">/listarRequisicoesNaoAprovadas</text><polygon fill="#181818" points="584,92.5625,594,96.5625,584,100.5625,588,96.5625" style="stroke:#181818;stroke-width:1.0;"/><line style="stroke:#181818;stroke-width:1.0;" x1="367" x2="590" y1="96.5625" y2="96.5625"/><text fill="#000000" font-family="sans-serif" font-size="13" lengthAdjust="spacing" textLength="210" x="374" y="91.4966">listarRequisicoesNaoAprovadas()</text><polygon fill="#181818" points="823,121.6953,833,125.6953,823,129.6953,827,125.6953" style="stroke:#181818;stroke-width:1.0;"/><line style="stroke:#181818;stroke-width:1.0;" x1="606" x2="829" y1="125.6953" y2="125.6953"/><text fill="#000000" font-family="sans-serif" font-size="13" lengthAdjust="spacing" textLength="210" x="613" y="120.6294">listarRequisicoesNaoAprovadas()</text><polygon fill="#181818" points="617,135.6953,607,139.6953,617,143.6953,613,139.6953" style="stroke:#181818;stroke-width:1.0;"/><line style="stroke:#181818;stroke-width:1.0;stroke-dasharray:2.0,2.0;" x1="611" x2="839" y1="139.6953" y2="139.6953"/><polygon fill="#181818" points="963.5,164.8281,973.5,168.8281,963.5,172.8281,967.5,168.8281" style="stroke:#181818;stroke-width:1.0;"/><line style="stroke:#181818;stroke-width:1.0;" x1="606" x2="969.5" y1="168.8281" y2="168.8281"/><text fill="#000000" font-family="sans-serif" font-size="13" lengthAdjust="spacing" textLength="95" x="613" y="163.7622">toDTO(tarefas)</text><polygon fill="#181818" points="617,178.8281,607,182.8281,617,186.8281,613,182.8281" style="stroke:#181818;stroke-width:1.0;"/><line style="stroke:#181818;stroke-width:1.0;stroke-dasharray:2.0,2.0;" x1="611" x2="979.5" y1="182.8281" y2="182.8281"/><polygon fill="#181818" points="378,192.8281,368,196.8281,378,200.8281,374,196.8281" style="stroke:#181818;stroke-width:1.0;"/><line style="stroke:#181818;stroke-width:1.0;stroke-dasharray:2.0,2.0;" x1="372" x2="600" y1="196.8281" y2="196.8281"/><polygon fill="#181818" points="44,221.9609,34,225.9609,44,229.9609,40,225.9609" style="stroke:#181818;stroke-width:1.0;"/><line style="stroke:#181818;stroke-width:1.0;stroke-dasharray:2.0,2.0;" x1="38" x2="361" y1="225.9609" y2="225.9609"/><text fill="#000000" font-family="sans-serif" font-size="13" lengthAdjust="spacing" textLength="295" x="50" y="220.895">Envia um estado 201 (OK) / 404 (NOT FOUND)</text><!--MD5=[7b43d6e73c0b1a4ec5e2964b8dd64256]
@startuml vp3

participant Route as route
participant AprovacaoController as ctrl
participant AprovacaoService as svc
participant AprovacaoRepo as repo
participant AprovacaoMapper as mapper

activate route
route -> ctrl : /listarRequisicoesNaoAprovadas
activate ctrl
ctrl -> svc : listarRequisicoesNaoAprovadas()
activate svc
svc -> repo : listarRequisicoesNaoAprovadas()
activate repo
repo - -> svc
deactivate repo
svc -> mapper : toDTO(tarefas)
activate mapper
mapper - -> svc
deactivate mapper
svc - -> ctrl
deactivate svc
ctrl - -> route : Envia um estado 201 (OK) / 404 (NOT FOUND)
deactivate ctrl
deactivate route



@enduml

PlantUML version 1.2022.7(Mon Aug 22 18:01:30 WEST 2022)
(GPL source distribution)
Java Runtime: OpenJDK Runtime Environment
JVM: OpenJDK 64-Bit Server VM
Default Encoding: UTF-8
Language: en
Country: US
--></g></svg>