<?xml version="1.0" encoding="UTF-8" standalone="no"?><svg xmlns="http://www.w3.org/2000/svg" xmlns:xlink="http://www.w3.org/1999/xlink" contentStyleType="text/css" height="332px" preserveAspectRatio="none" style="width:638px;height:332px;background:#FFFFFF;" version="1.1" viewBox="0 0 638 332" width="638px" zoomAndPan="magnify"><defs/><g><rect fill="#FFFFFF" height="230.1094" style="stroke:#181818;stroke-width:1.0;" width="10" x="26" y="47.6094"/><rect fill="#FFFFFF" height="207.7578" style="stroke:#181818;stroke-width:1.0;" width="10" x="244" y="69.9609"/><rect fill="#FFFFFF" height="147.0547" style="stroke:#181818;stroke-width:1.0;" width="10" x="364" y="100.3125"/><rect fill="#FFFFFF" height="14" style="stroke:#181818;stroke-width:1.0;" width="10" x="476" y="219.3672"/><rect fill="#FFFFFF" height="14" style="stroke:#181818;stroke-width:1.0;" width="10" x="541" y="175.0156"/><rect fill="#FFFFFF" height="14" style="stroke:#181818;stroke-width:1.0;" width="10" x="601" y="130.6641"/><line style="stroke:#181818;stroke-width:0.5;stroke-dasharray:5.0,5.0;" x1="31" x2="31" y1="37.6094" y2="295.7188"/><line style="stroke:#181818;stroke-width:0.5;stroke-dasharray:5.0,5.0;" x1="249" x2="249" y1="37.6094" y2="295.7188"/><line style="stroke:#181818;stroke-width:0.5;stroke-dasharray:5.0,5.0;" x1="368.5" x2="368.5" y1="37.6094" y2="295.7188"/><line style="stroke:#181818;stroke-width:0.5;stroke-dasharray:5.0,5.0;" x1="481" x2="481" y1="37.6094" y2="295.7188"/><line style="stroke:#181818;stroke-width:0.5;stroke-dasharray:5.0,5.0;" x1="546" x2="546" y1="37.6094" y2="295.7188"/><line style="stroke:#181818;stroke-width:0.5;stroke-dasharray:5.0,5.0;" x1="606" x2="606" y1="37.6094" y2="295.7188"/><rect fill="#E2E2F0" height="31.6094" rx="2.5" ry="2.5" style="stroke:#181818;stroke-width:0.5;" width="52" x="5" y="5"/><text fill="#000000" font-family="sans-serif" font-size="14" lengthAdjust="spacing" textLength="38" x="12" y="26.5332">Route</text><rect fill="#E2E2F0" height="31.6094" rx="2.5" ry="2.5" style="stroke:#181818;stroke-width:0.5;" width="52" x="5" y="294.7188"/><text fill="#000000" font-family="sans-serif" font-size="14" lengthAdjust="spacing" textLength="38" x="12" y="316.252">Route</text><rect fill="#E2E2F0" height="31.6094" rx="2.5" ry="2.5" style="stroke:#181818;stroke-width:0.5;" width="76" x="211" y="5"/><text fill="#000000" font-family="sans-serif" font-size="14" lengthAdjust="spacing" textLength="62" x="218" y="26.5332">Controller</text><rect fill="#E2E2F0" height="31.6094" rx="2.5" ry="2.5" style="stroke:#181818;stroke-width:0.5;" width="76" x="211" y="294.7188"/><text fill="#000000" font-family="sans-serif" font-size="14" lengthAdjust="spacing" textLength="62" x="218" y="316.252">Controller</text><rect fill="#E2E2F0" height="31.6094" rx="2.5" ry="2.5" style="stroke:#181818;stroke-width:0.5;" width="61" x="338.5" y="5"/><text fill="#000000" font-family="sans-serif" font-size="14" lengthAdjust="spacing" textLength="47" x="345.5" y="26.5332">Service</text><rect fill="#E2E2F0" height="31.6094" rx="2.5" ry="2.5" style="stroke:#181818;stroke-width:0.5;" width="61" x="338.5" y="294.7188"/><text fill="#000000" font-family="sans-serif" font-size="14" lengthAdjust="spacing" textLength="47" x="345.5" y="316.252">Service</text><rect fill="#E2E2F0" height="31.6094" rx="2.5" ry="2.5" style="stroke:#181818;stroke-width:0.5;" width="62" x="450" y="5"/><text fill="#000000" font-family="sans-serif" font-size="14" lengthAdjust="spacing" textLength="48" x="457" y="26.5332">Mapper</text><rect fill="#E2E2F0" height="31.6094" rx="2.5" ry="2.5" style="stroke:#181818;stroke-width:0.5;" width="62" x="450" y="294.7188"/><text fill="#000000" font-family="sans-serif" font-size="14" lengthAdjust="spacing" textLength="48" x="457" y="316.252">Mapper</text><rect fill="#E2E2F0" height="31.6094" rx="2.5" ry="2.5" style="stroke:#181818;stroke-width:0.5;" width="48" x="522" y="5"/><text fill="#000000" font-family="sans-serif" font-size="14" lengthAdjust="spacing" textLength="34" x="529" y="26.5332">Repo</text><rect fill="#E2E2F0" height="31.6094" rx="2.5" ry="2.5" style="stroke:#181818;stroke-width:0.5;" width="48" x="522" y="294.7188"/><text fill="#000000" font-family="sans-serif" font-size="14" lengthAdjust="spacing" textLength="34" x="529" y="316.252">Repo</text><rect fill="#E2E2F0" height="31.6094" rx="2.5" ry="2.5" style="stroke:#181818;stroke-width:0.5;" width="52" x="580" y="5"/><text fill="#000000" font-family="sans-serif" font-size="14" lengthAdjust="spacing" textLength="38" x="587" y="26.5332">Model</text><rect fill="#E2E2F0" height="31.6094" rx="2.5" ry="2.5" style="stroke:#181818;stroke-width:0.5;" width="52" x="580" y="294.7188"/><text fill="#000000" font-family="sans-serif" font-size="14" lengthAdjust="spacing" textLength="38" x="587" y="316.252">Model</text><rect fill="#FFFFFF" height="230.1094" style="stroke:#181818;stroke-width:1.0;" width="10" x="26" y="47.6094"/><rect fill="#FFFFFF" height="207.7578" style="stroke:#181818;stroke-width:1.0;" width="10" x="244" y="69.9609"/><rect fill="#FFFFFF" height="147.0547" style="stroke:#181818;stroke-width:1.0;" width="10" x="364" y="100.3125"/><rect fill="#FFFFFF" height="14" style="stroke:#181818;stroke-width:1.0;" width="10" x="476" y="219.3672"/><rect fill="#FFFFFF" height="14" style="stroke:#181818;stroke-width:1.0;" width="10" x="541" y="175.0156"/><rect fill="#FFFFFF" height="14" style="stroke:#181818;stroke-width:1.0;" width="10" x="601" y="130.6641"/><polygon fill="#181818" points="232,65.9609,242,69.9609,232,73.9609,236,69.9609" style="stroke:#181818;stroke-width:1.0;"/><line style="stroke:#181818;stroke-width:1.0;" x1="36" x2="238" y1="69.9609" y2="69.9609"/><text fill="#000000" font-family="sans-serif" font-size="13" lengthAdjust="spacing" textLength="87" x="43" y="65.1045">/recusarPedido</text><polygon fill="#181818" points="352,96.3125,362,100.3125,352,104.3125,356,100.3125" style="stroke:#181818;stroke-width:1.0;"/><line style="stroke:#181818;stroke-width:1.0;" x1="254" x2="358" y1="100.3125" y2="100.3125"/><text fill="#000000" font-family="sans-serif" font-size="13" lengthAdjust="spacing" textLength="91" x="261" y="95.4561">recusarPedido()</text><polygon fill="#181818" points="589,126.6641,599,130.6641,589,134.6641,593,130.6641" style="stroke:#181818;stroke-width:1.0;"/><line style="stroke:#181818;stroke-width:1.0;" x1="374" x2="595" y1="130.6641" y2="130.6641"/><text fill="#000000" font-family="sans-serif" font-size="13" lengthAdjust="spacing" textLength="135" x="381" y="125.8076">Pedido.recusarPedido()</text><polygon fill="#181818" points="385,140.6641,375,144.6641,385,148.6641,381,144.6641" style="stroke:#181818;stroke-width:1.0;"/><line style="stroke:#181818;stroke-width:1.0;stroke-dasharray:2.0,2.0;" x1="379" x2="605" y1="144.6641" y2="144.6641"/><polygon fill="#181818" points="529,171.0156,539,175.0156,529,179.0156,533,175.0156" style="stroke:#181818;stroke-width:1.0;"/><line style="stroke:#181818;stroke-width:1.0;" x1="374" x2="535" y1="175.0156" y2="175.0156"/><text fill="#000000" font-family="sans-serif" font-size="13" lengthAdjust="spacing" textLength="72" x="381" y="170.1592">save(pedido)</text><polygon fill="#181818" points="385,185.0156,375,189.0156,385,193.0156,381,189.0156" style="stroke:#181818;stroke-width:1.0;"/><line style="stroke:#181818;stroke-width:1.0;stroke-dasharray:2.0,2.0;" x1="379" x2="545" y1="189.0156" y2="189.0156"/><polygon fill="#181818" points="464,215.3672,474,219.3672,464,223.3672,468,219.3672" style="stroke:#181818;stroke-width:1.0;"/><line style="stroke:#181818;stroke-width:1.0;" x1="374" x2="470" y1="219.3672" y2="219.3672"/><text fill="#000000" font-family="sans-serif" font-size="13" lengthAdjust="spacing" textLength="83" x="381" y="214.5107">toDTO(pedido)</text><polygon fill="#181818" points="385,229.3672,375,233.3672,385,237.3672,381,233.3672" style="stroke:#181818;stroke-width:1.0;"/><line style="stroke:#181818;stroke-width:1.0;stroke-dasharray:2.0,2.0;" x1="379" x2="480" y1="233.3672" y2="233.3672"/><polygon fill="#181818" points="265,243.3672,255,247.3672,265,251.3672,261,247.3672" style="stroke:#181818;stroke-width:1.0;"/><line style="stroke:#181818;stroke-width:1.0;stroke-dasharray:2.0,2.0;" x1="259" x2="368" y1="247.3672" y2="247.3672"/><polygon fill="#181818" points="42,273.7188,32,277.7188,42,281.7188,38,277.7188" style="stroke:#181818;stroke-width:1.0;"/><line style="stroke:#181818;stroke-width:1.0;stroke-dasharray:2.0,2.0;" x1="36" x2="248" y1="277.7188" y2="277.7188"/><text fill="#000000" font-family="sans-serif" font-size="13" lengthAdjust="spacing" textLength="184" x="48" y="272.8623">Envia um código 200 (OK) / 404</text><!--MD5=[4b945bee015188f8ca7a84e6c53096d9]
@startuml vp3_recusarPedido

participant Route as route
participant Controller as ctrl
participant Service as svc
participant Mapper as mapper
participant Repo as repoTar
participant Model as model


'participant "A&A" as auth
'route -> auth : autentica("GestorUtilizadores")
'activate auth
'auth - -> route
'deactivate auth

activate route
route -> ctrl : /recusarPedido
activate ctrl
ctrl -> svc : recusarPedido()
activate svc
svc -> model : Pedido.recusarPedido()
activate model
model - -> svc 
deactivate model

svc -> repoTar : save(pedido)
activate repoTar
repoTar - -> svc 
deactivate repoTar
svc -> mapper : toDTO(pedido)
activate mapper
mapper - -> svc
deactivate mapper
svc - -> ctrl
deactivate svc
ctrl - -> route : Envia um código 200 (OK) / 404
deactivate ctrl
deactivate route



@enduml

@startuml vp3_recusarPedido

participant Route as route
participant Controller as ctrl
participant Service as svc
participant Mapper as mapper
participant Repo as repoTar
participant Model as model



activate route
route -> ctrl : /recusarPedido
activate ctrl
ctrl -> svc : recusarPedido()
activate svc
svc -> model : Pedido.recusarPedido()
activate model
model - -> svc 
deactivate model

svc -> repoTar : save(pedido)
activate repoTar
repoTar - -> svc 
deactivate repoTar
svc -> mapper : toDTO(pedido)
activate mapper
mapper - -> svc
deactivate mapper
svc - -> ctrl
deactivate svc
ctrl - -> route : Envia um código 200 (OK) / 404
deactivate ctrl
deactivate route



@enduml

PlantUML version 1.2022.7(Mon Aug 22 18:01:30 BST 2022)
(GPL source distribution)
Java Runtime: OpenJDK Runtime Environment
JVM: OpenJDK 64-Bit Server VM
Default Encoding: Cp1252
Language: pt
Country: PT
--></g></svg>