<?xml version="1.0" encoding="UTF-8" standalone="no"?><svg xmlns="http://www.w3.org/2000/svg" xmlns:xlink="http://www.w3.org/1999/xlink" contentStyleType="text/css" height="1188px" preserveAspectRatio="none" style="width:1306px;height:1188px;background:#FFFFFF;" version="1.1" viewBox="0 0 1306 1188" width="1306px" zoomAndPan="magnify"><defs/><g><rect fill="#FFFFFF" height="1037.7578" style="stroke:#181818;stroke-width:1.0;" width="10" x="49" y="87.5703"/><rect fill="#FFFFFF" height="1037.7578" style="stroke:#181818;stroke-width:1.0;" width="10" x="286" y="87.5703"/><rect fill="#FFFFFF" height="1021.7578" style="stroke:#181818;stroke-width:1.0;" width="10" x="286" y="87.5703"/><rect fill="#FFFFFF" height="845.1641" style="stroke:#181818;stroke-width:1.0;" width="10" x="440" y="162.2734"/><rect fill="#FFFFFF" height="153.0547" style="stroke:#181818;stroke-width:1.0;" width="10" x="591" y="281.3281"/><rect fill="#FFFFFF" height="255.5938" style="stroke:#181818;stroke-width:1.0;" width="10" x="591" y="693.4922"/><rect fill="#FFFFFF" height="147.0547" style="stroke:#181818;stroke-width:1.0;" width="10" x="699" y="471.7344"/><rect fill="#FFFFFF" height="14" style="stroke:#181818;stroke-width:1.0;" width="10" x="797.5" y="400.3828"/><rect fill="#FFFFFF" height="14" style="stroke:#181818;stroke-width:1.0;" width="10" x="797.5" y="809.5469"/><rect fill="#FFFFFF" height="14" style="stroke:#181818;stroke-width:1.0;" width="10" x="797.5" y="898.25"/><rect fill="#FFFFFF" height="14" style="stroke:#181818;stroke-width:1.0;" width="10" x="797.5" y="979.4375"/><rect fill="#FFFFFF" height="14" style="stroke:#181818;stroke-width:1.0;" width="10" x="886.5" y="590.7891"/><rect fill="#FFFFFF" height="14" style="stroke:#181818;stroke-width:1.0;" width="10" x="976.5" y="356.0313"/><rect fill="#FFFFFF" height="30" style="stroke:#181818;stroke-width:1.0;" width="10" x="976.5" y="723.8438"/><rect fill="#FFFFFF" height="14" style="stroke:#181818;stroke-width:1.0;" width="10" x="976.5" y="853.8984"/><rect fill="#FFFFFF" height="14" style="stroke:#181818;stroke-width:1.0;" width="10" x="1067.5" y="546.4375"/><rect fill="#FFFFFF" height="14" style="stroke:#181818;stroke-width:1.0;" width="10" x="1175.5" y="117.9219"/><rect fill="#FFFFFF" height="14" style="stroke:#181818;stroke-width:1.0;" width="10" x="1175.5" y="192.625"/><rect fill="#FFFFFF" height="14" style="stroke:#181818;stroke-width:1.0;" width="10" x="1175.5" y="236.9766"/><rect fill="#FFFFFF" height="14" style="stroke:#181818;stroke-width:1.0;" width="10" x="1175.5" y="311.6797"/><rect fill="#FFFFFF" height="14" style="stroke:#181818;stroke-width:1.0;" width="10" x="1175.5" y="502.0859"/><rect fill="#FFFFFF" height="14" style="stroke:#181818;stroke-width:1.0;" width="10" x="1269" y="649.1406"/><rect fill="none" height="167.2422" style="stroke:#000000;stroke-width:1.5;" width="495" x="537" y="768.8438"/><rect fill="none" height="94.8906" style="stroke:#000000;stroke-width:1.5;" width="332" x="10" y="1022.4375"/><line style="stroke:#181818;stroke-width:0.5;stroke-dasharray:5.0,5.0;" x1="54" x2="54" y1="55.2188" y2="1134.3281"/><line style="stroke:#181818;stroke-width:0.5;stroke-dasharray:5.0,5.0;" x1="286" x2="286" y1="55.2188" y2="1134.3281"/><line style="stroke:#181818;stroke-width:0.5;stroke-dasharray:5.0,5.0;" x1="445" x2="445" y1="55.2188" y2="1134.3281"/><line style="stroke:#181818;stroke-width:0.5;stroke-dasharray:5.0,5.0;" x1="596" x2="596" y1="55.2188" y2="1134.3281"/><line style="stroke:#181818;stroke-width:0.5;stroke-dasharray:5.0,5.0;" x1="704" x2="704" y1="55.2188" y2="1134.3281"/><line style="stroke:#181818;stroke-width:0.5;stroke-dasharray:5.0,5.0;" x1="802" x2="802" y1="55.2188" y2="1134.3281"/><line style="stroke:#181818;stroke-width:0.5;stroke-dasharray:5.0,5.0;" x1="891" x2="891" y1="55.2188" y2="1134.3281"/><line style="stroke:#181818;stroke-width:0.5;stroke-dasharray:5.0,5.0;" x1="981" x2="981" y1="55.2188" y2="1134.3281"/><line style="stroke:#181818;stroke-width:0.5;stroke-dasharray:5.0,5.0;" x1="1072" x2="1072" y1="55.2188" y2="1134.3281"/><line style="stroke:#181818;stroke-width:0.5;stroke-dasharray:5.0,5.0;" x1="1180" x2="1180" y1="55.2188" y2="1134.3281"/><line style="stroke:#181818;stroke-width:0.5;stroke-dasharray:5.0,5.0;" x1="1274" x2="1274" y1="55.2188" y2="1134.3281"/><rect fill="#E2E2F0" height="49.2188" rx="2.5" ry="2.5" style="stroke:#181818;stroke-width:0.5;" width="68" x="20" y="5"/><text fill="#000000" font-family="sans-serif" font-size="14" font-style="italic" lengthAdjust="spacing" textLength="54" x="27" y="26.5332">«Route»</text><text fill="#000000" font-family="sans-serif" font-size="14" lengthAdjust="spacing" textLength="34" x="37" y="44.1426">Robo</text><rect fill="#E2E2F0" height="49.2188" rx="2.5" ry="2.5" style="stroke:#181818;stroke-width:0.5;" width="68" x="20" y="1133.3281"/><text fill="#000000" font-family="sans-serif" font-size="14" font-style="italic" lengthAdjust="spacing" textLength="54" x="27" y="1154.8613">«Route»</text><text fill="#000000" font-family="sans-serif" font-size="14" lengthAdjust="spacing" textLength="34" x="37" y="1172.4707">Robo</text><rect fill="#E2E2F0" height="49.2188" rx="2.5" ry="2.5" style="stroke:#181818;stroke-width:0.5;" width="92" x="240" y="5"/><text fill="#000000" font-family="sans-serif" font-size="14" font-style="italic" lengthAdjust="spacing" textLength="78" x="247" y="26.5332">«Controller»</text><text fill="#000000" font-family="sans-serif" font-size="14" lengthAdjust="spacing" textLength="34" x="269" y="44.1426">Robo</text><rect fill="#E2E2F0" height="49.2188" rx="2.5" ry="2.5" style="stroke:#181818;stroke-width:0.5;" width="92" x="240" y="1133.3281"/><text fill="#000000" font-family="sans-serif" font-size="14" font-style="italic" lengthAdjust="spacing" textLength="78" x="247" y="1154.8613">«Controller»</text><text fill="#000000" font-family="sans-serif" font-size="14" lengthAdjust="spacing" textLength="34" x="269" y="1172.4707">Robo</text><rect fill="#E2E2F0" height="49.2188" rx="2.5" ry="2.5" style="stroke:#181818;stroke-width:0.5;" width="76" x="407" y="5"/><text fill="#000000" font-family="sans-serif" font-size="14" font-style="italic" lengthAdjust="spacing" textLength="62" x="414" y="26.5332">«Service»</text><text fill="#000000" font-family="sans-serif" font-size="14" lengthAdjust="spacing" textLength="34" x="428" y="44.1426">Robo</text><rect fill="#E2E2F0" height="49.2188" rx="2.5" ry="2.5" style="stroke:#181818;stroke-width:0.5;" width="76" x="407" y="1133.3281"/><text fill="#000000" font-family="sans-serif" font-size="14" font-style="italic" lengthAdjust="spacing" textLength="62" x="414" y="1154.8613">«Service»</text><text fill="#000000" font-family="sans-serif" font-size="14" lengthAdjust="spacing" textLength="34" x="428" y="1172.4707">Robo</text><rect fill="#E2E2F0" height="49.2188" rx="2.5" ry="2.5" style="stroke:#181818;stroke-width:0.5;" width="98" x="547" y="5"/><text fill="#000000" font-family="sans-serif" font-size="14" font-style="italic" lengthAdjust="spacing" textLength="84" x="554" y="26.5332">«Repository»</text><text fill="#000000" font-family="sans-serif" font-size="14" lengthAdjust="spacing" textLength="34" x="579" y="44.1426">Robo</text><rect fill="#E2E2F0" height="49.2188" rx="2.5" ry="2.5" style="stroke:#181818;stroke-width:0.5;" width="98" x="547" y="1133.3281"/><text fill="#000000" font-family="sans-serif" font-size="14" font-style="italic" lengthAdjust="spacing" textLength="84" x="554" y="1154.8613">«Repository»</text><text fill="#000000" font-family="sans-serif" font-size="14" lengthAdjust="spacing" textLength="34" x="579" y="1172.4707">Robo</text><rect fill="#E2E2F0" height="49.2188" rx="2.5" ry="2.5" style="stroke:#181818;stroke-width:0.5;" width="98" x="655" y="5"/><text fill="#000000" font-family="sans-serif" font-size="14" font-style="italic" lengthAdjust="spacing" textLength="84" x="662" y="26.5332">«Repository»</text><text fill="#000000" font-family="sans-serif" font-size="14" lengthAdjust="spacing" textLength="62" x="673" y="44.1426">TipoRobo</text><rect fill="#E2E2F0" height="49.2188" rx="2.5" ry="2.5" style="stroke:#181818;stroke-width:0.5;" width="98" x="655" y="1133.3281"/><text fill="#000000" font-family="sans-serif" font-size="14" font-style="italic" lengthAdjust="spacing" textLength="84" x="662" y="1154.8613">«Repository»</text><text fill="#000000" font-family="sans-serif" font-size="14" lengthAdjust="spacing" textLength="62" x="673" y="1172.4707">TipoRobo</text><rect fill="#E2E2F0" height="49.2188" rx="2.5" ry="2.5" style="stroke:#181818;stroke-width:0.5;" width="79" x="763" y="5"/><text fill="#000000" font-family="sans-serif" font-size="14" font-style="italic" lengthAdjust="spacing" textLength="65" x="770" y="26.5332">«Mapper»</text><text fill="#000000" font-family="sans-serif" font-size="14" lengthAdjust="spacing" textLength="34" x="785.5" y="44.1426">Robo</text><rect fill="#E2E2F0" height="49.2188" rx="2.5" ry="2.5" style="stroke:#181818;stroke-width:0.5;" width="79" x="763" y="1133.3281"/><text fill="#000000" font-family="sans-serif" font-size="14" font-style="italic" lengthAdjust="spacing" textLength="65" x="770" y="1154.8613">«Mapper»</text><text fill="#000000" font-family="sans-serif" font-size="14" lengthAdjust="spacing" textLength="34" x="785.5" y="1172.4707">Robo</text><rect fill="#E2E2F0" height="49.2188" rx="2.5" ry="2.5" style="stroke:#181818;stroke-width:0.5;" width="79" x="852" y="5"/><text fill="#000000" font-family="sans-serif" font-size="14" font-style="italic" lengthAdjust="spacing" textLength="65" x="859" y="26.5332">«Mapper»</text><text fill="#000000" font-family="sans-serif" font-size="14" lengthAdjust="spacing" textLength="62" x="860.5" y="44.1426">TipoRobo</text><rect fill="#E2E2F0" height="49.2188" rx="2.5" ry="2.5" style="stroke:#181818;stroke-width:0.5;" width="79" x="852" y="1133.3281"/><text fill="#000000" font-family="sans-serif" font-size="14" font-style="italic" lengthAdjust="spacing" textLength="65" x="859" y="1154.8613">«Mapper»</text><text fill="#000000" font-family="sans-serif" font-size="14" lengthAdjust="spacing" textLength="62" x="860.5" y="1172.4707">TipoRobo</text><rect fill="#E2E2F0" height="49.2188" rx="2.5" ry="2.5" style="stroke:#181818;stroke-width:0.5;" width="81" x="941" y="5"/><text fill="#000000" font-family="sans-serif" font-size="14" font-style="italic" lengthAdjust="spacing" textLength="67" x="948" y="26.5332">«Schema»</text><text fill="#000000" font-family="sans-serif" font-size="14" lengthAdjust="spacing" textLength="34" x="964.5" y="44.1426">Robo</text><rect fill="#E2E2F0" height="49.2188" rx="2.5" ry="2.5" style="stroke:#181818;stroke-width:0.5;" width="81" x="941" y="1133.3281"/><text fill="#000000" font-family="sans-serif" font-size="14" font-style="italic" lengthAdjust="spacing" textLength="67" x="948" y="1154.8613">«Schema»</text><text fill="#000000" font-family="sans-serif" font-size="14" lengthAdjust="spacing" textLength="34" x="964.5" y="1172.4707">Robo</text><rect fill="#E2E2F0" height="49.2188" rx="2.5" ry="2.5" style="stroke:#181818;stroke-width:0.5;" width="81" x="1032" y="5"/><text fill="#000000" font-family="sans-serif" font-size="14" font-style="italic" lengthAdjust="spacing" textLength="67" x="1039" y="26.5332">«Schema»</text><text fill="#000000" font-family="sans-serif" font-size="14" lengthAdjust="spacing" textLength="62" x="1041.5" y="44.1426">TipoRobo</text><rect fill="#E2E2F0" height="49.2188" rx="2.5" ry="2.5" style="stroke:#181818;stroke-width:0.5;" width="81" x="1032" y="1133.3281"/><text fill="#000000" font-family="sans-serif" font-size="14" font-style="italic" lengthAdjust="spacing" textLength="67" x="1039" y="1154.8613">«Schema»</text><text fill="#000000" font-family="sans-serif" font-size="14" lengthAdjust="spacing" textLength="62" x="1041.5" y="1172.4707">TipoRobo</text><rect fill="#E2E2F0" height="49.2188" rx="2.5" ry="2.5" style="stroke:#181818;stroke-width:0.5;" width="115" x="1123" y="5"/><text fill="#000000" font-family="sans-serif" font-size="14" font-style="italic" lengthAdjust="spacing" textLength="101" x="1130" y="26.5332">«Configuration»</text><text fill="#000000" font-family="sans-serif" font-size="14" lengthAdjust="spacing" textLength="23" x="1169" y="44.1426">File</text><rect fill="#E2E2F0" height="49.2188" rx="2.5" ry="2.5" style="stroke:#181818;stroke-width:0.5;" width="115" x="1123" y="1133.3281"/><text fill="#000000" font-family="sans-serif" font-size="14" font-style="italic" lengthAdjust="spacing" textLength="101" x="1130" y="1154.8613">«Configuration»</text><text fill="#000000" font-family="sans-serif" font-size="14" lengthAdjust="spacing" textLength="23" x="1169" y="1172.4707">File</text><rect fill="#E2E2F0" height="31.6094" rx="2.5" ry="2.5" style="stroke:#181818;stroke-width:0.5;" width="52" x="1248" y="22.6094"/><text fill="#000000" font-family="sans-serif" font-size="14" lengthAdjust="spacing" textLength="38" x="1255" y="44.1426">model</text><rect fill="#E2E2F0" height="31.6094" rx="2.5" ry="2.5" style="stroke:#181818;stroke-width:0.5;" width="52" x="1248" y="1133.3281"/><text fill="#000000" font-family="sans-serif" font-size="14" lengthAdjust="spacing" textLength="38" x="1255" y="1154.8613">model</text><rect fill="#FFFFFF" height="1037.7578" style="stroke:#181818;stroke-width:1.0;" width="10" x="49" y="87.5703"/><rect fill="#FFFFFF" height="1037.7578" style="stroke:#181818;stroke-width:1.0;" width="10" x="286" y="87.5703"/><rect fill="#FFFFFF" height="1021.7578" style="stroke:#181818;stroke-width:1.0;" width="10" x="286" y="87.5703"/><rect fill="#FFFFFF" height="845.1641" style="stroke:#181818;stroke-width:1.0;" width="10" x="440" y="162.2734"/><rect fill="#FFFFFF" height="153.0547" style="stroke:#181818;stroke-width:1.0;" width="10" x="591" y="281.3281"/><rect fill="#FFFFFF" height="255.5938" style="stroke:#181818;stroke-width:1.0;" width="10" x="591" y="693.4922"/><rect fill="#FFFFFF" height="147.0547" style="stroke:#181818;stroke-width:1.0;" width="10" x="699" y="471.7344"/><rect fill="#FFFFFF" height="14" style="stroke:#181818;stroke-width:1.0;" width="10" x="797.5" y="400.3828"/><rect fill="#FFFFFF" height="14" style="stroke:#181818;stroke-width:1.0;" width="10" x="797.5" y="809.5469"/><rect fill="#FFFFFF" height="14" style="stroke:#181818;stroke-width:1.0;" width="10" x="797.5" y="898.25"/><rect fill="#FFFFFF" height="14" style="stroke:#181818;stroke-width:1.0;" width="10" x="797.5" y="979.4375"/><rect fill="#FFFFFF" height="14" style="stroke:#181818;stroke-width:1.0;" width="10" x="886.5" y="590.7891"/><rect fill="#FFFFFF" height="14" style="stroke:#181818;stroke-width:1.0;" width="10" x="976.5" y="356.0313"/><rect fill="#FFFFFF" height="30" style="stroke:#181818;stroke-width:1.0;" width="10" x="976.5" y="723.8438"/><rect fill="#FFFFFF" height="14" style="stroke:#181818;stroke-width:1.0;" width="10" x="976.5" y="853.8984"/><rect fill="#FFFFFF" height="14" style="stroke:#181818;stroke-width:1.0;" width="10" x="1067.5" y="546.4375"/><rect fill="#FFFFFF" height="14" style="stroke:#181818;stroke-width:1.0;" width="10" x="1175.5" y="117.9219"/><rect fill="#FFFFFF" height="14" style="stroke:#181818;stroke-width:1.0;" width="10" x="1175.5" y="192.625"/><rect fill="#FFFFFF" height="14" style="stroke:#181818;stroke-width:1.0;" width="10" x="1175.5" y="236.9766"/><rect fill="#FFFFFF" height="14" style="stroke:#181818;stroke-width:1.0;" width="10" x="1175.5" y="311.6797"/><rect fill="#FFFFFF" height="14" style="stroke:#181818;stroke-width:1.0;" width="10" x="1175.5" y="502.0859"/><rect fill="#FFFFFF" height="14" style="stroke:#181818;stroke-width:1.0;" width="10" x="1269" y="649.1406"/><polygon fill="#181818" points="274,83.5703,284,87.5703,274,91.5703,278,87.5703" style="stroke:#181818;stroke-width:1.0;"/><line style="stroke:#181818;stroke-width:1.0;" x1="59" x2="280" y1="87.5703" y2="87.5703"/><text fill="#000000" font-family="sans-serif" font-size="13" lengthAdjust="spacing" textLength="143" x="66" y="82.7139">createRobo(req,res,next)</text><polygon fill="#181818" points="1163.5,113.9219,1173.5,117.9219,1163.5,121.9219,1167.5,117.9219" style="stroke:#181818;stroke-width:1.0;"/><line style="stroke:#181818;stroke-width:1.0;" x1="296" x2="1169.5" y1="117.9219" y2="117.9219"/><text fill="#000000" font-family="sans-serif" font-size="13" lengthAdjust="spacing" textLength="133" x="303" y="113.0654">injeta o serviço do robo</text><polygon fill="#181818" points="307,127.9219,297,131.9219,307,135.9219,303,131.9219" style="stroke:#181818;stroke-width:1.0;"/><line style="stroke:#181818;stroke-width:1.0;stroke-dasharray:2.0,2.0;" x1="301" x2="1179.5" y1="131.9219" y2="131.9219"/><polygon fill="#181818" points="428,158.2734,438,162.2734,428,166.2734,432,162.2734" style="stroke:#181818;stroke-width:1.0;"/><line style="stroke:#181818;stroke-width:1.0;" x1="296" x2="434" y1="162.2734" y2="162.2734"/><text fill="#000000" font-family="sans-serif" font-size="13" lengthAdjust="spacing" textLength="125" x="303" y="157.417">createRobo(roboDTO)</text><polygon fill="#181818" points="1163.5,188.625,1173.5,192.625,1163.5,196.625,1167.5,192.625" style="stroke:#181818;stroke-width:1.0;"/><line style="stroke:#181818;stroke-width:1.0;" x1="450" x2="1169.5" y1="192.625" y2="192.625"/><text fill="#000000" font-family="sans-serif" font-size="13" lengthAdjust="spacing" textLength="153" x="457" y="187.7686">injeta o repositório do robo</text><polygon fill="#181818" points="461,202.625,451,206.625,461,210.625,457,206.625" style="stroke:#181818;stroke-width:1.0;"/><line style="stroke:#181818;stroke-width:1.0;stroke-dasharray:2.0,2.0;" x1="455" x2="1179.5" y1="206.625" y2="206.625"/><polygon fill="#181818" points="1163.5,232.9766,1173.5,236.9766,1163.5,240.9766,1167.5,236.9766" style="stroke:#181818;stroke-width:1.0;"/><line style="stroke:#181818;stroke-width:1.0;" x1="450" x2="1169.5" y1="236.9766" y2="236.9766"/><text fill="#000000" font-family="sans-serif" font-size="13" lengthAdjust="spacing" textLength="179" x="457" y="232.1201">injeta o repositório do tipoRobo</text><polygon fill="#181818" points="461,246.9766,451,250.9766,461,254.9766,457,250.9766" style="stroke:#181818;stroke-width:1.0;"/><line style="stroke:#181818;stroke-width:1.0;stroke-dasharray:2.0,2.0;" x1="455" x2="1179.5" y1="250.9766" y2="250.9766"/><polygon fill="#181818" points="579,277.3281,589,281.3281,579,285.3281,583,281.3281" style="stroke:#181818;stroke-width:1.0;"/><line style="stroke:#181818;stroke-width:1.0;" x1="450" x2="585" y1="281.3281" y2="281.3281"/><text fill="#000000" font-family="sans-serif" font-size="13" lengthAdjust="spacing" textLength="122" x="457" y="276.4717">findByCodigo(codigo)</text><polygon fill="#181818" points="1163.5,307.6797,1173.5,311.6797,1163.5,315.6797,1167.5,311.6797" style="stroke:#181818;stroke-width:1.0;"/><line style="stroke:#181818;stroke-width:1.0;" x1="601" x2="1169.5" y1="311.6797" y2="311.6797"/><text fill="#000000" font-family="sans-serif" font-size="13" lengthAdjust="spacing" textLength="139" x="608" y="306.8232">injeta o schema do robo</text><polygon fill="#181818" points="612,321.6797,602,325.6797,612,329.6797,608,325.6797" style="stroke:#181818;stroke-width:1.0;"/><line style="stroke:#181818;stroke-width:1.0;stroke-dasharray:2.0,2.0;" x1="606" x2="1179.5" y1="325.6797" y2="325.6797"/><polygon fill="#181818" points="964.5,352.0313,974.5,356.0313,964.5,360.0313,968.5,356.0313" style="stroke:#181818;stroke-width:1.0;"/><line style="stroke:#181818;stroke-width:1.0;" x1="601" x2="970.5" y1="356.0313" y2="356.0313"/><text fill="#000000" font-family="sans-serif" font-size="13" lengthAdjust="spacing" textLength="84" x="608" y="351.1748">findOne(query)</text><polygon fill="#181818" points="612,366.0313,602,370.0313,612,374.0313,608,370.0313" style="stroke:#181818;stroke-width:1.0;"/><line style="stroke:#181818;stroke-width:1.0;stroke-dasharray:2.0,2.0;" x1="606" x2="980.5" y1="370.0313" y2="370.0313"/><polygon fill="#181818" points="785.5,396.3828,795.5,400.3828,785.5,404.3828,789.5,400.3828" style="stroke:#181818;stroke-width:1.0;"/><line style="stroke:#181818;stroke-width:1.0;" x1="601" x2="791.5" y1="400.3828" y2="400.3828"/><text fill="#000000" font-family="sans-serif" font-size="13" lengthAdjust="spacing" textLength="129" x="608" y="395.5264">toDomain(roboRecord)</text><polygon fill="#181818" points="612,410.3828,602,414.3828,612,418.3828,608,414.3828" style="stroke:#181818;stroke-width:1.0;"/><line style="stroke:#181818;stroke-width:1.0;stroke-dasharray:2.0,2.0;" x1="606" x2="801.5" y1="414.3828" y2="414.3828"/><line style="stroke:#181818;stroke-width:1.0;stroke-dasharray:2.0,2.0;" x1="601" x2="643" y1="433.3828" y2="433.3828"/><line style="stroke:#181818;stroke-width:1.0;stroke-dasharray:2.0,2.0;" x1="643" x2="643" y1="433.3828" y2="446.3828"/><line style="stroke:#181818;stroke-width:1.0;stroke-dasharray:2.0,2.0;" x1="596" x2="643" y1="446.3828" y2="446.3828"/><polygon fill="#181818" points="606,442.3828,596,446.3828,606,450.3828,602,446.3828" style="stroke:#181818;stroke-width:1.0;"/><polygon fill="#181818" points="687,467.7344,697,471.7344,687,475.7344,691,471.7344" style="stroke:#181818;stroke-width:1.0;"/><line style="stroke:#181818;stroke-width:1.0;" x1="450" x2="693" y1="471.7344" y2="471.7344"/><text fill="#000000" font-family="sans-serif" font-size="13" lengthAdjust="spacing" textLength="189" x="457" y="466.8779">findByDesignacao(tipoRoboDTO)</text><polygon fill="#181818" points="1163.5,498.0859,1173.5,502.0859,1163.5,506.0859,1167.5,502.0859" style="stroke:#181818;stroke-width:1.0;"/><line style="stroke:#181818;stroke-width:1.0;" x1="709" x2="1169.5" y1="502.0859" y2="502.0859"/><text fill="#000000" font-family="sans-serif" font-size="13" lengthAdjust="spacing" textLength="165" x="716" y="497.2295">injeta o schema do tipoRobo</text><polygon fill="#181818" points="720,512.0859,710,516.0859,720,520.0859,716,516.0859" style="stroke:#181818;stroke-width:1.0;"/><line style="stroke:#181818;stroke-width:1.0;stroke-dasharray:2.0,2.0;" x1="714" x2="1179.5" y1="516.0859" y2="516.0859"/><polygon fill="#181818" points="1055.5,542.4375,1065.5,546.4375,1055.5,550.4375,1059.5,546.4375" style="stroke:#181818;stroke-width:1.0;"/><line style="stroke:#181818;stroke-width:1.0;" x1="709" x2="1061.5" y1="546.4375" y2="546.4375"/><text fill="#000000" font-family="sans-serif" font-size="13" lengthAdjust="spacing" textLength="84" x="716" y="541.5811">findOne(query)</text><polygon fill="#181818" points="720,556.4375,710,560.4375,720,564.4375,716,560.4375" style="stroke:#181818;stroke-width:1.0;"/><line style="stroke:#181818;stroke-width:1.0;stroke-dasharray:2.0,2.0;" x1="714" x2="1071.5" y1="560.4375" y2="560.4375"/><polygon fill="#181818" points="874.5,586.7891,884.5,590.7891,874.5,594.7891,878.5,590.7891" style="stroke:#181818;stroke-width:1.0;"/><line style="stroke:#181818;stroke-width:1.0;" x1="709" x2="880.5" y1="590.7891" y2="590.7891"/><text fill="#000000" font-family="sans-serif" font-size="13" lengthAdjust="spacing" textLength="155" x="716" y="585.9326">toDomain(tipoRoboRecord)</text><polygon fill="#181818" points="720,600.7891,710,604.7891,720,608.7891,716,604.7891" style="stroke:#181818;stroke-width:1.0;"/><line style="stroke:#181818;stroke-width:1.0;stroke-dasharray:2.0,2.0;" x1="714" x2="890.5" y1="604.7891" y2="604.7891"/><polygon fill="#181818" points="461,614.7891,451,618.7891,461,622.7891,457,618.7891" style="stroke:#181818;stroke-width:1.0;"/><line style="stroke:#181818;stroke-width:1.0;stroke-dasharray:2.0,2.0;" x1="455" x2="703" y1="618.7891" y2="618.7891"/><polygon fill="#181818" points="1257,645.1406,1267,649.1406,1257,653.1406,1261,649.1406" style="stroke:#181818;stroke-width:1.0;"/><line style="stroke:#181818;stroke-width:1.0;" x1="450" x2="1263" y1="649.1406" y2="649.1406"/><text fill="#000000" font-family="sans-serif" font-size="13" lengthAdjust="spacing" textLength="44" x="457" y="644.2842">create()</text><polygon fill="#181818" points="461,659.1406,451,663.1406,461,667.1406,457,663.1406" style="stroke:#181818;stroke-width:1.0;"/><line style="stroke:#181818;stroke-width:1.0;stroke-dasharray:2.0,2.0;" x1="455" x2="1273" y1="663.1406" y2="663.1406"/><polygon fill="#181818" points="579,689.4922,589,693.4922,579,697.4922,583,693.4922" style="stroke:#181818;stroke-width:1.0;"/><line style="stroke:#181818;stroke-width:1.0;" x1="450" x2="585" y1="693.4922" y2="693.4922"/><text fill="#000000" font-family="sans-serif" font-size="13" lengthAdjust="spacing" textLength="59" x="457" y="688.6357">save(robo)</text><polygon fill="#181818" points="964.5,719.8438,974.5,723.8438,964.5,727.8438,968.5,723.8438" style="stroke:#181818;stroke-width:1.0;"/><line style="stroke:#181818;stroke-width:1.0;" x1="601" x2="970.5" y1="723.8438" y2="723.8438"/><text fill="#000000" font-family="sans-serif" font-size="13" lengthAdjust="spacing" textLength="84" x="608" y="718.9873">findOne(query)</text><path d="M537,768.8438 L598,768.8438 L598,777.1953 L588,787.1953 L537,787.1953 L537,768.8438 " fill="#EEEEEE" style="stroke:#000000;stroke-width:1.5;"/><rect fill="none" height="167.2422" style="stroke:#000000;stroke-width:1.5;" width="495" x="537" y="768.8438"/><text fill="#000000" font-family="sans-serif" font-size="13" font-weight="bold" lengthAdjust="spacing" textLength="16" x="552" y="783.3389">alt</text><text fill="#000000" font-family="sans-serif" font-size="11" font-weight="bold" lengthAdjust="spacing" textLength="57" x="613" y="782.2627">[cria robo]</text><polygon fill="#181818" points="785.5,805.5469,795.5,809.5469,785.5,813.5469,789.5,809.5469" style="stroke:#181818;stroke-width:1.0;"/><line style="stroke:#181818;stroke-width:1.0;" x1="601" x2="791.5" y1="809.5469" y2="809.5469"/><text fill="#000000" font-family="sans-serif" font-size="13" lengthAdjust="spacing" textLength="113" x="608" y="804.6904">toPersistence(robo)</text><polygon fill="#181818" points="612,819.5469,602,823.5469,612,827.5469,608,823.5469" style="stroke:#181818;stroke-width:1.0;"/><line style="stroke:#181818;stroke-width:1.0;stroke-dasharray:2.0,2.0;" x1="606" x2="801.5" y1="823.5469" y2="823.5469"/><polygon fill="#181818" points="964.5,849.8984,974.5,853.8984,964.5,857.8984,968.5,853.8984" style="stroke:#181818;stroke-width:1.0;"/><line style="stroke:#181818;stroke-width:1.0;" x1="601" x2="970.5" y1="853.8984" y2="853.8984"/><text fill="#000000" font-family="sans-serif" font-size="13" lengthAdjust="spacing" textLength="94" x="608" y="849.042">create(rawRobo)</text><polygon fill="#181818" points="612,863.8984,602,867.8984,612,871.8984,608,867.8984" style="stroke:#181818;stroke-width:1.0;"/><line style="stroke:#181818;stroke-width:1.0;stroke-dasharray:2.0,2.0;" x1="606" x2="980.5" y1="867.8984" y2="867.8984"/><polygon fill="#181818" points="785.5,894.25,795.5,898.25,785.5,902.25,789.5,898.25" style="stroke:#181818;stroke-width:1.0;"/><line style="stroke:#181818;stroke-width:1.0;" x1="601" x2="791.5" y1="898.25" y2="898.25"/><text fill="#000000" font-family="sans-serif" font-size="13" lengthAdjust="spacing" textLength="133" x="608" y="893.3936">toDomain(roboCreated)</text><polygon fill="#181818" points="612,908.25,602,912.25,612,916.25,608,912.25" style="stroke:#181818;stroke-width:1.0;"/><line style="stroke:#181818;stroke-width:1.0;stroke-dasharray:2.0,2.0;" x1="606" x2="801.5" y1="912.25" y2="912.25"/><line style="stroke:#000000;stroke-width:1.0;stroke-dasharray:2.0,2.0;" x1="537" x2="1032" y1="921.25" y2="921.25"/><text fill="#000000" font-family="sans-serif" font-size="11" font-weight="bold" lengthAdjust="spacing" textLength="78" x="542" y="932.6689">[atualiza robo]</text><polygon fill="#181818" points="461,945.0859,451,949.0859,461,953.0859,457,949.0859" style="stroke:#181818;stroke-width:1.0;"/><line style="stroke:#181818;stroke-width:1.0;stroke-dasharray:2.0,2.0;" x1="455" x2="595" y1="949.0859" y2="949.0859"/><polygon fill="#181818" points="785.5,975.4375,795.5,979.4375,785.5,983.4375,789.5,979.4375" style="stroke:#181818;stroke-width:1.0;"/><line style="stroke:#181818;stroke-width:1.0;" x1="450" x2="791.5" y1="979.4375" y2="979.4375"/><text fill="#000000" font-family="sans-serif" font-size="13" lengthAdjust="spacing" textLength="107" x="457" y="974.5811">toDTO(roboResult)</text><polygon fill="#181818" points="461,989.4375,451,993.4375,461,997.4375,457,993.4375" style="stroke:#181818;stroke-width:1.0;"/><line style="stroke:#181818;stroke-width:1.0;stroke-dasharray:2.0,2.0;" x1="455" x2="801.5" y1="993.4375" y2="993.4375"/><polygon fill="#181818" points="307,1003.4375,297,1007.4375,307,1011.4375,303,1007.4375" style="stroke:#181818;stroke-width:1.0;"/><line style="stroke:#181818;stroke-width:1.0;stroke-dasharray:2.0,2.0;" x1="301" x2="444" y1="1007.4375" y2="1007.4375"/><path d="M10,1022.4375 L71,1022.4375 L71,1030.7891 L61,1040.7891 L10,1040.7891 L10,1022.4375 " fill="#EEEEEE" style="stroke:#000000;stroke-width:1.5;"/><rect fill="none" height="94.8906" style="stroke:#000000;stroke-width:1.5;" width="332" x="10" y="1022.4375"/><text fill="#000000" font-family="sans-serif" font-size="13" font-weight="bold" lengthAdjust="spacing" textLength="16" x="25" y="1036.9326">alt</text><text fill="#000000" font-family="sans-serif" font-size="11" font-weight="bold" lengthAdjust="spacing" textLength="102" x="86" y="1035.8564">[caso de sucesso]</text><polygon fill="#181818" points="70,1059.1406,60,1063.1406,70,1067.1406,66,1063.1406" style="stroke:#181818;stroke-width:1.0;"/><line style="stroke:#181818;stroke-width:1.0;stroke-dasharray:2.0,2.0;" x1="64" x2="285" y1="1063.1406" y2="1063.1406"/><text fill="#000000" font-family="sans-serif" font-size="13" lengthAdjust="spacing" textLength="167" x="76" y="1058.2842">Envia um código 201 (POST)</text><line style="stroke:#000000;stroke-width:1.0;stroke-dasharray:2.0,2.0;" x1="10" x2="342" y1="1072.1406" y2="1072.1406"/><text fill="#000000" font-family="sans-serif" font-size="11" font-weight="bold" lengthAdjust="spacing" textLength="112" x="15" y="1083.5596">[caso de insucesso]</text><polygon fill="#181818" points="70,1105.3281,60,1109.3281,70,1113.3281,66,1109.3281" style="stroke:#181818;stroke-width:1.0;"/><line style="stroke:#181818;stroke-width:1.0;stroke-dasharray:2.0,2.0;" x1="64" x2="280" y1="1109.3281" y2="1109.3281"/><text fill="#000000" font-family="sans-serif" font-size="13" lengthAdjust="spacing" textLength="198" x="76" y="1104.4717">Envia um código 403 (FORBIDEN)</text><!--MD5=[55ededbf899c73c2660e2c43184585c7]
@startuml sd


participant Robo as route <<Route>>
participant Robo as ctrl <<Controller>>
participant Robo as svc <<Service>>
participant Robo as repo <<Repository>>

participant TipoRobo as erepo <<Repository>>
participant Robo as mapper <<Mapper>>

participant TipoRobo as emapper <<Mapper>>

participant Robo as schema <<Schema>>

participant TipoRobo as eschema <<Schema>>
participant File as conf <<Configuration>>



route -> ctrl++ : createRobo(req,res,next)
route++
ctrl++
ctrl -> conf : injeta o serviço do robo
conf++
conf - -> ctrl
conf- -
ctrl -> svc : createRobo(roboDTO)
svc++
svc -> conf : injeta o repositório do robo
conf++
conf - -> svc
conf- -
svc -> conf : injeta o repositório do tipoRobo
conf++
conf - -> svc
conf- -


svc -> repo : findByCodigo(codigo)
repo++
repo -> conf : injeta o schema do robo
conf++
conf - -> repo
conf- -
repo -> schema : findOne(query)
schema++
schema - -> repo
schema- -
repo -> mapper : toDomain(roboRecord)
mapper++
mapper - -> repo
mapper- -
repo- -> repo
repo- -



svc -> erepo : findByDesignacao(tipoRoboDTO)
erepo++
erepo -> conf : injeta o schema do tipoRobo
conf++
conf - -> erepo
conf- -
erepo -> eschema : findOne(query)
eschema++
eschema - -> erepo
eschema- -
erepo -> emapper : toDomain(tipoRoboRecord)
emapper++
emapper - -> erepo
emapper- -
erepo - -> svc
erepo- -

svc -> model : create()
model++
model - -> svc
model- -
svc -> repo: save(robo)
repo++
repo -> schema : findOne(query)
schema++
schema- -
alt cria robo
repo -> mapper : toPersistence(robo)
mapper++
mapper - -> repo
mapper- -
repo -> schema : create(rawRobo)
schema++
schema - -> repo
schema- -
repo -> mapper : toDomain(roboCreated)
mapper++
mapper - -> repo
mapper- -
else atualiza robo
end

repo - -> svc
repo- -
svc -> mapper : toDTO(roboResult)
mapper++
mapper - -> svc
mapper- -
svc - -> ctrl
svc- -

alt caso de sucesso
    ctrl - -> route : Envia um código 201 (POST)
else caso de insucesso
    ctrl - -> route : Envia um código 403 (FORBIDEN)
    ctrl- -
end
@end

PlantUML version 1.2022.7(Mon Aug 22 18:01:30 WEST 2022)
(GPL source distribution)
Java Runtime: Java(TM) SE Runtime Environment
JVM: Java HotSpot(TM) 64-Bit Server VM
Default Encoding: Cp1252
Language: en
Country: US
--></g></svg>