<?xml version="1.0" encoding="UTF-8" standalone="no"?><svg xmlns="http://www.w3.org/2000/svg" xmlns:xlink="http://www.w3.org/1999/xlink" contentStyleType="text/css" height="384px" preserveAspectRatio="none" style="width:313px;height:384px;background:#FFFFFF;" version="1.1" viewBox="0 0 313 384" width="313px" zoomAndPan="magnify"><defs/><g><rect fill="none" height="94.8906" style="stroke:#000000;stroke-width:1.5;" width="296.5" x="10" y="190.6641"/><line style="stroke:#181818;stroke-width:0.5;stroke-dasharray:5.0,5.0;" x1="61" x2="61" y1="82.6094" y2="302.5547"/><line style="stroke:#181818;stroke-width:0.5;stroke-dasharray:5.0,5.0;" x1="222.5" x2="222.5" y1="82.6094" y2="302.5547"/><text fill="#000000" font-family="sans-serif" font-size="14" lengthAdjust="spacing" textLength="77" x="20" y="79.5332">GestorFrota</text><ellipse cx="61.5" cy="13.5" fill="#E2E2F0" rx="8" ry="8" style="stroke:#181818;stroke-width:0.5;"/><path d="M61.5,21.5 L61.5,48.5 M48.5,29.5 L74.5,29.5 M61.5,48.5 L48.5,63.5 M61.5,48.5 L74.5,63.5 " fill="none" style="stroke:#181818;stroke-width:0.5;"/><text fill="#000000" font-family="sans-serif" font-size="14" lengthAdjust="spacing" textLength="77" x="20" y="316.0879">GestorFrota</text><ellipse cx="61.5" cy="327.6641" fill="#E2E2F0" rx="8" ry="8" style="stroke:#181818;stroke-width:0.5;"/><path d="M61.5,335.6641 L61.5,362.6641 M48.5,343.6641 L74.5,343.6641 M61.5,362.6641 L48.5,377.6641 M61.5,362.6641 L74.5,377.6641 " fill="none" style="stroke:#181818;stroke-width:0.5;"/><rect fill="#E2E2F0" height="31.6094" rx="2.5" ry="2.5" style="stroke:#181818;stroke-width:0.5;" width="148" x="148.5" y="50"/><text fill="#000000" font-family="sans-serif" font-size="14" lengthAdjust="spacing" textLength="134" x="155.5" y="71.5332">SistemaRobDroneGo</text><rect fill="#E2E2F0" height="31.6094" rx="2.5" ry="2.5" style="stroke:#181818;stroke-width:0.5;" width="148" x="148.5" y="301.5547"/><text fill="#000000" font-family="sans-serif" font-size="14" lengthAdjust="spacing" textLength="134" x="155.5" y="323.0879">SistemaRobDroneGo</text><polygon fill="#181818" points="210.5,110.9609,220.5,114.9609,210.5,118.9609,214.5,114.9609" style="stroke:#181818;stroke-width:1.0;"/><line style="stroke:#181818;stroke-width:1.0;" x1="61.5" x2="216.5" y1="114.9609" y2="114.9609"/><text fill="#000000" font-family="sans-serif" font-size="13" lengthAdjust="spacing" textLength="88" x="68.5" y="110.1045">Adicionar Robo</text><polygon fill="#181818" points="72.5,141.3125,62.5,145.3125,72.5,149.3125,68.5,145.3125" style="stroke:#181818;stroke-width:1.0;"/><line style="stroke:#181818;stroke-width:1.0;stroke-dasharray:2.0,2.0;" x1="66.5" x2="221.5" y1="145.3125" y2="145.3125"/><text fill="#000000" font-family="sans-serif" font-size="13" lengthAdjust="spacing" textLength="97" x="78.5" y="140.4561">Requesita dados</text><polygon fill="#181818" points="210.5,171.6641,220.5,175.6641,210.5,179.6641,214.5,175.6641" style="stroke:#181818;stroke-width:1.0;"/><line style="stroke:#181818;stroke-width:1.0;" x1="61.5" x2="216.5" y1="175.6641" y2="175.6641"/><text fill="#000000" font-family="sans-serif" font-size="13" lengthAdjust="spacing" textLength="117" x="68.5" y="170.8076">Envia dados do robo</text><path d="M10,190.6641 L71,190.6641 L71,199.0156 L61,209.0156 L10,209.0156 L10,190.6641 " fill="#EEEEEE" style="stroke:#000000;stroke-width:1.5;"/><rect fill="none" height="94.8906" style="stroke:#000000;stroke-width:1.5;" width="296.5" x="10" y="190.6641"/><text fill="#000000" font-family="sans-serif" font-size="13" font-weight="bold" lengthAdjust="spacing" textLength="16" x="25" y="205.1592">alt</text><text fill="#000000" font-family="sans-serif" font-size="11" font-weight="bold" lengthAdjust="spacing" textLength="56" x="86" y="204.083">[sucesso]</text><polygon fill="#181818" points="72.5,227.3672,62.5,231.3672,72.5,235.3672,68.5,231.3672" style="stroke:#181818;stroke-width:1.0;"/><line style="stroke:#181818;stroke-width:1.0;stroke-dasharray:2.0,2.0;" x1="66.5" x2="221.5" y1="231.3672" y2="231.3672"/><text fill="#000000" font-family="sans-serif" font-size="13" lengthAdjust="spacing" textLength="137" x="78.5" y="226.5107">Mensagem de Sucesso</text><line style="stroke:#000000;stroke-width:1.0;stroke-dasharray:2.0,2.0;" x1="10" x2="306.5" y1="240.3672" y2="240.3672"/><text fill="#000000" font-family="sans-serif" font-size="11" font-weight="bold" lengthAdjust="spacing" textLength="66" x="15" y="251.7861">[insucesso]</text><polygon fill="#181818" points="72.5,273.5547,62.5,277.5547,72.5,281.5547,68.5,277.5547" style="stroke:#181818;stroke-width:1.0;"/><line style="stroke:#181818;stroke-width:1.0;stroke-dasharray:2.0,2.0;" x1="66.5" x2="221.5" y1="277.5547" y2="277.5547"/><text fill="#000000" font-family="sans-serif" font-size="13" lengthAdjust="spacing" textLength="110" x="78.5" y="272.6982">Mensagem de Erro</text><!--MD5=[73b93cebab2fb7ff4bb0691cb59b8a99]
@startuml
actor GestorFrota as actor
participant SistemaRobDroneGo as srdg
actor -> srdg: Adicionar Robo
srdg - -> actor : Requesita dados
actor -> srdg: Envia dados do robo
alt sucesso
srdg - -> actor : Mensagem de Sucesso
else insucesso
srdg - ->actor : Mensagem de Erro
end
@enduml

PlantUML version 1.2022.7(Mon Aug 22 18:01:30 WEST 2022)
(GPL source distribution)
Java Runtime: Java(TM) SE Runtime Environment
JVM: Java HotSpot(TM) 64-Bit Server VM
Default Encoding: Cp1252
Language: en
Country: US
--></g></svg>