<?xml version="1.0" encoding="UTF-8" standalone="no"?><svg xmlns="http://www.w3.org/2000/svg" xmlns:xlink="http://www.w3.org/1999/xlink" contentStyleType="text/css" height="287px" preserveAspectRatio="none" style="width:840px;height:287px;background:#FFFFFF;" version="1.1" viewBox="0 0 840 287" width="840px" zoomAndPan="magnify"><defs/><g><rect fill="#FFFFFF" height="185.7578" style="stroke:#181818;stroke-width:1.0;" width="10" x="26" y="47.6094"/><rect fill="#FFFFFF" height="14" style="stroke:#181818;stroke-width:1.0;" width="10" x="164" y="69.9609"/><rect fill="#FFFFFF" height="119.0547" style="stroke:#181818;stroke-width:1.0;" width="10" x="331" y="114.3125"/><rect fill="#FFFFFF" height="58.3516" style="stroke:#181818;stroke-width:1.0;" width="10" x="519.5" y="144.6641"/><rect fill="#FFFFFF" height="14" style="stroke:#181818;stroke-width:1.0;" width="10" x="722" y="175.0156"/><line style="stroke:#181818;stroke-width:0.5;stroke-dasharray:5.0,5.0;" x1="31" x2="31" y1="37.6094" y2="251.3672"/><line style="stroke:#181818;stroke-width:0.5;stroke-dasharray:5.0,5.0;" x1="168.5" x2="168.5" y1="37.6094" y2="251.3672"/><line style="stroke:#181818;stroke-width:0.5;stroke-dasharray:5.0,5.0;" x1="336" x2="336" y1="37.6094" y2="251.3672"/><line style="stroke:#181818;stroke-width:0.5;stroke-dasharray:5.0,5.0;" x1="524" x2="524" y1="37.6094" y2="251.3672"/><line style="stroke:#181818;stroke-width:0.5;stroke-dasharray:5.0,5.0;" x1="727" x2="727" y1="37.6094" y2="251.3672"/><rect fill="#E2E2F0" height="31.6094" rx="2.5" ry="2.5" style="stroke:#181818;stroke-width:0.5;" width="52" x="5" y="5"/><text fill="#000000" font-family="sans-serif" font-size="14" lengthAdjust="spacing" textLength="38" x="12" y="26.5332">Route</text><rect fill="#E2E2F0" height="31.6094" rx="2.5" ry="2.5" style="stroke:#181818;stroke-width:0.5;" width="52" x="5" y="250.3672"/><text fill="#000000" font-family="sans-serif" font-size="14" lengthAdjust="spacing" textLength="38" x="12" y="271.9004">Route</text><rect fill="#E2E2F0" height="31.6094" rx="2.5" ry="2.5" style="stroke:#181818;stroke-width:0.5;" width="41" x="148.5" y="5"/><text fill="#000000" font-family="sans-serif" font-size="14" lengthAdjust="spacing" textLength="27" x="155.5" y="26.5332">A&amp;A</text><rect fill="#E2E2F0" height="31.6094" rx="2.5" ry="2.5" style="stroke:#181818;stroke-width:0.5;" width="41" x="148.5" y="250.3672"/><text fill="#000000" font-family="sans-serif" font-size="14" lengthAdjust="spacing" textLength="27" x="155.5" y="271.9004">A&amp;A</text><rect fill="#E2E2F0" height="31.6094" rx="2.5" ry="2.5" style="stroke:#181818;stroke-width:0.5;" width="186" x="243" y="5"/><text fill="#000000" font-family="sans-serif" font-size="14" lengthAdjust="spacing" textLength="172" x="250" y="26.5332">TarefaAprovacaoController</text><rect fill="#E2E2F0" height="31.6094" rx="2.5" ry="2.5" style="stroke:#181818;stroke-width:0.5;" width="186" x="243" y="250.3672"/><text fill="#000000" font-family="sans-serif" font-size="14" lengthAdjust="spacing" textLength="172" x="250" y="271.9004">TarefaAprovacaoController</text><rect fill="#E2E2F0" height="31.6094" rx="2.5" ry="2.5" style="stroke:#181818;stroke-width:0.5;" width="171" x="439" y="5"/><text fill="#000000" font-family="sans-serif" font-size="14" lengthAdjust="spacing" textLength="157" x="446" y="26.5332">TarefaAprovacaoService</text><rect fill="#E2E2F0" height="31.6094" rx="2.5" ry="2.5" style="stroke:#181818;stroke-width:0.5;" width="171" x="439" y="250.3672"/><text fill="#000000" font-family="sans-serif" font-size="14" lengthAdjust="spacing" textLength="157" x="446" y="271.9004">TarefaAprovacaoService</text><rect fill="#E2E2F0" height="31.6094" rx="2.5" ry="2.5" style="stroke:#181818;stroke-width:0.5;" width="214" x="620" y="5"/><text fill="#000000" font-family="sans-serif" font-size="14" lengthAdjust="spacing" textLength="200" x="627" y="26.5332">Master Data Gestão de Tarefas</text><rect fill="#E2E2F0" height="31.6094" rx="2.5" ry="2.5" style="stroke:#181818;stroke-width:0.5;" width="214" x="620" y="250.3672"/><text fill="#000000" font-family="sans-serif" font-size="14" lengthAdjust="spacing" textLength="200" x="627" y="271.9004">Master Data Gestão de Tarefas</text><rect fill="#FFFFFF" height="185.7578" style="stroke:#181818;stroke-width:1.0;" width="10" x="26" y="47.6094"/><rect fill="#FFFFFF" height="14" style="stroke:#181818;stroke-width:1.0;" width="10" x="164" y="69.9609"/><rect fill="#FFFFFF" height="119.0547" style="stroke:#181818;stroke-width:1.0;" width="10" x="331" y="114.3125"/><rect fill="#FFFFFF" height="58.3516" style="stroke:#181818;stroke-width:1.0;" width="10" x="519.5" y="144.6641"/><rect fill="#FFFFFF" height="14" style="stroke:#181818;stroke-width:1.0;" width="10" x="722" y="175.0156"/><polygon fill="#181818" points="152,65.9609,162,69.9609,152,73.9609,156,69.9609" style="stroke:#181818;stroke-width:1.0;"/><line style="stroke:#181818;stroke-width:1.0;" x1="36" x2="158" y1="69.9609" y2="69.9609"/><text fill="#000000" font-family="sans-serif" font-size="13" lengthAdjust="spacing" textLength="109" x="43" y="65.1045">autentica("Utente")</text><polygon fill="#181818" points="47,79.9609,37,83.9609,47,87.9609,43,83.9609" style="stroke:#181818;stroke-width:1.0;"/><line style="stroke:#181818;stroke-width:1.0;stroke-dasharray:2.0,2.0;" x1="41" x2="168" y1="83.9609" y2="83.9609"/><polygon fill="#181818" points="319,110.3125,329,114.3125,319,118.3125,323,114.3125" style="stroke:#181818;stroke-width:1.0;"/><line style="stroke:#181818;stroke-width:1.0;" x1="36" x2="325" y1="114.3125" y2="114.3125"/><text fill="#000000" font-family="sans-serif" font-size="13" lengthAdjust="spacing" textLength="57" x="43" y="109.4561">/requisitar</text><polygon fill="#181818" points="507.5,140.6641,517.5,144.6641,507.5,148.6641,511.5,144.6641" style="stroke:#181818;stroke-width:1.0;"/><line style="stroke:#181818;stroke-width:1.0;" x1="341" x2="513.5" y1="144.6641" y2="144.6641"/><text fill="#000000" font-family="sans-serif" font-size="13" lengthAdjust="spacing" textLength="61" x="348" y="139.8076">requisitar()</text><polygon fill="#181818" points="710,171.0156,720,175.0156,710,179.0156,714,175.0156" style="stroke:#181818;stroke-width:1.0;"/><line style="stroke:#181818;stroke-width:1.0;" x1="529.5" x2="716" y1="175.0156" y2="175.0156"/><text fill="#000000" font-family="sans-serif" font-size="13" lengthAdjust="spacing" textLength="96" x="536.5" y="170.1592">POST /requisitar</text><polygon fill="#181818" points="540.5,185.0156,530.5,189.0156,540.5,193.0156,536.5,189.0156" style="stroke:#181818;stroke-width:1.0;"/><line style="stroke:#181818;stroke-width:1.0;stroke-dasharray:2.0,2.0;" x1="534.5" x2="726" y1="189.0156" y2="189.0156"/><polygon fill="#181818" points="352,199.0156,342,203.0156,352,207.0156,348,203.0156" style="stroke:#181818;stroke-width:1.0;"/><line style="stroke:#181818;stroke-width:1.0;stroke-dasharray:2.0,2.0;" x1="346" x2="523.5" y1="203.0156" y2="203.0156"/><polygon fill="#181818" points="42,229.3672,32,233.3672,42,237.3672,38,233.3672" style="stroke:#181818;stroke-width:1.0;"/><line style="stroke:#181818;stroke-width:1.0;stroke-dasharray:2.0,2.0;" x1="36" x2="335" y1="233.3672" y2="233.3672"/><text fill="#000000" font-family="sans-serif" font-size="13" lengthAdjust="spacing" textLength="271" x="48" y="228.5107">Envia um código 201 (OK) / 403 (FORBIDDEN)</text><!--MD5=[d4fd61c8823aea4bdb758de6776794ec]
@startuml vp3


participant Route as route
participant "A&A" as auth
participant TarefaAprovacaoController as ctrl
participant TarefaAprovacaoService as svc
participant "Master Data Gestão de Tarefas" as mdgt

activate route
route -> auth : autentica("Utente")
activate auth
auth - -> route
deactivate auth
route -> ctrl : /requisitar
activate ctrl
ctrl -> svc : requisitar()
activate svc
svc -> mdgt : POST /requisitar
activate mdgt 
mdgt - -> svc
deactivate mdgt
svc - -> ctrl
deactivate svc
ctrl - -> route : Envia um código 201 (OK) / 403 (FORBIDDEN)
deactivate ctrl
deactivate route



@enduml

PlantUML version 1.2022.7(Mon Aug 22 18:01:30 WEST 2022)
(GPL source distribution)
Java Runtime: Java(TM) SE Runtime Environment
JVM: Java HotSpot(TM) 64-Bit Server VM
Default Encoding: Cp1252
Language: pt
Country: PT
--></g></svg>