<?xml version="1.0" encoding="UTF-8" standalone="no"?><svg xmlns="http://www.w3.org/2000/svg" xmlns:xlink="http://www.w3.org/1999/xlink" contentStyleType="text/css" height="372px" preserveAspectRatio="none" style="width:677px;height:372px;background:#FFFFFF;" version="1.1" viewBox="0 0 677 372" width="677px" zoomAndPan="magnify"><defs/><g><rect fill="#DDDDDD" height="360.0859" style="stroke:#181818;stroke-width:0.5;" width="663" x="1" y="6"/><text fill="#000000" font-family="sans-serif" font-size="13" font-weight="bold" lengthAdjust="spacing" textLength="102" x="264.5" y="19.4951">&lt;&lt;System(C4)&gt;&gt;</text><text fill="#000000" font-family="sans-serif" font-size="13" font-weight="bold" lengthAdjust="spacing" textLength="132" x="268.5" y="35.8467">SistemaRobDroneGo</text><rect fill="#FFFFFF" height="191.9453" style="stroke:#181818;stroke-width:1.0;" width="10" x="60" y="102.9219"/><rect fill="#FFFFFF" height="169.5938" style="stroke:#181818;stroke-width:1.0;" width="10" x="309" y="125.2734"/><rect fill="#FFFFFF" height="101.8906" style="stroke:#181818;stroke-width:1.0;" width="10" x="558" y="155.625"/><rect fill="none" height="94.8906" style="stroke:#000000;stroke-width:1.5;" width="476" x="194" y="170.625"/><line style="stroke:#181818;stroke-width:0.5;stroke-dasharray:5.0,5.0;" x1="65" x2="65" y1="92.9219" y2="312.8672"/><line style="stroke:#181818;stroke-width:0.5;stroke-dasharray:5.0,5.0;" x1="314" x2="314" y1="92.9219" y2="312.8672"/><line style="stroke:#181818;stroke-width:0.5;stroke-dasharray:5.0,5.0;" x1="563" x2="563" y1="92.9219" y2="312.8672"/><rect fill="#E2E2F0" height="49.2188" rx="2.5" ry="2.5" style="stroke:#181818;stroke-width:0.5;" width="120" x="5" y="42.7031"/><text fill="#000000" font-family="sans-serif" font-size="14" font-style="italic" lengthAdjust="spacing" textLength="106" x="12" y="64.2363">«Container(C4)»</text><text fill="#000000" font-family="sans-serif" font-size="14" lengthAdjust="spacing" textLength="12" x="59" y="81.8457">UI</text><rect fill="#E2E2F0" height="49.2188" rx="2.5" ry="2.5" style="stroke:#181818;stroke-width:0.5;" width="120" x="5" y="311.8672"/><text fill="#000000" font-family="sans-serif" font-size="14" font-style="italic" lengthAdjust="spacing" textLength="106" x="12" y="333.4004">«Container(C4)»</text><text fill="#000000" font-family="sans-serif" font-size="14" lengthAdjust="spacing" textLength="12" x="59" y="351.0098">UI</text><rect fill="#E2E2F0" height="49.2188" rx="2.5" ry="2.5" style="stroke:#181818;stroke-width:0.5;" width="220" x="204" y="42.7031"/><text fill="#000000" font-family="sans-serif" font-size="14" font-style="italic" lengthAdjust="spacing" textLength="106" x="261" y="64.2363">«Container(C4)»</text><text fill="#000000" font-family="sans-serif" font-size="14" lengthAdjust="spacing" textLength="206" x="211" y="81.8457">Master Data Gestão Dispositivos</text><rect fill="#E2E2F0" height="49.2188" rx="2.5" ry="2.5" style="stroke:#181818;stroke-width:0.5;" width="220" x="204" y="311.8672"/><text fill="#000000" font-family="sans-serif" font-size="14" font-style="italic" lengthAdjust="spacing" textLength="106" x="261" y="333.4004">«Container(C4)»</text><text fill="#000000" font-family="sans-serif" font-size="14" lengthAdjust="spacing" textLength="206" x="211" y="351.0098">Master Data Gestão Dispositivos</text><rect fill="#E2E2F0" height="49.2188" rx="2.5" ry="2.5" style="stroke:#181818;stroke-width:0.5;" width="194" x="466" y="42.7031"/><text fill="#000000" font-family="sans-serif" font-size="14" font-style="italic" lengthAdjust="spacing" textLength="106" x="510" y="64.2363">«Container(C4)»</text><text fill="#000000" font-family="sans-serif" font-size="14" lengthAdjust="spacing" textLength="180" x="473" y="81.8457">Master Data Gestão Tarefas</text><rect fill="#E2E2F0" height="49.2188" rx="2.5" ry="2.5" style="stroke:#181818;stroke-width:0.5;" width="194" x="466" y="311.8672"/><text fill="#000000" font-family="sans-serif" font-size="14" font-style="italic" lengthAdjust="spacing" textLength="106" x="510" y="333.4004">«Container(C4)»</text><text fill="#000000" font-family="sans-serif" font-size="14" lengthAdjust="spacing" textLength="180" x="473" y="351.0098">Master Data Gestão Tarefas</text><rect fill="#FFFFFF" height="191.9453" style="stroke:#181818;stroke-width:1.0;" width="10" x="60" y="102.9219"/><rect fill="#FFFFFF" height="169.5938" style="stroke:#181818;stroke-width:1.0;" width="10" x="309" y="125.2734"/><rect fill="#FFFFFF" height="101.8906" style="stroke:#181818;stroke-width:1.0;" width="10" x="558" y="155.625"/><polygon fill="#181818" points="297,121.2734,307,125.2734,297,129.2734,301,125.2734" style="stroke:#181818;stroke-width:1.0;"/><line style="stroke:#181818;stroke-width:1.0;" x1="70" x2="303" y1="125.2734" y2="125.2734"/><text fill="#000000" font-family="sans-serif" font-size="13" lengthAdjust="spacing" textLength="220" x="77" y="120.417">GET /pesquisarRequisicaoPorUtente()</text><polygon fill="#181818" points="546,151.625,556,155.625,546,159.625,550,155.625" style="stroke:#181818;stroke-width:1.0;"/><line style="stroke:#181818;stroke-width:1.0;" x1="319" x2="552" y1="155.625" y2="155.625"/><text fill="#000000" font-family="sans-serif" font-size="13" lengthAdjust="spacing" textLength="220" x="326" y="150.7686">GET /pesquisarRequisicaoPorUtente()</text><path d="M194,170.625 L255,170.625 L255,178.9766 L245,188.9766 L194,188.9766 L194,170.625 " fill="#EEEEEE" style="stroke:#000000;stroke-width:1.5;"/><rect fill="none" height="94.8906" style="stroke:#000000;stroke-width:1.5;" width="476" x="194" y="170.625"/><text fill="#000000" font-family="sans-serif" font-size="13" font-weight="bold" lengthAdjust="spacing" textLength="16" x="209" y="185.1201">alt</text><text fill="#000000" font-family="sans-serif" font-size="11" font-weight="bold" lengthAdjust="spacing" textLength="56" x="270" y="184.0439">[sucesso]</text><polygon fill="#181818" points="330,207.3281,320,211.3281,330,215.3281,326,211.3281" style="stroke:#181818;stroke-width:1.0;"/><line style="stroke:#181818;stroke-width:1.0;stroke-dasharray:2.0,2.0;" x1="324" x2="557" y1="211.3281" y2="211.3281"/><text fill="#000000" font-family="sans-serif" font-size="13" lengthAdjust="spacing" textLength="106" x="336" y="206.4717">devolve status 201</text><line style="stroke:#000000;stroke-width:1.0;stroke-dasharray:2.0,2.0;" x1="194" x2="670" y1="220.3281" y2="220.3281"/><text fill="#000000" font-family="sans-serif" font-size="11" font-weight="bold" lengthAdjust="spacing" textLength="99" x="199" y="231.7471">[erro na listagem]</text><polygon fill="#181818" points="330,253.5156,320,257.5156,330,261.5156,326,257.5156" style="stroke:#181818;stroke-width:1.0;"/><line style="stroke:#181818;stroke-width:1.0;stroke-dasharray:2.0,2.0;" x1="324" x2="562" y1="257.5156" y2="257.5156"/><text fill="#000000" font-family="sans-serif" font-size="13" lengthAdjust="spacing" textLength="106" x="336" y="252.6592">devolve status 404</text><polygon fill="#181818" points="76,290.8672,66,294.8672,76,298.8672,72,294.8672" style="stroke:#181818;stroke-width:1.0;"/><line style="stroke:#181818;stroke-width:1.0;stroke-dasharray:2.0,2.0;" x1="70" x2="313" y1="294.8672" y2="294.8672"/><text fill="#000000" font-family="sans-serif" font-size="13" lengthAdjust="spacing" textLength="84" x="82" y="290.0107">devolve estado</text><!--MD5=[176467ceb4392c690e044020772c0fd6]
@startuml vp2c

box "<<System(C4)>>\n SistemaRobDroneGo"
participant UI as ui <<Container(C4)>>
participant "Master Data Gestão Dispositivos" as mdgd <<Container(C4)>>
participant "Master Data Gestão Tarefas" as mdgt <<Container(C4)>>

activate ui
ui -> mdgd: GET /pesquisarRequisicaoPorUtente()
activate mdgd
mdgd -> mdgt: GET /pesquisarRequisicaoPorUtente()
activate mdgt
alt sucesso
mdgt - -> mdgd: devolve status 201
else erro na listagem
mdgt - -> mdgd: devolve status 404
deactivate mdgt
end
mdgd - -> ui : devolve estado
deactivate mdgd
deactivate ui

end box

@enduml

PlantUML version 1.2022.7(Mon Aug 22 18:01:30 WEST 2022)
(GPL source distribution)
Java Runtime: Java(TM) SE Runtime Environment
JVM: Java HotSpot(TM) 64-Bit Server VM
Default Encoding: Cp1252
Language: pt
Country: PT
--></g></svg>