<?xml version="1.0" encoding="UTF-8" standalone="no"?><svg xmlns="http://www.w3.org/2000/svg" xmlns:xlink="http://www.w3.org/1999/xlink" contentStyleType="text/css" height="287px" preserveAspectRatio="none" style="width:1043px;height:287px;background:#FFFFFF;" version="1.1" viewBox="0 0 1043 287" width="1043px" zoomAndPan="magnify"><defs/><g><rect fill="#FFFFFF" height="185.7578" style="stroke:#181818;stroke-width:1.0;" width="10" x="26" y="47.6094"/><rect fill="#FFFFFF" height="163.4063" style="stroke:#181818;stroke-width:1.0;" width="10" x="332" y="69.9609"/><rect fill="#FFFFFF" height="102.7031" style="stroke:#181818;stroke-width:1.0;" width="10" x="583" y="100.3125"/><rect fill="#FFFFFF" height="14" style="stroke:#181818;stroke-width:1.0;" width="10" x="834" y="130.6641"/><rect fill="#FFFFFF" height="14" style="stroke:#181818;stroke-width:1.0;" width="10" x="967" y="175.0156"/><line style="stroke:#181818;stroke-width:0.5;stroke-dasharray:5.0,5.0;" x1="31" x2="31" y1="37.6094" y2="251.3672"/><line style="stroke:#181818;stroke-width:0.5;stroke-dasharray:5.0,5.0;" x1="337" x2="337" y1="37.6094" y2="251.3672"/><line style="stroke:#181818;stroke-width:0.5;stroke-dasharray:5.0,5.0;" x1="587.5" x2="587.5" y1="37.6094" y2="251.3672"/><line style="stroke:#181818;stroke-width:0.5;stroke-dasharray:5.0,5.0;" x1="839" x2="839" y1="37.6094" y2="251.3672"/><line style="stroke:#181818;stroke-width:0.5;stroke-dasharray:5.0,5.0;" x1="972" x2="972" y1="37.6094" y2="251.3672"/><rect fill="#E2E2F0" height="31.6094" rx="2.5" ry="2.5" style="stroke:#181818;stroke-width:0.5;" width="52" x="5" y="5"/><text fill="#000000" font-family="sans-serif" font-size="14" lengthAdjust="spacing" textLength="38" x="12" y="26.5332">Route</text><rect fill="#E2E2F0" height="31.6094" rx="2.5" ry="2.5" style="stroke:#181818;stroke-width:0.5;" width="52" x="5" y="250.3672"/><text fill="#000000" font-family="sans-serif" font-size="14" lengthAdjust="spacing" textLength="38" x="12" y="271.9004">Route</text><rect fill="#E2E2F0" height="31.6094" rx="2.5" ry="2.5" style="stroke:#181818;stroke-width:0.5;" width="144" x="265" y="5"/><text fill="#000000" font-family="sans-serif" font-size="14" lengthAdjust="spacing" textLength="130" x="272" y="26.5332">AprovacaoController</text><rect fill="#E2E2F0" height="31.6094" rx="2.5" ry="2.5" style="stroke:#181818;stroke-width:0.5;" width="144" x="265" y="250.3672"/><text fill="#000000" font-family="sans-serif" font-size="14" lengthAdjust="spacing" textLength="130" x="272" y="271.9004">AprovacaoController</text><rect fill="#E2E2F0" height="31.6094" rx="2.5" ry="2.5" style="stroke:#181818;stroke-width:0.5;" width="129" x="523.5" y="5"/><text fill="#000000" font-family="sans-serif" font-size="14" lengthAdjust="spacing" textLength="115" x="530.5" y="26.5332">AprovacaoService</text><rect fill="#E2E2F0" height="31.6094" rx="2.5" ry="2.5" style="stroke:#181818;stroke-width:0.5;" width="129" x="523.5" y="250.3672"/><text fill="#000000" font-family="sans-serif" font-size="14" lengthAdjust="spacing" textLength="115" x="530.5" y="271.9004">AprovacaoService</text><rect fill="#E2E2F0" height="31.6094" rx="2.5" ry="2.5" style="stroke:#181818;stroke-width:0.5;" width="116" x="781" y="5"/><text fill="#000000" font-family="sans-serif" font-size="14" lengthAdjust="spacing" textLength="102" x="788" y="26.5332">AprovacaoRepo</text><rect fill="#E2E2F0" height="31.6094" rx="2.5" ry="2.5" style="stroke:#181818;stroke-width:0.5;" width="116" x="781" y="250.3672"/><text fill="#000000" font-family="sans-serif" font-size="14" lengthAdjust="spacing" textLength="102" x="788" y="271.9004">AprovacaoRepo</text><rect fill="#E2E2F0" height="31.6094" rx="2.5" ry="2.5" style="stroke:#181818;stroke-width:0.5;" width="130" x="907" y="5"/><text fill="#000000" font-family="sans-serif" font-size="14" lengthAdjust="spacing" textLength="116" x="914" y="26.5332">AprovacaoMapper</text><rect fill="#E2E2F0" height="31.6094" rx="2.5" ry="2.5" style="stroke:#181818;stroke-width:0.5;" width="130" x="907" y="250.3672"/><text fill="#000000" font-family="sans-serif" font-size="14" lengthAdjust="spacing" textLength="116" x="914" y="271.9004">AprovacaoMapper</text><rect fill="#FFFFFF" height="185.7578" style="stroke:#181818;stroke-width:1.0;" width="10" x="26" y="47.6094"/><rect fill="#FFFFFF" height="163.4063" style="stroke:#181818;stroke-width:1.0;" width="10" x="332" y="69.9609"/><rect fill="#FFFFFF" height="102.7031" style="stroke:#181818;stroke-width:1.0;" width="10" x="583" y="100.3125"/><rect fill="#FFFFFF" height="14" style="stroke:#181818;stroke-width:1.0;" width="10" x="834" y="130.6641"/><rect fill="#FFFFFF" height="14" style="stroke:#181818;stroke-width:1.0;" width="10" x="967" y="175.0156"/><polygon fill="#181818" points="320,65.9609,330,69.9609,320,73.9609,324,69.9609" style="stroke:#181818;stroke-width:1.0;"/><line style="stroke:#181818;stroke-width:1.0;" x1="36" x2="326" y1="69.9609" y2="69.9609"/><text fill="#000000" font-family="sans-serif" font-size="13" lengthAdjust="spacing" textLength="182" x="43" y="65.1045">/pesquisarRequisicaoPorUtente</text><polygon fill="#181818" points="571,96.3125,581,100.3125,571,104.3125,575,100.3125" style="stroke:#181818;stroke-width:1.0;"/><line style="stroke:#181818;stroke-width:1.0;" x1="342" x2="577" y1="100.3125" y2="100.3125"/><text fill="#000000" font-family="sans-serif" font-size="13" lengthAdjust="spacing" textLength="222" x="349" y="95.4561">pesquisarRequisicaoPorUtente(utente)</text><polygon fill="#181818" points="822,126.6641,832,130.6641,822,134.6641,826,130.6641" style="stroke:#181818;stroke-width:1.0;"/><line style="stroke:#181818;stroke-width:1.0;" x1="593" x2="828" y1="130.6641" y2="130.6641"/><text fill="#000000" font-family="sans-serif" font-size="13" lengthAdjust="spacing" textLength="222" x="600" y="125.8076">pesquisarRequisicaoPorUtente(utente)</text><polygon fill="#181818" points="604,140.6641,594,144.6641,604,148.6641,600,144.6641" style="stroke:#181818;stroke-width:1.0;"/><line style="stroke:#181818;stroke-width:1.0;stroke-dasharray:2.0,2.0;" x1="598" x2="838" y1="144.6641" y2="144.6641"/><polygon fill="#181818" points="955,171.0156,965,175.0156,955,179.0156,959,175.0156" style="stroke:#181818;stroke-width:1.0;"/><line style="stroke:#181818;stroke-width:1.0;" x1="593" x2="961" y1="175.0156" y2="175.0156"/><text fill="#000000" font-family="sans-serif" font-size="13" lengthAdjust="spacing" textLength="110" x="600" y="170.1592">toDTO(aprovacoes)</text><polygon fill="#181818" points="604,185.0156,594,189.0156,604,193.0156,600,189.0156" style="stroke:#181818;stroke-width:1.0;"/><line style="stroke:#181818;stroke-width:1.0;stroke-dasharray:2.0,2.0;" x1="598" x2="971" y1="189.0156" y2="189.0156"/><polygon fill="#181818" points="353,199.0156,343,203.0156,353,207.0156,349,203.0156" style="stroke:#181818;stroke-width:1.0;"/><line style="stroke:#181818;stroke-width:1.0;stroke-dasharray:2.0,2.0;" x1="347" x2="587" y1="203.0156" y2="203.0156"/><polygon fill="#181818" points="42,229.3672,32,233.3672,42,237.3672,38,233.3672" style="stroke:#181818;stroke-width:1.0;"/><line style="stroke:#181818;stroke-width:1.0;stroke-dasharray:2.0,2.0;" x1="36" x2="336" y1="233.3672" y2="233.3672"/><text fill="#000000" font-family="sans-serif" font-size="13" lengthAdjust="spacing" textLength="272" x="48" y="228.5107">Envia um estado 201 (OK) / 404 (NOT FOUND)</text><!--MD5=[d9c2bda6bf3477709c9966417e9e0193]
@startuml vp3

participant Route as route
participant AprovacaoController as ctrl
participant AprovacaoService as svc
participant AprovacaoRepo as repo
participant AprovacaoMapper as mapper

activate route
route -> ctrl : /pesquisarRequisicaoPorUtente
activate ctrl
ctrl -> svc : pesquisarRequisicaoPorUtente(utente)
activate svc
svc -> repo : pesquisarRequisicaoPorUtente(utente)
activate repo
repo - -> svc
deactivate repo
svc -> mapper : toDTO(aprovacoes)
activate mapper
mapper - -> svc
deactivate mapper
svc - -> ctrl
deactivate svc
ctrl - -> route : Envia um estado 201 (OK) / 404 (NOT FOUND)
deactivate ctrl
deactivate route



@enduml

PlantUML version 1.2022.7(Mon Aug 22 18:01:30 WEST 2022)
(GPL source distribution)
Java Runtime: Java(TM) SE Runtime Environment
JVM: Java HotSpot(TM) 64-Bit Server VM
Default Encoding: Cp1252
Language: pt
Country: PT
--></g></svg>