<?xml version="1.0" encoding="UTF-8" standalone="no"?><svg xmlns="http://www.w3.org/2000/svg" xmlns:xlink="http://www.w3.org/1999/xlink" contentStyleType="text/css" height="191px" preserveAspectRatio="none" style="width:979px;height:191px;background:#FFFFFF;" version="1.1" viewBox="0 0 979 191" width="979px" zoomAndPan="magnify"><defs/><g><ellipse cx="416" cy="32" fill="#222222" rx="10" ry="10" style="stroke:none;stroke-width:1.0;"/><g id="S0"><rect fill="#F1F1F1" height="50" rx="12.5" ry="12.5" style="stroke:#181818;stroke-width:0.5;" width="50" x="461" y="7"/><line style="stroke:#181818;stroke-width:0.5;" x1="461" x2="511" y1="34.6094" y2="34.6094"/><text fill="#000000" font-family="sans-serif" font-size="14" lengthAdjust="spacing" textLength="17" x="477.5" y="26.5332">S0</text></g><g id="S1"><rect fill="#F1F1F1" height="50" rx="12.5" ry="12.5" style="stroke:#181818;stroke-width:0.5;" width="50" x="7" y="135"/><line style="stroke:#181818;stroke-width:0.5;" x1="7" x2="57" y1="162.6094" y2="162.6094"/><text fill="#000000" font-family="sans-serif" font-size="14" lengthAdjust="spacing" textLength="17" x="23.5" y="154.5332">S1</text></g><g id="S2"><rect fill="#F1F1F1" height="50" rx="12.5" ry="12.5" style="stroke:#181818;stroke-width:0.5;" width="50" x="247" y="135"/><line style="stroke:#181818;stroke-width:0.5;" x1="247" x2="297" y1="162.6094" y2="162.6094"/><text fill="#000000" font-family="sans-serif" font-size="14" lengthAdjust="spacing" textLength="17" x="263.5" y="154.5332">S2</text></g><g id="S3"><rect fill="#F1F1F1" height="50" rx="12.5" ry="12.5" style="stroke:#181818;stroke-width:0.5;" width="50" x="384" y="135"/><line style="stroke:#181818;stroke-width:0.5;" x1="384" x2="434" y1="162.6094" y2="162.6094"/><text fill="#000000" font-family="sans-serif" font-size="14" lengthAdjust="spacing" textLength="17" x="400.5" y="154.5332">S3</text></g><g id="S4"><rect fill="#F1F1F1" height="50" rx="12.5" ry="12.5" style="stroke:#181818;stroke-width:0.5;" width="50" x="544" y="135"/><line style="stroke:#181818;stroke-width:0.5;" x1="544" x2="594" y1="162.6094" y2="162.6094"/><text fill="#000000" font-family="sans-serif" font-size="14" lengthAdjust="spacing" textLength="17" x="560.5" y="154.5332">S4</text></g><g id="S5"><rect fill="#F1F1F1" height="50" rx="12.5" ry="12.5" style="stroke:#181818;stroke-width:0.5;" width="50" x="774" y="135"/><line style="stroke:#181818;stroke-width:0.5;" x1="774" x2="824" y1="162.6094" y2="162.6094"/><text fill="#000000" font-family="sans-serif" font-size="14" lengthAdjust="spacing" textLength="17" x="790.5" y="154.5332">S5</text></g><g id="S6"><rect fill="#F1F1F1" height="50" rx="12.5" ry="12.5" style="stroke:#181818;stroke-width:0.5;" width="50" x="922" y="135"/><line style="stroke:#181818;stroke-width:0.5;" x1="922" x2="972" y1="162.6094" y2="162.6094"/><text fill="#000000" font-family="sans-serif" font-size="14" lengthAdjust="spacing" textLength="17" x="938.5" y="154.5332">S6</text></g><!--MD5=[c847074da0bcbb1b43b6b9ca25358c35]
link *start to S0--><g id="link_*start_S0"><path d="M426.12,32 C435.94,32 445.77,32 455.6,32 " fill="none" id="*start-to-S0" style="stroke:#181818;stroke-width:1.0;"/><polygon fill="#181818" points="460.74,32,451.74,28,455.74,32,451.74,36,460.74,32" style="stroke:#181818;stroke-width:1.0;"/></g><!--MD5=[b25f8e8a4aea2acac9ced98c74b9fdde]
link S0 to S1--><g id="link_S0_S1"><path d="M460.78,49.04 C455.11,52.09 448.99,54.96 443,57 C357.94,86.04 330.33,65.73 243,87 C177.05,103.06 102.44,130.91 61.98,146.85 " fill="none" id="S0-to-S1" style="stroke:#181818;stroke-width:1.0;"/><polygon fill="#181818" points="57.22,148.74,67.0608,149.1375,61.8673,146.8954,64.1094,141.7018,57.22,148.74" style="stroke:#181818;stroke-width:1.0;"/><text fill="#000000" font-family="sans-serif" font-size="13" lengthAdjust="spacing" textLength="114" x="244" y="101.4951">pede geração token</text></g><!--MD5=[15cb110786dd224ca6a510a3d2a24e20]
link S1 to S2--><g id="link_S1_S2"><path d="M57.23,160 C101.7,160 193.86,160 241.7,160 " fill="none" id="S1-to-S2" style="stroke:#181818;stroke-width:1.0;"/><polygon fill="#181818" points="246.75,160,237.75,156,241.75,160,237.75,164,246.75,160" style="stroke:#181818;stroke-width:1.0;"/><text fill="#000000" font-family="sans-serif" font-size="13" lengthAdjust="spacing" textLength="153" x="75.5" y="153.4951">svc encaminha para A&amp;A?</text></g><!--MD5=[eae8e2738addec0f56eaf72bd27db6a3]
link S2 to S0--><g id="link_S2_S0"><path d="M297.02,144.27 C336.64,120.94 413.65,75.6 456.11,50.6 " fill="none" id="S2-to-S0" style="stroke:#181818;stroke-width:1.0;"/><polygon fill="#181818" points="460.61,47.95,450.8271,49.0881,456.3062,50.4951,454.8993,55.9742,460.61,47.95" style="stroke:#181818;stroke-width:1.0;"/><text fill="#000000" font-family="sans-serif" font-size="13" lengthAdjust="spacing" textLength="21" x="393" y="101.4951">não</text></g><!--MD5=[8eac89d31ced3c9003fbd6a8a005c745]
link S2 to S3--><g id="link_S2_S3"><path d="M297.13,160 C320.06,160 354.01,160 378.49,160 " fill="none" id="S2-to-S3" style="stroke:#181818;stroke-width:1.0;"/><polygon fill="#181818" points="383.57,160,374.57,156,378.57,160,374.57,164,383.57,160" style="stroke:#181818;stroke-width:1.0;"/><text fill="#000000" font-family="sans-serif" font-size="13" lengthAdjust="spacing" textLength="50" x="315.5" y="153.4951">pede ctrl</text></g><!--MD5=[82e284a09e4ebade00512bdc77bff32c]
link S3 to S4--><g id="link_S3_S4"><path d="M434.35,160 C462.67,160 508.5,160 538.69,160 " fill="none" id="S3-to-S4" style="stroke:#181818;stroke-width:1.0;"/><polygon fill="#181818" points="543.77,160,534.77,156,538.77,160,534.77,164,543.77,160" style="stroke:#181818;stroke-width:1.0;"/><text fill="#000000" font-family="sans-serif" font-size="13" lengthAdjust="spacing" textLength="73" x="452.5" y="153.4951">ctrl pede svc</text></g><!--MD5=[0e6b031b378ab8978eaa734a548bdfb6]
link S4 to S5--><g id="link_S4_S5"><path d="M594.05,160 C636.65,160 723.04,160 768.87,160 " fill="none" id="S4-to-S5" style="stroke:#181818;stroke-width:1.0;"/><polygon fill="#181818" points="773.98,160,764.98,156,768.98,160,764.98,164,773.98,160" style="stroke:#181818;stroke-width:1.0;"/><text fill="#000000" font-family="sans-serif" font-size="13" lengthAdjust="spacing" textLength="143" x="612.5" y="153.4951">pedido para gerar token?</text></g><!--MD5=[fbbaccf66b39cd300d5a7ba3049db90f]
link S5 to S0--><g id="link_S5_S0"><path d="M773.8,148.85 C716.68,125.86 577.58,69.86 516.08,45.11 " fill="none" id="S5-to-S0" style="stroke:#181818;stroke-width:1.0;"/><polygon fill="#181818" points="511.09,43.1,517.942,50.1746,515.7274,44.9692,520.9328,42.7547,511.09,43.1" style="stroke:#181818;stroke-width:1.0;"/><text fill="#000000" font-family="sans-serif" font-size="13" lengthAdjust="spacing" textLength="68" x="663" y="101.4951">retorna nulo</text></g><!--MD5=[9a1decb07fdca87444298db88ae68821]
link S5 to S6--><g id="link_S5_S6"><path d="M824.11,160 C849.62,160 889.17,160 916.48,160 " fill="none" id="S5-to-S6" style="stroke:#181818;stroke-width:1.0;"/><polygon fill="#181818" points="921.77,160,912.77,156,916.77,160,912.77,164,921.77,160" style="stroke:#181818;stroke-width:1.0;"/><text fill="#000000" font-family="sans-serif" font-size="13" lengthAdjust="spacing" textLength="61" x="842.5" y="153.4951">gera token</text></g><!--MD5=[0bf91d645e85507b5c9d0e33b6942522]
link S6 to S0--><g id="link_S6_S0"><path d="M921.83,149.1 C883.19,134.15 806.7,105.61 740,87 C660.19,64.73 564.05,46.6 516.17,38.15 " fill="none" id="S6-to-S0" style="stroke:#181818;stroke-width:1.0;"/><polygon fill="#181818" points="511.13,37.26,519.2961,42.7659,516.0536,38.1306,520.689,34.8881,511.13,37.26" style="stroke:#181818;stroke-width:1.0;"/><text fill="#000000" font-family="sans-serif" font-size="13" lengthAdjust="spacing" textLength="76" x="798" y="101.4951">retorna token</text></g><!--MD5=[ac1825f8149d0ff8baa8578cf85c9c49]
@startuml me

[*] -> S0
S0 - -> S1 : pede geração token
S1 -> S2 : svc encaminha para A&A?
S2 - -> S0 : não
S2 -> S3 : pede ctrl
S3 -> S4 : ctrl pede svc
S4 -> S5 : pedido para gerar token?
S5 -> S0 : retorna nulo
S5 -> S6 : gera token
S6 - -> S0: retorna token

@enduml

PlantUML version 1.2022.7(Mon Aug 22 18:01:30 WEST 2022)
(GPL source distribution)
Java Runtime: Java(TM) SE Runtime Environment
JVM: Java HotSpot(TM) 64-Bit Server VM
Default Encoding: Cp1252
Language: en
Country: US
--></g></svg>