<?xml version="1.0" encoding="UTF-8" standalone="no"?><svg xmlns="http://www.w3.org/2000/svg" xmlns:xlink="http://www.w3.org/1999/xlink" contentStyleType="text/css" height="445px" preserveAspectRatio="none" style="width:536px;height:445px;background:#FFFFFF;" version="1.1" viewBox="0 0 536 445" width="536px" zoomAndPan="magnify"><defs/><g><rect fill="#FFFFFF" height="351.7031" style="stroke:#181818;stroke-width:1.0;" width="10" x="36.5" y="47.6094"/><rect fill="#FFFFFF" height="329.3516" style="stroke:#181818;stroke-width:1.0;" width="10" x="169.5" y="69.9609"/><rect fill="#FFFFFF" height="239.2969" style="stroke:#181818;stroke-width:1.0;" width="10" x="325.5" y="161.0156"/><rect fill="#FFFFFF" height="30.3516" style="stroke:#181818;stroke-width:1.0;" width="10" x="438.5" y="100.3125"/><rect fill="#FFFFFF" height="30.3516" style="stroke:#181818;stroke-width:1.0;" width="10" x="497" y="191.3672"/><rect fill="none" height="155.5938" style="stroke:#000000;stroke-width:1.5;" width="361" x="10" y="236.7188"/><line style="stroke:#181818;stroke-width:0.5;stroke-dasharray:5.0,5.0;" x1="41" x2="41" y1="37.6094" y2="409.3125"/><line style="stroke:#181818;stroke-width:0.5;stroke-dasharray:5.0,5.0;" x1="174.5" x2="174.5" y1="37.6094" y2="409.3125"/><line style="stroke:#181818;stroke-width:0.5;stroke-dasharray:5.0,5.0;" x1="330" x2="330" y1="37.6094" y2="409.3125"/><line style="stroke:#181818;stroke-width:0.5;stroke-dasharray:5.0,5.0;" x1="443" x2="443" y1="37.6094" y2="409.3125"/><line style="stroke:#181818;stroke-width:0.5;stroke-dasharray:5.0,5.0;" x1="502" x2="502" y1="37.6094" y2="409.3125"/><rect fill="#E2E2F0" height="31.6094" rx="2.5" ry="2.5" style="stroke:#181818;stroke-width:0.5;" width="43" x="20" y="5"/><text fill="#000000" font-family="sans-serif" font-size="14" lengthAdjust="spacing" textLength="29" x="27" y="26.5332">View</text><rect fill="#E2E2F0" height="31.6094" rx="2.5" ry="2.5" style="stroke:#181818;stroke-width:0.5;" width="43" x="20" y="408.3125"/><text fill="#000000" font-family="sans-serif" font-size="14" lengthAdjust="spacing" textLength="29" x="27" y="429.8457">View</text><rect fill="#E2E2F0" height="31.6094" rx="2.5" ry="2.5" style="stroke:#181818;stroke-width:0.5;" width="76" x="136.5" y="5"/><text fill="#000000" font-family="sans-serif" font-size="14" lengthAdjust="spacing" textLength="62" x="143.5" y="26.5332">Controller</text><rect fill="#E2E2F0" height="31.6094" rx="2.5" ry="2.5" style="stroke:#181818;stroke-width:0.5;" width="76" x="136.5" y="408.3125"/><text fill="#000000" font-family="sans-serif" font-size="14" lengthAdjust="spacing" textLength="62" x="143.5" y="429.8457">Controller</text><rect fill="#E2E2F0" height="31.6094" rx="2.5" ry="2.5" style="stroke:#181818;stroke-width:0.5;" width="61" x="300" y="5"/><text fill="#000000" font-family="sans-serif" font-size="14" lengthAdjust="spacing" textLength="47" x="307" y="26.5332">Service</text><rect fill="#E2E2F0" height="31.6094" rx="2.5" ry="2.5" style="stroke:#181818;stroke-width:0.5;" width="61" x="300" y="408.3125"/><text fill="#000000" font-family="sans-serif" font-size="14" lengthAdjust="spacing" textLength="47" x="307" y="429.8457">Service</text><rect fill="#E2E2F0" height="31.6094" rx="2.5" ry="2.5" style="stroke:#181818;stroke-width:0.5;" width="41" x="423" y="5"/><text fill="#000000" font-family="sans-serif" font-size="14" lengthAdjust="spacing" textLength="27" x="430" y="26.5332">Piso</text><rect fill="#E2E2F0" height="31.6094" rx="2.5" ry="2.5" style="stroke:#181818;stroke-width:0.5;" width="41" x="423" y="408.3125"/><text fill="#000000" font-family="sans-serif" font-size="14" lengthAdjust="spacing" textLength="27" x="430" y="429.8457">Piso</text><rect fill="#E2E2F0" height="31.6094" rx="2.5" ry="2.5" style="stroke:#181818;stroke-width:0.5;" width="56" x="474" y="5"/><text fill="#000000" font-family="sans-serif" font-size="14" lengthAdjust="spacing" textLength="42" x="481" y="26.5332">MDGD</text><rect fill="#E2E2F0" height="31.6094" rx="2.5" ry="2.5" style="stroke:#181818;stroke-width:0.5;" width="56" x="474" y="408.3125"/><text fill="#000000" font-family="sans-serif" font-size="14" lengthAdjust="spacing" textLength="42" x="481" y="429.8457">MDGD</text><rect fill="#FFFFFF" height="351.7031" style="stroke:#181818;stroke-width:1.0;" width="10" x="36.5" y="47.6094"/><rect fill="#FFFFFF" height="329.3516" style="stroke:#181818;stroke-width:1.0;" width="10" x="169.5" y="69.9609"/><rect fill="#FFFFFF" height="239.2969" style="stroke:#181818;stroke-width:1.0;" width="10" x="325.5" y="161.0156"/><rect fill="#FFFFFF" height="30.3516" style="stroke:#181818;stroke-width:1.0;" width="10" x="438.5" y="100.3125"/><rect fill="#FFFFFF" height="30.3516" style="stroke:#181818;stroke-width:1.0;" width="10" x="497" y="191.3672"/><polygon fill="#181818" points="157.5,65.9609,167.5,69.9609,157.5,73.9609,161.5,69.9609" style="stroke:#181818;stroke-width:1.0;"/><line style="stroke:#181818;stroke-width:1.0;" x1="46.5" x2="163.5" y1="69.9609" y2="69.9609"/><text fill="#000000" font-family="sans-serif" font-size="13" lengthAdjust="spacing" textLength="70" x="53.5" y="65.1045">createPiso()</text><polygon fill="#181818" points="426.5,96.3125,436.5,100.3125,426.5,104.3125,430.5,100.3125" style="stroke:#181818;stroke-width:1.0;"/><line style="stroke:#181818;stroke-width:1.0;" x1="179.5" x2="432.5" y1="100.3125" y2="100.3125"/><text fill="#000000" font-family="sans-serif" font-size="13" lengthAdjust="spacing" textLength="240" x="186.5" y="95.4561">createPiso(descricao,designacao,edificio)</text><polygon fill="#181818" points="190.5,126.6641,180.5,130.6641,190.5,134.6641,186.5,130.6641" style="stroke:#181818;stroke-width:1.0;"/><line style="stroke:#181818;stroke-width:1.0;stroke-dasharray:2.0,2.0;" x1="184.5" x2="442.5" y1="130.6641" y2="130.6641"/><text fill="#000000" font-family="sans-serif" font-size="13" lengthAdjust="spacing" textLength="24" x="196.5" y="125.8076">piso</text><polygon fill="#181818" points="313.5,157.0156,323.5,161.0156,313.5,165.0156,317.5,161.0156" style="stroke:#181818;stroke-width:1.0;"/><line style="stroke:#181818;stroke-width:1.0;" x1="179.5" x2="319.5" y1="161.0156" y2="161.0156"/><text fill="#000000" font-family="sans-serif" font-size="13" lengthAdjust="spacing" textLength="58" x="186.5" y="156.1592">save(piso)</text><polygon fill="#181818" points="485,187.3672,495,191.3672,485,195.3672,489,191.3672" style="stroke:#181818;stroke-width:1.0;"/><line style="stroke:#181818;stroke-width:1.0;" x1="335.5" x2="491" y1="191.3672" y2="191.3672"/><text fill="#000000" font-family="sans-serif" font-size="13" lengthAdjust="spacing" textLength="99" x="342.5" y="186.5107">POST piso {json}</text><polygon fill="#181818" points="346.5,217.7188,336.5,221.7188,346.5,225.7188,342.5,221.7188" style="stroke:#181818;stroke-width:1.0;"/><line style="stroke:#181818;stroke-width:1.0;stroke-dasharray:2.0,2.0;" x1="340.5" x2="501" y1="221.7188" y2="221.7188"/><text fill="#000000" font-family="sans-serif" font-size="13" lengthAdjust="spacing" textLength="91" x="352.5" y="216.8623">Resposta HTTP</text><path d="M10,236.7188 L71,236.7188 L71,245.0703 L61,255.0703 L10,255.0703 L10,236.7188 " fill="#EEEEEE" style="stroke:#000000;stroke-width:1.5;"/><rect fill="none" height="155.5938" style="stroke:#000000;stroke-width:1.5;" width="361" x="10" y="236.7188"/><text fill="#000000" font-family="sans-serif" font-size="13" font-weight="bold" lengthAdjust="spacing" textLength="16" x="25" y="251.2139">alt</text><text fill="#000000" font-family="sans-serif" font-size="11" font-weight="bold" lengthAdjust="spacing" textLength="56" x="86" y="250.1377">[sucesso]</text><polygon fill="#181818" points="190.5,273.4219,180.5,277.4219,190.5,281.4219,186.5,277.4219" style="stroke:#181818;stroke-width:1.0;"/><line style="stroke:#181818;stroke-width:1.0;stroke-dasharray:2.0,2.0;" x1="184.5" x2="324.5" y1="277.4219" y2="277.4219"/><text fill="#000000" font-family="sans-serif" font-size="13" lengthAdjust="spacing" textLength="57" x="196.5" y="272.5654">HTTP 200</text><polygon fill="#181818" points="57.5,303.7734,47.5,307.7734,57.5,311.7734,53.5,307.7734" style="stroke:#181818;stroke-width:1.0;"/><line style="stroke:#181818;stroke-width:1.0;stroke-dasharray:2.0,2.0;" x1="51.5" x2="168.5" y1="307.7734" y2="307.7734"/><text fill="#000000" font-family="sans-serif" font-size="13" lengthAdjust="spacing" textLength="99" x="63.5" y="302.917">Envia Mensagem</text><line style="stroke:#000000;stroke-width:1.0;stroke-dasharray:2.0,2.0;" x1="10" x2="371" y1="316.7734" y2="316.7734"/><text fill="#000000" font-family="sans-serif" font-size="11" font-weight="bold" lengthAdjust="spacing" textLength="66" x="15" y="328.1924">[insucesso]</text><polygon fill="#181818" points="190.5,349.9609,180.5,353.9609,190.5,357.9609,186.5,353.9609" style="stroke:#181818;stroke-width:1.0;"/><line style="stroke:#181818;stroke-width:1.0;stroke-dasharray:2.0,2.0;" x1="184.5" x2="324.5" y1="353.9609" y2="353.9609"/><text fill="#000000" font-family="sans-serif" font-size="13" lengthAdjust="spacing" textLength="122" x="196.5" y="349.1045">HTTP 4xx / HTTP500</text><polygon fill="#181818" points="57.5,380.3125,47.5,384.3125,57.5,388.3125,53.5,384.3125" style="stroke:#181818;stroke-width:1.0;"/><line style="stroke:#181818;stroke-width:1.0;stroke-dasharray:2.0,2.0;" x1="51.5" x2="168.5" y1="384.3125" y2="384.3125"/><text fill="#000000" font-family="sans-serif" font-size="13" lengthAdjust="spacing" textLength="99" x="63.5" y="379.4561">Envia Mensagem</text><!--MD5=[4393e2174a8e16082010f2da85bc6186]
@startuml vp3
participant View as view
participant Controller as ctrl
participant Service as svc
participant Piso as model
participant MDGD as be

activate view
view -> ctrl : createPiso()
activate ctrl
ctrl -> model : createPiso(descricao,designacao,edificio)
activate model
model - -> ctrl : piso
deactivate model
ctrl -> svc: save(piso)
activate svc
svc -> be: POST piso {json}
activate be
be - -> svc : Resposta HTTP
deactivate be
alt sucesso 
svc - -> ctrl : HTTP 200
ctrl - -> view : Envia Mensagem
else insucesso
svc - -> ctrl : HTTP 4xx / HTTP500
ctrl - -> view : Envia Mensagem
end
deactivate view
deactivate ctrl
@enduml

PlantUML version 1.2022.7(Mon Aug 22 18:01:30 BST 2022)
(GPL source distribution)
Java Runtime: OpenJDK Runtime Environment
JVM: OpenJDK 64-Bit Server VM
Default Encoding: Cp1252
Language: pt
Country: PT
--></g></svg>