<?xml version="1.0" encoding="UTF-8" standalone="no"?><svg xmlns="http://www.w3.org/2000/svg" xmlns:xlink="http://www.w3.org/1999/xlink" contentStyleType="text/css" height="840px" preserveAspectRatio="none" style="width:1299px;height:840px;background:#FFFFFF;" version="1.1" viewBox="0 0 1299 840" width="1299px" zoomAndPan="magnify"><defs/><g><rect fill="#FFFFFF" height="747.2734" style="stroke:#181818;stroke-width:1.0;" width="10" x="41" y="47.6094"/><rect fill="#FFFFFF" height="723.9219" style="stroke:#181818;stroke-width:1.0;" width="10" x="300" y="69.9609"/><rect fill="#FFFFFF" height="515.9766" style="stroke:#181818;stroke-width:1.0;" width="10" x="521" y="161.0156"/><rect fill="#FFFFFF" height="273.1641" style="stroke:#181818;stroke-width:1.0;" width="10" x="713" y="312.7734"/><rect fill="#FFFFFF" height="30.3516" style="stroke:#181818;stroke-width:1.0;" width="10" x="899" y="403.8281"/><rect fill="#FFFFFF" height="30.3516" style="stroke:#181818;stroke-width:1.0;" width="10" x="899" y="525.2344"/><rect fill="#FFFFFF" height="30.3516" style="stroke:#181818;stroke-width:1.0;" width="10" x="899" y="616.2891"/><rect fill="#FFFFFF" height="30.3516" style="stroke:#181818;stroke-width:1.0;" width="10" x="1034.5" y="464.5313"/><rect fill="#FFFFFF" height="30.3516" style="stroke:#181818;stroke-width:1.0;" width="10" x="1169" y="100.3125"/><rect fill="#FFFFFF" height="30.3516" style="stroke:#181818;stroke-width:1.0;" width="10" x="1169" y="191.3672"/><rect fill="#FFFFFF" height="30.3516" style="stroke:#181818;stroke-width:1.0;" width="10" x="1169" y="343.125"/><rect fill="#FFFFFF" height="30.3516" style="stroke:#181818;stroke-width:1.0;" width="10" x="1264" y="252.0703"/><rect fill="none" height="94.8906" style="stroke:#000000;stroke-width:1.5;" width="374" x="10" y="691.9922"/><line style="stroke:#181818;stroke-width:0.5;stroke-dasharray:5.0,5.0;" x1="46" x2="46" y1="37.6094" y2="803.8828"/><line style="stroke:#181818;stroke-width:0.5;stroke-dasharray:5.0,5.0;" x1="305" x2="305" y1="37.6094" y2="803.8828"/><line style="stroke:#181818;stroke-width:0.5;stroke-dasharray:5.0,5.0;" x1="525.5" x2="525.5" y1="37.6094" y2="803.8828"/><line style="stroke:#181818;stroke-width:0.5;stroke-dasharray:5.0,5.0;" x1="718" x2="718" y1="37.6094" y2="803.8828"/><line style="stroke:#181818;stroke-width:0.5;stroke-dasharray:5.0,5.0;" x1="904" x2="904" y1="37.6094" y2="803.8828"/><line style="stroke:#181818;stroke-width:0.5;stroke-dasharray:5.0,5.0;" x1="1039" x2="1039" y1="37.6094" y2="803.8828"/><line style="stroke:#181818;stroke-width:0.5;stroke-dasharray:5.0,5.0;" x1="1174" x2="1174" y1="37.6094" y2="803.8828"/><line style="stroke:#181818;stroke-width:0.5;stroke-dasharray:5.0,5.0;" x1="1269" x2="1269" y1="37.6094" y2="803.8828"/><rect fill="#E2E2F0" height="31.6094" rx="2.5" ry="2.5" style="stroke:#181818;stroke-width:0.5;" width="52" x="20" y="5"/><text fill="#000000" font-family="sans-serif" font-size="14" lengthAdjust="spacing" textLength="38" x="27" y="26.5332">Route</text><rect fill="#E2E2F0" height="31.6094" rx="2.5" ry="2.5" style="stroke:#181818;stroke-width:0.5;" width="52" x="20" y="802.8828"/><text fill="#000000" font-family="sans-serif" font-size="14" lengthAdjust="spacing" textLength="38" x="27" y="824.416">Route</text><rect fill="#E2E2F0" height="31.6094" rx="2.5" ry="2.5" style="stroke:#181818;stroke-width:0.5;" width="138" x="236" y="5"/><text fill="#000000" font-family="sans-serif" font-size="14" lengthAdjust="spacing" textLength="124" x="243" y="26.5332">TipoRoboController</text><rect fill="#E2E2F0" height="31.6094" rx="2.5" ry="2.5" style="stroke:#181818;stroke-width:0.5;" width="138" x="236" y="802.8828"/><text fill="#000000" font-family="sans-serif" font-size="14" lengthAdjust="spacing" textLength="124" x="243" y="824.416">TipoRoboController</text><rect fill="#E2E2F0" height="31.6094" rx="2.5" ry="2.5" style="stroke:#181818;stroke-width:0.5;" width="123" x="464.5" y="5"/><text fill="#000000" font-family="sans-serif" font-size="14" lengthAdjust="spacing" textLength="109" x="471.5" y="26.5332">TipoRoboService</text><rect fill="#E2E2F0" height="31.6094" rx="2.5" ry="2.5" style="stroke:#181818;stroke-width:0.5;" width="123" x="464.5" y="802.8828"/><text fill="#000000" font-family="sans-serif" font-size="14" lengthAdjust="spacing" textLength="109" x="471.5" y="824.416">TipoRoboService</text><rect fill="#E2E2F0" height="31.6094" rx="2.5" ry="2.5" style="stroke:#181818;stroke-width:0.5;" width="110" x="663" y="5"/><text fill="#000000" font-family="sans-serif" font-size="14" lengthAdjust="spacing" textLength="96" x="670" y="26.5332">TipoRoboRepo</text><rect fill="#E2E2F0" height="31.6094" rx="2.5" ry="2.5" style="stroke:#181818;stroke-width:0.5;" width="110" x="663" y="802.8828"/><text fill="#000000" font-family="sans-serif" font-size="14" lengthAdjust="spacing" textLength="96" x="670" y="824.416">TipoRoboRepo</text><rect fill="#E2E2F0" height="31.6094" rx="2.5" ry="2.5" style="stroke:#181818;stroke-width:0.5;" width="124" x="842" y="5"/><text fill="#000000" font-family="sans-serif" font-size="14" lengthAdjust="spacing" textLength="110" x="849" y="26.5332">TipoRoboMapper</text><rect fill="#E2E2F0" height="31.6094" rx="2.5" ry="2.5" style="stroke:#181818;stroke-width:0.5;" width="124" x="842" y="802.8828"/><text fill="#000000" font-family="sans-serif" font-size="14" lengthAdjust="spacing" textLength="110" x="849" y="824.416">TipoRoboMapper</text><rect fill="#E2E2F0" height="31.6094" rx="2.5" ry="2.5" style="stroke:#181818;stroke-width:0.5;" width="127" x="976" y="5"/><text fill="#000000" font-family="sans-serif" font-size="14" lengthAdjust="spacing" textLength="113" x="983" y="26.5332">TipoRoboSchema</text><rect fill="#E2E2F0" height="31.6094" rx="2.5" ry="2.5" style="stroke:#181818;stroke-width:0.5;" width="127" x="976" y="802.8828"/><text fill="#000000" font-family="sans-serif" font-size="14" lengthAdjust="spacing" textLength="113" x="983" y="824.416">TipoRoboSchema</text><rect fill="#E2E2F0" height="31.6094" rx="2.5" ry="2.5" style="stroke:#181818;stroke-width:0.5;" width="122" x="1113" y="5"/><text fill="#000000" font-family="sans-serif" font-size="14" lengthAdjust="spacing" textLength="108" x="1120" y="26.5332">ConfigurationFile</text><rect fill="#E2E2F0" height="31.6094" rx="2.5" ry="2.5" style="stroke:#181818;stroke-width:0.5;" width="122" x="1113" y="802.8828"/><text fill="#000000" font-family="sans-serif" font-size="14" lengthAdjust="spacing" textLength="108" x="1120" y="824.416">ConfigurationFile</text><rect fill="#E2E2F0" height="31.6094" rx="2.5" ry="2.5" style="stroke:#181818;stroke-width:0.5;" width="48" x="1245" y="5"/><text fill="#000000" font-family="sans-serif" font-size="14" lengthAdjust="spacing" textLength="34" x="1252" y="26.5332">Robo</text><rect fill="#E2E2F0" height="31.6094" rx="2.5" ry="2.5" style="stroke:#181818;stroke-width:0.5;" width="48" x="1245" y="802.8828"/><text fill="#000000" font-family="sans-serif" font-size="14" lengthAdjust="spacing" textLength="34" x="1252" y="824.416">Robo</text><rect fill="#FFFFFF" height="747.2734" style="stroke:#181818;stroke-width:1.0;" width="10" x="41" y="47.6094"/><rect fill="#FFFFFF" height="723.9219" style="stroke:#181818;stroke-width:1.0;" width="10" x="300" y="69.9609"/><rect fill="#FFFFFF" height="515.9766" style="stroke:#181818;stroke-width:1.0;" width="10" x="521" y="161.0156"/><rect fill="#FFFFFF" height="273.1641" style="stroke:#181818;stroke-width:1.0;" width="10" x="713" y="312.7734"/><rect fill="#FFFFFF" height="30.3516" style="stroke:#181818;stroke-width:1.0;" width="10" x="899" y="403.8281"/><rect fill="#FFFFFF" height="30.3516" style="stroke:#181818;stroke-width:1.0;" width="10" x="899" y="525.2344"/><rect fill="#FFFFFF" height="30.3516" style="stroke:#181818;stroke-width:1.0;" width="10" x="899" y="616.2891"/><rect fill="#FFFFFF" height="30.3516" style="stroke:#181818;stroke-width:1.0;" width="10" x="1034.5" y="464.5313"/><rect fill="#FFFFFF" height="30.3516" style="stroke:#181818;stroke-width:1.0;" width="10" x="1169" y="100.3125"/><rect fill="#FFFFFF" height="30.3516" style="stroke:#181818;stroke-width:1.0;" width="10" x="1169" y="191.3672"/><rect fill="#FFFFFF" height="30.3516" style="stroke:#181818;stroke-width:1.0;" width="10" x="1169" y="343.125"/><rect fill="#FFFFFF" height="30.3516" style="stroke:#181818;stroke-width:1.0;" width="10" x="1264" y="252.0703"/><polygon fill="#181818" points="288,65.9609,298,69.9609,288,73.9609,292,69.9609" style="stroke:#181818;stroke-width:1.0;"/><line style="stroke:#181818;stroke-width:1.0;" x1="51" x2="294" y1="69.9609" y2="69.9609"/><text fill="#000000" font-family="sans-serif" font-size="13" font-weight="bold" lengthAdjust="spacing" textLength="7" x="58" y="65.1045">1</text><text fill="#000000" font-family="sans-serif" font-size="13" lengthAdjust="spacing" textLength="97" x="69" y="65.1045">criar tipo de robo</text><polygon fill="#181818" points="1157,96.3125,1167,100.3125,1157,104.3125,1161,100.3125" style="stroke:#181818;stroke-width:1.0;"/><line style="stroke:#181818;stroke-width:1.0;" x1="310" x2="1163" y1="100.3125" y2="100.3125"/><text fill="#000000" font-family="sans-serif" font-size="13" font-weight="bold" lengthAdjust="spacing" textLength="7" x="317" y="95.4561">2</text><text fill="#000000" font-family="sans-serif" font-size="13" lengthAdjust="spacing" textLength="176" x="328" y="95.4561">injeta o serviço do tipo de robo</text><polygon fill="#181818" points="321,126.6641,311,130.6641,321,134.6641,317,130.6641" style="stroke:#181818;stroke-width:1.0;"/><line style="stroke:#181818;stroke-width:1.0;stroke-dasharray:2.0,2.0;" x1="315" x2="1173" y1="130.6641" y2="130.6641"/><text fill="#000000" font-family="sans-serif" font-size="13" font-weight="bold" lengthAdjust="spacing" textLength="7" x="327" y="125.8076">3</text><text fill="#000000" font-family="sans-serif" font-size="13" lengthAdjust="spacing" textLength="4" x="338" y="125.8076"> </text><polygon fill="#181818" points="509,157.0156,519,161.0156,509,165.0156,513,161.0156" style="stroke:#181818;stroke-width:1.0;"/><line style="stroke:#181818;stroke-width:1.0;" x1="310" x2="515" y1="161.0156" y2="161.0156"/><text fill="#000000" font-family="sans-serif" font-size="13" font-weight="bold" lengthAdjust="spacing" textLength="7" x="317" y="156.1592">4</text><text fill="#000000" font-family="sans-serif" font-size="13" lengthAdjust="spacing" textLength="181" x="328" y="156.1592">createTipoRobo(ITipoRoboDTO)</text><polygon fill="#181818" points="1157,187.3672,1167,191.3672,1157,195.3672,1161,191.3672" style="stroke:#181818;stroke-width:1.0;"/><line style="stroke:#181818;stroke-width:1.0;" x1="531" x2="1163" y1="191.3672" y2="191.3672"/><text fill="#000000" font-family="sans-serif" font-size="13" font-weight="bold" lengthAdjust="spacing" textLength="7" x="538" y="186.5107">5</text><text fill="#000000" font-family="sans-serif" font-size="13" lengthAdjust="spacing" textLength="196" x="549" y="186.5107">injeta o repositório do tipo de robo</text><polygon fill="#181818" points="542,217.7188,532,221.7188,542,225.7188,538,221.7188" style="stroke:#181818;stroke-width:1.0;"/><line style="stroke:#181818;stroke-width:1.0;stroke-dasharray:2.0,2.0;" x1="536" x2="1173" y1="221.7188" y2="221.7188"/><text fill="#000000" font-family="sans-serif" font-size="13" font-weight="bold" lengthAdjust="spacing" textLength="7" x="548" y="216.8623">6</text><text fill="#000000" font-family="sans-serif" font-size="13" lengthAdjust="spacing" textLength="4" x="559" y="216.8623"> </text><polygon fill="#181818" points="1252,248.0703,1262,252.0703,1252,256.0703,1256,252.0703" style="stroke:#181818;stroke-width:1.0;"/><line style="stroke:#181818;stroke-width:1.0;" x1="531" x2="1258" y1="252.0703" y2="252.0703"/><text fill="#000000" font-family="sans-serif" font-size="13" font-weight="bold" lengthAdjust="spacing" textLength="7" x="538" y="247.2139">7</text><text fill="#000000" font-family="sans-serif" font-size="13" lengthAdjust="spacing" textLength="188" x="549" y="247.2139">tipoRobo = create(tipoRoboDTO)</text><polygon fill="#181818" points="542,278.4219,532,282.4219,542,286.4219,538,282.4219" style="stroke:#181818;stroke-width:1.0;"/><line style="stroke:#181818;stroke-width:1.0;stroke-dasharray:2.0,2.0;" x1="536" x2="1268" y1="282.4219" y2="282.4219"/><text fill="#000000" font-family="sans-serif" font-size="13" font-weight="bold" lengthAdjust="spacing" textLength="7" x="548" y="277.5654">8</text><text fill="#000000" font-family="sans-serif" font-size="13" lengthAdjust="spacing" textLength="4" x="559" y="277.5654"> </text><polygon fill="#181818" points="701,308.7734,711,312.7734,701,316.7734,705,312.7734" style="stroke:#181818;stroke-width:1.0;"/><line style="stroke:#181818;stroke-width:1.0;" x1="531" x2="707" y1="312.7734" y2="312.7734"/><text fill="#000000" font-family="sans-serif" font-size="13" font-weight="bold" lengthAdjust="spacing" textLength="7" x="538" y="307.917">9</text><text fill="#000000" font-family="sans-serif" font-size="13" lengthAdjust="spacing" textLength="152" x="549" y="307.917">tipoRobo = save(tipoRobo)</text><polygon fill="#181818" points="1157,339.125,1167,343.125,1157,347.125,1161,343.125" style="stroke:#181818;stroke-width:1.0;"/><line style="stroke:#181818;stroke-width:1.0;" x1="723" x2="1163" y1="343.125" y2="343.125"/><text fill="#000000" font-family="sans-serif" font-size="13" font-weight="bold" lengthAdjust="spacing" textLength="14" x="730" y="338.2686">10</text><text fill="#000000" font-family="sans-serif" font-size="13" lengthAdjust="spacing" textLength="165" x="748" y="338.2686">injeta o schema do tipoRobo</text><polygon fill="#181818" points="734,369.4766,724,373.4766,734,377.4766,730,373.4766" style="stroke:#181818;stroke-width:1.0;"/><line style="stroke:#181818;stroke-width:1.0;stroke-dasharray:2.0,2.0;" x1="728" x2="1173" y1="373.4766" y2="373.4766"/><text fill="#000000" font-family="sans-serif" font-size="13" font-weight="bold" lengthAdjust="spacing" textLength="14" x="740" y="368.6201">11</text><text fill="#000000" font-family="sans-serif" font-size="13" lengthAdjust="spacing" textLength="4" x="758" y="368.6201"> </text><polygon fill="#181818" points="887,399.8281,897,403.8281,887,407.8281,891,403.8281" style="stroke:#181818;stroke-width:1.0;"/><line style="stroke:#181818;stroke-width:1.0;" x1="723" x2="893" y1="403.8281" y2="403.8281"/><text fill="#000000" font-family="sans-serif" font-size="13" font-weight="bold" lengthAdjust="spacing" textLength="14" x="730" y="398.9717">12</text><text fill="#000000" font-family="sans-serif" font-size="13" lengthAdjust="spacing" textLength="139" x="748" y="398.9717">toPersistence(tipoRobo)</text><polygon fill="#181818" points="734,430.1797,724,434.1797,734,438.1797,730,434.1797" style="stroke:#181818;stroke-width:1.0;"/><line style="stroke:#181818;stroke-width:1.0;stroke-dasharray:2.0,2.0;" x1="728" x2="903" y1="434.1797" y2="434.1797"/><text fill="#000000" font-family="sans-serif" font-size="13" font-weight="bold" lengthAdjust="spacing" textLength="14" x="740" y="429.3232">13</text><text fill="#000000" font-family="sans-serif" font-size="13" lengthAdjust="spacing" textLength="4" x="758" y="429.3232"> </text><polygon fill="#181818" points="1022.5,460.5313,1032.5,464.5313,1022.5,468.5313,1026.5,464.5313" style="stroke:#181818;stroke-width:1.0;"/><line style="stroke:#181818;stroke-width:1.0;" x1="723" x2="1028.5" y1="464.5313" y2="464.5313"/><text fill="#000000" font-family="sans-serif" font-size="13" font-weight="bold" lengthAdjust="spacing" textLength="14" x="730" y="459.6748">14</text><text fill="#000000" font-family="sans-serif" font-size="13" lengthAdjust="spacing" textLength="95" x="748" y="459.6748">create(tipoRobo)</text><polygon fill="#181818" points="734,490.8828,724,494.8828,734,498.8828,730,494.8828" style="stroke:#181818;stroke-width:1.0;"/><line style="stroke:#181818;stroke-width:1.0;stroke-dasharray:2.0,2.0;" x1="728" x2="1038.5" y1="494.8828" y2="494.8828"/><text fill="#000000" font-family="sans-serif" font-size="13" font-weight="bold" lengthAdjust="spacing" textLength="14" x="740" y="490.0264">15</text><text fill="#000000" font-family="sans-serif" font-size="13" lengthAdjust="spacing" textLength="4" x="758" y="490.0264"> </text><polygon fill="#181818" points="887,521.2344,897,525.2344,887,529.2344,891,525.2344" style="stroke:#181818;stroke-width:1.0;"/><line style="stroke:#181818;stroke-width:1.0;" x1="723" x2="893" y1="525.2344" y2="525.2344"/><text fill="#000000" font-family="sans-serif" font-size="13" font-weight="bold" lengthAdjust="spacing" textLength="14" x="730" y="520.3779">16</text><text fill="#000000" font-family="sans-serif" font-size="13" lengthAdjust="spacing" textLength="114" x="748" y="520.3779">toDomain(tipoRobo)</text><polygon fill="#181818" points="734,551.5859,724,555.5859,734,559.5859,730,555.5859" style="stroke:#181818;stroke-width:1.0;"/><line style="stroke:#181818;stroke-width:1.0;stroke-dasharray:2.0,2.0;" x1="728" x2="903" y1="555.5859" y2="555.5859"/><text fill="#000000" font-family="sans-serif" font-size="13" font-weight="bold" lengthAdjust="spacing" textLength="14" x="740" y="550.7295">17</text><text fill="#000000" font-family="sans-serif" font-size="13" lengthAdjust="spacing" textLength="4" x="758" y="550.7295"> </text><polygon fill="#181818" points="542,581.9375,532,585.9375,542,589.9375,538,585.9375" style="stroke:#181818;stroke-width:1.0;"/><line style="stroke:#181818;stroke-width:1.0;stroke-dasharray:2.0,2.0;" x1="536" x2="717" y1="585.9375" y2="585.9375"/><text fill="#000000" font-family="sans-serif" font-size="13" font-weight="bold" lengthAdjust="spacing" textLength="14" x="548" y="581.0811">18</text><text fill="#000000" font-family="sans-serif" font-size="13" lengthAdjust="spacing" textLength="4" x="566" y="581.0811"> </text><polygon fill="#181818" points="887,612.2891,897,616.2891,887,620.2891,891,616.2891" style="stroke:#181818;stroke-width:1.0;"/><line style="stroke:#181818;stroke-width:1.0;" x1="531" x2="893" y1="616.2891" y2="616.2891"/><text fill="#000000" font-family="sans-serif" font-size="13" font-weight="bold" lengthAdjust="spacing" textLength="14" x="538" y="611.4326">19</text><text fill="#000000" font-family="sans-serif" font-size="13" lengthAdjust="spacing" textLength="96" x="556" y="611.4326">toDTO(tipoRobo)</text><polygon fill="#181818" points="542,642.6406,532,646.6406,542,650.6406,538,646.6406" style="stroke:#181818;stroke-width:1.0;"/><line style="stroke:#181818;stroke-width:1.0;stroke-dasharray:2.0,2.0;" x1="536" x2="903" y1="646.6406" y2="646.6406"/><text fill="#000000" font-family="sans-serif" font-size="13" font-weight="bold" lengthAdjust="spacing" textLength="14" x="548" y="641.7842">20</text><text fill="#000000" font-family="sans-serif" font-size="13" lengthAdjust="spacing" textLength="4" x="566" y="641.7842"> </text><polygon fill="#181818" points="321,672.9922,311,676.9922,321,680.9922,317,676.9922" style="stroke:#181818;stroke-width:1.0;"/><line style="stroke:#181818;stroke-width:1.0;stroke-dasharray:2.0,2.0;" x1="315" x2="525" y1="676.9922" y2="676.9922"/><text fill="#000000" font-family="sans-serif" font-size="13" font-weight="bold" lengthAdjust="spacing" textLength="14" x="327" y="672.1357">21</text><text fill="#000000" font-family="sans-serif" font-size="13" lengthAdjust="spacing" textLength="4" x="345" y="672.1357"> </text><path d="M10,691.9922 L71,691.9922 L71,700.3438 L61,710.3438 L10,710.3438 L10,691.9922 " fill="#EEEEEE" style="stroke:#000000;stroke-width:1.5;"/><rect fill="none" height="94.8906" style="stroke:#000000;stroke-width:1.5;" width="374" x="10" y="691.9922"/><text fill="#000000" font-family="sans-serif" font-size="13" font-weight="bold" lengthAdjust="spacing" textLength="16" x="25" y="706.4873">alt</text><text fill="#000000" font-family="sans-serif" font-size="11" font-weight="bold" lengthAdjust="spacing" textLength="102" x="86" y="705.4111">[caso de sucesso]</text><polygon fill="#181818" points="62,728.6953,52,732.6953,62,736.6953,58,732.6953" style="stroke:#181818;stroke-width:1.0;"/><line style="stroke:#181818;stroke-width:1.0;stroke-dasharray:2.0,2.0;" x1="56" x2="299" y1="732.6953" y2="732.6953"/><text fill="#000000" font-family="sans-serif" font-size="13" font-weight="bold" lengthAdjust="spacing" textLength="14" x="68" y="727.8389">22</text><text fill="#000000" font-family="sans-serif" font-size="13" lengthAdjust="spacing" textLength="167" x="86" y="727.8389">Envia um código 201 (POST)</text><line style="stroke:#000000;stroke-width:1.0;stroke-dasharray:2.0,2.0;" x1="10" x2="384" y1="741.6953" y2="741.6953"/><text fill="#000000" font-family="sans-serif" font-size="11" font-weight="bold" lengthAdjust="spacing" textLength="112" x="15" y="753.1143">[caso de insucesso]</text><polygon fill="#181818" points="62,774.8828,52,778.8828,62,782.8828,58,778.8828" style="stroke:#181818;stroke-width:1.0;"/><line style="stroke:#181818;stroke-width:1.0;stroke-dasharray:2.0,2.0;" x1="56" x2="299" y1="778.8828" y2="778.8828"/><text fill="#000000" font-family="sans-serif" font-size="13" font-weight="bold" lengthAdjust="spacing" textLength="14" x="68" y="774.0264">23</text><text fill="#000000" font-family="sans-serif" font-size="13" lengthAdjust="spacing" textLength="207" x="86" y="774.0264">Envia um código 404 (NOT FOUND)</text><!--MD5=[459c7592b6408acc559674815633ec25]
@startuml sd
autonumber

participant Route as route

participant TipoRoboController as ctrl

participant TipoRoboService as svc

participant TipoRoboRepo as repo
participant TipoRoboMapper as mapper

participant TipoRoboSchema as schema
participant ConfigurationFile as conf
participant Robo as model

route++
route -> ctrl : criar tipo de robo
ctrl++
ctrl -> conf : injeta o serviço do tipo de robo
conf++
conf - -> ctrl
conf- -
ctrl -> svc : createTipoRobo(ITipoRoboDTO)
svc++
svc -> conf : injeta o repositório do tipo de robo
conf++
conf - -> svc
conf- -
svc -> model : tipoRobo = create(tipoRoboDTO)
model++
model - -> svc
model- -
svc -> repo : tipoRobo = save(tipoRobo)
repo++
repo -> conf : injeta o schema do tipoRobo
conf++
conf - -> repo
conf- -
repo -> mapper : toPersistence(tipoRobo)
mapper++
mapper - -> repo
mapper- -
repo -> schema : create(tipoRobo)
schema++
schema - -> repo
schema- -
repo -> mapper : toDomain(tipoRobo)
mapper++
mapper - -> repo
mapper- -
repo - -> svc
repo- -
svc -> mapper : toDTO(tipoRobo)
mapper++
mapper - -> svc
mapper- -
svc - -> ctrl
svc- -
alt caso de sucesso
    ctrl - -> route : Envia um código 201 (POST)
else caso de insucesso
    ctrl - -> route : Envia um código 404 (NOT FOUND)
end
ctrl- -



@enduml

PlantUML version 1.2022.7(Mon Aug 22 18:01:30 BST 2022)
(GPL source distribution)
Java Runtime: OpenJDK Runtime Environment
JVM: OpenJDK 64-Bit Server VM
Default Encoding: Cp1252
Language: pt
Country: PT
--></g></svg>