<?xml version="1.0" encoding="UTF-8" standalone="no"?><svg xmlns="http://www.w3.org/2000/svg" xmlns:xlink="http://www.w3.org/1999/xlink" contentStyleType="text/css" height="191px" preserveAspectRatio="none" style="width:993px;height:191px;background:#FFFFFF;" version="1.1" viewBox="0 0 993 191" width="993px" zoomAndPan="magnify"><defs/><g><ellipse cx="421" cy="32" fill="#222222" rx="10" ry="10" style="stroke:none;stroke-width:1.0;"/><g id="S0"><rect fill="#F1F1F1" height="50" rx="12.5" ry="12.5" style="stroke:#181818;stroke-width:0.5;" width="50" x="466" y="7"/><line style="stroke:#181818;stroke-width:0.5;" x1="466" x2="516" y1="34.6094" y2="34.6094"/><text fill="#000000" font-family="sans-serif" font-size="14" lengthAdjust="spacing" textLength="17" x="482.5" y="26.5332">S0</text></g><g id="S1"><rect fill="#F1F1F1" height="50" rx="12.5" ry="12.5" style="stroke:#181818;stroke-width:0.5;" width="50" x="7" y="135"/><line style="stroke:#181818;stroke-width:0.5;" x1="7" x2="57" y1="162.6094" y2="162.6094"/><text fill="#000000" font-family="sans-serif" font-size="14" lengthAdjust="spacing" textLength="17" x="23.5" y="154.5332">S1</text></g><g id="S2"><rect fill="#F1F1F1" height="50" rx="12.5" ry="12.5" style="stroke:#181818;stroke-width:0.5;" width="50" x="247" y="135"/><line style="stroke:#181818;stroke-width:0.5;" x1="247" x2="297" y1="162.6094" y2="162.6094"/><text fill="#000000" font-family="sans-serif" font-size="14" lengthAdjust="spacing" textLength="17" x="263.5" y="154.5332">S2</text></g><g id="S3"><rect fill="#F1F1F1" height="50" rx="12.5" ry="12.5" style="stroke:#181818;stroke-width:0.5;" width="50" x="384" y="135"/><line style="stroke:#181818;stroke-width:0.5;" x1="384" x2="434" y1="162.6094" y2="162.6094"/><text fill="#000000" font-family="sans-serif" font-size="14" lengthAdjust="spacing" textLength="17" x="400.5" y="154.5332">S3</text></g><g id="S4"><rect fill="#F1F1F1" height="50" rx="12.5" ry="12.5" style="stroke:#181818;stroke-width:0.5;" width="50" x="544" y="135"/><line style="stroke:#181818;stroke-width:0.5;" x1="544" x2="594" y1="162.6094" y2="162.6094"/><text fill="#000000" font-family="sans-serif" font-size="14" lengthAdjust="spacing" textLength="17" x="560.5" y="154.5332">S4</text></g><g id="S5"><rect fill="#F1F1F1" height="50" rx="12.5" ry="12.5" style="stroke:#181818;stroke-width:0.5;" width="50" x="781" y="135"/><line style="stroke:#181818;stroke-width:0.5;" x1="781" x2="831" y1="162.6094" y2="162.6094"/><text fill="#000000" font-family="sans-serif" font-size="14" lengthAdjust="spacing" textLength="17" x="797.5" y="154.5332">S5</text></g><g id="S6"><rect fill="#F1F1F1" height="50" rx="12.5" ry="12.5" style="stroke:#181818;stroke-width:0.5;" width="50" x="936" y="135"/><line style="stroke:#181818;stroke-width:0.5;" x1="936" x2="986" y1="162.6094" y2="162.6094"/><text fill="#000000" font-family="sans-serif" font-size="14" lengthAdjust="spacing" textLength="17" x="952.5" y="154.5332">S6</text></g><!--MD5=[c847074da0bcbb1b43b6b9ca25358c35]
link *start to S0--><g id="link_*start_S0"><path d="M431.12,32 C440.94,32 450.77,32 460.6,32 " fill="none" id="*start-to-S0" style="stroke:#181818;stroke-width:1.0;"/><polygon fill="#181818" points="465.74,32,456.74,28,460.74,32,456.74,36,465.74,32" style="stroke:#181818;stroke-width:1.0;"/></g><!--MD5=[b25f8e8a4aea2acac9ced98c74b9fdde]
link S0 to S1--><g id="link_S0_S1"><path d="M465.79,49.08 C460.12,52.12 453.99,54.98 448,57 C358.67,87.15 329.6,64.67 238,87 C173.8,102.65 101.46,130.39 61.87,146.49 " fill="none" id="S0-to-S1" style="stroke:#181818;stroke-width:1.0;"/><polygon fill="#181818" points="57.21,148.39,67.054,148.6987,61.8405,146.5035,64.0356,141.29,57.21,148.39" style="stroke:#181818;stroke-width:1.0;"/><text fill="#000000" font-family="sans-serif" font-size="13" lengthAdjust="spacing" textLength="121" x="239" y="101.4951">pede validação token</text></g><!--MD5=[15cb110786dd224ca6a510a3d2a24e20]
link S1 to S2--><g id="link_S1_S2"><path d="M57.23,160 C101.7,160 193.86,160 241.7,160 " fill="none" id="S1-to-S2" style="stroke:#181818;stroke-width:1.0;"/><polygon fill="#181818" points="246.75,160,237.75,156,241.75,160,237.75,164,246.75,160" style="stroke:#181818;stroke-width:1.0;"/><text fill="#000000" font-family="sans-serif" font-size="13" lengthAdjust="spacing" textLength="153" x="75.5" y="153.4951">svc encaminha para A&amp;A?</text></g><!--MD5=[eae8e2738addec0f56eaf72bd27db6a3]
link S2 to S0--><g id="link_S2_S0"><path d="M297.17,144.52 C337.84,121.12 417.86,75.08 461.28,50.1 " fill="none" id="S2-to-S0" style="stroke:#181818;stroke-width:1.0;"/><polygon fill="#181818" points="465.88,47.45,456.0859,48.4874,461.5503,49.9507,460.087,55.415,465.88,47.45" style="stroke:#181818;stroke-width:1.0;"/><text fill="#000000" font-family="sans-serif" font-size="13" lengthAdjust="spacing" textLength="21" x="396" y="101.4951">não</text></g><!--MD5=[8eac89d31ced3c9003fbd6a8a005c745]
link S2 to S3--><g id="link_S2_S3"><path d="M297.13,160 C320.06,160 354.01,160 378.49,160 " fill="none" id="S2-to-S3" style="stroke:#181818;stroke-width:1.0;"/><polygon fill="#181818" points="383.57,160,374.57,156,378.57,160,374.57,164,383.57,160" style="stroke:#181818;stroke-width:1.0;"/><text fill="#000000" font-family="sans-serif" font-size="13" lengthAdjust="spacing" textLength="50" x="315.5" y="153.4951">pede ctrl</text></g><!--MD5=[82e284a09e4ebade00512bdc77bff32c]
link S3 to S4--><g id="link_S3_S4"><path d="M434.35,160 C462.67,160 508.5,160 538.69,160 " fill="none" id="S3-to-S4" style="stroke:#181818;stroke-width:1.0;"/><polygon fill="#181818" points="543.77,160,534.77,156,538.77,160,534.77,164,543.77,160" style="stroke:#181818;stroke-width:1.0;"/><text fill="#000000" font-family="sans-serif" font-size="13" lengthAdjust="spacing" textLength="73" x="452.5" y="153.4951">ctrl pede svc</text></g><!--MD5=[0e6b031b378ab8978eaa734a548bdfb6]
link S4 to S5--><g id="link_S4_S5"><path d="M594.36,160 C638.29,160 728.33,160 775.55,160 " fill="none" id="S4-to-S5" style="stroke:#181818;stroke-width:1.0;"/><polygon fill="#181818" points="780.82,160,771.82,156,775.82,160,771.82,164,780.82,160" style="stroke:#181818;stroke-width:1.0;"/><text fill="#000000" font-family="sans-serif" font-size="13" lengthAdjust="spacing" textLength="150" x="612.5" y="153.4951">pedido para validar token?</text></g><!--MD5=[fbbaccf66b39cd300d5a7ba3049db90f]
link S5 to S0--><g id="link_S5_S0"><path d="M780.63,148.85 C723.04,125.81 582.6,69.64 520.9,44.96 " fill="none" id="S5-to-S0" style="stroke:#181818;stroke-width:1.0;"/><polygon fill="#181818" points="516.25,43.1,523.1207,50.1564,520.8924,44.957,526.0919,42.7286,516.25,43.1" style="stroke:#181818;stroke-width:1.0;"/><text fill="#000000" font-family="sans-serif" font-size="13" lengthAdjust="spacing" textLength="68" x="669" y="101.4951">retorna nulo</text></g><!--MD5=[9a1decb07fdca87444298db88ae68821]
link S5 to S6--><g id="link_S5_S6"><path d="M831.25,160 C858.38,160 901.51,160 930.52,160 " fill="none" id="S5-to-S6" style="stroke:#181818;stroke-width:1.0;"/><polygon fill="#181818" points="935.76,160,926.76,156,930.76,160,926.76,164,935.76,160" style="stroke:#181818;stroke-width:1.0;"/><text fill="#000000" font-family="sans-serif" font-size="13" lengthAdjust="spacing" textLength="68" x="849.5" y="153.4951">valida token</text></g><!--MD5=[0bf91d645e85507b5c9d0e33b6942522]
link S6 to S0--><g id="link_S6_S0"><path d="M935.8,149.51 C895.94,134.74 815.69,105.98 746,87 C665.75,65.14 569.28,46.83 521.26,38.25 " fill="none" id="S6-to-S0" style="stroke:#181818;stroke-width:1.0;"/><polygon fill="#181818" points="516.2,37.35,524.3661,42.8559,521.1236,38.2206,525.759,34.9781,516.2,37.35" style="stroke:#181818;stroke-width:1.0;"/><text fill="#000000" font-family="sans-serif" font-size="13" lengthAdjust="spacing" textLength="97" x="806" y="101.4951">retorna validaçao</text></g><!--MD5=[92986e41fbbfb965c2e880f734507e62]
@startuml me

[*] -> S0
S0 - -> S1 : pede validação token
S1 -> S2 : svc encaminha para A&A?
S2 - -> S0 : não
S2 -> S3 : pede ctrl
S3 -> S4 : ctrl pede svc
S4 -> S5 : pedido para validar token?
S5 -> S0 : retorna nulo
S5 -> S6 : valida token
S6 - -> S0: retorna validaçao

@enduml

PlantUML version 1.2022.7(Mon Aug 22 18:01:30 WEST 2022)
(GPL source distribution)
Java Runtime: Java(TM) SE Runtime Environment
JVM: Java HotSpot(TM) 64-Bit Server VM
Default Encoding: Cp1252
Language: en
Country: US
--></g></svg>