<?xml version="1.0" encoding="UTF-8" standalone="no"?><svg xmlns="http://www.w3.org/2000/svg" xmlns:xlink="http://www.w3.org/1999/xlink" contentStyleType="text/css" height="287px" preserveAspectRatio="none" style="width:730px;height:287px;background:#FFFFFF;" version="1.1" viewBox="0 0 730 287" width="730px" zoomAndPan="magnify"><defs/><g><rect fill="#FFFFFF" height="185.7578" style="stroke:#181818;stroke-width:1.0;" width="10" x="26" y="47.6094"/><rect fill="#FFFFFF" height="14" style="stroke:#181818;stroke-width:1.0;" width="10" x="233" y="69.9609"/><rect fill="#FFFFFF" height="119.0547" style="stroke:#181818;stroke-width:1.0;" width="10" x="331" y="114.3125"/><rect fill="#FFFFFF" height="58.3516" style="stroke:#181818;stroke-width:1.0;" width="10" x="449" y="144.6641"/><rect fill="#FFFFFF" height="14" style="stroke:#181818;stroke-width:1.0;" width="10" x="610" y="175.0156"/><line style="stroke:#181818;stroke-width:0.5;stroke-dasharray:5.0,5.0;" x1="31" x2="31" y1="37.6094" y2="251.3672"/><line style="stroke:#181818;stroke-width:0.5;stroke-dasharray:5.0,5.0;" x1="237.5" x2="237.5" y1="37.6094" y2="251.3672"/><line style="stroke:#181818;stroke-width:0.5;stroke-dasharray:5.0,5.0;" x1="336" x2="336" y1="37.6094" y2="251.3672"/><line style="stroke:#181818;stroke-width:0.5;stroke-dasharray:5.0,5.0;" x1="453.5" x2="453.5" y1="37.6094" y2="251.3672"/><line style="stroke:#181818;stroke-width:0.5;stroke-dasharray:5.0,5.0;" x1="615" x2="615" y1="37.6094" y2="251.3672"/><rect fill="#E2E2F0" height="31.6094" rx="2.5" ry="2.5" style="stroke:#181818;stroke-width:0.5;" width="52" x="5" y="5"/><text fill="#000000" font-family="sans-serif" font-size="14" lengthAdjust="spacing" textLength="38" x="12" y="26.5332">Route</text><rect fill="#E2E2F0" height="31.6094" rx="2.5" ry="2.5" style="stroke:#181818;stroke-width:0.5;" width="52" x="5" y="250.3672"/><text fill="#000000" font-family="sans-serif" font-size="14" lengthAdjust="spacing" textLength="38" x="12" y="271.9004">Route</text><rect fill="#E2E2F0" height="31.6094" rx="2.5" ry="2.5" style="stroke:#181818;stroke-width:0.5;" width="41" x="217.5" y="5"/><text fill="#000000" font-family="sans-serif" font-size="14" lengthAdjust="spacing" textLength="27" x="224.5" y="26.5332">A&amp;A</text><rect fill="#E2E2F0" height="31.6094" rx="2.5" ry="2.5" style="stroke:#181818;stroke-width:0.5;" width="41" x="217.5" y="250.3672"/><text fill="#000000" font-family="sans-serif" font-size="14" lengthAdjust="spacing" textLength="27" x="224.5" y="271.9004">A&amp;A</text><rect fill="#E2E2F0" height="31.6094" rx="2.5" ry="2.5" style="stroke:#181818;stroke-width:0.5;" width="76" x="298" y="5"/><text fill="#000000" font-family="sans-serif" font-size="14" lengthAdjust="spacing" textLength="62" x="305" y="26.5332">Controller</text><rect fill="#E2E2F0" height="31.6094" rx="2.5" ry="2.5" style="stroke:#181818;stroke-width:0.5;" width="76" x="298" y="250.3672"/><text fill="#000000" font-family="sans-serif" font-size="14" lengthAdjust="spacing" textLength="62" x="305" y="271.9004">Controller</text><rect fill="#E2E2F0" height="31.6094" rx="2.5" ry="2.5" style="stroke:#181818;stroke-width:0.5;" width="61" x="423.5" y="5"/><text fill="#000000" font-family="sans-serif" font-size="14" lengthAdjust="spacing" textLength="47" x="430.5" y="26.5332">Service</text><rect fill="#E2E2F0" height="31.6094" rx="2.5" ry="2.5" style="stroke:#181818;stroke-width:0.5;" width="61" x="423.5" y="250.3672"/><text fill="#000000" font-family="sans-serif" font-size="14" lengthAdjust="spacing" textLength="47" x="430.5" y="271.9004">Service</text><rect fill="#E2E2F0" height="31.6094" rx="2.5" ry="2.5" style="stroke:#181818;stroke-width:0.5;" width="218" x="506" y="5"/><text fill="#000000" font-family="sans-serif" font-size="14" lengthAdjust="spacing" textLength="204" x="513" y="26.5332">Authentication and Authorization</text><rect fill="#E2E2F0" height="31.6094" rx="2.5" ry="2.5" style="stroke:#181818;stroke-width:0.5;" width="218" x="506" y="250.3672"/><text fill="#000000" font-family="sans-serif" font-size="14" lengthAdjust="spacing" textLength="204" x="513" y="271.9004">Authentication and Authorization</text><rect fill="#FFFFFF" height="185.7578" style="stroke:#181818;stroke-width:1.0;" width="10" x="26" y="47.6094"/><rect fill="#FFFFFF" height="14" style="stroke:#181818;stroke-width:1.0;" width="10" x="233" y="69.9609"/><rect fill="#FFFFFF" height="119.0547" style="stroke:#181818;stroke-width:1.0;" width="10" x="331" y="114.3125"/><rect fill="#FFFFFF" height="58.3516" style="stroke:#181818;stroke-width:1.0;" width="10" x="449" y="144.6641"/><rect fill="#FFFFFF" height="14" style="stroke:#181818;stroke-width:1.0;" width="10" x="610" y="175.0156"/><polygon fill="#181818" points="221,65.9609,231,69.9609,221,73.9609,225,69.9609" style="stroke:#181818;stroke-width:1.0;"/><line style="stroke:#181818;stroke-width:1.0;" x1="36" x2="227" y1="69.9609" y2="69.9609"/><text fill="#000000" font-family="sans-serif" font-size="13" lengthAdjust="spacing" textLength="178" x="43" y="65.1045">autentica("GestorUtilizadores")</text><polygon fill="#181818" points="47,79.9609,37,83.9609,47,87.9609,43,83.9609" style="stroke:#181818;stroke-width:1.0;"/><line style="stroke:#181818;stroke-width:1.0;stroke-dasharray:2.0,2.0;" x1="41" x2="237" y1="83.9609" y2="83.9609"/><polygon fill="#181818" points="319,110.3125,329,114.3125,319,118.3125,323,114.3125" style="stroke:#181818;stroke-width:1.0;"/><line style="stroke:#181818;stroke-width:1.0;" x1="36" x2="325" y1="114.3125" y2="114.3125"/><text fill="#000000" font-family="sans-serif" font-size="13" lengthAdjust="spacing" textLength="85" x="43" y="109.4561">/aprovarPedido</text><polygon fill="#181818" points="437,140.6641,447,144.6641,437,148.6641,441,144.6641" style="stroke:#181818;stroke-width:1.0;"/><line style="stroke:#181818;stroke-width:1.0;" x1="341" x2="443" y1="144.6641" y2="144.6641"/><text fill="#000000" font-family="sans-serif" font-size="13" lengthAdjust="spacing" textLength="89" x="348" y="139.8076">aprovarPedido()</text><polygon fill="#181818" points="598,171.0156,608,175.0156,598,179.0156,602,175.0156" style="stroke:#181818;stroke-width:1.0;"/><line style="stroke:#181818;stroke-width:1.0;" x1="459" x2="604" y1="175.0156" y2="175.0156"/><text fill="#000000" font-family="sans-serif" font-size="13" lengthAdjust="spacing" textLength="132" x="466" y="170.1592">PATCH /aprovarPedido</text><polygon fill="#181818" points="470,185.0156,460,189.0156,470,193.0156,466,189.0156" style="stroke:#181818;stroke-width:1.0;"/><line style="stroke:#181818;stroke-width:1.0;stroke-dasharray:2.0,2.0;" x1="464" x2="614" y1="189.0156" y2="189.0156"/><polygon fill="#181818" points="352,199.0156,342,203.0156,352,207.0156,348,203.0156" style="stroke:#181818;stroke-width:1.0;"/><line style="stroke:#181818;stroke-width:1.0;stroke-dasharray:2.0,2.0;" x1="346" x2="453" y1="203.0156" y2="203.0156"/><polygon fill="#181818" points="42,229.3672,32,233.3672,42,237.3672,38,233.3672" style="stroke:#181818;stroke-width:1.0;"/><line style="stroke:#181818;stroke-width:1.0;stroke-dasharray:2.0,2.0;" x1="36" x2="335" y1="233.3672" y2="233.3672"/><text fill="#000000" font-family="sans-serif" font-size="13" lengthAdjust="spacing" textLength="271" x="48" y="228.5107">Envia um código 200 (OK) / 404 (NOT FOUND)</text><!--MD5=[2d965755a50a6f4dbd0367eabfb2f2cf]
@startuml vp3_aprovarPedido


participant Route as route
participant "A&A" as auth
participant Controller as ctrl
participant Service as svc
participant "Authentication and Authorization" as mdgt

activate route
route -> auth : autentica("GestorUtilizadores")
activate auth
auth - -> route
deactivate auth
route -> ctrl : /aprovarPedido
activate ctrl
ctrl -> svc : aprovarPedido()
activate svc
svc -> mdgt : PATCH /aprovarPedido
activate mdgt 
mdgt - -> svc
deactivate mdgt
svc - -> ctrl
deactivate svc
ctrl - -> route : Envia um código 200 (OK) / 404 (NOT FOUND)
deactivate ctrl
deactivate route



@enduml

PlantUML version 1.2022.7(Mon Aug 22 18:01:30 BST 2022)
(GPL source distribution)
Java Runtime: OpenJDK Runtime Environment
JVM: OpenJDK 64-Bit Server VM
Default Encoding: Cp1252
Language: pt
Country: PT
--></g></svg>