<?xml version="1.0" encoding="UTF-8" standalone="no"?><svg xmlns="http://www.w3.org/2000/svg" xmlns:xlink="http://www.w3.org/1999/xlink" contentStyleType="text/css" height="310px" preserveAspectRatio="none" style="width:239px;height:310px;background:#FFFFFF;" version="1.1" viewBox="0 0 239 310" width="239px" zoomAndPan="magnify"><defs/><g><rect fill="#FFFFFF" height="125.4063" style="stroke:#181818;stroke-width:1.0;" width="10" x="34.5" y="92.6094"/><rect fill="#FFFFFF" height="103.0547" style="stroke:#181818;stroke-width:1.0;" width="10" x="141.5" y="114.9609"/><rect fill="none" height="81.0547" style="stroke:#000000;stroke-width:1.5;" width="222" x="10" y="129.9609"/><line style="stroke:#181818;stroke-width:0.5;stroke-dasharray:5.0,5.0;" x1="39" x2="39" y1="82.6094" y2="228.0156"/><line style="stroke:#181818;stroke-width:0.5;stroke-dasharray:5.0,5.0;" x1="146" x2="146" y1="82.6094" y2="228.0156"/><text fill="#000000" font-family="sans-serif" font-size="14" lengthAdjust="spacing" textLength="33" x="20" y="79.5332">Actor</text><ellipse cx="39.5" cy="13.5" fill="#E2E2F0" rx="8" ry="8" style="stroke:#181818;stroke-width:0.5;"/><path d="M39.5,21.5 L39.5,48.5 M26.5,29.5 L52.5,29.5 M39.5,48.5 L26.5,63.5 M39.5,48.5 L52.5,63.5 " fill="none" style="stroke:#181818;stroke-width:0.5;"/><text fill="#000000" font-family="sans-serif" font-size="14" lengthAdjust="spacing" textLength="33" x="20" y="241.5488">Actor</text><ellipse cx="39.5" cy="253.125" fill="#E2E2F0" rx="8" ry="8" style="stroke:#181818;stroke-width:0.5;"/><path d="M39.5,261.125 L39.5,288.125 M26.5,269.125 L52.5,269.125 M39.5,288.125 L26.5,303.125 M39.5,288.125 L52.5,303.125 " fill="none" style="stroke:#181818;stroke-width:0.5;"/><rect fill="#E2E2F0" height="49.2188" rx="2.5" ry="2.5" style="stroke:#181818;stroke-width:0.5;" width="151" x="71" y="32.3906"/><text fill="#000000" font-family="sans-serif" font-size="14" font-style="italic" lengthAdjust="spacing" textLength="90" x="101.5" y="53.9238">«System(C4)»</text><text fill="#000000" font-family="sans-serif" font-size="14" lengthAdjust="spacing" textLength="137" x="78" y="71.5332">SistemaRobDroneGO</text><rect fill="#E2E2F0" height="49.2188" rx="2.5" ry="2.5" style="stroke:#181818;stroke-width:0.5;" width="151" x="71" y="227.0156"/><text fill="#000000" font-family="sans-serif" font-size="14" font-style="italic" lengthAdjust="spacing" textLength="90" x="101.5" y="248.5488">«System(C4)»</text><text fill="#000000" font-family="sans-serif" font-size="14" lengthAdjust="spacing" textLength="137" x="78" y="266.1582">SistemaRobDroneGO</text><rect fill="#FFFFFF" height="125.4063" style="stroke:#181818;stroke-width:1.0;" width="10" x="34.5" y="92.6094"/><rect fill="#FFFFFF" height="103.0547" style="stroke:#181818;stroke-width:1.0;" width="10" x="141.5" y="114.9609"/><polygon fill="#181818" points="129.5,110.9609,139.5,114.9609,129.5,118.9609,133.5,114.9609" style="stroke:#181818;stroke-width:1.0;"/><line style="stroke:#181818;stroke-width:1.0;" x1="44.5" x2="135.5" y1="114.9609" y2="114.9609"/><text fill="#000000" font-family="sans-serif" font-size="13" lengthAdjust="spacing" textLength="78" x="51.5" y="110.1045">Editar edificio</text><path d="M10,129.9609 L71,129.9609 L71,138.3125 L61,148.3125 L10,148.3125 L10,129.9609 " fill="#EEEEEE" style="stroke:#000000;stroke-width:1.5;"/><rect fill="none" height="81.0547" style="stroke:#000000;stroke-width:1.5;" width="222" x="10" y="129.9609"/><text fill="#000000" font-family="sans-serif" font-size="13" font-weight="bold" lengthAdjust="spacing" textLength="16" x="25" y="144.4561">alt</text><polygon fill="#181818" points="55.5,166.6641,45.5,170.6641,55.5,174.6641,51.5,170.6641" style="stroke:#181818;stroke-width:1.0;"/><line style="stroke:#181818;stroke-width:1.0;stroke-dasharray:2.0,2.0;" x1="49.5" x2="140.5" y1="170.6641" y2="170.6641"/><text fill="#000000" font-family="sans-serif" font-size="13" lengthAdjust="spacing" textLength="14" x="61.5" y="165.8076">ok</text><line style="stroke:#000000;stroke-width:1.0;stroke-dasharray:2.0,2.0;" x1="10" x2="232" y1="179.6641" y2="179.6641"/><polygon fill="#181818" points="55.5,199.0156,45.5,203.0156,55.5,207.0156,51.5,203.0156" style="stroke:#181818;stroke-width:1.0;"/><line style="stroke:#181818;stroke-width:1.0;stroke-dasharray:2.0,2.0;" x1="49.5" x2="140.5" y1="203.0156" y2="203.0156"/><text fill="#000000" font-family="sans-serif" font-size="13" lengthAdjust="spacing" textLength="22" x="61.5" y="198.1592">erro</text><!--MD5=[7d82720fb73b4535a5f3d7647a9e19e2]
@startuml vp1
actor Actor as actor
participant SistemaRobDroneGO as srdg <<System(C4)>>

activate actor
actor -> srdg: Editar edificio
activate srdg
alt 
srdg - -> actor : ok
else
srdg - -> actor : erro
end
deactivate srdg
deactivate actor
@enduml

PlantUML version 1.2022.7(Mon Aug 22 18:01:30 WEST 2022)
(GPL source distribution)
Java Runtime: Java(TM) SE Runtime Environment
JVM: Java HotSpot(TM) 64-Bit Server VM
Default Encoding: Cp1252
Language: en
Country: US
--></g></svg>