<?xml version="1.0" encoding="UTF-8" standalone="no"?><svg xmlns="http://www.w3.org/2000/svg" xmlns:xlink="http://www.w3.org/1999/xlink" contentStyleType="text/css" height="372px" preserveAspectRatio="none" style="width:600px;height:372px;background:#FFFFFF;" version="1.1" viewBox="0 0 600 372" width="600px" zoomAndPan="magnify"><defs/><g><rect fill="#DDDDDD" height="360.0859" style="stroke:#181818;stroke-width:0.5;" width="586" x="1" y="6"/><text fill="#000000" font-family="sans-serif" font-size="13" font-weight="bold" lengthAdjust="spacing" textLength="102" x="226" y="19.4951">&lt;&lt;System(C4)&gt;&gt;</text><text fill="#000000" font-family="sans-serif" font-size="13" font-weight="bold" lengthAdjust="spacing" textLength="132" x="230" y="35.8467">SistemaRobDroneGo</text><rect fill="#FFFFFF" height="191.9453" style="stroke:#181818;stroke-width:1.0;" width="10" x="60" y="102.9219"/><rect fill="#FFFFFF" height="169.5938" style="stroke:#181818;stroke-width:1.0;" width="10" x="240" y="125.2734"/><rect fill="#FFFFFF" height="101.8906" style="stroke:#181818;stroke-width:1.0;" width="10" x="469" y="155.625"/><rect fill="none" height="94.8906" style="stroke:#000000;stroke-width:1.5;" width="468" x="125" y="170.625"/><line style="stroke:#181818;stroke-width:0.5;stroke-dasharray:5.0,5.0;" x1="65" x2="65" y1="92.9219" y2="312.8672"/><line style="stroke:#181818;stroke-width:0.5;stroke-dasharray:5.0,5.0;" x1="245" x2="245" y1="92.9219" y2="312.8672"/><line style="stroke:#181818;stroke-width:0.5;stroke-dasharray:5.0,5.0;" x1="474" x2="474" y1="92.9219" y2="312.8672"/><rect fill="#E2E2F0" height="49.2188" rx="2.5" ry="2.5" style="stroke:#181818;stroke-width:0.5;" width="120" x="5" y="42.7031"/><text fill="#000000" font-family="sans-serif" font-size="14" font-style="italic" lengthAdjust="spacing" textLength="106" x="12" y="64.2363">«Container(C4)»</text><text fill="#000000" font-family="sans-serif" font-size="14" lengthAdjust="spacing" textLength="12" x="59" y="81.8457">UI</text><rect fill="#E2E2F0" height="49.2188" rx="2.5" ry="2.5" style="stroke:#181818;stroke-width:0.5;" width="120" x="5" y="311.8672"/><text fill="#000000" font-family="sans-serif" font-size="14" font-style="italic" lengthAdjust="spacing" textLength="106" x="12" y="333.4004">«Container(C4)»</text><text fill="#000000" font-family="sans-serif" font-size="14" lengthAdjust="spacing" textLength="12" x="59" y="351.0098">UI</text><rect fill="#E2E2F0" height="49.2188" rx="2.5" ry="2.5" style="stroke:#181818;stroke-width:0.5;" width="220" x="135" y="42.7031"/><text fill="#000000" font-family="sans-serif" font-size="14" font-style="italic" lengthAdjust="spacing" textLength="106" x="192" y="64.2363">«Container(C4)»</text><text fill="#000000" font-family="sans-serif" font-size="14" lengthAdjust="spacing" textLength="206" x="142" y="81.8457">Master Data Gestão Dispositivos</text><rect fill="#E2E2F0" height="49.2188" rx="2.5" ry="2.5" style="stroke:#181818;stroke-width:0.5;" width="220" x="135" y="311.8672"/><text fill="#000000" font-family="sans-serif" font-size="14" font-style="italic" lengthAdjust="spacing" textLength="106" x="192" y="333.4004">«Container(C4)»</text><text fill="#000000" font-family="sans-serif" font-size="14" lengthAdjust="spacing" textLength="206" x="142" y="351.0098">Master Data Gestão Dispositivos</text><rect fill="#E2E2F0" height="49.2188" rx="2.5" ry="2.5" style="stroke:#181818;stroke-width:0.5;" width="218" x="365" y="42.7031"/><text fill="#000000" font-family="sans-serif" font-size="14" font-style="italic" lengthAdjust="spacing" textLength="106" x="421" y="64.2363">«Container(C4)»</text><text fill="#000000" font-family="sans-serif" font-size="14" lengthAdjust="spacing" textLength="204" x="372" y="81.8457">Authentication and Authorization</text><rect fill="#E2E2F0" height="49.2188" rx="2.5" ry="2.5" style="stroke:#181818;stroke-width:0.5;" width="218" x="365" y="311.8672"/><text fill="#000000" font-family="sans-serif" font-size="14" font-style="italic" lengthAdjust="spacing" textLength="106" x="421" y="333.4004">«Container(C4)»</text><text fill="#000000" font-family="sans-serif" font-size="14" lengthAdjust="spacing" textLength="204" x="372" y="351.0098">Authentication and Authorization</text><rect fill="#FFFFFF" height="191.9453" style="stroke:#181818;stroke-width:1.0;" width="10" x="60" y="102.9219"/><rect fill="#FFFFFF" height="169.5938" style="stroke:#181818;stroke-width:1.0;" width="10" x="240" y="125.2734"/><rect fill="#FFFFFF" height="101.8906" style="stroke:#181818;stroke-width:1.0;" width="10" x="469" y="155.625"/><polygon fill="#181818" points="228,121.2734,238,125.2734,228,129.2734,232,125.2734" style="stroke:#181818;stroke-width:1.0;"/><line style="stroke:#181818;stroke-width:1.0;" x1="70" x2="234" y1="125.2734" y2="125.2734"/><text fill="#000000" font-family="sans-serif" font-size="13" lengthAdjust="spacing" textLength="95" x="77" y="120.417">POST /criarUser</text><polygon fill="#181818" points="457,151.625,467,155.625,457,159.625,461,155.625" style="stroke:#181818;stroke-width:1.0;"/><line style="stroke:#181818;stroke-width:1.0;" x1="250" x2="463" y1="155.625" y2="155.625"/><text fill="#000000" font-family="sans-serif" font-size="13" lengthAdjust="spacing" textLength="95" x="257" y="150.7686">POST /criarUser</text><path d="M125,170.625 L186,170.625 L186,178.9766 L176,188.9766 L125,188.9766 L125,170.625 " fill="#EEEEEE" style="stroke:#000000;stroke-width:1.5;"/><rect fill="none" height="94.8906" style="stroke:#000000;stroke-width:1.5;" width="468" x="125" y="170.625"/><text fill="#000000" font-family="sans-serif" font-size="13" font-weight="bold" lengthAdjust="spacing" textLength="16" x="140" y="185.1201">alt</text><text fill="#000000" font-family="sans-serif" font-size="11" font-weight="bold" lengthAdjust="spacing" textLength="56" x="201" y="184.0439">[sucesso]</text><polygon fill="#181818" points="261,207.3281,251,211.3281,261,215.3281,257,211.3281" style="stroke:#181818;stroke-width:1.0;"/><line style="stroke:#181818;stroke-width:1.0;stroke-dasharray:2.0,2.0;" x1="255" x2="468" y1="211.3281" y2="211.3281"/><text fill="#000000" font-family="sans-serif" font-size="13" lengthAdjust="spacing" textLength="106" x="267" y="206.4717">devolve status 201</text><line style="stroke:#000000;stroke-width:1.0;stroke-dasharray:2.0,2.0;" x1="125" x2="593" y1="220.3281" y2="220.3281"/><text fill="#000000" font-family="sans-serif" font-size="11" font-weight="bold" lengthAdjust="spacing" textLength="90" x="130" y="231.7471">[erro na criação]</text><polygon fill="#181818" points="261,253.5156,251,257.5156,261,261.5156,257,257.5156" style="stroke:#181818;stroke-width:1.0;"/><line style="stroke:#181818;stroke-width:1.0;stroke-dasharray:2.0,2.0;" x1="255" x2="473" y1="257.5156" y2="257.5156"/><text fill="#000000" font-family="sans-serif" font-size="13" lengthAdjust="spacing" textLength="106" x="267" y="252.6592">devolve status 403</text><polygon fill="#181818" points="76,290.8672,66,294.8672,76,298.8672,72,294.8672" style="stroke:#181818;stroke-width:1.0;"/><line style="stroke:#181818;stroke-width:1.0;stroke-dasharray:2.0,2.0;" x1="70" x2="244" y1="294.8672" y2="294.8672"/><text fill="#000000" font-family="sans-serif" font-size="13" lengthAdjust="spacing" textLength="84" x="82" y="290.0107">devolve estado</text><!--MD5=[5cbe8649313f1ba39a18414a37fc7605]
@startuml vp2

box "<<System(C4)>>\n SistemaRobDroneGo"
participant UI as ui <<Container(C4)>>
participant "Master Data Gestão Dispositivos" as mdgd <<Container(C4)>>
participant "Authentication and Authorization" as mdgt <<Container(C4)>>

activate ui
ui -> mdgd: POST /criarUser
activate mdgd
mdgd -> mdgt: POST /criarUser
activate mdgt
alt sucesso
mdgt - -> mdgd: devolve status 201
else erro na criação
mdgt - -> mdgd: devolve status 403
deactivate mdgt
end
mdgd - -> ui : devolve estado
deactivate mdgd
deactivate ui

end box

@enduml

PlantUML version 1.2022.7(Mon Aug 22 18:01:30 BST 2022)
(GPL source distribution)
Java Runtime: OpenJDK Runtime Environment
JVM: OpenJDK 64-Bit Server VM
Default Encoding: Cp1252
Language: pt
Country: PT
--></g></svg>