<?xml version="1.0" encoding="UTF-8" standalone="no"?><svg xmlns="http://www.w3.org/2000/svg" xmlns:xlink="http://www.w3.org/1999/xlink" contentStyleType="text/css" height="323px" preserveAspectRatio="none" style="width:414px;height:323px;background:#FFFFFF;" version="1.1" viewBox="0 0 414 323" width="414px" zoomAndPan="magnify"><defs/><g><rect fill="none" height="94.8906" style="stroke:#000000;stroke-width:1.5;" width="397.5" x="10" y="129.9609"/><line style="stroke:#181818;stroke-width:0.5;stroke-dasharray:5.0,5.0;" x1="39" x2="39" y1="82.6094" y2="241.8516"/><line style="stroke:#181818;stroke-width:0.5;stroke-dasharray:5.0,5.0;" x1="323.5" x2="323.5" y1="82.6094" y2="241.8516"/><text fill="#000000" font-family="sans-serif" font-size="14" lengthAdjust="spacing" textLength="33" x="20" y="79.5332">Actor</text><ellipse cx="39.5" cy="13.5" fill="#E2E2F0" rx="8" ry="8" style="stroke:#181818;stroke-width:0.5;"/><path d="M39.5,21.5 L39.5,48.5 M26.5,29.5 L52.5,29.5 M39.5,48.5 L26.5,63.5 M39.5,48.5 L52.5,63.5 " fill="none" style="stroke:#181818;stroke-width:0.5;"/><text fill="#000000" font-family="sans-serif" font-size="14" lengthAdjust="spacing" textLength="33" x="20" y="255.3848">Actor</text><ellipse cx="39.5" cy="266.9609" fill="#E2E2F0" rx="8" ry="8" style="stroke:#181818;stroke-width:0.5;"/><path d="M39.5,274.9609 L39.5,301.9609 M26.5,282.9609 L52.5,282.9609 M39.5,301.9609 L26.5,316.9609 M39.5,301.9609 L52.5,316.9609 " fill="none" style="stroke:#181818;stroke-width:0.5;"/><rect fill="#E2E2F0" height="49.2188" rx="2.5" ry="2.5" style="stroke:#181818;stroke-width:0.5;" width="148" x="249.5" y="32.3906"/><text fill="#000000" font-family="sans-serif" font-size="14" font-style="italic" lengthAdjust="spacing" textLength="90" x="278.5" y="53.9238">«System(C4)»</text><text fill="#000000" font-family="sans-serif" font-size="14" lengthAdjust="spacing" textLength="134" x="256.5" y="71.5332">SistemaRobDroneGo</text><rect fill="#E2E2F0" height="49.2188" rx="2.5" ry="2.5" style="stroke:#181818;stroke-width:0.5;" width="148" x="249.5" y="240.8516"/><text fill="#000000" font-family="sans-serif" font-size="14" font-style="italic" lengthAdjust="spacing" textLength="90" x="278.5" y="262.3848">«System(C4)»</text><text fill="#000000" font-family="sans-serif" font-size="14" lengthAdjust="spacing" textLength="134" x="256.5" y="279.9941">SistemaRobDroneGo</text><polygon fill="#181818" points="311.5,110.9609,321.5,114.9609,311.5,118.9609,315.5,114.9609" style="stroke:#181818;stroke-width:1.0;"/><line style="stroke:#181818;stroke-width:1.0;" x1="39.5" x2="317.5" y1="114.9609" y2="114.9609"/><text fill="#000000" font-family="sans-serif" font-size="13" lengthAdjust="spacing" textLength="182" x="46.5" y="110.1045">Editar passagem entre edifícios</text><path d="M10,129.9609 L71,129.9609 L71,138.3125 L61,148.3125 L10,148.3125 L10,129.9609 " fill="#EEEEEE" style="stroke:#000000;stroke-width:1.5;"/><rect fill="none" height="94.8906" style="stroke:#000000;stroke-width:1.5;" width="397.5" x="10" y="129.9609"/><text fill="#000000" font-family="sans-serif" font-size="13" font-weight="bold" lengthAdjust="spacing" textLength="16" x="25" y="144.4561">alt</text><text fill="#000000" font-family="sans-serif" font-size="11" font-weight="bold" lengthAdjust="spacing" textLength="56" x="86" y="143.3799">[sucesso]</text><polygon fill="#181818" points="50.5,166.6641,40.5,170.6641,50.5,174.6641,46.5,170.6641" style="stroke:#181818;stroke-width:1.0;"/><line style="stroke:#181818;stroke-width:1.0;stroke-dasharray:2.0,2.0;" x1="44.5" x2="322.5" y1="170.6641" y2="170.6641"/><text fill="#000000" font-family="sans-serif" font-size="13" lengthAdjust="spacing" textLength="155" x="56.5" y="165.8076">retorna a edição do edifício</text><line style="stroke:#000000;stroke-width:1.0;stroke-dasharray:2.0,2.0;" x1="10" x2="407.5" y1="179.6641" y2="179.6641"/><text fill="#000000" font-family="sans-serif" font-size="11" font-weight="bold" lengthAdjust="spacing" textLength="66" x="15" y="191.083">[insucesso]</text><polygon fill="#181818" points="50.5,212.8516,40.5,216.8516,50.5,220.8516,46.5,216.8516" style="stroke:#181818;stroke-width:1.0;"/><line style="stroke:#181818;stroke-width:1.0;stroke-dasharray:2.0,2.0;" x1="44.5" x2="322.5" y1="216.8516" y2="216.8516"/><text fill="#000000" font-family="sans-serif" font-size="13" lengthAdjust="spacing" textLength="260" x="56.5" y="211.9951">retorna informação sobre a falha da operação</text><!--MD5=[3356cf1b548ecfcd07a843812e1ffd97]
@startuml VP1
actor Actor as actor
participant SistemaRobDroneGo as srdg <<System(C4)>>
actor -> srdg: 	Editar passagem entre edifícios
alt sucesso
	srdg - -> actor: retorna a edição do edifício
else insucesso
	srdg - -> actor: retorna informação sobre a falha da operação
end alt
@enduml

PlantUML version 1.2022.7(Mon Aug 22 18:01:30 WEST 2022)
(GPL source distribution)
Java Runtime: Java(TM) SE Runtime Environment
JVM: Java HotSpot(TM) 64-Bit Server VM
Default Encoding: Cp1252
Language: en
Country: US
--></g></svg>