<?xml version="1.0" encoding="UTF-8" standalone="no"?><svg xmlns="http://www.w3.org/2000/svg" xmlns:xlink="http://www.w3.org/1999/xlink" contentStyleType="text/css" height="941px" preserveAspectRatio="none" style="width:1938px;height:941px;background:#FFFFFF;" version="1.1" viewBox="0 0 1938 941" width="1938px" zoomAndPan="magnify"><defs/><g><rect fill="#FFFFFF" height="839.0313" style="stroke:#181818;stroke-width:1.0;" width="10" x="41" y="47.6094"/><rect fill="#FFFFFF" height="816.6797" style="stroke:#181818;stroke-width:1.0;" width="10" x="170.5" y="69.9609"/><rect fill="#FFFFFF" height="772.3281" style="stroke:#181818;stroke-width:1.0;" width="10" x="411.5" y="100.3125"/><rect fill="#FFFFFF" height="667.2734" style="stroke:#181818;stroke-width:1.0;" width="10" x="614.5" y="175.0156"/><rect fill="#FFFFFF" height="622.9219" style="stroke:#181818;stroke-width:1.0;" width="10" x="817.5" y="205.3672"/><rect fill="#FFFFFF" height="280.1094" style="stroke:#181818;stroke-width:1.0;" width="10" x="990.5" y="489.8281"/><rect fill="#FFFFFF" height="14" style="stroke:#181818;stroke-width:1.0;" width="10" x="1132" y="280.0703"/><rect fill="#FFFFFF" height="235.7578" style="stroke:#181818;stroke-width:1.0;" width="10" x="1132" y="520.1797"/><rect fill="#FFFFFF" height="14" style="stroke:#181818;stroke-width:1.0;" width="10" x="1316" y="594.8828"/><rect fill="#FFFFFF" height="14" style="stroke:#181818;stroke-width:1.0;" width="10" x="1316" y="727.9375"/><rect fill="#FFFFFF" height="14" style="stroke:#181818;stroke-width:1.0;" width="10" x="1316" y="800.2891"/><rect fill="#FFFFFF" height="58.3516" style="stroke:#181818;stroke-width:1.0;" width="10" x="1484.5" y="639.2344"/><rect fill="#FFFFFF" height="14" style="stroke:#181818;stroke-width:1.0;" width="10" x="1654.5" y="669.5859"/><rect fill="#FFFFFF" height="14" style="stroke:#181818;stroke-width:1.0;" width="10" x="1786" y="130.6641"/><rect fill="#FFFFFF" height="14" style="stroke:#181818;stroke-width:1.0;" width="10" x="1786" y="235.7188"/><rect fill="#FFFFFF" height="14" style="stroke:#181818;stroke-width:1.0;" width="10" x="1786" y="550.5313"/><rect fill="#FFFFFF" height="14" style="stroke:#181818;stroke-width:1.0;" width="10" x="1892" y="445.4766"/><rect fill="none" height="107.0547" style="stroke:#000000;stroke-width:1.5;" width="881" x="10" y="309.0703"/><line style="stroke:#181818;stroke-width:0.5;stroke-dasharray:5.0,5.0;" x1="46" x2="46" y1="37.6094" y2="904.6406"/><line style="stroke:#181818;stroke-width:0.5;stroke-dasharray:5.0,5.0;" x1="175" x2="175" y1="37.6094" y2="904.6406"/><line style="stroke:#181818;stroke-width:0.5;stroke-dasharray:5.0,5.0;" x1="416.5" x2="416.5" y1="37.6094" y2="904.6406"/><line style="stroke:#181818;stroke-width:0.5;stroke-dasharray:5.0,5.0;" x1="619.5" x2="619.5" y1="37.6094" y2="904.6406"/><line style="stroke:#181818;stroke-width:0.5;stroke-dasharray:5.0,5.0;" x1="822" x2="822" y1="37.6094" y2="904.6406"/><line style="stroke:#181818;stroke-width:0.5;stroke-dasharray:5.0,5.0;" x1="995" x2="995" y1="37.6094" y2="904.6406"/><line style="stroke:#181818;stroke-width:0.5;stroke-dasharray:5.0,5.0;" x1="1137" x2="1137" y1="37.6094" y2="904.6406"/><line style="stroke:#181818;stroke-width:0.5;stroke-dasharray:5.0,5.0;" x1="1321" x2="1321" y1="37.6094" y2="904.6406"/><line style="stroke:#181818;stroke-width:0.5;stroke-dasharray:5.0,5.0;" x1="1489" x2="1489" y1="37.6094" y2="904.6406"/><line style="stroke:#181818;stroke-width:0.5;stroke-dasharray:5.0,5.0;" x1="1659" x2="1659" y1="37.6094" y2="904.6406"/><line style="stroke:#181818;stroke-width:0.5;stroke-dasharray:5.0,5.0;" x1="1791" x2="1791" y1="37.6094" y2="904.6406"/><line style="stroke:#181818;stroke-width:0.5;stroke-dasharray:5.0,5.0;" x1="1897" x2="1897" y1="37.6094" y2="904.6406"/><rect fill="#E2E2F0" height="31.6094" rx="2.5" ry="2.5" style="stroke:#181818;stroke-width:0.5;" width="52" x="20" y="5"/><text fill="#000000" font-family="sans-serif" font-size="14" lengthAdjust="spacing" textLength="38" x="27" y="26.5332">Route</text><rect fill="#E2E2F0" height="31.6094" rx="2.5" ry="2.5" style="stroke:#181818;stroke-width:0.5;" width="52" x="20" y="903.6406"/><text fill="#000000" font-family="sans-serif" font-size="14" lengthAdjust="spacing" textLength="38" x="27" y="925.1738">Route</text><rect fill="#E2E2F0" height="31.6094" rx="2.5" ry="2.5" style="stroke:#181818;stroke-width:0.5;" width="187" x="82" y="5"/><text fill="#000000" font-family="sans-serif" font-size="14" lengthAdjust="spacing" textLength="173" x="89" y="26.5332">InterfaceElevadorController</text><rect fill="#E2E2F0" height="31.6094" rx="2.5" ry="2.5" style="stroke:#181818;stroke-width:0.5;" width="187" x="82" y="903.6406"/><text fill="#000000" font-family="sans-serif" font-size="14" lengthAdjust="spacing" textLength="173" x="89" y="925.1738">InterfaceElevadorController</text><rect fill="#E2E2F0" height="31.6094" rx="2.5" ry="2.5" style="stroke:#181818;stroke-width:0.5;" width="132" x="350.5" y="5"/><text fill="#000000" font-family="sans-serif" font-size="14" lengthAdjust="spacing" textLength="118" x="357.5" y="26.5332">ElevadorController</text><rect fill="#E2E2F0" height="31.6094" rx="2.5" ry="2.5" style="stroke:#181818;stroke-width:0.5;" width="132" x="350.5" y="903.6406"/><text fill="#000000" font-family="sans-serif" font-size="14" lengthAdjust="spacing" textLength="118" x="357.5" y="925.1738">ElevadorController</text><rect fill="#E2E2F0" height="31.6094" rx="2.5" ry="2.5" style="stroke:#181818;stroke-width:0.5;" width="172" x="533.5" y="5"/><text fill="#000000" font-family="sans-serif" font-size="14" lengthAdjust="spacing" textLength="158" x="540.5" y="26.5332">InterfaceElevadorService</text><rect fill="#E2E2F0" height="31.6094" rx="2.5" ry="2.5" style="stroke:#181818;stroke-width:0.5;" width="172" x="533.5" y="903.6406"/><text fill="#000000" font-family="sans-serif" font-size="14" lengthAdjust="spacing" textLength="158" x="540.5" y="925.1738">InterfaceElevadorService</text><rect fill="#E2E2F0" height="31.6094" rx="2.5" ry="2.5" style="stroke:#181818;stroke-width:0.5;" width="117" x="764" y="5"/><text fill="#000000" font-family="sans-serif" font-size="14" lengthAdjust="spacing" textLength="103" x="771" y="26.5332">ElevadorService</text><rect fill="#E2E2F0" height="31.6094" rx="2.5" ry="2.5" style="stroke:#181818;stroke-width:0.5;" width="117" x="764" y="903.6406"/><text fill="#000000" font-family="sans-serif" font-size="14" lengthAdjust="spacing" textLength="103" x="771" y="925.1738">ElevadorService</text><rect fill="#E2E2F0" height="31.6094" rx="2.5" ry="2.5" style="stroke:#181818;stroke-width:0.5;" width="159" x="916" y="5"/><text fill="#000000" font-family="sans-serif" font-size="14" lengthAdjust="spacing" textLength="145" x="923" y="26.5332">InterfaceElevadorRepo</text><rect fill="#E2E2F0" height="31.6094" rx="2.5" ry="2.5" style="stroke:#181818;stroke-width:0.5;" width="159" x="916" y="903.6406"/><text fill="#000000" font-family="sans-serif" font-size="14" lengthAdjust="spacing" textLength="145" x="923" y="925.1738">InterfaceElevadorRepo</text><rect fill="#E2E2F0" height="31.6094" rx="2.5" ry="2.5" style="stroke:#181818;stroke-width:0.5;" width="104" x="1085" y="5"/><text fill="#000000" font-family="sans-serif" font-size="14" lengthAdjust="spacing" textLength="90" x="1092" y="26.5332">ElevadorRepo</text><rect fill="#E2E2F0" height="31.6094" rx="2.5" ry="2.5" style="stroke:#181818;stroke-width:0.5;" width="104" x="1085" y="903.6406"/><text fill="#000000" font-family="sans-serif" font-size="14" lengthAdjust="spacing" textLength="90" x="1092" y="925.1738">ElevadorRepo</text><rect fill="#E2E2F0" height="31.6094" rx="2.5" ry="2.5" style="stroke:#181818;stroke-width:0.5;" width="118" x="1262" y="5"/><text fill="#000000" font-family="sans-serif" font-size="14" lengthAdjust="spacing" textLength="104" x="1269" y="26.5332">ElevadorMapper</text><rect fill="#E2E2F0" height="31.6094" rx="2.5" ry="2.5" style="stroke:#181818;stroke-width:0.5;" width="118" x="1262" y="903.6406"/><text fill="#000000" font-family="sans-serif" font-size="14" lengthAdjust="spacing" textLength="104" x="1269" y="925.1738">ElevadorMapper</text><rect fill="#E2E2F0" height="31.6094" rx="2.5" ry="2.5" style="stroke:#181818;stroke-width:0.5;" width="199" x="1390" y="5"/><text fill="#000000" font-family="sans-serif" font-size="14" lengthAdjust="spacing" textLength="185" x="1397" y="26.5332">InterfaceElevadorPersistence</text><rect fill="#E2E2F0" height="31.6094" rx="2.5" ry="2.5" style="stroke:#181818;stroke-width:0.5;" width="199" x="1390" y="903.6406"/><text fill="#000000" font-family="sans-serif" font-size="14" lengthAdjust="spacing" textLength="185" x="1397" y="925.1738">InterfaceElevadorPersistence</text><rect fill="#E2E2F0" height="31.6094" rx="2.5" ry="2.5" style="stroke:#181818;stroke-width:0.5;" width="121" x="1599" y="5"/><text fill="#000000" font-family="sans-serif" font-size="14" lengthAdjust="spacing" textLength="107" x="1606" y="26.5332">ElevadorSchema</text><rect fill="#E2E2F0" height="31.6094" rx="2.5" ry="2.5" style="stroke:#181818;stroke-width:0.5;" width="121" x="1599" y="903.6406"/><text fill="#000000" font-family="sans-serif" font-size="14" lengthAdjust="spacing" textLength="107" x="1606" y="925.1738">ElevadorSchema</text><rect fill="#E2E2F0" height="31.6094" rx="2.5" ry="2.5" style="stroke:#181818;stroke-width:0.5;" width="122" x="1730" y="5"/><text fill="#000000" font-family="sans-serif" font-size="14" lengthAdjust="spacing" textLength="108" x="1737" y="26.5332">ConfigurationFile</text><rect fill="#E2E2F0" height="31.6094" rx="2.5" ry="2.5" style="stroke:#181818;stroke-width:0.5;" width="122" x="1730" y="903.6406"/><text fill="#000000" font-family="sans-serif" font-size="14" lengthAdjust="spacing" textLength="108" x="1737" y="925.1738">ConfigurationFile</text><rect fill="#E2E2F0" height="31.6094" rx="2.5" ry="2.5" style="stroke:#181818;stroke-width:0.5;" width="70" x="1862" y="5"/><text fill="#000000" font-family="sans-serif" font-size="14" lengthAdjust="spacing" textLength="56" x="1869" y="26.5332">Elevador</text><rect fill="#E2E2F0" height="31.6094" rx="2.5" ry="2.5" style="stroke:#181818;stroke-width:0.5;" width="70" x="1862" y="903.6406"/><text fill="#000000" font-family="sans-serif" font-size="14" lengthAdjust="spacing" textLength="56" x="1869" y="925.1738">Elevador</text><rect fill="#FFFFFF" height="839.0313" style="stroke:#181818;stroke-width:1.0;" width="10" x="41" y="47.6094"/><rect fill="#FFFFFF" height="816.6797" style="stroke:#181818;stroke-width:1.0;" width="10" x="170.5" y="69.9609"/><rect fill="#FFFFFF" height="772.3281" style="stroke:#181818;stroke-width:1.0;" width="10" x="411.5" y="100.3125"/><rect fill="#FFFFFF" height="667.2734" style="stroke:#181818;stroke-width:1.0;" width="10" x="614.5" y="175.0156"/><rect fill="#FFFFFF" height="622.9219" style="stroke:#181818;stroke-width:1.0;" width="10" x="817.5" y="205.3672"/><rect fill="#FFFFFF" height="280.1094" style="stroke:#181818;stroke-width:1.0;" width="10" x="990.5" y="489.8281"/><rect fill="#FFFFFF" height="14" style="stroke:#181818;stroke-width:1.0;" width="10" x="1132" y="280.0703"/><rect fill="#FFFFFF" height="235.7578" style="stroke:#181818;stroke-width:1.0;" width="10" x="1132" y="520.1797"/><rect fill="#FFFFFF" height="14" style="stroke:#181818;stroke-width:1.0;" width="10" x="1316" y="594.8828"/><rect fill="#FFFFFF" height="14" style="stroke:#181818;stroke-width:1.0;" width="10" x="1316" y="727.9375"/><rect fill="#FFFFFF" height="14" style="stroke:#181818;stroke-width:1.0;" width="10" x="1316" y="800.2891"/><rect fill="#FFFFFF" height="58.3516" style="stroke:#181818;stroke-width:1.0;" width="10" x="1484.5" y="639.2344"/><rect fill="#FFFFFF" height="14" style="stroke:#181818;stroke-width:1.0;" width="10" x="1654.5" y="669.5859"/><rect fill="#FFFFFF" height="14" style="stroke:#181818;stroke-width:1.0;" width="10" x="1786" y="130.6641"/><rect fill="#FFFFFF" height="14" style="stroke:#181818;stroke-width:1.0;" width="10" x="1786" y="235.7188"/><rect fill="#FFFFFF" height="14" style="stroke:#181818;stroke-width:1.0;" width="10" x="1786" y="550.5313"/><rect fill="#FFFFFF" height="14" style="stroke:#181818;stroke-width:1.0;" width="10" x="1892" y="445.4766"/><polygon fill="#181818" points="158.5,65.9609,168.5,69.9609,158.5,73.9609,162.5,69.9609" style="stroke:#181818;stroke-width:1.0;"/><line style="stroke:#181818;stroke-width:1.0;" x1="51" x2="164.5" y1="69.9609" y2="69.9609"/><text fill="#000000" font-family="sans-serif" font-size="13" lengthAdjust="spacing" textLength="92" x="58" y="65.1045">/updateElevador</text><polygon fill="#181818" points="399.5,96.3125,409.5,100.3125,399.5,104.3125,403.5,100.3125" style="stroke:#181818;stroke-width:1.0;"/><line style="stroke:#181818;stroke-width:1.0;" x1="180.5" x2="405.5" y1="100.3125" y2="100.3125"/><text fill="#000000" font-family="sans-serif" font-size="13" lengthAdjust="spacing" textLength="173" x="187.5" y="95.4561">updateElevador(req, res, next)</text><polygon fill="#181818" points="1774,126.6641,1784,130.6641,1774,134.6641,1778,130.6641" style="stroke:#181818;stroke-width:1.0;"/><line style="stroke:#181818;stroke-width:1.0;" x1="421.5" x2="1780" y1="130.6641" y2="130.6641"/><text fill="#000000" font-family="sans-serif" font-size="13" lengthAdjust="spacing" textLength="155" x="428.5" y="125.8076">injeta o serviço do elevador</text><polygon fill="#181818" points="432.5,140.6641,422.5,144.6641,432.5,148.6641,428.5,144.6641" style="stroke:#181818;stroke-width:1.0;"/><line style="stroke:#181818;stroke-width:1.0;stroke-dasharray:2.0,2.0;" x1="426.5" x2="1790" y1="144.6641" y2="144.6641"/><polygon fill="#181818" points="602.5,171.0156,612.5,175.0156,602.5,179.0156,606.5,175.0156" style="stroke:#181818;stroke-width:1.0;"/><line style="stroke:#181818;stroke-width:1.0;" x1="421.5" x2="608.5" y1="175.0156" y2="175.0156"/><text fill="#000000" font-family="sans-serif" font-size="13" lengthAdjust="spacing" textLength="174" x="428.5" y="170.1592">updateElevador(IElevadorDTO)</text><polygon fill="#181818" points="805.5,201.3672,815.5,205.3672,805.5,209.3672,809.5,205.3672" style="stroke:#181818;stroke-width:1.0;"/><line style="stroke:#181818;stroke-width:1.0;" x1="624.5" x2="811.5" y1="205.3672" y2="205.3672"/><text fill="#000000" font-family="sans-serif" font-size="13" lengthAdjust="spacing" textLength="174" x="631.5" y="200.5107">updateElevador(IElevadorDTO)</text><polygon fill="#181818" points="1774,231.7188,1784,235.7188,1774,239.7188,1778,235.7188" style="stroke:#181818;stroke-width:1.0;"/><line style="stroke:#181818;stroke-width:1.0;" x1="827.5" x2="1780" y1="235.7188" y2="235.7188"/><text fill="#000000" font-family="sans-serif" font-size="13" lengthAdjust="spacing" textLength="175" x="834.5" y="230.8623">injeta o repositório do elevador</text><polygon fill="#181818" points="838.5,245.7188,828.5,249.7188,838.5,253.7188,834.5,249.7188" style="stroke:#181818;stroke-width:1.0;"/><line style="stroke:#181818;stroke-width:1.0;stroke-dasharray:2.0,2.0;" x1="832.5" x2="1790" y1="249.7188" y2="249.7188"/><polygon fill="#181818" points="1120,276.0703,1130,280.0703,1120,284.0703,1124,280.0703" style="stroke:#181818;stroke-width:1.0;"/><line style="stroke:#181818;stroke-width:1.0;" x1="827.5" x2="1126" y1="280.0703" y2="280.0703"/><text fill="#000000" font-family="sans-serif" font-size="13" lengthAdjust="spacing" textLength="171" x="834.5" y="275.2139">elevador = findByDomainId(id)</text><polygon fill="#181818" points="838.5,290.0703,828.5,294.0703,838.5,298.0703,834.5,294.0703" style="stroke:#181818;stroke-width:1.0;"/><line style="stroke:#181818;stroke-width:1.0;stroke-dasharray:2.0,2.0;" x1="832.5" x2="1136" y1="294.0703" y2="294.0703"/><path d="M10,309.0703 L71,309.0703 L71,317.4219 L61,327.4219 L10,327.4219 L10,309.0703 " fill="#EEEEEE" style="stroke:#000000;stroke-width:1.5;"/><rect fill="none" height="107.0547" style="stroke:#000000;stroke-width:1.5;" width="881" x="10" y="309.0703"/><text fill="#000000" font-family="sans-serif" font-size="13" font-weight="bold" lengthAdjust="spacing" textLength="16" x="25" y="323.5654">alt</text><text fill="#000000" font-family="sans-serif" font-size="11" font-weight="bold" lengthAdjust="spacing" textLength="116" x="86" y="322.4893">[elevador não existe]</text><polygon fill="#181818" points="635.5,345.7734,625.5,349.7734,635.5,353.7734,631.5,349.7734" style="stroke:#181818;stroke-width:1.0;"/><line style="stroke:#181818;stroke-width:1.0;stroke-dasharray:2.0,2.0;" x1="629.5" x2="816.5" y1="349.7734" y2="349.7734"/><text fill="#000000" font-family="sans-serif" font-size="13" lengthAdjust="spacing" textLength="142" x="641.5" y="344.917">Elevador não encontrado</text><polygon fill="#181818" points="432.5,359.7734,422.5,363.7734,432.5,367.7734,428.5,363.7734" style="stroke:#181818;stroke-width:1.0;"/><line style="stroke:#181818;stroke-width:1.0;stroke-dasharray:2.0,2.0;" x1="426.5" x2="613.5" y1="363.7734" y2="363.7734"/><polygon fill="#181818" points="191.5,390.125,181.5,394.125,191.5,398.125,187.5,394.125" style="stroke:#181818;stroke-width:1.0;"/><line style="stroke:#181818;stroke-width:1.0;stroke-dasharray:2.0,2.0;" x1="185.5" x2="410.5" y1="394.125" y2="394.125"/><text fill="#000000" font-family="sans-serif" font-size="13" lengthAdjust="spacing" textLength="207" x="197.5" y="389.2686">Envia um código 404 (NOT FOUND)</text><polygon fill="#181818" points="62,404.125,52,408.125,62,412.125,58,408.125" style="stroke:#181818;stroke-width:1.0;"/><line style="stroke:#181818;stroke-width:1.0;stroke-dasharray:2.0,2.0;" x1="56" x2="169.5" y1="408.125" y2="408.125"/><polygon fill="#181818" points="1880,441.4766,1890,445.4766,1880,449.4766,1884,445.4766" style="stroke:#181818;stroke-width:1.0;"/><line style="stroke:#181818;stroke-width:1.0;" x1="827.5" x2="1886" y1="445.4766" y2="445.4766"/><text fill="#000000" font-family="sans-serif" font-size="13" lengthAdjust="spacing" textLength="164" x="834.5" y="440.6201">elevador atualiza os campos</text><polygon fill="#181818" points="838.5,455.4766,828.5,459.4766,838.5,463.4766,834.5,459.4766" style="stroke:#181818;stroke-width:1.0;"/><line style="stroke:#181818;stroke-width:1.0;stroke-dasharray:2.0,2.0;" x1="832.5" x2="1896" y1="459.4766" y2="459.4766"/><polygon fill="#181818" points="978.5,485.8281,988.5,489.8281,978.5,493.8281,982.5,489.8281" style="stroke:#181818;stroke-width:1.0;"/><line style="stroke:#181818;stroke-width:1.0;" x1="827.5" x2="984.5" y1="489.8281" y2="489.8281"/><text fill="#000000" font-family="sans-serif" font-size="13" lengthAdjust="spacing" textLength="144" x="834.5" y="484.9717">elevador = save(elevador)</text><polygon fill="#181818" points="1120,516.1797,1130,520.1797,1120,524.1797,1124,520.1797" style="stroke:#181818;stroke-width:1.0;"/><line style="stroke:#181818;stroke-width:1.0;" x1="1000.5" x2="1126" y1="520.1797" y2="520.1797"/><text fill="#000000" font-family="sans-serif" font-size="13" lengthAdjust="spacing" textLength="81" x="1007.5" y="515.3232">save(elevador)</text><polygon fill="#181818" points="1774,546.5313,1784,550.5313,1774,554.5313,1778,550.5313" style="stroke:#181818;stroke-width:1.0;"/><line style="stroke:#181818;stroke-width:1.0;" x1="1142" x2="1780" y1="550.5313" y2="550.5313"/><text fill="#000000" font-family="sans-serif" font-size="13" lengthAdjust="spacing" textLength="161" x="1149" y="545.6748">injeta o schema do elevador</text><polygon fill="#181818" points="1153,560.5313,1143,564.5313,1153,568.5313,1149,564.5313" style="stroke:#181818;stroke-width:1.0;"/><line style="stroke:#181818;stroke-width:1.0;stroke-dasharray:2.0,2.0;" x1="1147" x2="1790" y1="564.5313" y2="564.5313"/><polygon fill="#181818" points="1304,590.8828,1314,594.8828,1304,598.8828,1308,594.8828" style="stroke:#181818;stroke-width:1.0;"/><line style="stroke:#181818;stroke-width:1.0;" x1="1142" x2="1310" y1="594.8828" y2="594.8828"/><text fill="#000000" font-family="sans-serif" font-size="13" lengthAdjust="spacing" textLength="135" x="1149" y="590.0264">toPersistence(elevador)</text><polygon fill="#181818" points="1153,604.8828,1143,608.8828,1153,612.8828,1149,608.8828" style="stroke:#181818;stroke-width:1.0;"/><line style="stroke:#181818;stroke-width:1.0;stroke-dasharray:2.0,2.0;" x1="1147" x2="1320" y1="608.8828" y2="608.8828"/><polygon fill="#181818" points="1472.5,635.2344,1482.5,639.2344,1472.5,643.2344,1476.5,639.2344" style="stroke:#181818;stroke-width:1.0;"/><line style="stroke:#181818;stroke-width:1.0;" x1="1142" x2="1478.5" y1="639.2344" y2="639.2344"/><text fill="#000000" font-family="sans-serif" font-size="13" lengthAdjust="spacing" textLength="136" x="1149" y="634.3779">create(elevadorCreated)</text><polygon fill="#181818" points="1642.5,665.5859,1652.5,669.5859,1642.5,673.5859,1646.5,669.5859" style="stroke:#181818;stroke-width:1.0;"/><line style="stroke:#181818;stroke-width:1.0;" x1="1494.5" x2="1648.5" y1="669.5859" y2="669.5859"/><text fill="#000000" font-family="sans-serif" font-size="13" lengthAdjust="spacing" textLength="136" x="1501.5" y="664.7295">create(elevadorCreated)</text><polygon fill="#181818" points="1505.5,679.5859,1495.5,683.5859,1505.5,687.5859,1501.5,683.5859" style="stroke:#181818;stroke-width:1.0;"/><line style="stroke:#181818;stroke-width:1.0;stroke-dasharray:2.0,2.0;" x1="1499.5" x2="1658.5" y1="683.5859" y2="683.5859"/><polygon fill="#181818" points="1153,693.5859,1143,697.5859,1153,701.5859,1149,697.5859" style="stroke:#181818;stroke-width:1.0;"/><line style="stroke:#181818;stroke-width:1.0;stroke-dasharray:2.0,2.0;" x1="1147" x2="1488.5" y1="697.5859" y2="697.5859"/><polygon fill="#181818" points="1304,723.9375,1314,727.9375,1304,731.9375,1308,727.9375" style="stroke:#181818;stroke-width:1.0;"/><line style="stroke:#181818;stroke-width:1.0;" x1="1142" x2="1310" y1="727.9375" y2="727.9375"/><text fill="#000000" font-family="sans-serif" font-size="13" lengthAdjust="spacing" textLength="155" x="1149" y="723.0811">toDomain(elevadorCreated)</text><polygon fill="#181818" points="1153,737.9375,1143,741.9375,1153,745.9375,1149,741.9375" style="stroke:#181818;stroke-width:1.0;"/><line style="stroke:#181818;stroke-width:1.0;stroke-dasharray:2.0,2.0;" x1="1147" x2="1320" y1="741.9375" y2="741.9375"/><polygon fill="#181818" points="1011.5,751.9375,1001.5,755.9375,1011.5,759.9375,1007.5,755.9375" style="stroke:#181818;stroke-width:1.0;"/><line style="stroke:#181818;stroke-width:1.0;stroke-dasharray:2.0,2.0;" x1="1005.5" x2="1136" y1="755.9375" y2="755.9375"/><polygon fill="#181818" points="838.5,765.9375,828.5,769.9375,838.5,773.9375,834.5,769.9375" style="stroke:#181818;stroke-width:1.0;"/><line style="stroke:#181818;stroke-width:1.0;stroke-dasharray:2.0,2.0;" x1="832.5" x2="994.5" y1="769.9375" y2="769.9375"/><polygon fill="#181818" points="1304,796.2891,1314,800.2891,1304,804.2891,1308,800.2891" style="stroke:#181818;stroke-width:1.0;"/><line style="stroke:#181818;stroke-width:1.0;" x1="827.5" x2="1310" y1="800.2891" y2="800.2891"/><text fill="#000000" font-family="sans-serif" font-size="13" lengthAdjust="spacing" textLength="92" x="834.5" y="795.4326">toDTO(elevador)</text><polygon fill="#181818" points="838.5,810.2891,828.5,814.2891,838.5,818.2891,834.5,814.2891" style="stroke:#181818;stroke-width:1.0;"/><line style="stroke:#181818;stroke-width:1.0;stroke-dasharray:2.0,2.0;" x1="832.5" x2="1320" y1="814.2891" y2="814.2891"/><polygon fill="#181818" points="635.5,824.2891,625.5,828.2891,635.5,832.2891,631.5,828.2891" style="stroke:#181818;stroke-width:1.0;"/><line style="stroke:#181818;stroke-width:1.0;stroke-dasharray:2.0,2.0;" x1="629.5" x2="821.5" y1="828.2891" y2="828.2891"/><polygon fill="#181818" points="432.5,838.2891,422.5,842.2891,432.5,846.2891,428.5,842.2891" style="stroke:#181818;stroke-width:1.0;"/><line style="stroke:#181818;stroke-width:1.0;stroke-dasharray:2.0,2.0;" x1="426.5" x2="618.5" y1="842.2891" y2="842.2891"/><polygon fill="#181818" points="191.5,868.6406,181.5,872.6406,191.5,876.6406,187.5,872.6406" style="stroke:#181818;stroke-width:1.0;"/><line style="stroke:#181818;stroke-width:1.0;stroke-dasharray:2.0,2.0;" x1="185.5" x2="415.5" y1="872.6406" y2="872.6406"/><text fill="#000000" font-family="sans-serif" font-size="13" lengthAdjust="spacing" textLength="167" x="197.5" y="867.7842">Envia um código 201 (POST)</text><polygon fill="#181818" points="57,882.6406,47,886.6406,57,890.6406,53,886.6406" style="stroke:#181818;stroke-width:1.0;"/><line style="stroke:#181818;stroke-width:1.0;stroke-dasharray:2.0,2.0;" x1="51" x2="174.5" y1="886.6406" y2="886.6406"/><!--MD5=[58c2c36ce3b8893261cb159f7db88630]
@startuml sd

participant Route as route
participant InterfaceElevadorController as ictrl
participant ElevadorController as ctrl
participant InterfaceElevadorService as isvc
participant ElevadorService as svc
participant InterfaceElevadorRepo as irepo
participant ElevadorRepo as repo
participant ElevadorMapper as mapper
participant InterfaceElevadorPersistence as ischema
participant ElevadorSchema as schema
participant ConfigurationFile as conf
participant Elevador as model

activate route
route -> ictrl : /updateElevador
activate ictrl
ictrl -> ctrl : updateElevador(req, res, next)
activate ctrl
ctrl -> conf : injeta o serviço do elevador
activate conf
conf - -> ctrl
deactivate conf
ctrl -> isvc : updateElevador(IElevadorDTO)
activate isvc
isvc -> svc : updateElevador(IElevadorDTO)
activate svc
svc -> conf : injeta o repositório do elevador
activate conf
conf - -> svc
deactivate conf
svc -> repo : elevador = findByDomainId(id)
activate repo
repo - -> svc
deactivate repo
alt elevador não existe
    svc - -> isvc : Elevador não encontrado
    isvc - -> ctrl
    ctrl - -> ictrl : Envia um código 404 (NOT FOUND)
    ictrl - -> route
end
svc -> model : elevador atualiza os campos
activate model
model - -> svc
deactivate model
svc -> irepo : elevador = save(elevador)
activate irepo
irepo -> repo : save(elevador)
activate repo
repo -> conf : injeta o schema do elevador
activate conf
conf - -> repo
deactivate conf
repo -> mapper : toPersistence(elevador)
activate mapper
mapper - -> repo
deactivate mapper
repo -> ischema : create(elevadorCreated)
activate ischema 
ischema -> schema : create(elevadorCreated)
activate schema
schema - -> ischema
deactivate schema
ischema - -> repo
deactivate ischema
repo -> mapper : toDomain(elevadorCreated)
activate mapper
mapper - -> repo
deactivate mapper
repo - -> irepo
deactivate repo
irepo - -> svc
deactivate irepo
svc -> mapper : toDTO(elevador)
activate mapper
mapper - -> svc
deactivate mapper
svc - -> isvc
deactivate svc
isvc - -> ctrl
deactivate isvc
ctrl - -> ictrl : Envia um código 201 (POST)
deactivate ctrl
ictrl - -> route
deactivate ictrl
deactivate route



@enduml

PlantUML version 1.2022.7(Mon Aug 22 18:01:30 WEST 2022)
(GPL source distribution)
Java Runtime: Java(TM) SE Runtime Environment
JVM: Java HotSpot(TM) 64-Bit Server VM
Default Encoding: Cp1252
Language: pt
Country: PT
--></g></svg>