<?xml version="1.0" encoding="UTF-8" standalone="no"?><svg xmlns="http://www.w3.org/2000/svg" xmlns:xlink="http://www.w3.org/1999/xlink" contentStyleType="text/css" height="1435px" preserveAspectRatio="none" style="width:1464px;height:1435px;background:#FFFFFF;" version="1.1" viewBox="0 0 1464 1435" width="1464px" zoomAndPan="magnify"><defs/><g><rect fill="#FFFFFF" height="1319.4375" style="stroke:#181818;stroke-width:1.0;" width="10" x="54.5" y="69.9609"/><rect fill="#FFFFFF" height="1318.4375" style="stroke:#181818;stroke-width:1.0;" width="10" x="313.5" y="69.9609"/><rect fill="#FFFFFF" height="1110.4922" style="stroke:#181818;stroke-width:1.0;" width="10" x="473.5" y="161.0156"/><rect fill="#FFFFFF" height="212.4609" style="stroke:#181818;stroke-width:1.0;" width="10" x="691.5" y="312.7734"/><rect fill="#FFFFFF" height="321.3516" style="stroke:#181818;stroke-width:1.0;" width="10" x="691.5" y="859.1016"/><rect fill="#FFFFFF" height="212.4609" style="stroke:#181818;stroke-width:1.0;" width="10" x="785.5" y="555.5859"/><rect fill="#FFFFFF" height="30.3516" style="stroke:#181818;stroke-width:1.0;" width="10" x="886.5" y="464.5313"/><rect fill="#FFFFFF" height="30.3516" style="stroke:#181818;stroke-width:1.0;" width="10" x="886.5" y="975.5078"/><rect fill="#FFFFFF" height="30.3516" style="stroke:#181818;stroke-width:1.0;" width="10" x="886.5" y="1096.9141"/><rect fill="#FFFFFF" height="30.3516" style="stroke:#181818;stroke-width:1.0;" width="10" x="886.5" y="1210.8047"/><rect fill="#FFFFFF" height="30.3516" style="stroke:#181818;stroke-width:1.0;" width="10" x="994.5" y="707.3438"/><rect fill="#FFFFFF" height="30.3516" style="stroke:#181818;stroke-width:1.0;" width="10" x="1104" y="403.8281"/><rect fill="#FFFFFF" height="30.3516" style="stroke:#181818;stroke-width:1.0;" width="10" x="1104" y="889.4531"/><rect fill="#FFFFFF" height="30.3516" style="stroke:#181818;stroke-width:1.0;" width="10" x="1104" y="1036.2109"/><rect fill="#FFFFFF" height="30.3516" style="stroke:#181818;stroke-width:1.0;" width="10" x="1215" y="646.6406"/><rect fill="#FFFFFF" height="30.3516" style="stroke:#181818;stroke-width:1.0;" width="10" x="1341" y="100.3125"/><rect fill="#FFFFFF" height="30.3516" style="stroke:#181818;stroke-width:1.0;" width="10" x="1341" y="191.3672"/><rect fill="#FFFFFF" height="30.3516" style="stroke:#181818;stroke-width:1.0;" width="10" x="1341" y="252.0703"/><rect fill="#FFFFFF" height="30.3516" style="stroke:#181818;stroke-width:1.0;" width="10" x="1341" y="343.125"/><rect fill="#FFFFFF" height="30.3516" style="stroke:#181818;stroke-width:1.0;" width="10" x="1341" y="585.9375"/><rect fill="#FFFFFF" height="30.3516" style="stroke:#181818;stroke-width:1.0;" width="10" x="1432.5" y="798.3984"/><rect fill="none" height="216.2969" style="stroke:#000000;stroke-width:1.5;" width="516" x="649" y="934.8047"/><rect fill="none" height="94.8906" style="stroke:#000000;stroke-width:1.5;" width="370" x="10" y="1286.5078"/><line style="stroke:#181818;stroke-width:0.5;stroke-dasharray:5.0,5.0;" x1="59" x2="59" y1="37.6094" y2="1398.3984"/><line style="stroke:#181818;stroke-width:0.5;stroke-dasharray:5.0,5.0;" x1="318" x2="318" y1="37.6094" y2="1398.3984"/><line style="stroke:#181818;stroke-width:0.5;stroke-dasharray:5.0,5.0;" x1="478.5" x2="478.5" y1="37.6094" y2="1398.3984"/><line style="stroke:#181818;stroke-width:0.5;stroke-dasharray:5.0,5.0;" x1="696" x2="696" y1="37.6094" y2="1398.3984"/><line style="stroke:#181818;stroke-width:0.5;stroke-dasharray:5.0,5.0;" x1="790" x2="790" y1="37.6094" y2="1398.3984"/><line style="stroke:#181818;stroke-width:0.5;stroke-dasharray:5.0,5.0;" x1="891" x2="891" y1="37.6094" y2="1398.3984"/><line style="stroke:#181818;stroke-width:0.5;stroke-dasharray:5.0,5.0;" x1="999" x2="999" y1="37.6094" y2="1398.3984"/><line style="stroke:#181818;stroke-width:0.5;stroke-dasharray:5.0,5.0;" x1="1109" x2="1109" y1="37.6094" y2="1398.3984"/><line style="stroke:#181818;stroke-width:0.5;stroke-dasharray:5.0,5.0;" x1="1220" x2="1220" y1="37.6094" y2="1398.3984"/><line style="stroke:#181818;stroke-width:0.5;stroke-dasharray:5.0,5.0;" x1="1346" x2="1346" y1="37.6094" y2="1398.3984"/><line style="stroke:#181818;stroke-width:0.5;stroke-dasharray:5.0,5.0;" x1="1437" x2="1437" y1="37.6094" y2="1398.3984"/><rect fill="#E2E2F0" height="31.6094" rx="2.5" ry="2.5" style="stroke:#181818;stroke-width:0.5;" width="79" x="20" y="5"/><text fill="#000000" font-family="sans-serif" font-size="14" lengthAdjust="spacing" textLength="65" x="27" y="26.5332">PisoRoute</text><rect fill="#E2E2F0" height="31.6094" rx="2.5" ry="2.5" style="stroke:#181818;stroke-width:0.5;" width="79" x="20" y="1397.3984"/><text fill="#000000" font-family="sans-serif" font-size="14" lengthAdjust="spacing" textLength="65" x="27" y="1418.9316">PisoRoute</text><rect fill="#E2E2F0" height="31.6094" rx="2.5" ry="2.5" style="stroke:#181818;stroke-width:0.5;" width="103" x="267" y="5"/><text fill="#000000" font-family="sans-serif" font-size="14" lengthAdjust="spacing" textLength="89" x="274" y="26.5332">PisoController</text><rect fill="#E2E2F0" height="31.6094" rx="2.5" ry="2.5" style="stroke:#181818;stroke-width:0.5;" width="103" x="267" y="1397.3984"/><text fill="#000000" font-family="sans-serif" font-size="14" lengthAdjust="spacing" textLength="89" x="274" y="1418.9316">PisoController</text><rect fill="#E2E2F0" height="31.6094" rx="2.5" ry="2.5" style="stroke:#181818;stroke-width:0.5;" width="88" x="434.5" y="5"/><text fill="#000000" font-family="sans-serif" font-size="14" lengthAdjust="spacing" textLength="74" x="441.5" y="26.5332">PisoService</text><rect fill="#E2E2F0" height="31.6094" rx="2.5" ry="2.5" style="stroke:#181818;stroke-width:0.5;" width="88" x="434.5" y="1397.3984"/><text fill="#000000" font-family="sans-serif" font-size="14" lengthAdjust="spacing" textLength="74" x="441.5" y="1418.9316">PisoService</text><rect fill="#E2E2F0" height="31.6094" rx="2.5" ry="2.5" style="stroke:#181818;stroke-width:0.5;" width="75" x="659" y="5"/><text fill="#000000" font-family="sans-serif" font-size="14" lengthAdjust="spacing" textLength="61" x="666" y="26.5332">PisoRepo</text><rect fill="#E2E2F0" height="31.6094" rx="2.5" ry="2.5" style="stroke:#181818;stroke-width:0.5;" width="75" x="659" y="1397.3984"/><text fill="#000000" font-family="sans-serif" font-size="14" lengthAdjust="spacing" textLength="61" x="666" y="1418.9316">PisoRepo</text><rect fill="#E2E2F0" height="31.6094" rx="2.5" ry="2.5" style="stroke:#181818;stroke-width:0.5;" width="93" x="744" y="5"/><text fill="#000000" font-family="sans-serif" font-size="14" lengthAdjust="spacing" textLength="79" x="751" y="26.5332">EdificioRepo</text><rect fill="#E2E2F0" height="31.6094" rx="2.5" ry="2.5" style="stroke:#181818;stroke-width:0.5;" width="93" x="744" y="1397.3984"/><text fill="#000000" font-family="sans-serif" font-size="14" lengthAdjust="spacing" textLength="79" x="751" y="1418.9316">EdificioRepo</text><rect fill="#E2E2F0" height="31.6094" rx="2.5" ry="2.5" style="stroke:#181818;stroke-width:0.5;" width="89" x="847" y="5"/><text fill="#000000" font-family="sans-serif" font-size="14" lengthAdjust="spacing" textLength="75" x="854" y="26.5332">PisoMapper</text><rect fill="#E2E2F0" height="31.6094" rx="2.5" ry="2.5" style="stroke:#181818;stroke-width:0.5;" width="89" x="847" y="1397.3984"/><text fill="#000000" font-family="sans-serif" font-size="14" lengthAdjust="spacing" textLength="75" x="854" y="1418.9316">PisoMapper</text><rect fill="#E2E2F0" height="31.6094" rx="2.5" ry="2.5" style="stroke:#181818;stroke-width:0.5;" width="107" x="946" y="5"/><text fill="#000000" font-family="sans-serif" font-size="14" lengthAdjust="spacing" textLength="93" x="953" y="26.5332">EdificioMapper</text><rect fill="#E2E2F0" height="31.6094" rx="2.5" ry="2.5" style="stroke:#181818;stroke-width:0.5;" width="107" x="946" y="1397.3984"/><text fill="#000000" font-family="sans-serif" font-size="14" lengthAdjust="spacing" textLength="93" x="953" y="1418.9316">EdificioMapper</text><rect fill="#E2E2F0" height="31.6094" rx="2.5" ry="2.5" style="stroke:#181818;stroke-width:0.5;" width="92" x="1063" y="5"/><text fill="#000000" font-family="sans-serif" font-size="14" lengthAdjust="spacing" textLength="78" x="1070" y="26.5332">PisoSchema</text><rect fill="#E2E2F0" height="31.6094" rx="2.5" ry="2.5" style="stroke:#181818;stroke-width:0.5;" width="92" x="1063" y="1397.3984"/><text fill="#000000" font-family="sans-serif" font-size="14" lengthAdjust="spacing" textLength="78" x="1070" y="1418.9316">PisoSchema</text><rect fill="#E2E2F0" height="31.6094" rx="2.5" ry="2.5" style="stroke:#181818;stroke-width:0.5;" width="110" x="1165" y="5"/><text fill="#000000" font-family="sans-serif" font-size="14" lengthAdjust="spacing" textLength="96" x="1172" y="26.5332">EdificioSchema</text><rect fill="#E2E2F0" height="31.6094" rx="2.5" ry="2.5" style="stroke:#181818;stroke-width:0.5;" width="110" x="1165" y="1397.3984"/><text fill="#000000" font-family="sans-serif" font-size="14" lengthAdjust="spacing" textLength="96" x="1172" y="1418.9316">EdificioSchema</text><rect fill="#E2E2F0" height="31.6094" rx="2.5" ry="2.5" style="stroke:#181818;stroke-width:0.5;" width="122" x="1285" y="5"/><text fill="#000000" font-family="sans-serif" font-size="14" lengthAdjust="spacing" textLength="108" x="1292" y="26.5332">ConfigurationFile</text><rect fill="#E2E2F0" height="31.6094" rx="2.5" ry="2.5" style="stroke:#181818;stroke-width:0.5;" width="122" x="1285" y="1397.3984"/><text fill="#000000" font-family="sans-serif" font-size="14" lengthAdjust="spacing" textLength="108" x="1292" y="1418.9316">ConfigurationFile</text><rect fill="#E2E2F0" height="31.6094" rx="2.5" ry="2.5" style="stroke:#181818;stroke-width:0.5;" width="41" x="1417" y="5"/><text fill="#000000" font-family="sans-serif" font-size="14" lengthAdjust="spacing" textLength="27" x="1424" y="26.5332">Piso</text><rect fill="#E2E2F0" height="31.6094" rx="2.5" ry="2.5" style="stroke:#181818;stroke-width:0.5;" width="41" x="1417" y="1397.3984"/><text fill="#000000" font-family="sans-serif" font-size="14" lengthAdjust="spacing" textLength="27" x="1424" y="1418.9316">Piso</text><rect fill="#FFFFFF" height="1319.4375" style="stroke:#181818;stroke-width:1.0;" width="10" x="54.5" y="69.9609"/><rect fill="#FFFFFF" height="1318.4375" style="stroke:#181818;stroke-width:1.0;" width="10" x="313.5" y="69.9609"/><rect fill="#FFFFFF" height="1110.4922" style="stroke:#181818;stroke-width:1.0;" width="10" x="473.5" y="161.0156"/><rect fill="#FFFFFF" height="212.4609" style="stroke:#181818;stroke-width:1.0;" width="10" x="691.5" y="312.7734"/><rect fill="#FFFFFF" height="321.3516" style="stroke:#181818;stroke-width:1.0;" width="10" x="691.5" y="859.1016"/><rect fill="#FFFFFF" height="212.4609" style="stroke:#181818;stroke-width:1.0;" width="10" x="785.5" y="555.5859"/><rect fill="#FFFFFF" height="30.3516" style="stroke:#181818;stroke-width:1.0;" width="10" x="886.5" y="464.5313"/><rect fill="#FFFFFF" height="30.3516" style="stroke:#181818;stroke-width:1.0;" width="10" x="886.5" y="975.5078"/><rect fill="#FFFFFF" height="30.3516" style="stroke:#181818;stroke-width:1.0;" width="10" x="886.5" y="1096.9141"/><rect fill="#FFFFFF" height="30.3516" style="stroke:#181818;stroke-width:1.0;" width="10" x="886.5" y="1210.8047"/><rect fill="#FFFFFF" height="30.3516" style="stroke:#181818;stroke-width:1.0;" width="10" x="994.5" y="707.3438"/><rect fill="#FFFFFF" height="30.3516" style="stroke:#181818;stroke-width:1.0;" width="10" x="1104" y="403.8281"/><rect fill="#FFFFFF" height="30.3516" style="stroke:#181818;stroke-width:1.0;" width="10" x="1104" y="889.4531"/><rect fill="#FFFFFF" height="30.3516" style="stroke:#181818;stroke-width:1.0;" width="10" x="1104" y="1036.2109"/><rect fill="#FFFFFF" height="30.3516" style="stroke:#181818;stroke-width:1.0;" width="10" x="1215" y="646.6406"/><rect fill="#FFFFFF" height="30.3516" style="stroke:#181818;stroke-width:1.0;" width="10" x="1341" y="100.3125"/><rect fill="#FFFFFF" height="30.3516" style="stroke:#181818;stroke-width:1.0;" width="10" x="1341" y="191.3672"/><rect fill="#FFFFFF" height="30.3516" style="stroke:#181818;stroke-width:1.0;" width="10" x="1341" y="252.0703"/><rect fill="#FFFFFF" height="30.3516" style="stroke:#181818;stroke-width:1.0;" width="10" x="1341" y="343.125"/><rect fill="#FFFFFF" height="30.3516" style="stroke:#181818;stroke-width:1.0;" width="10" x="1341" y="585.9375"/><rect fill="#FFFFFF" height="30.3516" style="stroke:#181818;stroke-width:1.0;" width="10" x="1432.5" y="798.3984"/><polygon fill="#181818" points="301.5,65.9609,311.5,69.9609,301.5,73.9609,305.5,69.9609" style="stroke:#181818;stroke-width:1.0;"/><line style="stroke:#181818;stroke-width:1.0;" x1="64.5" x2="307.5" y1="69.9609" y2="69.9609"/><text fill="#000000" font-family="sans-serif" font-size="13" font-weight="bold" lengthAdjust="spacing" textLength="7" x="71.5" y="65.1045">1</text><text fill="#000000" font-family="sans-serif" font-size="13" lengthAdjust="spacing" textLength="139" x="82.5" y="65.1045">createPiso(req,res,next)</text><polygon fill="#181818" points="1329,96.3125,1339,100.3125,1329,104.3125,1333,100.3125" style="stroke:#181818;stroke-width:1.0;"/><line style="stroke:#181818;stroke-width:1.0;" x1="323.5" x2="1335" y1="100.3125" y2="100.3125"/><text fill="#000000" font-family="sans-serif" font-size="13" font-weight="bold" lengthAdjust="spacing" textLength="7" x="330.5" y="95.4561">2</text><text fill="#000000" font-family="sans-serif" font-size="13" lengthAdjust="spacing" textLength="132" x="341.5" y="95.4561">injeta o serviço do piso</text><polygon fill="#181818" points="334.5,126.6641,324.5,130.6641,334.5,134.6641,330.5,130.6641" style="stroke:#181818;stroke-width:1.0;"/><line style="stroke:#181818;stroke-width:1.0;stroke-dasharray:2.0,2.0;" x1="328.5" x2="1345" y1="130.6641" y2="130.6641"/><text fill="#000000" font-family="sans-serif" font-size="13" font-weight="bold" lengthAdjust="spacing" textLength="7" x="340.5" y="125.8076">3</text><text fill="#000000" font-family="sans-serif" font-size="13" lengthAdjust="spacing" textLength="4" x="351.5" y="125.8076"> </text><polygon fill="#181818" points="461.5,157.0156,471.5,161.0156,461.5,165.0156,465.5,161.0156" style="stroke:#181818;stroke-width:1.0;"/><line style="stroke:#181818;stroke-width:1.0;" x1="323.5" x2="467.5" y1="161.0156" y2="161.0156"/><text fill="#000000" font-family="sans-serif" font-size="13" font-weight="bold" lengthAdjust="spacing" textLength="7" x="330.5" y="156.1592">4</text><text fill="#000000" font-family="sans-serif" font-size="13" lengthAdjust="spacing" textLength="120" x="341.5" y="156.1592">createPiso(pisoDTO)</text><polygon fill="#181818" points="1329,187.3672,1339,191.3672,1329,195.3672,1333,191.3672" style="stroke:#181818;stroke-width:1.0;"/><line style="stroke:#181818;stroke-width:1.0;" x1="483.5" x2="1335" y1="191.3672" y2="191.3672"/><text fill="#000000" font-family="sans-serif" font-size="13" font-weight="bold" lengthAdjust="spacing" textLength="7" x="490.5" y="186.5107">5</text><text fill="#000000" font-family="sans-serif" font-size="13" lengthAdjust="spacing" textLength="152" x="501.5" y="186.5107">injeta o repositório do piso</text><polygon fill="#181818" points="494.5,217.7188,484.5,221.7188,494.5,225.7188,490.5,221.7188" style="stroke:#181818;stroke-width:1.0;"/><line style="stroke:#181818;stroke-width:1.0;stroke-dasharray:2.0,2.0;" x1="488.5" x2="1345" y1="221.7188" y2="221.7188"/><text fill="#000000" font-family="sans-serif" font-size="13" font-weight="bold" lengthAdjust="spacing" textLength="7" x="500.5" y="216.8623">6</text><text fill="#000000" font-family="sans-serif" font-size="13" lengthAdjust="spacing" textLength="4" x="511.5" y="216.8623"> </text><polygon fill="#181818" points="1329,248.0703,1339,252.0703,1329,256.0703,1333,252.0703" style="stroke:#181818;stroke-width:1.0;"/><line style="stroke:#181818;stroke-width:1.0;" x1="483.5" x2="1335" y1="252.0703" y2="252.0703"/><text fill="#000000" font-family="sans-serif" font-size="13" font-weight="bold" lengthAdjust="spacing" textLength="7" x="490.5" y="247.2139">7</text><text fill="#000000" font-family="sans-serif" font-size="13" lengthAdjust="spacing" textLength="168" x="501.5" y="247.2139">injeta o repositório do edificio</text><polygon fill="#181818" points="494.5,278.4219,484.5,282.4219,494.5,286.4219,490.5,282.4219" style="stroke:#181818;stroke-width:1.0;"/><line style="stroke:#181818;stroke-width:1.0;stroke-dasharray:2.0,2.0;" x1="488.5" x2="1345" y1="282.4219" y2="282.4219"/><text fill="#000000" font-family="sans-serif" font-size="13" font-weight="bold" lengthAdjust="spacing" textLength="7" x="500.5" y="277.5654">8</text><text fill="#000000" font-family="sans-serif" font-size="13" lengthAdjust="spacing" textLength="4" x="511.5" y="277.5654"> </text><polygon fill="#181818" points="679.5,308.7734,689.5,312.7734,679.5,316.7734,683.5,312.7734" style="stroke:#181818;stroke-width:1.0;"/><line style="stroke:#181818;stroke-width:1.0;" x1="483.5" x2="685.5" y1="312.7734" y2="312.7734"/><text fill="#000000" font-family="sans-serif" font-size="13" font-weight="bold" lengthAdjust="spacing" textLength="7" x="490.5" y="307.917">9</text><text fill="#000000" font-family="sans-serif" font-size="13" lengthAdjust="spacing" textLength="178" x="501.5" y="307.917">findByDesignacao(designacao)</text><polygon fill="#181818" points="1329,339.125,1339,343.125,1329,347.125,1333,343.125" style="stroke:#181818;stroke-width:1.0;"/><line style="stroke:#181818;stroke-width:1.0;" x1="701.5" x2="1335" y1="343.125" y2="343.125"/><text fill="#000000" font-family="sans-serif" font-size="13" font-weight="bold" lengthAdjust="spacing" textLength="14" x="708.5" y="338.2686">10</text><text fill="#000000" font-family="sans-serif" font-size="13" lengthAdjust="spacing" textLength="152" x="726.5" y="338.2686">injeta o schema dos pisos</text><polygon fill="#181818" points="712.5,369.4766,702.5,373.4766,712.5,377.4766,708.5,373.4766" style="stroke:#181818;stroke-width:1.0;"/><line style="stroke:#181818;stroke-width:1.0;stroke-dasharray:2.0,2.0;" x1="706.5" x2="1345" y1="373.4766" y2="373.4766"/><text fill="#000000" font-family="sans-serif" font-size="13" font-weight="bold" lengthAdjust="spacing" textLength="14" x="718.5" y="368.6201">11</text><text fill="#000000" font-family="sans-serif" font-size="13" lengthAdjust="spacing" textLength="4" x="736.5" y="368.6201"> </text><polygon fill="#181818" points="1092,399.8281,1102,403.8281,1092,407.8281,1096,403.8281" style="stroke:#181818;stroke-width:1.0;"/><line style="stroke:#181818;stroke-width:1.0;" x1="701.5" x2="1098" y1="403.8281" y2="403.8281"/><text fill="#000000" font-family="sans-serif" font-size="13" font-weight="bold" lengthAdjust="spacing" textLength="14" x="708.5" y="398.9717">12</text><text fill="#000000" font-family="sans-serif" font-size="13" lengthAdjust="spacing" textLength="84" x="726.5" y="398.9717">findOne(query)</text><polygon fill="#181818" points="712.5,430.1797,702.5,434.1797,712.5,438.1797,708.5,434.1797" style="stroke:#181818;stroke-width:1.0;"/><line style="stroke:#181818;stroke-width:1.0;stroke-dasharray:2.0,2.0;" x1="706.5" x2="1108" y1="434.1797" y2="434.1797"/><text fill="#000000" font-family="sans-serif" font-size="13" font-weight="bold" lengthAdjust="spacing" textLength="14" x="718.5" y="429.3232">13</text><text fill="#000000" font-family="sans-serif" font-size="13" lengthAdjust="spacing" textLength="4" x="736.5" y="429.3232"> </text><polygon fill="#181818" points="874.5,460.5313,884.5,464.5313,874.5,468.5313,878.5,464.5313" style="stroke:#181818;stroke-width:1.0;"/><line style="stroke:#181818;stroke-width:1.0;" x1="701.5" x2="880.5" y1="464.5313" y2="464.5313"/><text fill="#000000" font-family="sans-serif" font-size="13" font-weight="bold" lengthAdjust="spacing" textLength="14" x="708.5" y="459.6748">14</text><text fill="#000000" font-family="sans-serif" font-size="13" lengthAdjust="spacing" textLength="128" x="726.5" y="459.6748">toDomain(pisoRecord)</text><polygon fill="#181818" points="712.5,490.8828,702.5,494.8828,712.5,498.8828,708.5,494.8828" style="stroke:#181818;stroke-width:1.0;"/><line style="stroke:#181818;stroke-width:1.0;stroke-dasharray:2.0,2.0;" x1="706.5" x2="890.5" y1="494.8828" y2="494.8828"/><text fill="#000000" font-family="sans-serif" font-size="13" font-weight="bold" lengthAdjust="spacing" textLength="14" x="718.5" y="490.0264">15</text><text fill="#000000" font-family="sans-serif" font-size="13" lengthAdjust="spacing" textLength="4" x="736.5" y="490.0264"> </text><polygon fill="#181818" points="494.5,521.2344,484.5,525.2344,494.5,529.2344,490.5,525.2344" style="stroke:#181818;stroke-width:1.0;"/><line style="stroke:#181818;stroke-width:1.0;stroke-dasharray:2.0,2.0;" x1="488.5" x2="695.5" y1="525.2344" y2="525.2344"/><text fill="#000000" font-family="sans-serif" font-size="13" font-weight="bold" lengthAdjust="spacing" textLength="14" x="500.5" y="520.3779">16</text><text fill="#000000" font-family="sans-serif" font-size="13" lengthAdjust="spacing" textLength="4" x="518.5" y="520.3779"> </text><polygon fill="#181818" points="773.5,551.5859,783.5,555.5859,773.5,559.5859,777.5,555.5859" style="stroke:#181818;stroke-width:1.0;"/><line style="stroke:#181818;stroke-width:1.0;" x1="483.5" x2="779.5" y1="555.5859" y2="555.5859"/><text fill="#000000" font-family="sans-serif" font-size="13" font-weight="bold" lengthAdjust="spacing" textLength="14" x="490.5" y="550.7295">17</text><text fill="#000000" font-family="sans-serif" font-size="13" lengthAdjust="spacing" textLength="124" x="508.5" y="550.7295">findByCodigo(edificio)</text><polygon fill="#181818" points="1329,581.9375,1339,585.9375,1329,589.9375,1333,585.9375" style="stroke:#181818;stroke-width:1.0;"/><line style="stroke:#181818;stroke-width:1.0;" x1="795.5" x2="1335" y1="585.9375" y2="585.9375"/><text fill="#000000" font-family="sans-serif" font-size="13" font-weight="bold" lengthAdjust="spacing" textLength="14" x="802.5" y="581.0811">18</text><text fill="#000000" font-family="sans-serif" font-size="13" lengthAdjust="spacing" textLength="168" x="820.5" y="581.0811">injeta o schema dos edificios</text><polygon fill="#181818" points="806.5,612.2891,796.5,616.2891,806.5,620.2891,802.5,616.2891" style="stroke:#181818;stroke-width:1.0;"/><line style="stroke:#181818;stroke-width:1.0;stroke-dasharray:2.0,2.0;" x1="800.5" x2="1345" y1="616.2891" y2="616.2891"/><text fill="#000000" font-family="sans-serif" font-size="13" font-weight="bold" lengthAdjust="spacing" textLength="14" x="812.5" y="611.4326">19</text><text fill="#000000" font-family="sans-serif" font-size="13" lengthAdjust="spacing" textLength="4" x="830.5" y="611.4326"> </text><polygon fill="#181818" points="1203,642.6406,1213,646.6406,1203,650.6406,1207,646.6406" style="stroke:#181818;stroke-width:1.0;"/><line style="stroke:#181818;stroke-width:1.0;" x1="795.5" x2="1209" y1="646.6406" y2="646.6406"/><text fill="#000000" font-family="sans-serif" font-size="13" font-weight="bold" lengthAdjust="spacing" textLength="14" x="802.5" y="641.7842">20</text><text fill="#000000" font-family="sans-serif" font-size="13" lengthAdjust="spacing" textLength="84" x="820.5" y="641.7842">findOne(query)</text><polygon fill="#181818" points="806.5,672.9922,796.5,676.9922,806.5,680.9922,802.5,676.9922" style="stroke:#181818;stroke-width:1.0;"/><line style="stroke:#181818;stroke-width:1.0;stroke-dasharray:2.0,2.0;" x1="800.5" x2="1219" y1="676.9922" y2="676.9922"/><text fill="#000000" font-family="sans-serif" font-size="13" font-weight="bold" lengthAdjust="spacing" textLength="14" x="812.5" y="672.1357">21</text><text fill="#000000" font-family="sans-serif" font-size="13" lengthAdjust="spacing" textLength="4" x="830.5" y="672.1357"> </text><polygon fill="#181818" points="982.5,703.3438,992.5,707.3438,982.5,711.3438,986.5,707.3438" style="stroke:#181818;stroke-width:1.0;"/><line style="stroke:#181818;stroke-width:1.0;" x1="795.5" x2="988.5" y1="707.3438" y2="707.3438"/><text fill="#000000" font-family="sans-serif" font-size="13" font-weight="bold" lengthAdjust="spacing" textLength="14" x="802.5" y="702.4873">22</text><text fill="#000000" font-family="sans-serif" font-size="13" lengthAdjust="spacing" textLength="144" x="820.5" y="702.4873">toDomain(edificioRecord)</text><polygon fill="#181818" points="806.5,733.6953,796.5,737.6953,806.5,741.6953,802.5,737.6953" style="stroke:#181818;stroke-width:1.0;"/><line style="stroke:#181818;stroke-width:1.0;stroke-dasharray:2.0,2.0;" x1="800.5" x2="998.5" y1="737.6953" y2="737.6953"/><text fill="#000000" font-family="sans-serif" font-size="13" font-weight="bold" lengthAdjust="spacing" textLength="14" x="812.5" y="732.8389">23</text><text fill="#000000" font-family="sans-serif" font-size="13" lengthAdjust="spacing" textLength="4" x="830.5" y="732.8389"> </text><polygon fill="#181818" points="494.5,764.0469,484.5,768.0469,494.5,772.0469,490.5,768.0469" style="stroke:#181818;stroke-width:1.0;"/><line style="stroke:#181818;stroke-width:1.0;stroke-dasharray:2.0,2.0;" x1="488.5" x2="789.5" y1="768.0469" y2="768.0469"/><text fill="#000000" font-family="sans-serif" font-size="13" font-weight="bold" lengthAdjust="spacing" textLength="14" x="500.5" y="763.1904">24</text><text fill="#000000" font-family="sans-serif" font-size="13" lengthAdjust="spacing" textLength="4" x="518.5" y="763.1904"> </text><polygon fill="#181818" points="1420.5,794.3984,1430.5,798.3984,1420.5,802.3984,1424.5,798.3984" style="stroke:#181818;stroke-width:1.0;"/><line style="stroke:#181818;stroke-width:1.0;" x1="483.5" x2="1426.5" y1="798.3984" y2="798.3984"/><text fill="#000000" font-family="sans-serif" font-size="13" font-weight="bold" lengthAdjust="spacing" textLength="14" x="490.5" y="793.542">25</text><text fill="#000000" font-family="sans-serif" font-size="13" lengthAdjust="spacing" textLength="44" x="508.5" y="793.542">create()</text><polygon fill="#181818" points="494.5,824.75,484.5,828.75,494.5,832.75,490.5,828.75" style="stroke:#181818;stroke-width:1.0;"/><line style="stroke:#181818;stroke-width:1.0;stroke-dasharray:2.0,2.0;" x1="488.5" x2="1436.5" y1="828.75" y2="828.75"/><text fill="#000000" font-family="sans-serif" font-size="13" font-weight="bold" lengthAdjust="spacing" textLength="14" x="500.5" y="823.8936">26</text><text fill="#000000" font-family="sans-serif" font-size="13" lengthAdjust="spacing" textLength="4" x="518.5" y="823.8936"> </text><polygon fill="#181818" points="679.5,855.1016,689.5,859.1016,679.5,863.1016,683.5,859.1016" style="stroke:#181818;stroke-width:1.0;"/><line style="stroke:#181818;stroke-width:1.0;" x1="483.5" x2="685.5" y1="859.1016" y2="859.1016"/><text fill="#000000" font-family="sans-serif" font-size="13" font-weight="bold" lengthAdjust="spacing" textLength="14" x="490.5" y="854.2451">27</text><text fill="#000000" font-family="sans-serif" font-size="13" lengthAdjust="spacing" textLength="58" x="508.5" y="854.2451">save(piso)</text><polygon fill="#181818" points="1092,885.4531,1102,889.4531,1092,893.4531,1096,889.4531" style="stroke:#181818;stroke-width:1.0;"/><line style="stroke:#181818;stroke-width:1.0;" x1="701.5" x2="1098" y1="889.4531" y2="889.4531"/><text fill="#000000" font-family="sans-serif" font-size="13" font-weight="bold" lengthAdjust="spacing" textLength="14" x="708.5" y="884.5967">28</text><text fill="#000000" font-family="sans-serif" font-size="13" lengthAdjust="spacing" textLength="84" x="726.5" y="884.5967">findOne(query)</text><polygon fill="#181818" points="712.5,915.8047,702.5,919.8047,712.5,923.8047,708.5,919.8047" style="stroke:#181818;stroke-width:1.0;"/><line style="stroke:#181818;stroke-width:1.0;stroke-dasharray:2.0,2.0;" x1="706.5" x2="1108" y1="919.8047" y2="919.8047"/><text fill="#000000" font-family="sans-serif" font-size="13" font-weight="bold" lengthAdjust="spacing" textLength="14" x="718.5" y="914.9482">29</text><text fill="#000000" font-family="sans-serif" font-size="13" lengthAdjust="spacing" textLength="4" x="736.5" y="914.9482"> </text><path d="M649,934.8047 L710,934.8047 L710,943.1563 L700,953.1563 L649,953.1563 L649,934.8047 " fill="#EEEEEE" style="stroke:#000000;stroke-width:1.5;"/><rect fill="none" height="216.2969" style="stroke:#000000;stroke-width:1.5;" width="516" x="649" y="934.8047"/><text fill="#000000" font-family="sans-serif" font-size="13" font-weight="bold" lengthAdjust="spacing" textLength="16" x="664" y="949.2998">alt</text><text fill="#000000" font-family="sans-serif" font-size="11" font-weight="bold" lengthAdjust="spacing" textLength="55" x="725" y="948.2236">[cria piso]</text><polygon fill="#181818" points="874.5,971.5078,884.5,975.5078,874.5,979.5078,878.5,975.5078" style="stroke:#181818;stroke-width:1.0;"/><line style="stroke:#181818;stroke-width:1.0;" x1="701.5" x2="880.5" y1="975.5078" y2="975.5078"/><text fill="#000000" font-family="sans-serif" font-size="13" font-weight="bold" lengthAdjust="spacing" textLength="14" x="708.5" y="970.6514">30</text><text fill="#000000" font-family="sans-serif" font-size="13" lengthAdjust="spacing" textLength="112" x="726.5" y="970.6514">toPersistence(piso)</text><polygon fill="#181818" points="712.5,1001.8594,702.5,1005.8594,712.5,1009.8594,708.5,1005.8594" style="stroke:#181818;stroke-width:1.0;"/><line style="stroke:#181818;stroke-width:1.0;stroke-dasharray:2.0,2.0;" x1="706.5" x2="890.5" y1="1005.8594" y2="1005.8594"/><text fill="#000000" font-family="sans-serif" font-size="13" font-weight="bold" lengthAdjust="spacing" textLength="14" x="718.5" y="1001.0029">31</text><text fill="#000000" font-family="sans-serif" font-size="13" lengthAdjust="spacing" textLength="4" x="736.5" y="1001.0029"> </text><polygon fill="#181818" points="1092,1032.2109,1102,1036.2109,1092,1040.2109,1096,1036.2109" style="stroke:#181818;stroke-width:1.0;"/><line style="stroke:#181818;stroke-width:1.0;" x1="701.5" x2="1098" y1="1036.2109" y2="1036.2109"/><text fill="#000000" font-family="sans-serif" font-size="13" font-weight="bold" lengthAdjust="spacing" textLength="14" x="708.5" y="1031.3545">32</text><text fill="#000000" font-family="sans-serif" font-size="13" lengthAdjust="spacing" textLength="90" x="726.5" y="1031.3545">create(rawPiso)</text><polygon fill="#181818" points="712.5,1062.5625,702.5,1066.5625,712.5,1070.5625,708.5,1066.5625" style="stroke:#181818;stroke-width:1.0;"/><line style="stroke:#181818;stroke-width:1.0;stroke-dasharray:2.0,2.0;" x1="706.5" x2="1108" y1="1066.5625" y2="1066.5625"/><text fill="#000000" font-family="sans-serif" font-size="13" font-weight="bold" lengthAdjust="spacing" textLength="14" x="718.5" y="1061.7061">33</text><text fill="#000000" font-family="sans-serif" font-size="13" lengthAdjust="spacing" textLength="4" x="736.5" y="1061.7061"> </text><polygon fill="#181818" points="874.5,1092.9141,884.5,1096.9141,874.5,1100.9141,878.5,1096.9141" style="stroke:#181818;stroke-width:1.0;"/><line style="stroke:#181818;stroke-width:1.0;" x1="701.5" x2="880.5" y1="1096.9141" y2="1096.9141"/><text fill="#000000" font-family="sans-serif" font-size="13" font-weight="bold" lengthAdjust="spacing" textLength="14" x="708.5" y="1092.0576">34</text><text fill="#000000" font-family="sans-serif" font-size="13" lengthAdjust="spacing" textLength="132" x="726.5" y="1092.0576">toDomain(pisoCreated)</text><polygon fill="#181818" points="712.5,1123.2656,702.5,1127.2656,712.5,1131.2656,708.5,1127.2656" style="stroke:#181818;stroke-width:1.0;"/><line style="stroke:#181818;stroke-width:1.0;stroke-dasharray:2.0,2.0;" x1="706.5" x2="890.5" y1="1127.2656" y2="1127.2656"/><text fill="#000000" font-family="sans-serif" font-size="13" font-weight="bold" lengthAdjust="spacing" textLength="14" x="718.5" y="1122.4092">35</text><text fill="#000000" font-family="sans-serif" font-size="13" lengthAdjust="spacing" textLength="4" x="736.5" y="1122.4092"> </text><line style="stroke:#000000;stroke-width:1.0;stroke-dasharray:2.0,2.0;" x1="649" x2="1165" y1="1136.2656" y2="1136.2656"/><text fill="#000000" font-family="sans-serif" font-size="11" font-weight="bold" lengthAdjust="spacing" textLength="76" x="654" y="1147.6846">[atualiza piso]</text><polygon fill="#181818" points="494.5,1176.4531,484.5,1180.4531,494.5,1184.4531,490.5,1180.4531" style="stroke:#181818;stroke-width:1.0;"/><line style="stroke:#181818;stroke-width:1.0;stroke-dasharray:2.0,2.0;" x1="488.5" x2="695.5" y1="1180.4531" y2="1180.4531"/><text fill="#000000" font-family="sans-serif" font-size="13" font-weight="bold" lengthAdjust="spacing" textLength="14" x="500.5" y="1175.5967">36</text><text fill="#000000" font-family="sans-serif" font-size="13" lengthAdjust="spacing" textLength="4" x="518.5" y="1175.5967"> </text><polygon fill="#181818" points="874.5,1206.8047,884.5,1210.8047,874.5,1214.8047,878.5,1210.8047" style="stroke:#181818;stroke-width:1.0;"/><line style="stroke:#181818;stroke-width:1.0;" x1="483.5" x2="880.5" y1="1210.8047" y2="1210.8047"/><text fill="#000000" font-family="sans-serif" font-size="13" font-weight="bold" lengthAdjust="spacing" textLength="14" x="490.5" y="1205.9482">37</text><text fill="#000000" font-family="sans-serif" font-size="13" lengthAdjust="spacing" textLength="106" x="508.5" y="1205.9482">toDTO(pisoResult)</text><polygon fill="#181818" points="494.5,1237.1563,484.5,1241.1563,494.5,1245.1563,490.5,1241.1563" style="stroke:#181818;stroke-width:1.0;"/><line style="stroke:#181818;stroke-width:1.0;stroke-dasharray:2.0,2.0;" x1="488.5" x2="890.5" y1="1241.1563" y2="1241.1563"/><text fill="#000000" font-family="sans-serif" font-size="13" font-weight="bold" lengthAdjust="spacing" textLength="14" x="500.5" y="1236.2998">38</text><text fill="#000000" font-family="sans-serif" font-size="13" lengthAdjust="spacing" textLength="4" x="518.5" y="1236.2998"> </text><polygon fill="#181818" points="334.5,1267.5078,324.5,1271.5078,334.5,1275.5078,330.5,1271.5078" style="stroke:#181818;stroke-width:1.0;"/><line style="stroke:#181818;stroke-width:1.0;stroke-dasharray:2.0,2.0;" x1="328.5" x2="477.5" y1="1271.5078" y2="1271.5078"/><text fill="#000000" font-family="sans-serif" font-size="13" font-weight="bold" lengthAdjust="spacing" textLength="14" x="340.5" y="1266.6514">39</text><text fill="#000000" font-family="sans-serif" font-size="13" lengthAdjust="spacing" textLength="4" x="358.5" y="1266.6514"> </text><path d="M10,1286.5078 L71,1286.5078 L71,1294.8594 L61,1304.8594 L10,1304.8594 L10,1286.5078 " fill="#EEEEEE" style="stroke:#000000;stroke-width:1.5;"/><rect fill="none" height="94.8906" style="stroke:#000000;stroke-width:1.5;" width="370" x="10" y="1286.5078"/><text fill="#000000" font-family="sans-serif" font-size="13" font-weight="bold" lengthAdjust="spacing" textLength="16" x="25" y="1301.0029">alt</text><text fill="#000000" font-family="sans-serif" font-size="11" font-weight="bold" lengthAdjust="spacing" textLength="102" x="86" y="1299.9268">[caso de sucesso]</text><polygon fill="#181818" points="75.5,1323.2109,65.5,1327.2109,75.5,1331.2109,71.5,1327.2109" style="stroke:#181818;stroke-width:1.0;"/><line style="stroke:#181818;stroke-width:1.0;stroke-dasharray:2.0,2.0;" x1="69.5" x2="312.5" y1="1327.2109" y2="1327.2109"/><text fill="#000000" font-family="sans-serif" font-size="13" font-weight="bold" lengthAdjust="spacing" textLength="14" x="81.5" y="1322.3545">40</text><text fill="#000000" font-family="sans-serif" font-size="13" lengthAdjust="spacing" textLength="167" x="99.5" y="1322.3545">Envia um código 201 (POST)</text><line style="stroke:#000000;stroke-width:1.0;stroke-dasharray:2.0,2.0;" x1="10" x2="380" y1="1336.2109" y2="1336.2109"/><text fill="#000000" font-family="sans-serif" font-size="11" font-weight="bold" lengthAdjust="spacing" textLength="112" x="15" y="1347.6299">[caso de insucesso]</text><polygon fill="#181818" points="75.5,1369.3984,65.5,1373.3984,75.5,1377.3984,71.5,1373.3984" style="stroke:#181818;stroke-width:1.0;"/><line style="stroke:#181818;stroke-width:1.0;stroke-dasharray:2.0,2.0;" x1="69.5" x2="312.5" y1="1373.3984" y2="1373.3984"/><text fill="#000000" font-family="sans-serif" font-size="13" font-weight="bold" lengthAdjust="spacing" textLength="14" x="81.5" y="1368.542">41</text><text fill="#000000" font-family="sans-serif" font-size="13" lengthAdjust="spacing" textLength="207" x="99.5" y="1368.542">Envia um código 403 (NOT FOUND)</text><!--MD5=[061aef7a1c8eb9c0f03b652847b741ec]
@startuml sd
autonumber

participant PisoRoute as route

participant PisoController as ctrl

participant PisoService as svc

participant PisoRepo as repo

participant EdificioRepo as erepo
participant PisoMapper as mapper

participant EdificioMapper as emapper

participant PisoSchema as schema

participant EdificioSchema as eschema
participant ConfigurationFile as conf
participant Piso as model


route -> ctrl++ : createPiso(req,res,next)
route++
ctrl -> conf : injeta o serviço do piso
conf++
conf - -> ctrl
conf- -
ctrl -> svc : createPiso(pisoDTO)
svc++
svc -> conf : injeta o repositório do piso
conf++
conf - -> svc
conf- -
svc -> conf : injeta o repositório do edificio
conf++
conf - -> svc
conf- -
svc -> repo : findByDesignacao(designacao)
repo++
repo -> conf : injeta o schema dos pisos
conf++
conf - -> repo
conf- -
repo -> schema : findOne(query)
schema++
schema - -> repo
schema- -
repo -> mapper : toDomain(pisoRecord)
mapper++
mapper - -> repo
mapper- -
repo - -> svc
repo- -


svc -> erepo : findByCodigo(edificio)
erepo++
erepo -> conf : injeta o schema dos edificios
conf++
conf - -> erepo
conf- -
erepo -> eschema : findOne(query)
eschema++
eschema - -> erepo
eschema- -
erepo -> emapper : toDomain(edificioRecord)
emapper++
emapper - -> erepo
emapper- -
erepo - -> svc
erepo- -

svc -> model : create()
model++
model - -> svc
model- -
svc -> repo: save(piso)
repo++
repo -> schema : findOne(query)
schema++


schema - -> repo
schema- -
alt cria piso
repo -> mapper : toPersistence(piso)
mapper++
mapper - -> repo
mapper- -
repo -> schema : create(rawPiso)
schema++
schema - -> repo
schema- -
repo -> mapper : toDomain(pisoCreated)
mapper++
mapper - -> repo
mapper- -
else atualiza piso
end
repo - -> svc
repo- -
svc -> mapper : toDTO(pisoResult)
mapper++
mapper - -> svc
mapper- -
svc - -> ctrl
svc- -

alt caso de sucesso
    ctrl - -> route : Envia um código 201 (POST)
else caso de insucesso
    ctrl - -> route : Envia um código 403 (NOT FOUND)
end
ctrl- -
@end

PlantUML version 1.2022.7(Mon Aug 22 18:01:30 BST 2022)
(GPL source distribution)
Java Runtime: OpenJDK Runtime Environment
JVM: OpenJDK 64-Bit Server VM
Default Encoding: Cp1252
Language: pt
Country: PT
--></g></svg>