<?xml version="1.0" encoding="UTF-8" standalone="no"?><svg xmlns="http://www.w3.org/2000/svg" xmlns:xlink="http://www.w3.org/1999/xlink" contentStyleType="text/css" height="2056px" preserveAspectRatio="none" style="width:528px;height:2056px;background:#282828;" version="1.1" viewBox="0 0 528 2056" width="528px" zoomAndPan="magnify"><defs/><g><!--MD5=[789400f16c9736cffff3fec1a1ceac03]
cluster <<agr Pedidos>>--><g id="cluster_&lt;&lt;agr Pedidos&gt;&gt;"><path d="M27,1178.1191 L250,1178.1191 A3.75,3.75 0 0 1 252.5,1180.6191 L259.5,1210.8564 L350,1210.8564 A2.5,2.5 0 0 1 352.5,1213.3564 L352.5,2046.6191 A2.5,2.5 0 0 1 350,2049.1191 L27,2049.1191 A2.5,2.5 0 0 1 24.5,2046.6191 L24.5,1180.6191 A2.5,2.5 0 0 1 27,1178.1191 " fill="#282828" style="stroke:#33FF33;stroke-width:1.0;"/><line style="stroke:#33FF33;stroke-width:1.0;" x1="24.5" x2="259.5" y1="1210.8564" y2="1210.8564"/><text fill="#33FF33" font-family="Verdana" font-size="22" font-weight="bold" lengthAdjust="spacing" textLength="222" x="28.5" y="1202.2373">&lt;&lt;agr Pedidos&gt;&gt;</text></g><!--MD5=[5208e7e0e1691a00f02141ae55b03e3e]
cluster <<agr Utilizadores>>--><g id="cluster_&lt;&lt;agr Utilizadores&gt;&gt;"><path d="M13.5,12.1191 L288.5,12.1191 A3.75,3.75 0 0 1 291,14.6191 L298,44.8564 L382.5,44.8564 A2.5,2.5 0 0 1 385,47.3564 L385,880.6191 A2.5,2.5 0 0 1 382.5,883.1191 L13.5,883.1191 A2.5,2.5 0 0 1 11,880.6191 L11,14.6191 A2.5,2.5 0 0 1 13.5,12.1191 " fill="#282828" style="stroke:#33FF33;stroke-width:1.0;"/><line style="stroke:#33FF33;stroke-width:1.0;" x1="11" x2="298" y1="44.8564" y2="44.8564"/><text fill="#33FF33" font-family="Verdana" font-size="22" font-weight="bold" lengthAdjust="spacing" textLength="274" x="15" y="36.2373">&lt;&lt;agr Utilizadores&gt;&gt;</text></g><!--MD5=[a9cdf53752a79b44a357572c9051fd42]
cluster <<agr Roles>>--><g id="cluster_&lt;&lt;agr Roles&gt;&gt;"><path d="M231.5,972.1191 L425.5,972.1191 A3.75,3.75 0 0 1 428,974.6191 L435,1004.8564 L518.5,1004.8564 A2.5,2.5 0 0 1 521,1007.3564 L521,1086.6191 A2.5,2.5 0 0 1 518.5,1089.1191 L231.5,1089.1191 A2.5,2.5 0 0 1 229,1086.6191 L229,974.6191 A2.5,2.5 0 0 1 231.5,972.1191 " fill="#282828" style="stroke:#33FF33;stroke-width:1.0;"/><line style="stroke:#33FF33;stroke-width:1.0;" x1="229" x2="435" y1="1004.8564" y2="1004.8564"/><text fill="#33FF33" font-family="Verdana" font-size="22" font-weight="bold" lengthAdjust="spacing" textLength="193" x="233" y="996.2373">&lt;&lt;agr Roles&gt;&gt;</text></g><!--MD5=[06efa4192fc66bd511e43d80de773cc3]
class Pedidos--><g id="elem_Pedidos"><rect codeLine="11" fill="#282828" height="56.1826" id="Pedidos" rx="2.5" ry="2.5" style="stroke:#33FF33;stroke-width:1.0;" width="60" x="40.5" y="1600.1191"/><text fill="#33FF33" font-family="Verdana" font-size="12" font-style="italic" lengthAdjust="spacing" textLength="51" x="45" y="1617.1836">«entity»</text><text fill="#33FF33" font-family="Verdana" font-size="12" font-style="italic" lengthAdjust="spacing" textLength="40" x="50.5" y="1631.7676">«root»</text><text fill="#33FF33" font-family="Verdana" font-size="14" lengthAdjust="spacing" textLength="54" x="43.5" y="1648.3623">Pedidos</text></g><!--MD5=[eff6cb0ee8c4fb965f4e5611a0ca3742]
class Nome--><g id="elem_Nome"><rect codeLine="12" fill="#282828" height="41.5986" id="Nome" rx="2.5" ry="2.5" style="stroke:#33FF33;stroke-width:1.0;" width="46" x="248.5" y="1991.1191"/><text fill="#33FF33" font-family="Verdana" font-size="12" font-style="italic" lengthAdjust="spacing" textLength="30" x="256.5" y="2008.1836">«vo»</text><text fill="#33FF33" font-family="Verdana" font-size="14" lengthAdjust="spacing" textLength="40" x="251.5" y="2024.7783">Nome</text></g><!--MD5=[78bec0fde86ad92ec1dc3fb343b83709]
class Email--><g id="elem_Email"><rect codeLine="13" fill="#282828" height="41.5986" id="Email" rx="2.5" ry="2.5" style="stroke:#33FF33;stroke-width:1.0;" width="42" x="250.5" y="1799.1191"/><text fill="#33FF33" font-family="Verdana" font-size="12" font-style="italic" lengthAdjust="spacing" textLength="30" x="256.5" y="1816.1836">«vo»</text><text fill="#33FF33" font-family="Verdana" font-size="14" lengthAdjust="spacing" textLength="36" x="253.5" y="1832.7783">Email</text></g><!--MD5=[d2fefcd7cef12dda62c040704d143a25]
class NumeroTelemovel--><g id="elem_NumeroTelemovel"><rect codeLine="14" fill="#282828" height="41.5986" id="NumeroTelemovel" rx="2.5" ry="2.5" style="stroke:#33FF33;stroke-width:1.0;" width="130" x="206.5" y="1607.1191"/><text fill="#33FF33" font-family="Verdana" font-size="12" font-style="italic" lengthAdjust="spacing" textLength="30" x="256.5" y="1624.1836">«vo»</text><text fill="#33FF33" font-family="Verdana" font-size="14" lengthAdjust="spacing" textLength="124" x="209.5" y="1640.7783">NumeroTelemovel</text></g><!--MD5=[6aecd51c4208337097d56a0a23607946]
class CC--><g id="elem_CC"><rect codeLine="15" fill="#282828" height="41.5986" id="CC" rx="2.5" ry="2.5" style="stroke:#33FF33;stroke-width:1.0;" width="32" x="255.5" y="1415.1191"/><text fill="#33FF33" font-family="Verdana" font-size="12" font-style="italic" lengthAdjust="spacing" textLength="30" x="256.5" y="1432.1836">«vo»</text><text fill="#33FF33" font-family="Verdana" font-size="14" lengthAdjust="spacing" textLength="20" x="261.5" y="1448.7783">CC</text></g><!--MD5=[d8933eb2ae217ae3c21bf6e2973c277f]
class Estado--><g id="elem_Estado"><rect codeLine="16" fill="#282828" height="41.5986" id="Estado" rx="2.5" ry="2.5" style="stroke:#33FF33;stroke-width:1.0;" width="55" x="244" y="1223.1191"/><text fill="#33FF33" font-family="Verdana" font-size="12" font-style="italic" lengthAdjust="spacing" textLength="51" x="246" y="1240.1836">«enum»</text><text fill="#33FF33" font-family="Verdana" font-size="14" lengthAdjust="spacing" textLength="49" x="247" y="1256.7783">Estado</text></g><!--MD5=[6e561e958559573d438bdabc7e6ec06e]
class Utilizadores--><g id="elem_Utilizadores"><rect codeLine="26" fill="#282828" height="56.1826" id="Utilizadores" rx="2.5" ry="2.5" style="stroke:#33FF33;stroke-width:1.0;" width="87" x="27" y="530.1191"/><text fill="#33FF33" font-family="Verdana" font-size="12" font-style="italic" lengthAdjust="spacing" textLength="51" x="45" y="547.1836">«entity»</text><text fill="#33FF33" font-family="Verdana" font-size="12" font-style="italic" lengthAdjust="spacing" textLength="40" x="50.5" y="561.7676">«root»</text><text fill="#33FF33" font-family="Verdana" font-size="14" lengthAdjust="spacing" textLength="81" x="30" y="578.3623">Utilizadores</text></g><!--MD5=[447e746874fe28ff2c761d9d8556fda6]
class NomeUtilizador--><g id="elem_NomeUtilizador"><rect codeLine="27" fill="#282828" height="41.5986" id="NomeUtilizador" rx="2.5" ry="2.5" style="stroke:#33FF33;stroke-width:1.0;" width="111" x="216" y="825.1191"/><text fill="#33FF33" font-family="Verdana" font-size="12" font-style="italic" lengthAdjust="spacing" textLength="30" x="256.5" y="842.1836">«vo»</text><text fill="#33FF33" font-family="Verdana" font-size="14" lengthAdjust="spacing" textLength="105" x="219" y="858.7783">NomeUtilizador</text></g><!--MD5=[bd6a2bc95b1c4710877167acfcc5d503]
class EmailUtilizador--><g id="elem_EmailUtilizador"><rect codeLine="28" fill="#282828" height="41.5986" id="EmailUtilizador" rx="2.5" ry="2.5" style="stroke:#33FF33;stroke-width:1.0;" width="107" x="218" y="633.1191"/><text fill="#33FF33" font-family="Verdana" font-size="12" font-style="italic" lengthAdjust="spacing" textLength="30" x="256.5" y="650.1836">«vo»</text><text fill="#33FF33" font-family="Verdana" font-size="14" lengthAdjust="spacing" textLength="101" x="221" y="666.7783">EmailUtilizador</text></g><!--MD5=[f28d962a04ae0b7c67040af07eef093c]
class NumeroTelemovelUtilizador--><g id="elem_NumeroTelemovelUtilizador"><rect codeLine="29" fill="#282828" height="41.5986" id="NumeroTelemovelUtilizador" rx="2.5" ry="2.5" style="stroke:#33FF33;stroke-width:1.0;" width="195" x="174" y="441.1191"/><text fill="#33FF33" font-family="Verdana" font-size="12" font-style="italic" lengthAdjust="spacing" textLength="30" x="256.5" y="458.1836">«vo»</text><text fill="#33FF33" font-family="Verdana" font-size="14" lengthAdjust="spacing" textLength="189" x="177" y="474.7783">NumeroTelemovelUtilizador</text></g><!--MD5=[5261951a06abc1b47aa1ac7e2db668cd]
class CCUtilizador--><g id="elem_CCUtilizador"><rect codeLine="30" fill="#282828" height="41.5986" id="CCUtilizador" rx="2.5" ry="2.5" style="stroke:#33FF33;stroke-width:1.0;" width="91" x="226" y="249.1191"/><text fill="#33FF33" font-family="Verdana" font-size="12" font-style="italic" lengthAdjust="spacing" textLength="30" x="256.5" y="266.1836">«vo»</text><text fill="#33FF33" font-family="Verdana" font-size="14" lengthAdjust="spacing" textLength="85" x="229" y="282.7783">CCUtilizador</text></g><!--MD5=[2f01b1126ff33a0669651ec2488a5ef9]
class Password--><g id="elem_Password"><rect codeLine="31" fill="#282828" height="41.5986" id="Password" rx="2.5" ry="2.5" style="stroke:#33FF33;stroke-width:1.0;" width="73" x="235" y="57.1191"/><text fill="#33FF33" font-family="Verdana" font-size="12" font-style="italic" lengthAdjust="spacing" textLength="30" x="256.5" y="74.1836">«vo»</text><text fill="#33FF33" font-family="Verdana" font-size="14" lengthAdjust="spacing" textLength="67" x="238" y="90.7783">Password</text></g><!--MD5=[d880429f06877f77d04df3530938df96]
class Roles--><g id="elem_Roles"><rect codeLine="41" fill="#282828" height="56.1826" id="Roles" rx="2.5" ry="2.5" style="stroke:#33FF33;stroke-width:1.0;" width="53" x="245" y="1017.1191"/><text fill="#33FF33" font-family="Verdana" font-size="12" font-style="italic" lengthAdjust="spacing" textLength="51" x="246" y="1034.1836">«entity»</text><text fill="#33FF33" font-family="Verdana" font-size="12" font-style="italic" lengthAdjust="spacing" textLength="40" x="251.5" y="1048.7676">«root»</text><text fill="#33FF33" font-family="Verdana" font-size="14" lengthAdjust="spacing" textLength="38" x="252.5" y="1065.3623">Roles</text></g><!--MD5=[d9222d55fe4aa74b25809312524d587e]
class NomeRole--><g id="elem_NomeRole"><rect codeLine="42" fill="#282828" height="41.5986" id="NomeRole" rx="2.5" ry="2.5" style="stroke:#33FF33;stroke-width:1.0;" width="76" x="429" y="1024.1191"/><text fill="#33FF33" font-family="Verdana" font-size="12" font-style="italic" lengthAdjust="spacing" textLength="30" x="452" y="1041.1836">«vo»</text><text fill="#33FF33" font-family="Verdana" font-size="14" lengthAdjust="spacing" textLength="70" x="432" y="1057.7783">NomeRole</text></g><!--MD5=[b0a2cc182512b5065fe64255f4b0b6d7]
link Pedidos to Nome--><g id="link_Pedidos_Nome"><path codeLine="18" d="M77.1,1656.1391 C88.75,1709.8491 119.16,1829.6091 174,1916.1191 C192.94,1945.9991 222.72,1973.7591 244.19,1991.6591 " fill="none" id="Pedidos-to-Nome" style="stroke:#33FF33;stroke-width:1.0;"/><polygon fill="#33FF33" points="248.1,1994.8891,243.708,1986.0738,244.2449,1991.7051,238.6136,1992.242,248.1,1994.8891" style="stroke:#33FF33;stroke-width:1.0;"/><text fill="#33FF33" font-family="Verdana" font-size="13" lengthAdjust="spacing" textLength="8" x="232.3937" y="2005.3912">1</text></g><!--MD5=[d31e87df5da257e3de15164f25b739c0]
link Pedidos to Email--><g id="link_Pedidos_Email"><path codeLine="19" d="M100.86,1656.4491 C140.4,1694.5891 209.99,1761.7391 246.54,1796.9991 " fill="none" id="Pedidos-to-Email" style="stroke:#33FF33;stroke-width:1.0;"/><polygon fill="#33FF33" points="250.4,1800.7291,246.6979,1791.6025,246.8008,1797.2585,241.1449,1797.3613,250.4,1800.7291" style="stroke:#33FF33;stroke-width:1.0;"/><text fill="#33FF33" font-family="Verdana" font-size="13" lengthAdjust="spacing" textLength="8" x="234.3994" y="1810.2004">1</text></g><!--MD5=[ae56c3d654d35847166f05eeab426554]
link Pedidos to NumeroTelemovel--><g id="link_Pedidos_NumeroTelemovel"><path codeLine="20" d="M100.86,1628.1191 C127.24,1628.1191 167.01,1628.1191 201.41,1628.1191 " fill="none" id="Pedidos-to-NumeroTelemovel" style="stroke:#33FF33;stroke-width:1.0;"/><polygon fill="#33FF33" points="206.44,1628.1191,197.44,1624.1191,201.44,1628.1191,197.44,1632.1191,206.44,1628.1191" style="stroke:#33FF33;stroke-width:1.0;"/><text fill="#33FF33" font-family="Verdana" font-size="13" lengthAdjust="spacing" textLength="8" x="190.4549" y="1642.1256">1</text></g><!--MD5=[5fe59bcd7610e35347666e14e9a65d5e]
link Pedidos to CC--><g id="link_Pedidos_CC"><path codeLine="21" d="M100.86,1599.7891 C142.38,1559.7291 217.05,1487.6891 251.78,1454.1791 " fill="none" id="Pedidos-to-CC" style="stroke:#33FF33;stroke-width:1.0;"/><polygon fill="#33FF33" points="255.42,1450.6691,246.1649,1454.037,251.8208,1454.1398,251.7179,1459.7957,255.42,1450.6691" style="stroke:#33FF33;stroke-width:1.0;"/><text fill="#33FF33" font-family="Verdana" font-size="13" lengthAdjust="spacing" textLength="8" x="239.5135" y="1472.6575">1</text></g><!--MD5=[685591609060b9ef39e39a26fdc58464]
link Pedidos to Estado--><g id="link_Pedidos_Estado"><path codeLine="22" d="M77.1,1600.0991 C88.75,1546.3891 119.16,1426.6291 174,1340.1191 C191.75,1312.1191 219.02,1285.9791 240.05,1268.0691 " fill="none" id="Pedidos-to-Estado" style="stroke:#33FF33;stroke-width:1.0;"/><polygon fill="#33FF33" points="243.9,1264.8291,234.4352,1267.5526,240.0706,1268.0441,239.5791,1273.6796,243.9,1264.8291" style="stroke:#33FF33;stroke-width:1.0;"/><text fill="#33FF33" font-family="Verdana" font-size="13" lengthAdjust="spacing" textLength="8" x="228.1975" y="1284.9215">1</text></g><!--MD5=[083ae9f6e8e9db98d5a46426649b20fe]
link Utilizadores to NomeUtilizador--><g id="link_Utilizadores_NomeUtilizador"><path codeLine="33" d="M83.36,586.3491 C100.38,625.2091 134.1,696.4391 174,750.1191 C193.91,776.8991 221.21,803.3491 241.7,821.6791 " fill="none" id="Utilizadores-to-NomeUtilizador" style="stroke:#33FF33;stroke-width:1.0;"/><polygon fill="#33FF33" points="245.44,825.0091,241.3899,816.0316,241.7101,821.6793,236.0623,821.9995,245.44,825.0091" style="stroke:#33FF33;stroke-width:1.0;"/><text fill="#33FF33" font-family="Verdana" font-size="13" lengthAdjust="spacing" textLength="8" x="228.2341" y="814.501">1</text></g><!--MD5=[6ef661f228268e40d6cf7115e7ff1015]
link Utilizadores to EmailUtilizador--><g id="link_Utilizadores_EmailUtilizador"><path codeLine="34" d="M114.19,578.7091 C145.87,593.9991 189.09,614.8491 222.06,630.7491 " fill="none" id="Utilizadores-to-EmailUtilizador" style="stroke:#33FF33;stroke-width:1.0;"/><polygon fill="#33FF33" points="226.85,633.0591,220.4734,625.5532,222.3442,630.8918,217.0056,632.7626,226.85,633.0591" style="stroke:#33FF33;stroke-width:1.0;"/><text fill="#33FF33" font-family="Verdana" font-size="13" lengthAdjust="spacing" textLength="8" x="203.3428" y="622.2168">1</text></g><!--MD5=[86b4fe74b49a45acaf06010442d2ed4c]
link Utilizadores to NumeroTelemovelUtilizador--><g id="link_Utilizadores_NumeroTelemovelUtilizador"><path codeLine="35" d="M114.19,537.5291 C145.87,522.2391 189.09,501.3891 222.06,485.4891 " fill="none" id="Utilizadores-to-NumeroTelemovelUtilizador" style="stroke:#33FF33;stroke-width:1.0;"/><polygon fill="#33FF33" points="226.85,483.1791,217.0056,483.4757,222.3442,485.3465,220.4734,490.6851,226.85,483.1791" style="stroke:#33FF33;stroke-width:1.0;"/><text fill="#33FF33" font-family="Verdana" font-size="13" lengthAdjust="spacing" textLength="8" x="206.3834" y="503.7213">1</text></g><!--MD5=[fc3052271d0884c34b61d96bbd72d8fb]
link Utilizadores to CCUtilizador--><g id="link_Utilizadores_CCUtilizador"><path codeLine="36" d="M83.36,529.8891 C100.38,491.0291 134.1,419.7991 174,366.1191 C193.91,339.3391 221.21,312.8891 241.7,294.5591 " fill="none" id="Utilizadores-to-CCUtilizador" style="stroke:#33FF33;stroke-width:1.0;"/><polygon fill="#33FF33" points="245.44,291.2291,236.0623,294.2388,241.7101,294.5589,241.3899,300.2067,245.44,291.2291" style="stroke:#33FF33;stroke-width:1.0;"/><text fill="#33FF33" font-family="Verdana" font-size="13" lengthAdjust="spacing" textLength="8" x="229.7371" y="311.7841">1</text></g><!--MD5=[e28fe0d089d020f50734354c0ba4d629]
link Utilizadores to Password--><g id="link_Utilizadores_Password"><path codeLine="37" d="M73.99,529.6791 C80.86,463.2691 104.38,294.4691 174,174.1191 C190.37,145.8091 217.25,120.0591 238.48,102.3591 " fill="none" id="Utilizadores-to-Password" style="stroke:#33FF33;stroke-width:1.0;"/><polygon fill="#33FF33" points="242.37,99.1591,232.8788,101.7891,238.5091,102.3362,237.962,107.9665,242.37,99.1591" style="stroke:#33FF33;stroke-width:1.0;"/><text fill="#33FF33" font-family="Verdana" font-size="13" lengthAdjust="spacing" textLength="8" x="225.8804" y="119.6962">1</text></g><!--MD5=[287cbad3417200bf6ae78d4db6f987a7]
link Roles to NomeRole--><g id="link_Roles_NomeRole"><path codeLine="44" d="M298.2,1045.1191 C330.27,1045.1191 385.56,1045.1191 423.87,1045.1191 " fill="none" id="Roles-to-NomeRole" style="stroke:#33FF33;stroke-width:1.0;"/><polygon fill="#33FF33" points="428.92,1045.1191,419.92,1041.1191,423.92,1045.1191,419.92,1049.1191,428.92,1045.1191" style="stroke:#33FF33;stroke-width:1.0;"/><text fill="#33FF33" font-family="Verdana" font-size="13" lengthAdjust="spacing" textLength="8" x="412.8985" y="1059.7331">1</text></g><!--MD5=[00cbae90755e9d390a7fcddd8adb06cd]
link Utilizadores to Roles--><g id="link_Utilizadores_Roles"><path codeLine="45" d="M76.25,586.4091 C87.31,648.0291 118.21,798.0191 174,912.1191 C192.2,949.3391 220.81,987.1291 242.16,1012.8691 " fill="none" id="Utilizadores-to-Roles" style="stroke:#33FF33;stroke-width:1.0;"/><polygon fill="#33FF33" points="245.52,1016.8991,242.8347,1007.4234,242.3205,1013.0569,236.687,1012.5427,245.52,1016.8991" style="stroke:#33FF33;stroke-width:1.0;"/><text fill="#33FF33" font-family="Verdana" font-size="13" lengthAdjust="spacing" textLength="9" x="67.5234" y="607.3755">*</text><text fill="#33FF33" font-family="Verdana" font-size="13" lengthAdjust="spacing" textLength="8" x="230.2124" y="1006.3374">1</text></g><!--MD5=[1cbd0da94b6a303799810251481dc118]
@startuml DDD

hide circle
hide fields

!theme crt-green
skinparam nodesep 150
hide empty members
left to right direction

package "<<agr Pedidos>>" {
    class Pedidos<<entity>><<root>>{}
    class Nome<<vo>>{}
    class Email<<vo>>{}
    class NumeroTelemovel<<vo>>{}
    class CC<<vo>>{}
    class Estado<<enum>>{}

    Pedidos - -> "1" Nome
    Pedidos - -> "1" Email
    Pedidos - -> "1" NumeroTelemovel
    Pedidos - -> "1" CC
    Pedidos - -> "1" Estado
}

package "<<agr Utilizadores>>" {
    class Utilizadores<<entity>><<root>>{}
    class NomeUtilizador<<vo>>{}
    class EmailUtilizador<<vo>>{}
    class NumeroTelemovelUtilizador<<vo>>{}
    class CCUtilizador<<vo>>{}
    class Password<<vo>>{}

    Utilizadores - -> "1" NomeUtilizador
    Utilizadores - -> "1" EmailUtilizador
    Utilizadores - -> "1" NumeroTelemovelUtilizador
    Utilizadores - -> "1" CCUtilizador
    Utilizadores - -> "1" Password
}

package "<<agr Roles>>" {
    class Roles<<entity>><<root>>{}
    class NomeRole<<vo>>{}

    Roles - -> "1" NomeRole
    Utilizadores "*"- -> "1" Roles
}



@enduml

@startuml DDD

hide circle
hide fields






<style>
  root {
    BackgroundColor #282828
    FontColor #33FF33
    FontName Verdana
    HyperLinkColor #33FF33
    LineColor #33FF33
    LineThickness 1
    Margin 5
  }
  box {
    LineStyle 12-18
    LineThickness 3
  }
  caption {
    LineThickness 0
  }
  footer {
    LineThickness 0
  }
  groupHeader {
    BackgroundColor #33FF33
    FontColor #282828
    FontStyle bold
  }
  header {
    LineThickness 0
  }
  node {
    MaximumWidth 300
  }
  referenceHeader {
    BackgroundColor #33FF33
    FontColor #282828
    FontStyle bold
  }
  separator {
    BackgroundColor #33FF33
    FontColor #282828
    FontStyle bold
  }
  title {
    FontSize 22
    LineThickness 0
  }
</style>

skinparam ArrowLollipopColor #33FF33
skinparam BackgroundColor #282828
skinparam DefaultFontName Verdana
skinparam DefaultMonospacedFontName Courier
skinparam LifelineStrategy solid
skinparam ParticipantPadding 10
skinparam SequenceLifeLineBorderColor #33FF33
skinparam Shadowing false
skinparam UseBetaStyle true

skinparam Activity {
  BackgroundColor #282828
  BarColor #33FF33
  BorderColor #33FF33
  FontColor #33FF33
  FontName Verdana
}
skinparam Boundary {
  FontColor #33FF33
}
skinparam Box {
  Padding 5
}
skinparam CircledCharacter {
  FontColor #282828
  FontName Courier
  Radius 9
}
skinparam Class {
  BackgroundColor #282828
  BorderColor #33FF33
  FontColor #33FF33
  FontName Verdana
}
skinparam ClassAttribute {
  FontColor #33FF33
  FontName Verdana
}
skinparam ClassStereotype {
  FontColor #33FF33
  FontName Verdana
}
skinparam Footer {
  FontColor #33FF33
  FontName Verdana
}
skinparam Header {
  FontColor #33FF33
  FontName Verdana
}
skinparam Hyperlink {
  Color #33FF33
}
skinparam IconPackage {
  Color #33FF33
  BackgroundColor #282828
}
skinparam IconPrivate {
  Color #33FF33
  BackgroundColor #282828
}
skinparam IconProtected {
  Color #33FF33
  BackgroundColor #282828
}
skinparam IconPublic {
  Color #33FF33
  BackgroundColor #282828
}
skinparam Note {
  FontColor #33FF33
  FontName Verdana
}
skinparam Object {
  BorderColor #33FF33
}
skinparam Package {
  BorderColor #33FF33
  FontColor #33FF33
  FontName Verdana
}
skinparam State {
  BackgroundColor #282828
  BorderColor #33FF33
}
skinparam StereotypeA {
  BackgroundColor #33FF33
  BorderColor #33FF33
}
skinparam StereotypeC {
  BackgroundColor #33FF33
  BorderColor #33FF33
}
skinparam StereotypeE {
  BackgroundColor #33FF33
  BorderColor #33FF33
}
skinparam StereotypeI {
  BackgroundColor #33FF33
  BorderColor #33FF33
}
skinparam StereotypeN {
  BackgroundColor #33FF33
  BorderColor #33FF33
}
skinparam UseCaseStereoType {
  FontColor #33FF33
  FontName Verdana
}
skinparam nodesep 150
hide empty members
left to right direction

package "<<agr Pedidos>>" {
    class Pedidos<<entity>><<root>>{}
    class Nome<<vo>>{}
    class Email<<vo>>{}
    class NumeroTelemovel<<vo>>{}
    class CC<<vo>>{}
    class Estado<<enum>>{}

    Pedidos - -> "1" Nome
    Pedidos - -> "1" Email
    Pedidos - -> "1" NumeroTelemovel
    Pedidos - -> "1" CC
    Pedidos - -> "1" Estado
}

package "<<agr Utilizadores>>" {
    class Utilizadores<<entity>><<root>>{}
    class NomeUtilizador<<vo>>{}
    class EmailUtilizador<<vo>>{}
    class NumeroTelemovelUtilizador<<vo>>{}
    class CCUtilizador<<vo>>{}
    class Password<<vo>>{}

    Utilizadores - -> "1" NomeUtilizador
    Utilizadores - -> "1" EmailUtilizador
    Utilizadores - -> "1" NumeroTelemovelUtilizador
    Utilizadores - -> "1" CCUtilizador
    Utilizadores - -> "1" Password
}

package "<<agr Roles>>" {
    class Roles<<entity>><<root>>{}
    class NomeRole<<vo>>{}

    Roles - -> "1" NomeRole
    Utilizadores "*"- -> "1" Roles
}



@enduml

PlantUML version 1.2022.7(Mon Aug 22 18:01:30 BST 2022)
(GPL source distribution)
Java Runtime: OpenJDK Runtime Environment
JVM: OpenJDK 64-Bit Server VM
Default Encoding: Cp1252
Language: pt
Country: PT
--></g></svg>