<?xml version="1.0" encoding="UTF-8" standalone="no"?><svg xmlns="http://www.w3.org/2000/svg" xmlns:xlink="http://www.w3.org/1999/xlink" contentStyleType="text/css" height="2632px" preserveAspectRatio="none" style="width:528px;height:2632px;background:#282828;" version="1.1" viewBox="0 0 528 2632" width="528px" zoomAndPan="magnify"><defs/><g><!--MD5=[789400f16c9736cffff3fec1a1ceac03]
cluster <<agr Pedidos>>--><g id="cluster_&lt;&lt;agr Pedidos&gt;&gt;"><path d="M27,1370.1191 L250,1370.1191 A3.75,3.75 0 0 1 252.5,1372.6191 L259.5,1402.8564 L517.5,1402.8564 A2.5,2.5 0 0 1 520,1405.3564 L520,2622.6191 A2.5,2.5 0 0 1 517.5,2625.1191 L27,2625.1191 A2.5,2.5 0 0 1 24.5,2622.6191 L24.5,1372.6191 A2.5,2.5 0 0 1 27,1370.1191 " fill="#282828" style="stroke:#33FF33;stroke-width:1.0;"/><line style="stroke:#33FF33;stroke-width:1.0;" x1="24.5" x2="259.5" y1="1402.8564" y2="1402.8564"/><text fill="#33FF33" font-family="Verdana" font-size="22" font-weight="bold" lengthAdjust="spacing" textLength="222" x="28.5" y="1394.2373">&lt;&lt;agr Pedidos&gt;&gt;</text></g><!--MD5=[5208e7e0e1691a00f02141ae55b03e3e]
cluster <<agr Utilizadores>>--><g id="cluster_&lt;&lt;agr Utilizadores&gt;&gt;"><path d="M13.5,12.1191 L288.5,12.1191 A3.75,3.75 0 0 1 291,14.6191 L298,44.8564 L382.5,44.8564 A2.5,2.5 0 0 1 385,47.3564 L385,1072.6191 A2.5,2.5 0 0 1 382.5,1075.1191 L13.5,1075.1191 A2.5,2.5 0 0 1 11,1072.6191 L11,14.6191 A2.5,2.5 0 0 1 13.5,12.1191 " fill="#282828" style="stroke:#33FF33;stroke-width:1.0;"/><line style="stroke:#33FF33;stroke-width:1.0;" x1="11" x2="298" y1="44.8564" y2="44.8564"/><text fill="#33FF33" font-family="Verdana" font-size="22" font-weight="bold" lengthAdjust="spacing" textLength="274" x="15" y="36.2373">&lt;&lt;agr Utilizadores&gt;&gt;</text></g><!--MD5=[a9cdf53752a79b44a357572c9051fd42]
cluster <<agr Roles>>--><g id="cluster_&lt;&lt;agr Roles&gt;&gt;"><path d="M231.5,1164.1191 L425.5,1164.1191 A3.75,3.75 0 0 1 428,1166.6191 L435,1196.8564 L518.5,1196.8564 A2.5,2.5 0 0 1 521,1199.3564 L521,1278.6191 A2.5,2.5 0 0 1 518.5,1281.1191 L231.5,1281.1191 A2.5,2.5 0 0 1 229,1278.6191 L229,1166.6191 A2.5,2.5 0 0 1 231.5,1164.1191 " fill="#282828" style="stroke:#33FF33;stroke-width:1.0;"/><line style="stroke:#33FF33;stroke-width:1.0;" x1="229" x2="435" y1="1196.8564" y2="1196.8564"/><text fill="#33FF33" font-family="Verdana" font-size="22" font-weight="bold" lengthAdjust="spacing" textLength="193" x="233" y="1188.2373">&lt;&lt;agr Roles&gt;&gt;</text></g><!--MD5=[06efa4192fc66bd511e43d80de773cc3]
class Pedidos--><g id="elem_Pedidos"><rect codeLine="11" fill="#282828" height="56.1826" id="Pedidos" rx="2.5" ry="2.5" style="stroke:#33FF33;stroke-width:1.0;" width="60" x="40.5" y="1984.1191"/><text fill="#33FF33" font-family="Verdana" font-size="12" font-style="italic" lengthAdjust="spacing" textLength="51" x="45" y="2001.1836">«entity»</text><text fill="#33FF33" font-family="Verdana" font-size="12" font-style="italic" lengthAdjust="spacing" textLength="40" x="50.5" y="2015.7676">«root»</text><text fill="#33FF33" font-family="Verdana" font-size="14" lengthAdjust="spacing" textLength="54" x="43.5" y="2032.3623">Pedidos</text></g><!--MD5=[9b1b797ca6cfef31fef2358768b032f5]
class NomeCompleto--><g id="elem_NomeCompleto"><rect codeLine="13" fill="#282828" height="41.5986" id="NomeCompleto" rx="2.5" ry="2.5" style="stroke:#33FF33;stroke-width:1.0;" width="113" x="215" y="2567.1191"/><text fill="#33FF33" font-family="Verdana" font-size="12" font-style="italic" lengthAdjust="spacing" textLength="30" x="256.5" y="2584.1836">«vo»</text><text fill="#33FF33" font-family="Verdana" font-size="14" lengthAdjust="spacing" textLength="107" x="218" y="2600.7783">NomeCompleto</text></g><!--MD5=[f694847fc702e0723b49e5500a5c29a4]
class Username--><g id="elem_Username"><rect codeLine="14" fill="#282828" height="41.5986" id="Username" rx="2.5" ry="2.5" style="stroke:#33FF33;stroke-width:1.0;" width="76" x="233.5" y="2375.1191"/><text fill="#33FF33" font-family="Verdana" font-size="12" font-style="italic" lengthAdjust="spacing" textLength="30" x="256.5" y="2392.1836">«vo»</text><text fill="#33FF33" font-family="Verdana" font-size="14" lengthAdjust="spacing" textLength="70" x="236.5" y="2408.7783">Username</text></g><!--MD5=[78bec0fde86ad92ec1dc3fb343b83709]
class Email--><g id="elem_Email"><rect codeLine="15" fill="#282828" height="41.5986" id="Email" rx="2.5" ry="2.5" style="stroke:#33FF33;stroke-width:1.0;" width="42" x="250.5" y="2183.1191"/><text fill="#33FF33" font-family="Verdana" font-size="12" font-style="italic" lengthAdjust="spacing" textLength="30" x="256.5" y="2200.1836">«vo»</text><text fill="#33FF33" font-family="Verdana" font-size="14" lengthAdjust="spacing" textLength="36" x="253.5" y="2216.7783">Email</text></g><!--MD5=[d2fefcd7cef12dda62c040704d143a25]
class NumeroTelemovel--><g id="elem_NumeroTelemovel"><rect codeLine="16" fill="#282828" height="41.5986" id="NumeroTelemovel" rx="2.5" ry="2.5" style="stroke:#33FF33;stroke-width:1.0;" width="130" x="206.5" y="1991.1191"/><text fill="#33FF33" font-family="Verdana" font-size="12" font-style="italic" lengthAdjust="spacing" textLength="30" x="256.5" y="2008.1836">«vo»</text><text fill="#33FF33" font-family="Verdana" font-size="14" lengthAdjust="spacing" textLength="124" x="209.5" y="2024.7783">NumeroTelemovel</text></g><!--MD5=[6aecd51c4208337097d56a0a23607946]
class CC--><g id="elem_CC"><rect codeLine="17" fill="#282828" height="41.5986" id="CC" rx="2.5" ry="2.5" style="stroke:#33FF33;stroke-width:1.0;" width="32" x="255.5" y="1799.1191"/><text fill="#33FF33" font-family="Verdana" font-size="12" font-style="italic" lengthAdjust="spacing" textLength="30" x="256.5" y="1816.1836">«vo»</text><text fill="#33FF33" font-family="Verdana" font-size="14" lengthAdjust="spacing" textLength="20" x="261.5" y="1832.7783">CC</text></g><!--MD5=[d8933eb2ae217ae3c21bf6e2973c277f]
class Estado--><g id="elem_Estado"><rect codeLine="19" fill="#282828" height="41.5986" id="Estado" rx="2.5" ry="2.5" style="stroke:#33FF33;stroke-width:1.0;" width="55" x="244" y="1607.1191"/><text fill="#33FF33" font-family="Verdana" font-size="12" font-style="italic" lengthAdjust="spacing" textLength="51" x="246" y="1624.1836">«enum»</text><text fill="#33FF33" font-family="Verdana" font-size="14" lengthAdjust="spacing" textLength="49" x="247" y="1640.7783">Estado</text></g><!--MD5=[54b5a28cb19077f3fe2d6e19594cd8fc]
class Pendente--><g id="elem_Pendente"><rect codeLine="22" fill="#282828" height="27.0146" id="Pendente" rx="2.5" ry="2.5" style="stroke:#33FF33;stroke-width:1.0;" width="71" x="431.5" y="1791.6191"/><text fill="#33FF33" font-family="Verdana" font-size="14" lengthAdjust="spacing" textLength="65" x="434.5" y="1810.6943">Pendente</text></g><!--MD5=[a7ce6ac9bc1aa600479f1aabd0ec981a]
class Aceite--><g id="elem_Aceite"><rect codeLine="23" fill="#282828" height="27.0146" id="Aceite" rx="2.5" ry="2.5" style="stroke:#33FF33;stroke-width:1.0;" width="48" x="443" y="1614.6191"/><text fill="#33FF33" font-family="Verdana" font-size="14" lengthAdjust="spacing" textLength="42" x="446" y="1633.6943">Aceite</text></g><!--MD5=[ababb95411103ef8435f72810821763d]
class Recusado--><g id="elem_Recusado"><rect codeLine="24" fill="#282828" height="27.0146" id="Recusado" rx="2.5" ry="2.5" style="stroke:#33FF33;stroke-width:1.0;" width="74" x="430" y="1437.6191"/><text fill="#33FF33" font-family="Verdana" font-size="14" lengthAdjust="spacing" textLength="68" x="433" y="1456.6943">Recusado</text></g><!--MD5=[2f01b1126ff33a0669651ec2488a5ef9]
class Password--><g id="elem_Password"><rect codeLine="26" fill="#282828" height="41.5986" id="Password" rx="2.5" ry="2.5" style="stroke:#33FF33;stroke-width:1.0;" width="73" x="235" y="1415.1191"/><text fill="#33FF33" font-family="Verdana" font-size="12" font-style="italic" lengthAdjust="spacing" textLength="30" x="256.5" y="1432.1836">«vo»</text><text fill="#33FF33" font-family="Verdana" font-size="14" lengthAdjust="spacing" textLength="67" x="238" y="1448.7783">Password</text></g><!--MD5=[6e561e958559573d438bdabc7e6ec06e]
class Utilizadores--><g id="elem_Utilizadores"><rect codeLine="41" fill="#282828" height="56.1826" id="Utilizadores" rx="2.5" ry="2.5" style="stroke:#33FF33;stroke-width:1.0;" width="87" x="27" y="626.1191"/><text fill="#33FF33" font-family="Verdana" font-size="12" font-style="italic" lengthAdjust="spacing" textLength="51" x="45" y="643.1836">«entity»</text><text fill="#33FF33" font-family="Verdana" font-size="12" font-style="italic" lengthAdjust="spacing" textLength="40" x="50.5" y="657.7676">«root»</text><text fill="#33FF33" font-family="Verdana" font-size="14" lengthAdjust="spacing" textLength="81" x="30" y="674.3623">Utilizadores</text></g><!--MD5=[9e33ef909ffd18ea8385bc8443b729a3]
class NomeCompletoUtilizador--><g id="elem_NomeCompletoUtilizador"><rect codeLine="42" fill="#282828" height="41.5986" id="NomeCompletoUtilizador" rx="2.5" ry="2.5" style="stroke:#33FF33;stroke-width:1.0;" width="178" x="182.5" y="1017.1191"/><text fill="#33FF33" font-family="Verdana" font-size="12" font-style="italic" lengthAdjust="spacing" textLength="30" x="256.5" y="1034.1836">«vo»</text><text fill="#33FF33" font-family="Verdana" font-size="14" lengthAdjust="spacing" textLength="172" x="185.5" y="1050.7783">NomeCompletoUtilizador</text></g><!--MD5=[224c6a11cdcf1c974ddddf000c9a44e1]
class UsernameUtilizador--><g id="elem_UsernameUtilizador"><rect codeLine="43" fill="#282828" height="41.5986" id="UsernameUtilizador" rx="2.5" ry="2.5" style="stroke:#33FF33;stroke-width:1.0;" width="141" x="201" y="825.1191"/><text fill="#33FF33" font-family="Verdana" font-size="12" font-style="italic" lengthAdjust="spacing" textLength="30" x="256.5" y="842.1836">«vo»</text><text fill="#33FF33" font-family="Verdana" font-size="14" lengthAdjust="spacing" textLength="135" x="204" y="858.7783">UsernameUtilizador</text></g><!--MD5=[bd6a2bc95b1c4710877167acfcc5d503]
class EmailUtilizador--><g id="elem_EmailUtilizador"><rect codeLine="44" fill="#282828" height="41.5986" id="EmailUtilizador" rx="2.5" ry="2.5" style="stroke:#33FF33;stroke-width:1.0;" width="107" x="218" y="633.1191"/><text fill="#33FF33" font-family="Verdana" font-size="12" font-style="italic" lengthAdjust="spacing" textLength="30" x="256.5" y="650.1836">«vo»</text><text fill="#33FF33" font-family="Verdana" font-size="14" lengthAdjust="spacing" textLength="101" x="221" y="666.7783">EmailUtilizador</text></g><!--MD5=[f28d962a04ae0b7c67040af07eef093c]
class NumeroTelemovelUtilizador--><g id="elem_NumeroTelemovelUtilizador"><rect codeLine="45" fill="#282828" height="41.5986" id="NumeroTelemovelUtilizador" rx="2.5" ry="2.5" style="stroke:#33FF33;stroke-width:1.0;" width="195" x="174" y="441.1191"/><text fill="#33FF33" font-family="Verdana" font-size="12" font-style="italic" lengthAdjust="spacing" textLength="30" x="256.5" y="458.1836">«vo»</text><text fill="#33FF33" font-family="Verdana" font-size="14" lengthAdjust="spacing" textLength="189" x="177" y="474.7783">NumeroTelemovelUtilizador</text></g><!--MD5=[5261951a06abc1b47aa1ac7e2db668cd]
class CCUtilizador--><g id="elem_CCUtilizador"><rect codeLine="46" fill="#282828" height="41.5986" id="CCUtilizador" rx="2.5" ry="2.5" style="stroke:#33FF33;stroke-width:1.0;" width="91" x="226" y="249.1191"/><text fill="#33FF33" font-family="Verdana" font-size="12" font-style="italic" lengthAdjust="spacing" textLength="30" x="256.5" y="266.1836">«vo»</text><text fill="#33FF33" font-family="Verdana" font-size="14" lengthAdjust="spacing" textLength="85" x="229" y="282.7783">CCUtilizador</text></g><!--MD5=[859c7b709d3636c7e74c902608e54708]
class PasswordUtilizador--><g id="elem_PasswordUtilizador"><rect codeLine="47" fill="#282828" height="41.5986" id="PasswordUtilizador" rx="2.5" ry="2.5" style="stroke:#33FF33;stroke-width:1.0;" width="138" x="202.5" y="57.1191"/><text fill="#33FF33" font-family="Verdana" font-size="12" font-style="italic" lengthAdjust="spacing" textLength="30" x="256.5" y="74.1836">«vo»</text><text fill="#33FF33" font-family="Verdana" font-size="14" lengthAdjust="spacing" textLength="132" x="205.5" y="90.7783">PasswordUtilizador</text></g><!--MD5=[d880429f06877f77d04df3530938df96]
class Roles--><g id="elem_Roles"><rect codeLine="58" fill="#282828" height="56.1826" id="Roles" rx="2.5" ry="2.5" style="stroke:#33FF33;stroke-width:1.0;" width="53" x="245" y="1209.1191"/><text fill="#33FF33" font-family="Verdana" font-size="12" font-style="italic" lengthAdjust="spacing" textLength="51" x="246" y="1226.1836">«entity»</text><text fill="#33FF33" font-family="Verdana" font-size="12" font-style="italic" lengthAdjust="spacing" textLength="40" x="251.5" y="1240.7676">«root»</text><text fill="#33FF33" font-family="Verdana" font-size="14" lengthAdjust="spacing" textLength="38" x="252.5" y="1257.3623">Roles</text></g><!--MD5=[d9222d55fe4aa74b25809312524d587e]
class NomeRole--><g id="elem_NomeRole"><rect codeLine="59" fill="#282828" height="41.5986" id="NomeRole" rx="2.5" ry="2.5" style="stroke:#33FF33;stroke-width:1.0;" width="76" x="429" y="1216.1191"/><text fill="#33FF33" font-family="Verdana" font-size="12" font-style="italic" lengthAdjust="spacing" textLength="30" x="452" y="1233.1836">«vo»</text><text fill="#33FF33" font-family="Verdana" font-size="14" lengthAdjust="spacing" textLength="70" x="432" y="1249.7783">NomeRole</text></g><!--MD5=[9dadda41079bbc895ef9c2aa139415e0]
link Pedidos to NomeCompleto--><g id="link_Pedidos_NomeCompleto"><path codeLine="28" d="M72.02,2040.2791 C74.55,2117.4191 89.25,2336.6891 174,2492.1191 C189.55,2520.6391 216.22,2546.2091 237.59,2563.7691 " fill="none" id="Pedidos-to-NomeCompleto" style="stroke:#33FF33;stroke-width:1.0;"/><polygon fill="#33FF33" points="241.51,2566.9591,237.0632,2558.1713,237.6351,2563.7992,232.0073,2564.3711,241.51,2566.9591" style="stroke:#33FF33;stroke-width:1.0;"/><text fill="#33FF33" font-family="Verdana" font-size="13" lengthAdjust="spacing" textLength="8" x="223.1006" y="2556.4357">1</text></g><!--MD5=[3c9dc91a4c950f21f85c9417886d53f0]
link Pedidos to Username--><g id="link_Pedidos_Username"><path codeLine="29" d="M77.1,2040.1391 C88.75,2093.8491 119.16,2213.6091 174,2300.1191 C191.63,2327.9291 218.65,2353.8991 239.62,2371.7991 " fill="none" id="Pedidos-to-Username" style="stroke:#33FF33;stroke-width:1.0;"/><polygon fill="#33FF33" points="243.46,2375.0491,239.1748,2366.1814,239.6436,2371.8188,234.0062,2372.2876,243.46,2375.0491" style="stroke:#33FF33;stroke-width:1.0;"/><text fill="#33FF33" font-family="Verdana" font-size="13" lengthAdjust="spacing" textLength="8" x="225.6478" y="2364.5533">1</text></g><!--MD5=[d31e87df5da257e3de15164f25b739c0]
link Pedidos to Email--><g id="link_Pedidos_Email"><path codeLine="30" d="M100.86,2040.4491 C140.4,2078.5891 209.99,2145.7391 246.54,2180.9991 " fill="none" id="Pedidos-to-Email" style="stroke:#33FF33;stroke-width:1.0;"/><polygon fill="#33FF33" points="250.4,2184.7291,246.6979,2175.6025,246.8008,2181.2585,241.1449,2181.3613,250.4,2184.7291" style="stroke:#33FF33;stroke-width:1.0;"/><text fill="#33FF33" font-family="Verdana" font-size="13" lengthAdjust="spacing" textLength="8" x="234.3994" y="2194.2004">1</text></g><!--MD5=[ae56c3d654d35847166f05eeab426554]
link Pedidos to NumeroTelemovel--><g id="link_Pedidos_NumeroTelemovel"><path codeLine="31" d="M100.86,2012.1191 C127.24,2012.1191 167.01,2012.1191 201.41,2012.1191 " fill="none" id="Pedidos-to-NumeroTelemovel" style="stroke:#33FF33;stroke-width:1.0;"/><polygon fill="#33FF33" points="206.44,2012.1191,197.44,2008.1191,201.44,2012.1191,197.44,2016.1191,206.44,2012.1191" style="stroke:#33FF33;stroke-width:1.0;"/><text fill="#33FF33" font-family="Verdana" font-size="13" lengthAdjust="spacing" textLength="8" x="190.4549" y="2026.1256">1</text></g><!--MD5=[5fe59bcd7610e35347666e14e9a65d5e]
link Pedidos to CC--><g id="link_Pedidos_CC"><path codeLine="32" d="M100.86,1983.7891 C142.38,1943.7291 217.05,1871.6891 251.78,1838.1791 " fill="none" id="Pedidos-to-CC" style="stroke:#33FF33;stroke-width:1.0;"/><polygon fill="#33FF33" points="255.42,1834.6691,246.1649,1838.037,251.8208,1838.1398,251.7179,1843.7957,255.42,1834.6691" style="stroke:#33FF33;stroke-width:1.0;"/><text fill="#33FF33" font-family="Verdana" font-size="13" lengthAdjust="spacing" textLength="8" x="239.5135" y="1856.6575">1</text></g><!--MD5=[685591609060b9ef39e39a26fdc58464]
link Pedidos to Estado--><g id="link_Pedidos_Estado"><path codeLine="33" d="M77.1,1984.0991 C88.75,1930.3891 119.16,1810.6291 174,1724.1191 C191.75,1696.1191 219.02,1669.9791 240.05,1652.0691 " fill="none" id="Pedidos-to-Estado" style="stroke:#33FF33;stroke-width:1.0;"/><polygon fill="#33FF33" points="243.9,1648.8291,234.4352,1651.5526,240.0706,1652.0441,239.5791,1657.6796,243.9,1648.8291" style="stroke:#33FF33;stroke-width:1.0;"/><text fill="#33FF33" font-family="Verdana" font-size="13" lengthAdjust="spacing" textLength="8" x="228.1975" y="1668.9215">1</text></g><!--MD5=[951a148967eada1bed4c6942ab70b15f]
link Estado to Pendente--><g id="link_Estado_Pendente"><path codeLine="34" d="M299.39,1647.5291 C324.51,1666.1291 362.61,1695.5291 393,1724.1191 C414.73,1744.5691 437.38,1770.5491 451.58,1787.4891 " fill="none" id="Estado-to-Pendente" style="stroke:#33FF33;stroke-width:1.0;"/><polygon fill="#33FF33" points="455,1791.5991,452.3147,1782.1234,451.8005,1787.7569,446.167,1787.2427,455,1791.5991" style="stroke:#33FF33;stroke-width:1.0;"/><text fill="#33FF33" font-family="Verdana" font-size="13" lengthAdjust="spacing" textLength="8" x="440" y="1780.6444">1</text></g><!--MD5=[fb63e367499606cbfafcf2eb74a24718]
link Estado to Aceite--><g id="link_Estado_Aceite"><path codeLine="35" d="M299.41,1628.1191 C335.83,1628.1191 400.53,1628.1191 437.67,1628.1191 " fill="none" id="Estado-to-Aceite" style="stroke:#33FF33;stroke-width:1.0;"/><polygon fill="#33FF33" points="442.95,1628.1191,433.95,1624.1191,437.95,1628.1191,433.95,1632.1191,442.95,1628.1191" style="stroke:#33FF33;stroke-width:1.0;"/><text fill="#33FF33" font-family="Verdana" font-size="13" lengthAdjust="spacing" textLength="8" x="427.0609" y="1643.4087">1</text></g><!--MD5=[8e2def60141bae3e07a9bb1c1fc7622e]
link Estado to Recusado--><g id="link_Estado_Recusado"><path codeLine="36" d="M299.39,1608.7091 C324.51,1590.1091 362.61,1560.7091 393,1532.1191 C414.73,1511.6691 437.38,1485.6891 451.58,1468.7491 " fill="none" id="Estado-to-Recusado" style="stroke:#33FF33;stroke-width:1.0;"/><polygon fill="#33FF33" points="455,1464.6391,446.167,1468.9956,451.8005,1468.4814,452.3147,1474.1149,455,1464.6391" style="stroke:#33FF33;stroke-width:1.0;"/><text fill="#33FF33" font-family="Verdana" font-size="13" lengthAdjust="spacing" textLength="8" x="441.1" y="1485.6048">1</text></g><!--MD5=[452514a462d92d701ce21c08cace5cee]
link Pedidos to Password--><g id="link_Pedidos_Password"><path codeLine="37" d="M72.02,1983.9591 C74.55,1906.8191 89.25,1687.5491 174,1532.1191 C189.55,1503.5991 216.22,1478.0291 237.59,1460.4691 " fill="none" id="Pedidos-to-Password" style="stroke:#33FF33;stroke-width:1.0;"/><polygon fill="#33FF33" points="241.51,1457.2791,232.0073,1459.8672,237.6351,1460.4391,237.0632,1466.067,241.51,1457.2791" style="stroke:#33FF33;stroke-width:1.0;"/><text fill="#33FF33" font-family="Verdana" font-size="13" lengthAdjust="spacing" textLength="8" x="224.8001" y="1477.8469">1</text></g><!--MD5=[4543968d632e1ad4872e5b2daf192f32]
link Utilizadores to UsernameUtilizador--><g id="link_Utilizadores_UsernameUtilizador"><path codeLine="49" d="M100.86,682.4491 C139.77,719.9891 207.8,785.6191 244.78,821.3091 " fill="none" id="Utilizadores-to-UsernameUtilizador" style="stroke:#33FF33;stroke-width:1.0;"/><polygon fill="#33FF33" points="248.7,825.0791,244.9979,815.9525,245.1008,821.6085,239.4449,821.7113,248.7,825.0791" style="stroke:#33FF33;stroke-width:1.0;"/><text fill="#33FF33" font-family="Verdana" font-size="13" lengthAdjust="spacing" textLength="8" x="232.1575" y="814.2432">1</text></g><!--MD5=[2646d2b171ef7e0bab1635144421d621]
link Utilizadores to NomeCompletoUtilizador--><g id="link_Utilizadores_NomeCompletoUtilizador"><path codeLine="50" d="M77.1,682.1391 C88.75,735.8491 119.16,855.6091 174,942.1191 C191.63,969.9291 218.65,995.8991 239.62,1013.7991 " fill="none" id="Utilizadores-to-NomeCompletoUtilizador" style="stroke:#33FF33;stroke-width:1.0;"/><polygon fill="#33FF33" points="243.46,1017.0491,239.1748,1008.1814,239.6436,1013.8188,234.0062,1014.2876,243.46,1017.0491" style="stroke:#33FF33;stroke-width:1.0;"/><text fill="#33FF33" font-family="Verdana" font-size="13" lengthAdjust="spacing" textLength="8" x="225.6478" y="1006.5533">1</text></g><!--MD5=[6ef661f228268e40d6cf7115e7ff1015]
link Utilizadores to EmailUtilizador--><g id="link_Utilizadores_EmailUtilizador"><path codeLine="51" d="M114.19,654.1191 C142.91,654.1191 181.12,654.1191 212.57,654.1191 " fill="none" id="Utilizadores-to-EmailUtilizador" style="stroke:#33FF33;stroke-width:1.0;"/><polygon fill="#33FF33" points="217.96,654.1191,208.96,650.1191,212.96,654.1191,208.96,658.1191,217.96,654.1191" style="stroke:#33FF33;stroke-width:1.0;"/><text fill="#33FF33" font-family="Verdana" font-size="13" lengthAdjust="spacing" textLength="8" x="201.8684" y="668.3281">1</text></g><!--MD5=[86b4fe74b49a45acaf06010442d2ed4c]
link Utilizadores to NumeroTelemovelUtilizador--><g id="link_Utilizadores_NumeroTelemovelUtilizador"><path codeLine="52" d="M100.86,625.7891 C139.77,588.2491 207.8,522.6191 244.78,486.9291 " fill="none" id="Utilizadores-to-NumeroTelemovelUtilizador" style="stroke:#33FF33;stroke-width:1.0;"/><polygon fill="#33FF33" points="248.7,483.1591,239.4449,486.527,245.1008,486.6298,244.9979,492.2857,248.7,483.1591" style="stroke:#33FF33;stroke-width:1.0;"/><text fill="#33FF33" font-family="Verdana" font-size="13" lengthAdjust="spacing" textLength="8" x="233.8325" y="503.6962">1</text></g><!--MD5=[fc3052271d0884c34b61d96bbd72d8fb]
link Utilizadores to CCUtilizador--><g id="link_Utilizadores_CCUtilizador"><path codeLine="53" d="M77.1,626.0991 C88.75,572.3891 119.16,452.6291 174,366.1191 C191.63,338.3091 218.65,312.3391 239.62,294.4391 " fill="none" id="Utilizadores-to-CCUtilizador" style="stroke:#33FF33;stroke-width:1.0;"/><polygon fill="#33FF33" points="243.46,291.1891,234.0062,293.9507,239.6436,294.4195,239.1748,300.0569,243.46,291.1891" style="stroke:#33FF33;stroke-width:1.0;"/><text fill="#33FF33" font-family="Verdana" font-size="13" lengthAdjust="spacing" textLength="8" x="227.2498" y="311.7339">1</text></g><!--MD5=[9bb1313f2212d01958d81fe169f8da31]
link Utilizadores to PasswordUtilizador--><g id="link_Utilizadores_PasswordUtilizador"><path codeLine="54" d="M72.02,625.9591 C74.55,548.8191 89.25,329.5491 174,174.1191 C189.55,145.5991 216.22,120.0291 237.59,102.4691 " fill="none" id="Utilizadores-to-PasswordUtilizador" style="stroke:#33FF33;stroke-width:1.0;"/><polygon fill="#33FF33" points="241.51,99.2791,232.0073,101.8672,237.6351,102.4391,237.0632,108.067,241.51,99.2791" style="stroke:#33FF33;stroke-width:1.0;"/><text fill="#33FF33" font-family="Verdana" font-size="13" lengthAdjust="spacing" textLength="8" x="224.8001" y="119.8469">1</text></g><!--MD5=[287cbad3417200bf6ae78d4db6f987a7]
link Roles to NomeRole--><g id="link_Roles_NomeRole"><path codeLine="61" d="M298.2,1237.1191 C330.27,1237.1191 385.56,1237.1191 423.87,1237.1191 " fill="none" id="Roles-to-NomeRole" style="stroke:#33FF33;stroke-width:1.0;"/><polygon fill="#33FF33" points="428.92,1237.1191,419.92,1233.1191,423.92,1237.1191,419.92,1241.1191,428.92,1237.1191" style="stroke:#33FF33;stroke-width:1.0;"/><text fill="#33FF33" font-family="Verdana" font-size="13" lengthAdjust="spacing" textLength="8" x="412.8985" y="1251.7331">1</text></g><!--MD5=[00cbae90755e9d390a7fcddd8adb06cd]
link Utilizadores to Roles--><g id="link_Utilizadores_Roles"><path codeLine="62" d="M73.95,682.2391 C81.12,754.9891 105.99,954.1591 174,1104.1191 C191.11,1141.8491 219.87,1179.5791 241.55,1205.1591 " fill="none" id="Utilizadores-to-Roles" style="stroke:#33FF33;stroke-width:1.0;"/><polygon fill="#33FF33" points="244.96,1209.1591,242.1779,1199.7114,241.7213,1205.3498,236.0829,1204.8932,244.96,1209.1591" style="stroke:#33FF33;stroke-width:1.0;"/><text fill="#33FF33" font-family="Verdana" font-size="13" lengthAdjust="spacing" textLength="9" x="64.7203" y="703.1683">*</text><text fill="#33FF33" font-family="Verdana" font-size="13" lengthAdjust="spacing" textLength="8" x="229.1341" y="1217.0651">1</text></g><!--MD5=[3ce2bd95de38175014f1c6b32b386ea1]
@startuml DM

hide circle
hide fields

!theme crt-green
skinparam nodesep 150
hide empty members
left to right direction

package "<<agr Pedidos>>" {
    class Pedidos <<entity>> <<root>> {}

    class NomeCompleto <<vo>> {}
    class Username <<vo>> {}
    class Email <<vo>> {}
    class NumeroTelemovel <<vo>> {}
    class CC <<vo>> {}

    enum Estado <<enum>> {
    }

    class Pendente {}
    class Aceite {}
    class Recusado{}

    class Password <<vo>> {}

    Pedidos - -> "1" NomeCompleto
    Pedidos - -> "1" Username
    Pedidos - -> "1" Email
    Pedidos - -> "1" NumeroTelemovel
    Pedidos - -> "1" CC
    Pedidos - -> "1" Estado 
    Estado - -> "1" Pendente
    Estado - -> "1" Aceite
    Estado - -> "1" Recusado
    Pedidos - -> "1" Password
}

package "<<agr Utilizadores>>" {
    class Utilizadores<<entity>><<root>>{}
    class NomeCompletoUtilizador<<vo>>{}
    class UsernameUtilizador<<vo>>{}
    class EmailUtilizador<<vo>>{}
    class NumeroTelemovelUtilizador<<vo>>{}
    class CCUtilizador<<vo>>{}
    class PasswordUtilizador<<vo>>{}

    Utilizadores - -> "1" UsernameUtilizador
    Utilizadores - -> "1" NomeCompletoUtilizador
    Utilizadores - -> "1" EmailUtilizador
    Utilizadores - -> "1" NumeroTelemovelUtilizador
    Utilizadores - -> "1" CCUtilizador
    Utilizadores - -> "1" PasswordUtilizador
}

package "<<agr Roles>>" {
    class Roles<<entity>><<root>>{}
    class NomeRole<<vo>>{}

    Roles - -> "1" NomeRole
    Utilizadores "*"- -> "1" Roles
}



@enduml

@startuml DM

hide circle
hide fields






<style>
  root {
    BackgroundColor #282828
    FontColor #33FF33
    FontName Verdana
    HyperLinkColor #33FF33
    LineColor #33FF33
    LineThickness 1
    Margin 5
  }
  box {
    LineStyle 12-18
    LineThickness 3
  }
  caption {
    LineThickness 0
  }
  footer {
    LineThickness 0
  }
  groupHeader {
    BackgroundColor #33FF33
    FontColor #282828
    FontStyle bold
  }
  header {
    LineThickness 0
  }
  node {
    MaximumWidth 300
  }
  referenceHeader {
    BackgroundColor #33FF33
    FontColor #282828
    FontStyle bold
  }
  separator {
    BackgroundColor #33FF33
    FontColor #282828
    FontStyle bold
  }
  title {
    FontSize 22
    LineThickness 0
  }
</style>

skinparam ArrowLollipopColor #33FF33
skinparam BackgroundColor #282828
skinparam DefaultFontName Verdana
skinparam DefaultMonospacedFontName Courier
skinparam LifelineStrategy solid
skinparam ParticipantPadding 10
skinparam SequenceLifeLineBorderColor #33FF33
skinparam Shadowing false
skinparam UseBetaStyle true

skinparam Activity {
  BackgroundColor #282828
  BarColor #33FF33
  BorderColor #33FF33
  FontColor #33FF33
  FontName Verdana
}
skinparam Boundary {
  FontColor #33FF33
}
skinparam Box {
  Padding 5
}
skinparam CircledCharacter {
  FontColor #282828
  FontName Courier
  Radius 9
}
skinparam Class {
  BackgroundColor #282828
  BorderColor #33FF33
  FontColor #33FF33
  FontName Verdana
}
skinparam ClassAttribute {
  FontColor #33FF33
  FontName Verdana
}
skinparam ClassStereotype {
  FontColor #33FF33
  FontName Verdana
}
skinparam Footer {
  FontColor #33FF33
  FontName Verdana
}
skinparam Header {
  FontColor #33FF33
  FontName Verdana
}
skinparam Hyperlink {
  Color #33FF33
}
skinparam IconPackage {
  Color #33FF33
  BackgroundColor #282828
}
skinparam IconPrivate {
  Color #33FF33
  BackgroundColor #282828
}
skinparam IconProtected {
  Color #33FF33
  BackgroundColor #282828
}
skinparam IconPublic {
  Color #33FF33
  BackgroundColor #282828
}
skinparam Note {
  FontColor #33FF33
  FontName Verdana
}
skinparam Object {
  BorderColor #33FF33
}
skinparam Package {
  BorderColor #33FF33
  FontColor #33FF33
  FontName Verdana
}
skinparam State {
  BackgroundColor #282828
  BorderColor #33FF33
}
skinparam StereotypeA {
  BackgroundColor #33FF33
  BorderColor #33FF33
}
skinparam StereotypeC {
  BackgroundColor #33FF33
  BorderColor #33FF33
}
skinparam StereotypeE {
  BackgroundColor #33FF33
  BorderColor #33FF33
}
skinparam StereotypeI {
  BackgroundColor #33FF33
  BorderColor #33FF33
}
skinparam StereotypeN {
  BackgroundColor #33FF33
  BorderColor #33FF33
}
skinparam UseCaseStereoType {
  FontColor #33FF33
  FontName Verdana
}
skinparam nodesep 150
hide empty members
left to right direction

package "<<agr Pedidos>>" {
    class Pedidos <<entity>> <<root>> {}

    class NomeCompleto <<vo>> {}
    class Username <<vo>> {}
    class Email <<vo>> {}
    class NumeroTelemovel <<vo>> {}
    class CC <<vo>> {}

    enum Estado <<enum>> {
    }

    class Pendente {}
    class Aceite {}
    class Recusado{}

    class Password <<vo>> {}

    Pedidos - -> "1" NomeCompleto
    Pedidos - -> "1" Username
    Pedidos - -> "1" Email
    Pedidos - -> "1" NumeroTelemovel
    Pedidos - -> "1" CC
    Pedidos - -> "1" Estado 
    Estado - -> "1" Pendente
    Estado - -> "1" Aceite
    Estado - -> "1" Recusado
    Pedidos - -> "1" Password
}

package "<<agr Utilizadores>>" {
    class Utilizadores<<entity>><<root>>{}
    class NomeCompletoUtilizador<<vo>>{}
    class UsernameUtilizador<<vo>>{}
    class EmailUtilizador<<vo>>{}
    class NumeroTelemovelUtilizador<<vo>>{}
    class CCUtilizador<<vo>>{}
    class PasswordUtilizador<<vo>>{}

    Utilizadores - -> "1" UsernameUtilizador
    Utilizadores - -> "1" NomeCompletoUtilizador
    Utilizadores - -> "1" EmailUtilizador
    Utilizadores - -> "1" NumeroTelemovelUtilizador
    Utilizadores - -> "1" CCUtilizador
    Utilizadores - -> "1" PasswordUtilizador
}

package "<<agr Roles>>" {
    class Roles<<entity>><<root>>{}
    class NomeRole<<vo>>{}

    Roles - -> "1" NomeRole
    Utilizadores "*"- -> "1" Roles
}



@enduml

PlantUML version 1.2022.7(Mon Aug 22 18:01:30 BST 2022)
(GPL source distribution)
Java Runtime: OpenJDK Runtime Environment
JVM: OpenJDK 64-Bit Server VM
Default Encoding: Cp1252
Language: pt
Country: PT
--></g></svg>